<?xml version="1.0" encoding="utf-8"?>
<!-- Generator: Adobe Illustrator 27.6.1, SVG Export Plug-In . SVG Version: 6.00 Build 0)  -->
<svg version="1.1" xmlns="http://www.w3.org/2000/svg" xmlns:xlink="http://www.w3.org/1999/xlink" x="0px" y="0px"
	 viewBox="0 0 3000 3000" style="enable-background:new 0 0 3000 3000;" xml:space="preserve">
<style type="text/css">
	.st0{display:none;}
	.st1{display:inline;}
	.st2{fill:#FFFFFF;}
	.st3{display:inline;fill:#FFFFFF;}
</style>
<g id="Camada_1" class="st0">
	<g class="st1">
		<path class="st2" d="M-901.91,1208.03l140.96-132.97l-626.76-344.59c-9.32-5.13-19.06-7.26-28.67-7.75L-901.91,1208.03z"/>
		<path class="st2" d="M-1477.96,756.72c-5.19,9.37-8.4,20.15-8.4,32.08v930.56c0,11.93,3.21,22.7,8.4,32.08l527.24-497.36
			L-1477.96,756.72z"/>
		<path class="st2" d="M-541.44,1195.74l-157.83-86.77l-153.83,145.12l153.83,145.11l157.83-86.77
			C-495.44,1287.13-495.44,1221.03-541.44,1195.74z"/>
		<path class="st2" d="M-901.91,1300.13l-514.47,485.31c9.61-0.49,19.35-2.62,28.67-7.75l626.76-344.59L-901.91,1300.13z"/>
	</g>
	<g class="st1">
		<g>
			<path class="st2" d="M-2714.14,1580.27l-49.5,84.76c-22.05,37.76-9.32,86.25,28.45,108.3c12.56,7.33,26.3,10.82,39.85,10.82
				c27.22,0,53.73-14.06,68.45-39.26l96.12-164.62H-2714.14z"/>
			<path class="st2" d="M-2128.77,734.81c-37.76-22.04-86.25-9.32-108.3,28.45l-455.05,779.31h183.38l408.42-699.46
				C-2078.28,805.35-2091.01,756.86-2128.77,734.81z"/>
		</g>
		<g>
			<path class="st2" d="M-2162.06,1383.86h-628.05c-43.73,0-79.18,35.45-79.18,79.18s35.45,79.18,79.18,79.18h719.48
				L-2162.06,1383.86z"/>
			<path class="st2" d="M-1745.86,1383.86h-372.67l91.43,158.35h281.24c43.73,0,79.18-35.45,79.18-79.18
				S-1702.13,1383.86-1745.86,1383.86z"/>
		</g>
		<g>
			<path class="st2" d="M-2174.55,969.44l-119.58-207.12c-21.86-37.87-70.28-50.85-108.15-28.98
				c-37.87,21.86-50.85,70.28-28.98,108.15l165,285.79L-2174.55,969.44z"/>
			<path class="st2" d="M-1772,1666.66l-380.81-659.58l-91.71,157.85l335.39,580.91c14.66,25.41,41.28,39.6,68.64,39.6
				c13.43,0,27.05-3.42,39.52-10.63C-1763.11,1752.95-1750.13,1704.54-1772,1666.66z"/>
		</g>
	</g>
	<g class="st1">
		<g>
			<path class="st2" d="M1006.34-1077.9c130.74,0,146.23,0.5,197.86,2.85c47.74,2.18,73.67,10.15,90.92,16.86
				c22.85,8.88,39.17,19.49,56.3,36.63c17.13,17.13,27.74,33.45,36.63,56.3c6.71,17.25,14.68,43.18,16.86,90.92
				c2.36,51.63,2.85,67.12,2.85,197.86s-0.5,146.23-2.85,197.86c-2.18,47.74-10.15,73.67-16.86,90.92
				c-8.88,22.85-19.49,39.17-36.63,56.3c-17.13,17.13-33.45,27.75-56.3,36.63c-17.25,6.71-43.18,14.68-90.92,16.86
				c-51.62,2.35-67.11,2.85-197.86,2.85c-130.75,0-146.24-0.5-197.86-2.85c-47.74-2.18-73.67-10.15-90.92-16.86
				c-22.85-8.88-39.17-19.49-56.3-36.63c-17.13-17.13-27.75-33.45-36.63-56.3c-6.71-17.25-14.68-43.18-16.86-90.92
				c-2.35-51.63-2.85-67.12-2.85-197.86s0.5-146.23,2.85-197.86c2.18-47.74,10.15-73.67,16.86-90.92
				c8.88-22.85,19.49-39.17,36.63-56.3c17.13-17.13,33.45-27.75,56.3-36.63c17.25-6.71,43.18-14.68,90.92-16.86
				C860.12-1077.4,875.6-1077.9,1006.34-1077.9 M1006.34-1166.12c-132.98,0-149.66,0.56-201.88,2.95
				c-52.12,2.38-87.71,10.66-118.86,22.76c-32.2,12.51-59.5,29.26-86.73,56.48c-27.22,27.22-43.96,54.53-56.48,86.73
				c-12.1,31.15-20.38,66.74-22.76,118.86c-2.38,52.23-2.95,68.9-2.95,201.88c0,132.98,0.56,149.65,2.95,201.88
				c2.38,52.12,10.66,87.71,22.76,118.86c12.51,32.2,29.26,59.5,56.48,86.73c27.22,27.22,54.53,43.96,86.73,56.48
				c31.15,12.1,66.74,20.38,118.86,22.76c52.23,2.38,68.9,2.95,201.88,2.95c132.98,0,149.65-0.56,201.88-2.95
				c52.12-2.38,87.71-10.66,118.86-22.76c32.2-12.51,59.5-29.26,86.73-56.48c27.22-27.22,43.96-54.53,56.48-86.73
				c12.1-31.15,20.38-66.74,22.76-118.86c2.38-52.23,2.95-68.9,2.95-201.88s-0.56-149.65-2.95-201.88
				c-2.38-52.12-10.66-87.71-22.76-118.86c-12.51-32.2-29.26-59.5-56.48-86.73c-27.22-27.22-54.53-43.96-86.73-56.48
				c-31.15-12.1-66.74-20.38-118.86-22.76C1156-1165.56,1139.32-1166.12,1006.34-1166.12L1006.34-1166.12z"/>
			<path class="st2" d="M1006.34-927.92c-138.87,0-251.44,112.57-251.44,251.44s112.57,251.44,251.44,251.44
				c138.87,0,251.44-112.57,251.44-251.44S1145.21-927.92,1006.34-927.92z M1006.34-513.26c-90.14,0-163.22-73.08-163.22-163.22
				s73.08-163.22,163.22-163.22s163.22,73.08,163.22,163.22S1096.48-513.26,1006.34-513.26z"/>
			<circle class="st2" cx="1267.72" cy="-937.85" r="58.76"/>
		</g>
	</g>
	<g class="st1">
		<g>
			<path class="st2" d="M1953.95-270.49c377.03,0,583.22-312.36,583.22-583.22c0-8.88-0.18-17.71-0.59-26.5
				c40.02-28.93,74.81-65.03,102.26-106.13c-36.73,16.31-76.26,27.31-117.72,32.27c42.32-25.37,74.81-65.53,90.14-113.39
				c-39.62,23.48-83.47,40.56-130.16,49.75c-37.41-39.84-90.68-64.76-149.62-64.76c-113.21,0-205.01,91.8-205.01,204.97
				c0,16.09,1.8,31.73,5.32,46.74c-170.36-8.56-321.42-90.14-422.51-214.16c-17.62,30.28-27.76,65.48-27.76,103.02
				c0,71.12,36.19,133.9,91.22,170.62c-33.62-1.03-65.21-10.27-92.84-25.64c-0.04,0.86-0.04,1.71-0.04,2.61
				c0,99.28,70.67,182.16,164.45,200.96c-17.22,4.68-35.33,7.21-54.04,7.21c-13.21,0-26.05-1.31-38.53-3.7
				c26.09,81.44,101.76,140.7,191.49,142.37c-70.17,54.98-158.55,87.74-254.59,87.74c-16.54,0-32.85-0.95-48.9-2.84
				C1730.46-304.42,1838.17-270.49,1953.95-270.49"/>
		</g>
	</g>
	<path class="st3" d="M338.84-619.43l26.98-175.89H197.06v-114.14c0-48.12,23.57-95.03,99.16-95.03h76.73v-149.75
		c0,0-69.64-11.88-136.21-11.88c-138.99,0-229.84,84.24-229.84,236.74v134.06h-154.5v175.89H6.9v425.21
		c30.98,4.86,62.73,7.39,95.08,7.39s64.1-2.53,95.08-7.39v-425.21H338.84z"/>
	<path class="st3" d="M-412.6-918.28c-12.61-47.18-49.77-84.35-96.96-96.96c-85.52-22.92-428.46-22.92-428.46-22.92
		s-342.94,0-428.46,22.92c-47.19,12.61-84.35,49.77-96.96,96.96c-22.92,85.52-22.92,263.96-22.92,263.96s0,178.44,22.92,263.96
		c12.61,47.18,49.77,84.34,96.96,96.96c85.52,22.91,428.46,22.91,428.46,22.91s342.94,0,428.46-22.91
		c47.18-12.61,84.35-49.77,96.96-96.96c22.92-85.52,22.92-263.96,22.92-263.96S-389.69-832.76-412.6-918.28z M-1047.69-489.82v-329
		l284.91,164.51L-1047.69-489.82z"/>
</g>
<g id="Camada_2">
	<g>
		<g>
			<path class="st2" d="M1500,1098.58c130.74,0,146.23,0.5,197.86,2.85c47.74,2.18,73.67,10.15,90.92,16.86
				c22.85,8.88,39.17,19.49,56.3,36.63c17.13,17.13,27.74,33.45,36.63,56.3c6.71,17.25,14.68,43.18,16.86,90.92
				c2.36,51.63,2.85,67.12,2.85,197.86s-0.5,146.23-2.85,197.86c-2.18,47.74-10.15,73.67-16.86,90.92
				c-8.88,22.85-19.49,39.17-36.63,56.3c-17.13,17.13-33.45,27.75-56.3,36.63c-17.25,6.71-43.18,14.68-90.92,16.86
				c-51.62,2.35-67.11,2.85-197.86,2.85c-130.75,0-146.24-0.5-197.86-2.85c-47.74-2.18-73.67-10.15-90.92-16.86
				c-22.85-8.88-39.17-19.49-56.3-36.63c-17.13-17.13-27.75-33.45-36.63-56.3c-6.71-17.25-14.68-43.18-16.86-90.92
				c-2.35-51.63-2.85-67.12-2.85-197.86s0.5-146.23,2.85-197.86c2.18-47.74,10.15-73.67,16.86-90.92
				c8.88-22.85,19.49-39.17,36.63-56.3c17.13-17.13,33.45-27.75,56.3-36.63c17.25-6.71,43.18-14.68,90.92-16.86
				C1353.77,1099.08,1369.26,1098.58,1500,1098.58 M1500,1010.35c-132.98,0-149.66,0.56-201.88,2.95
				c-52.12,2.38-87.71,10.66-118.86,22.76c-32.2,12.51-59.5,29.26-86.73,56.48c-27.22,27.22-43.96,54.53-56.48,86.73
				c-12.1,31.15-20.38,66.74-22.76,118.86c-2.38,52.23-2.95,68.9-2.95,201.88c0,132.98,0.56,149.65,2.95,201.88
				c2.38,52.12,10.66,87.71,22.76,118.86c12.51,32.2,29.26,59.5,56.48,86.73c27.22,27.22,54.53,43.96,86.73,56.48
				c31.15,12.1,66.74,20.38,118.86,22.76c52.23,2.38,68.9,2.95,201.88,2.95c132.98,0,149.65-0.56,201.88-2.95
				c52.12-2.38,87.71-10.66,118.86-22.76c32.2-12.51,59.5-29.26,86.73-56.48c27.22-27.22,43.96-54.53,56.48-86.73
				c12.1-31.15,20.38-66.74,22.76-118.86c2.38-52.23,2.95-68.9,2.95-201.88s-0.56-149.65-2.95-201.88
				c-2.38-52.12-10.66-87.71-22.76-118.86c-12.51-32.2-29.26-59.5-56.48-86.73c-27.22-27.22-54.53-43.96-86.73-56.48
				c-31.15-12.1-66.74-20.38-118.86-22.76C1649.65,1010.92,1632.98,1010.35,1500,1010.35L1500,1010.35z"/>
			<path class="st2" d="M1500,1248.56c-138.87,0-251.44,112.57-251.44,251.44s112.57,251.44,251.44,251.44
				c138.87,0,251.44-112.57,251.44-251.44S1638.87,1248.56,1500,1248.56z M1500,1663.22c-90.14,0-163.22-73.08-163.22-163.22
				s73.08-163.22,163.22-163.22s163.22,73.08,163.22,163.22S1590.14,1663.22,1500,1663.22z"/>
			<circle class="st2" cx="1761.38" cy="1238.62" r="58.76"/>
		</g>
	</g>
</g>
</svg>
