<?xml version="1.0" encoding="UTF-8"?><svg id="Camada_1" xmlns="http://www.w3.org/2000/svg" xmlns:xlink="http://www.w3.org/1999/xlink" viewBox="0 0 1995.62 253.51"><defs><clipPath id="clippath"><rect y="22.99" width="1501.31" height="207.53" style="fill:none;"/></clipPath></defs><g style="clip-path:url(#clippath);"><rect y="22.99" width="1501.31" height="207.53" style="fill:#8b00d1;"/><path d="m372.86,253.51h0c8.82,0,15.96-7.29,15.96-16.28v-15.32c0-8.99-7.15-16.28-15.96-16.28h0c-8.82,0-15.96,7.29-15.96,16.28v15.32c0,8.99,7.15,16.28,15.96,16.28Zm0-32.82c7.27,0,13.16,3.97,13.16,8.87s-5.89,8.87-13.16,8.87-13.16-3.97-13.16-8.87,5.89-8.87,13.16-8.87Z" style="fill:#8f00df;"/><path d="m337.18,253.51h0c8.82,0,15.96-7.29,15.96-16.28v-15.32c0-8.99-7.15-16.28-15.96-16.28h0c-8.82,0-15.96,7.29-15.96,16.28v15.32c0,8.99,7.15,16.28,15.96,16.28Zm0-32.82c7.27,0,13.16,3.97,13.16,8.87s-5.89,8.87-13.16,8.87-13.16-3.97-13.16-8.87,5.89-8.87,13.16-8.87Z" style="fill:#8f00df;"/><path d="m301.5,253.51h0c8.82,0,15.96-7.29,15.96-16.28v-15.32c0-8.99-7.15-16.28-15.96-16.28h0c-8.82,0-15.96,7.29-15.96,16.28v15.32c0,8.99,7.15,16.28,15.96,16.28Zm0-32.82c7.27,0,13.16,3.97,13.16,8.87s-5.89,8.87-13.16,8.87-13.16-3.97-13.16-8.87,5.89-8.87,13.16-8.87Z" style="fill:#8f00df;"/><path d="m265.81,253.51h0c8.82,0,15.96-7.29,15.96-16.28v-15.32c0-8.99-7.15-16.28-15.96-16.28h0c-8.82,0-15.96,7.29-15.96,16.28v15.32c0,8.99,7.15,16.28,15.96,16.28Zm0-32.82c7.27,0,13.16,3.97,13.16,8.87s-5.89,8.87-13.16,8.87-13.16-3.97-13.16-8.87,5.89-8.87,13.16-8.87Z" style="fill:#8f00df;"/><path d="m230.13,253.51h0c8.82,0,15.96-7.29,15.96-16.28v-15.32c0-8.99-7.15-16.28-15.96-16.28h0c-8.82,0-15.96,7.29-15.96,16.28v15.32c0,8.99,7.15,16.28,15.96,16.28Zm0-32.82c7.27,0,13.16,3.97,13.16,8.87s-5.89,8.87-13.16,8.87-13.16-3.97-13.16-8.87,5.89-8.87,13.16-8.87Z" style="fill:#8f00df;"/><path d="m194.44,253.51h0c8.82,0,15.96-7.29,15.96-16.28v-15.32c0-8.99-7.15-16.28-15.96-16.28h0c-8.82,0-15.96,7.29-15.96,16.28v15.32c0,8.99,7.15,16.28,15.96,16.28Zm0-32.82c7.27,0,13.16,3.97,13.16,8.87s-5.89,8.87-13.16,8.87-13.16-3.97-13.16-8.87,5.89-8.87,13.16-8.87Z" style="fill:#8f00df;"/><path d="m158.76,253.51h0c8.82,0,15.96-7.29,15.96-16.28v-15.32c0-8.99-7.15-16.28-15.96-16.28h0c-8.82,0-15.96,7.29-15.96,16.28v15.32c0,8.99,7.15,16.28,15.96,16.28Zm0-32.82c7.27,0,13.16,3.97,13.16,8.87s-5.89,8.87-13.16,8.87-13.16-3.97-13.16-8.87,5.89-8.87,13.16-8.87Z" style="fill:#8f00df;"/><path d="m123.07,253.51h0c8.82,0,15.96-7.29,15.96-16.28v-15.32c0-8.99-7.15-16.28-15.96-16.28h0c-8.82,0-15.96,7.29-15.96,16.28v15.32c0,8.99,7.15,16.28,15.96,16.28Zm0-32.82c7.27,0,13.16,3.97,13.16,8.87s-5.89,8.87-13.16,8.87-13.16-3.97-13.16-8.87,5.89-8.87,13.16-8.87Z" style="fill:#8f00df;"/><path d="m87.39,253.51h0c8.82,0,15.96-7.29,15.96-16.28v-15.32c0-8.99-7.15-16.28-15.96-16.28h0c-8.82,0-15.96,7.29-15.96,16.28v15.32c0,8.99,7.15,16.28,15.96,16.28Zm0-32.82c7.27,0,13.16,3.97,13.16,8.87s-5.89,8.87-13.16,8.87-13.16-3.97-13.16-8.87,5.89-8.87,13.16-8.87Z" style="fill:#8f00df;"/><path d="m51.71,253.51h0c8.82,0,15.96-7.29,15.96-16.28v-15.32c0-8.99-7.15-16.28-15.96-16.28h0c-8.82,0-15.96,7.29-15.96,16.28v15.32c0,8.99,7.15,16.28,15.96,16.28Zm0-32.82c7.27,0,13.16,3.97,13.16,8.87s-5.89,8.87-13.16,8.87-13.16-3.97-13.16-8.87,5.89-8.87,13.16-8.87Z" style="fill:#8f00df;"/><path d="m16.02,253.51h0c8.82,0,15.96-7.29,15.96-16.28v-15.32c0-8.99-7.15-16.28-15.96-16.28h0C7.2,205.62.06,212.91.06,221.9v15.32c0,8.99,7.15,16.28,15.96,16.28Zm0-32.82c7.27,0,13.16,3.97,13.16,8.87s-5.89,8.87-13.16,8.87-13.16-3.97-13.16-8.87,5.89-8.87,13.16-8.87Z" style="fill:#8f00df;"/><path d="m372.86,202.1h0c8.82,0,15.96-7.29,15.96-16.28v-15.32c0-8.99-7.15-16.28-15.96-16.28h0c-8.82,0-15.96,7.29-15.96,16.28v15.32c0,8.99,7.15,16.28,15.96,16.28Zm0-32.82c7.27,0,13.16,3.97,13.16,8.87s-5.89,8.87-13.16,8.87-13.16-3.97-13.16-8.87,5.89-8.87,13.16-8.87Z" style="fill:#8f00df;"/><path d="m337.18,202.1h0c8.82,0,15.96-7.29,15.96-16.28v-15.32c0-8.99-7.15-16.28-15.96-16.28h0c-8.82,0-15.96,7.29-15.96,16.28v15.32c0,8.99,7.15,16.28,15.96,16.28Zm0-32.82c7.27,0,13.16,3.97,13.16,8.87s-5.89,8.87-13.16,8.87-13.16-3.97-13.16-8.87,5.89-8.87,13.16-8.87Z" style="fill:#8f00df;"/><path d="m301.5,202.1h0c8.82,0,15.96-7.29,15.96-16.28v-15.32c0-8.99-7.15-16.28-15.96-16.28h0c-8.82,0-15.96,7.29-15.96,16.28v15.32c0,8.99,7.15,16.28,15.96,16.28Zm0-32.82c7.27,0,13.16,3.97,13.16,8.87s-5.89,8.87-13.16,8.87-13.16-3.97-13.16-8.87,5.89-8.87,13.16-8.87Z" style="fill:#8f00df;"/><path d="m265.81,202.1h0c8.82,0,15.96-7.29,15.96-16.28v-15.32c0-8.99-7.15-16.28-15.96-16.28h0c-8.82,0-15.96,7.29-15.96,16.28v15.32c0,8.99,7.15,16.28,15.96,16.28Zm0-32.82c7.27,0,13.16,3.97,13.16,8.87s-5.89,8.87-13.16,8.87-13.16-3.97-13.16-8.87,5.89-8.87,13.16-8.87Z" style="fill:#8f00df;"/><path d="m230.13,202.1h0c8.82,0,15.96-7.29,15.96-16.28v-15.32c0-8.99-7.15-16.28-15.96-16.28h0c-8.82,0-15.96,7.29-15.96,16.28v15.32c0,8.99,7.15,16.28,15.96,16.28Zm0-32.82c7.27,0,13.16,3.97,13.16,8.87s-5.89,8.87-13.16,8.87-13.16-3.97-13.16-8.87,5.89-8.87,13.16-8.87Z" style="fill:#8f00df;"/><path d="m194.44,202.1h0c8.82,0,15.96-7.29,15.96-16.28v-15.32c0-8.99-7.15-16.28-15.96-16.28h0c-8.82,0-15.96,7.29-15.96,16.28v15.32c0,8.99,7.15,16.28,15.96,16.28Zm0-32.82c7.27,0,13.16,3.97,13.16,8.87s-5.89,8.87-13.16,8.87-13.16-3.97-13.16-8.87,5.89-8.87,13.16-8.87Z" style="fill:#8f00df;"/><path d="m158.76,202.1h0c8.82,0,15.96-7.29,15.96-16.28v-15.32c0-8.99-7.15-16.28-15.96-16.28h0c-8.82,0-15.96,7.29-15.96,16.28v15.32c0,8.99,7.15,16.28,15.96,16.28Zm0-32.82c7.27,0,13.16,3.97,13.16,8.87s-5.89,8.87-13.16,8.87-13.16-3.97-13.16-8.87,5.89-8.87,13.16-8.87Z" style="fill:#8f00df;"/><path d="m123.07,202.1h0c8.82,0,15.96-7.29,15.96-16.28v-15.32c0-8.99-7.15-16.28-15.96-16.28h0c-8.82,0-15.96,7.29-15.96,16.28v15.32c0,8.99,7.15,16.28,15.96,16.28Zm0-32.82c7.27,0,13.16,3.97,13.16,8.87s-5.89,8.87-13.16,8.87-13.16-3.97-13.16-8.87,5.89-8.87,13.16-8.87Z" style="fill:#8f00df;"/><path d="m87.39,202.1h0c8.82,0,15.96-7.29,15.96-16.28v-15.32c0-8.99-7.15-16.28-15.96-16.28h0c-8.82,0-15.96,7.29-15.96,16.28v15.32c0,8.99,7.15,16.28,15.96,16.28Zm0-32.82c7.27,0,13.16,3.97,13.16,8.87s-5.89,8.87-13.16,8.87-13.16-3.97-13.16-8.87,5.89-8.87,13.16-8.87Z" style="fill:#8f00df;"/><path d="m51.71,202.1h0c8.82,0,15.96-7.29,15.96-16.28v-15.32c0-8.99-7.15-16.28-15.96-16.28h0c-8.82,0-15.96,7.29-15.96,16.28v15.32c0,8.99,7.15,16.28,15.96,16.28Zm0-32.82c7.27,0,13.16,3.97,13.16,8.87s-5.89,8.87-13.16,8.87-13.16-3.97-13.16-8.87,5.89-8.87,13.16-8.87Z" style="fill:#8f00df;"/><path d="m16.02,202.1h0c8.82,0,15.96-7.29,15.96-16.28v-15.32c0-8.99-7.15-16.28-15.96-16.28h0C7.2,154.22.06,161.51.06,170.5v15.32c0,8.99,7.15,16.28,15.96,16.28Zm0-32.82c7.27,0,13.16,3.97,13.16,8.87s-5.89,8.87-13.16,8.87-13.16-3.97-13.16-8.87,5.89-8.87,13.16-8.87Z" style="fill:#8f00df;"/><path d="m372.86,150.7h0c8.82,0,15.96-7.29,15.96-16.28v-15.32c0-8.99-7.15-16.28-15.96-16.28h0c-8.82,0-15.96,7.29-15.96,16.28v15.32c0,8.99,7.15,16.28,15.96,16.28Zm0-32.82c7.27,0,13.16,3.97,13.16,8.87s-5.89,8.87-13.16,8.87-13.16-3.97-13.16-8.87,5.89-8.87,13.16-8.87Z" style="fill:#8f00df;"/><path d="m337.18,150.7h0c8.82,0,15.96-7.29,15.96-16.28v-15.32c0-8.99-7.15-16.28-15.96-16.28h0c-8.82,0-15.96,7.29-15.96,16.28v15.32c0,8.99,7.15,16.28,15.96,16.28Zm0-32.82c7.27,0,13.16,3.97,13.16,8.87s-5.89,8.87-13.16,8.87-13.16-3.97-13.16-8.87,5.89-8.87,13.16-8.87Z" style="fill:#8f00df;"/><path d="m301.5,150.7h0c8.82,0,15.96-7.29,15.96-16.28v-15.32c0-8.99-7.15-16.28-15.96-16.28h0c-8.82,0-15.96,7.29-15.96,16.28v15.32c0,8.99,7.15,16.28,15.96,16.28Zm0-32.82c7.27,0,13.16,3.97,13.16,8.87s-5.89,8.87-13.16,8.87-13.16-3.97-13.16-8.87,5.89-8.87,13.16-8.87Z" style="fill:#8f00df;"/><path d="m265.81,150.7h0c8.82,0,15.96-7.29,15.96-16.28v-15.32c0-8.99-7.15-16.28-15.96-16.28h0c-8.82,0-15.96,7.29-15.96,16.28v15.32c0,8.99,7.15,16.28,15.96,16.28Zm0-32.82c7.27,0,13.16,3.97,13.16,8.87s-5.89,8.87-13.16,8.87-13.16-3.97-13.16-8.87,5.89-8.87,13.16-8.87Z" style="fill:#8f00df;"/><path d="m230.13,150.7h0c8.82,0,15.96-7.29,15.96-16.28v-15.32c0-8.99-7.15-16.28-15.96-16.28h0c-8.82,0-15.96,7.29-15.96,16.28v15.32c0,8.99,7.15,16.28,15.96,16.28Zm0-32.82c7.27,0,13.16,3.97,13.16,8.87s-5.89,8.87-13.16,8.87-13.16-3.97-13.16-8.87,5.89-8.87,13.16-8.87Z" style="fill:#8f00df;"/><path d="m194.44,150.7h0c8.82,0,15.96-7.29,15.96-16.28v-15.32c0-8.99-7.15-16.28-15.96-16.28h0c-8.82,0-15.96,7.29-15.96,16.28v15.32c0,8.99,7.15,16.28,15.96,16.28Zm0-32.82c7.27,0,13.16,3.97,13.16,8.87s-5.89,8.87-13.16,8.87-13.16-3.97-13.16-8.87,5.89-8.87,13.16-8.87Z" style="fill:#8f00df;"/><path d="m158.76,150.7h0c8.82,0,15.96-7.29,15.96-16.28v-15.32c0-8.99-7.15-16.28-15.96-16.28h0c-8.82,0-15.96,7.29-15.96,16.28v15.32c0,8.99,7.15,16.28,15.96,16.28Zm0-32.82c7.27,0,13.16,3.97,13.16,8.87s-5.89,8.87-13.16,8.87-13.16-3.97-13.16-8.87,5.89-8.87,13.16-8.87Z" style="fill:#8f00df;"/><path d="m123.07,150.7h0c8.82,0,15.96-7.29,15.96-16.28v-15.32c0-8.99-7.15-16.28-15.96-16.28h0c-8.82,0-15.96,7.29-15.96,16.28v15.32c0,8.99,7.15,16.28,15.96,16.28Zm0-32.82c7.27,0,13.16,3.97,13.16,8.87s-5.89,8.87-13.16,8.87-13.16-3.97-13.16-8.87,5.89-8.87,13.16-8.87Z" style="fill:#8f00df;"/><path d="m87.39,150.7h0c8.82,0,15.96-7.29,15.96-16.28v-15.32c0-8.99-7.15-16.28-15.96-16.28h0c-8.82,0-15.96,7.29-15.96,16.28v15.32c0,8.99,7.15,16.28,15.96,16.28Zm0-32.82c7.27,0,13.16,3.97,13.16,8.87s-5.89,8.87-13.16,8.87-13.16-3.97-13.16-8.87,5.89-8.87,13.16-8.87Z" style="fill:#8f00df;"/><path d="m51.71,150.7h0c8.82,0,15.96-7.29,15.96-16.28v-15.32c0-8.99-7.15-16.28-15.96-16.28h0c-8.82,0-15.96,7.29-15.96,16.28v15.32c0,8.99,7.15,16.28,15.96,16.28Zm0-32.82c7.27,0,13.16,3.97,13.16,8.87s-5.89,8.87-13.16,8.87-13.16-3.97-13.16-8.87,5.89-8.87,13.16-8.87Z" style="fill:#8f00df;"/><path d="m16.02,150.7h0c8.82,0,15.96-7.29,15.96-16.28v-15.32c0-8.99-7.15-16.28-15.96-16.28h0C7.2,102.81.06,110.1.06,119.09v15.32c0,8.99,7.15,16.28,15.96,16.28Zm0-32.82c7.27,0,13.16,3.97,13.16,8.87s-5.89,8.87-13.16,8.87-13.16-3.97-13.16-8.87,5.89-8.87,13.16-8.87Z" style="fill:#8f00df;"/><path d="m372.86,99.29h0c8.82,0,15.96-7.29,15.96-16.28v-15.32c0-8.99-7.15-16.28-15.96-16.28h0c-8.82,0-15.96,7.29-15.96,16.28v15.32c0,8.99,7.15,16.28,15.96,16.28Zm0-32.82c7.27,0,13.16,3.97,13.16,8.87s-5.89,8.87-13.16,8.87-13.16-3.97-13.16-8.87,5.89-8.87,13.16-8.87Z" style="fill:#8f00df;"/><path d="m337.18,99.29h0c8.82,0,15.96-7.29,15.96-16.28v-15.32c0-8.99-7.15-16.28-15.96-16.28h0c-8.82,0-15.96,7.29-15.96,16.28v15.32c0,8.99,7.15,16.28,15.96,16.28Zm0-32.82c7.27,0,13.16,3.97,13.16,8.87s-5.89,8.87-13.16,8.87-13.16-3.97-13.16-8.87,5.89-8.87,13.16-8.87Z" style="fill:#8f00df;"/><path d="m301.5,99.29h0c8.82,0,15.96-7.29,15.96-16.28v-15.32c0-8.99-7.15-16.28-15.96-16.28h0c-8.82,0-15.96,7.29-15.96,16.28v15.32c0,8.99,7.15,16.28,15.96,16.28Zm0-32.82c7.27,0,13.16,3.97,13.16,8.87s-5.89,8.87-13.16,8.87-13.16-3.97-13.16-8.87,5.89-8.87,13.16-8.87Z" style="fill:#8f00df;"/><path d="m265.81,99.29h0c8.82,0,15.96-7.29,15.96-16.28v-15.32c0-8.99-7.15-16.28-15.96-16.28h0c-8.82,0-15.96,7.29-15.96,16.28v15.32c0,8.99,7.15,16.28,15.96,16.28Zm0-32.82c7.27,0,13.16,3.97,13.16,8.87s-5.89,8.87-13.16,8.87-13.16-3.97-13.16-8.87,5.89-8.87,13.16-8.87Z" style="fill:#8f00df;"/><path d="m230.13,99.29h0c8.82,0,15.96-7.29,15.96-16.28v-15.32c0-8.99-7.15-16.28-15.96-16.28h0c-8.82,0-15.96,7.29-15.96,16.28v15.32c0,8.99,7.15,16.28,15.96,16.28Zm0-32.82c7.27,0,13.16,3.97,13.16,8.87s-5.89,8.87-13.16,8.87-13.16-3.97-13.16-8.87,5.89-8.87,13.16-8.87Z" style="fill:#8f00df;"/><path d="m194.44,99.29h0c8.82,0,15.96-7.29,15.96-16.28v-15.32c0-8.99-7.15-16.28-15.96-16.28h0c-8.82,0-15.96,7.29-15.96,16.28v15.32c0,8.99,7.15,16.28,15.96,16.28Zm0-32.82c7.27,0,13.16,3.97,13.16,8.87s-5.89,8.87-13.16,8.87-13.16-3.97-13.16-8.87,5.89-8.87,13.16-8.87Z" style="fill:#8f00df;"/><path d="m158.76,99.29h0c8.82,0,15.96-7.29,15.96-16.28v-15.32c0-8.99-7.15-16.28-15.96-16.28h0c-8.82,0-15.96,7.29-15.96,16.28v15.32c0,8.99,7.15,16.28,15.96,16.28Zm0-32.82c7.27,0,13.16,3.97,13.16,8.87s-5.89,8.87-13.16,8.87-13.16-3.97-13.16-8.87,5.89-8.87,13.16-8.87Z" style="fill:#8f00df;"/><path d="m123.07,99.29h0c8.82,0,15.96-7.29,15.96-16.28v-15.32c0-8.99-7.15-16.28-15.96-16.28h0c-8.82,0-15.96,7.29-15.96,16.28v15.32c0,8.99,7.15,16.28,15.96,16.28Zm0-32.82c7.27,0,13.16,3.97,13.16,8.87s-5.89,8.87-13.16,8.87-13.16-3.97-13.16-8.87,5.89-8.87,13.16-8.87Z" style="fill:#8f00df;"/><path d="m87.39,99.29h0c8.82,0,15.96-7.29,15.96-16.28v-15.32c0-8.99-7.15-16.28-15.96-16.28h0c-8.82,0-15.96,7.29-15.96,16.28v15.32c0,8.99,7.15,16.28,15.96,16.28Zm0-32.82c7.27,0,13.16,3.97,13.16,8.87s-5.89,8.87-13.16,8.87-13.16-3.97-13.16-8.87,5.89-8.87,13.16-8.87Z" style="fill:#8f00df;"/><path d="m51.71,99.29h0c8.82,0,15.96-7.29,15.96-16.28v-15.32c0-8.99-7.15-16.28-15.96-16.28h0c-8.82,0-15.96,7.29-15.96,16.28v15.32c0,8.99,7.15,16.28,15.96,16.28Zm0-32.82c7.27,0,13.16,3.97,13.16,8.87s-5.89,8.87-13.16,8.87-13.16-3.97-13.16-8.87,5.89-8.87,13.16-8.87Z" style="fill:#8f00df;"/><path d="m16.02,99.29h0c8.82,0,15.96-7.29,15.96-16.28v-15.32c0-8.99-7.15-16.28-15.96-16.28h0C7.2,51.41.06,58.69.06,67.69v15.32c0,8.99,7.15,16.28,15.96,16.28Zm0-32.82c7.27,0,13.16,3.97,13.16,8.87s-5.89,8.87-13.16,8.87-13.16-3.97-13.16-8.87,5.89-8.87,13.16-8.87Z" style="fill:#8f00df;"/><path d="m372.86,47.88h0c8.82,0,15.96-7.29,15.96-16.28v-15.32c0-8.99-7.15-16.28-15.96-16.28h0c-8.82,0-15.96,7.29-15.96,16.28v15.32c0,8.99,7.15,16.28,15.96,16.28Zm0-32.82c7.27,0,13.16,3.97,13.16,8.87s-5.89,8.87-13.16,8.87-13.16-3.97-13.16-8.87,5.89-8.87,13.16-8.87Z" style="fill:#8f00df;"/><path d="m337.18,47.88h0c8.82,0,15.96-7.29,15.96-16.28v-15.32c0-8.99-7.15-16.28-15.96-16.28h0c-8.82,0-15.96,7.29-15.96,16.28v15.32c0,8.99,7.15,16.28,15.96,16.28Zm0-32.82c7.27,0,13.16,3.97,13.16,8.87s-5.89,8.87-13.16,8.87-13.16-3.97-13.16-8.87,5.89-8.87,13.16-8.87Z" style="fill:#8f00df;"/><path d="m301.5,47.88h0c8.82,0,15.96-7.29,15.96-16.28v-15.32c0-8.99-7.15-16.28-15.96-16.28h0c-8.82,0-15.96,7.29-15.96,16.28v15.32c0,8.99,7.15,16.28,15.96,16.28Zm0-32.82c7.27,0,13.16,3.97,13.16,8.87s-5.89,8.87-13.16,8.87-13.16-3.97-13.16-8.87,5.89-8.87,13.16-8.87Z" style="fill:#8f00df;"/><path d="m265.81,47.88h0c8.82,0,15.96-7.29,15.96-16.28v-15.32c0-8.99-7.15-16.28-15.96-16.28h0c-8.82,0-15.96,7.29-15.96,16.28v15.32c0,8.99,7.15,16.28,15.96,16.28Zm0-32.82c7.27,0,13.16,3.97,13.16,8.87s-5.89,8.87-13.16,8.87-13.16-3.97-13.16-8.87,5.89-8.87,13.16-8.87Z" style="fill:#8f00df;"/><path d="m230.13,47.88h0c8.82,0,15.96-7.29,15.96-16.28v-15.32C246.09,7.29,238.94,0,230.13,0h0C221.31,0,214.16,7.29,214.16,16.28v15.32c0,8.99,7.15,16.28,15.96,16.28Zm0-32.82c7.27,0,13.16,3.97,13.16,8.87s-5.89,8.87-13.16,8.87-13.16-3.97-13.16-8.87,5.89-8.87,13.16-8.87Z" style="fill:#8f00df;"/><path d="m194.44,47.88h0c8.82,0,15.96-7.29,15.96-16.28v-15.32C210.41,7.29,203.26,0,194.44,0h0C185.63,0,178.48,7.29,178.48,16.28v15.32c0,8.99,7.15,16.28,15.96,16.28Zm0-32.82c7.27,0,13.16,3.97,13.16,8.87s-5.89,8.87-13.16,8.87-13.16-3.97-13.16-8.87,5.89-8.87,13.16-8.87Z" style="fill:#8f00df;"/><path d="m158.76,47.88h0c8.82,0,15.96-7.29,15.96-16.28v-15.32C174.72,7.29,167.57,0,158.76,0h0C149.94,0,142.79,7.29,142.79,16.28v15.32c0,8.99,7.15,16.28,15.96,16.28Zm0-32.82c7.27,0,13.16,3.97,13.16,8.87s-5.89,8.87-13.16,8.87-13.16-3.97-13.16-8.87,5.89-8.87,13.16-8.87Z" style="fill:#8f00df;"/><path d="m123.07,47.88h0c8.82,0,15.96-7.29,15.96-16.28v-15.32C139.04,7.29,131.89,0,123.07,0h0C114.26,0,107.11,7.29,107.11,16.28v15.32c0,8.99,7.15,16.28,15.96,16.28Zm0-32.82c7.27,0,13.16,3.97,13.16,8.87s-5.89,8.87-13.16,8.87-13.16-3.97-13.16-8.87,5.89-8.87,13.16-8.87Z" style="fill:#8f00df;"/><path d="m87.39,47.88h0c8.82,0,15.96-7.29,15.96-16.28v-15.32C103.35,7.29,96.21,0,87.39,0h0C78.57,0,71.43,7.29,71.43,16.28v15.32c0,8.99,7.15,16.28,15.96,16.28Zm0-32.82c7.27,0,13.16,3.97,13.16,8.87s-5.89,8.87-13.16,8.87-13.16-3.97-13.16-8.87,5.89-8.87,13.16-8.87Z" style="fill:#8f00df;"/><path d="m51.71,47.88h0c8.82,0,15.96-7.29,15.96-16.28v-15.32C67.67,7.29,60.52,0,51.71,0h0C42.89,0,35.74,7.29,35.74,16.28v15.32c0,8.99,7.15,16.28,15.96,16.28Zm0-32.82c7.27,0,13.16,3.97,13.16,8.87s-5.89,8.87-13.16,8.87-13.16-3.97-13.16-8.87,5.89-8.87,13.16-8.87Z" style="fill:#8f00df;"/><path d="m16.02,47.88h0c8.82,0,15.96-7.29,15.96-16.28v-15.32C31.98,7.29,24.84,0,16.02,0h0C7.2,0,.06,7.29.06,16.28v15.32c0,8.99,7.15,16.28,15.96,16.28Zm0-32.82c7.27,0,13.16,3.97,13.16,8.87s-5.89,8.87-13.16,8.87-13.16-3.97-13.16-8.87,5.89-8.87,13.16-8.87Z" style="fill:#8f00df;"/><path d="m765.67,253.51h0c8.82,0,15.96-7.29,15.96-16.28v-15.32c0-8.99-7.15-16.28-15.96-16.28h0c-8.82,0-15.96,7.29-15.96,16.28v15.32c0,8.99,7.15,16.28,15.96,16.28Zm0-32.82c7.27,0,13.16,3.97,13.16,8.87s-5.89,8.87-13.16,8.87-13.16-3.97-13.16-8.87,5.89-8.87,13.16-8.87Z" style="fill:#8f00df;"/><path d="m729.99,253.51h0c8.82,0,15.96-7.29,15.96-16.28v-15.32c0-8.99-7.15-16.28-15.96-16.28h0c-8.82,0-15.96,7.29-15.96,16.28v15.32c0,8.99,7.15,16.28,15.96,16.28Zm0-32.82c7.27,0,13.16,3.97,13.16,8.87s-5.89,8.87-13.16,8.87-13.16-3.97-13.16-8.87,5.89-8.87,13.16-8.87Z" style="fill:#8f00df;"/><path d="m694.3,253.51h0c8.82,0,15.96-7.29,15.96-16.28v-15.32c0-8.99-7.15-16.28-15.96-16.28h0c-8.82,0-15.96,7.29-15.96,16.28v15.32c0,8.99,7.15,16.28,15.96,16.28Zm0-32.82c7.27,0,13.16,3.97,13.16,8.87s-5.89,8.87-13.16,8.87-13.16-3.97-13.16-8.87,5.89-8.87,13.16-8.87Z" style="fill:#8f00df;"/><path d="m658.62,253.51h0c8.82,0,15.96-7.29,15.96-16.28v-15.32c0-8.99-7.15-16.28-15.96-16.28h0c-8.82,0-15.96,7.29-15.96,16.28v15.32c0,8.99,7.15,16.28,15.96,16.28Zm0-32.82c7.27,0,13.16,3.97,13.16,8.87s-5.89,8.87-13.16,8.87-13.16-3.97-13.16-8.87,5.89-8.87,13.16-8.87Z" style="fill:#8f00df;"/><path d="m622.93,253.51h0c8.82,0,15.96-7.29,15.96-16.28v-15.32c0-8.99-7.15-16.28-15.96-16.28h0c-8.82,0-15.96,7.29-15.96,16.28v15.32c0,8.99,7.15,16.28,15.96,16.28Zm0-32.82c7.27,0,13.16,3.97,13.16,8.87s-5.89,8.87-13.16,8.87-13.16-3.97-13.16-8.87,5.89-8.87,13.16-8.87Z" style="fill:#8f00df;"/><path d="m587.25,253.51h0c8.82,0,15.96-7.29,15.96-16.28v-15.32c0-8.99-7.15-16.28-15.96-16.28h0c-8.82,0-15.96,7.29-15.96,16.28v15.32c0,8.99,7.15,16.28,15.96,16.28Zm0-32.82c7.27,0,13.16,3.97,13.16,8.87s-5.89,8.87-13.16,8.87-13.16-3.97-13.16-8.87,5.89-8.87,13.16-8.87Z" style="fill:#8f00df;"/><path d="m551.56,253.51h0c8.82,0,15.96-7.29,15.96-16.28v-15.32c0-8.99-7.15-16.28-15.96-16.28h0c-8.82,0-15.96,7.29-15.96,16.28v15.32c0,8.99,7.15,16.28,15.96,16.28Zm0-32.82c7.27,0,13.16,3.97,13.16,8.87s-5.89,8.87-13.16,8.87-13.16-3.97-13.16-8.87,5.89-8.87,13.16-8.87Z" style="fill:#8f00df;"/><path d="m515.88,253.51h0c8.82,0,15.96-7.29,15.96-16.28v-15.32c0-8.99-7.15-16.28-15.96-16.28h0c-8.82,0-15.96,7.29-15.96,16.28v15.32c0,8.99,7.15,16.28,15.96,16.28Zm0-32.82c7.27,0,13.16,3.97,13.16,8.87s-5.89,8.87-13.16,8.87-13.16-3.97-13.16-8.87,5.89-8.87,13.16-8.87Z" style="fill:#8f00df;"/><path d="m480.2,253.51h0c8.82,0,15.96-7.29,15.96-16.28v-15.32c0-8.99-7.15-16.28-15.96-16.28h0c-8.82,0-15.96,7.29-15.96,16.28v15.32c0,8.99,7.15,16.28,15.96,16.28Zm0-32.82c7.27,0,13.16,3.97,13.16,8.87s-5.89,8.87-13.16,8.87-13.16-3.97-13.16-8.87,5.89-8.87,13.16-8.87Z" style="fill:#8f00df;"/><path d="m444.51,253.51h0c8.82,0,15.96-7.29,15.96-16.28v-15.32c0-8.99-7.15-16.28-15.96-16.28h0c-8.82,0-15.96,7.29-15.96,16.28v15.32c0,8.99,7.15,16.28,15.96,16.28Zm0-32.82c7.27,0,13.16,3.97,13.16,8.87s-5.89,8.87-13.16,8.87-13.16-3.97-13.16-8.87,5.89-8.87,13.16-8.87Z" style="fill:#8f00df;"/><path d="m408.83,253.51h0c8.82,0,15.96-7.29,15.96-16.28v-15.32c0-8.99-7.15-16.28-15.96-16.28h0c-8.82,0-15.96,7.29-15.96,16.28v15.32c0,8.99,7.15,16.28,15.96,16.28Zm0-32.82c7.27,0,13.16,3.97,13.16,8.87s-5.89,8.87-13.16,8.87-13.16-3.97-13.16-8.87,5.89-8.87,13.16-8.87Z" style="fill:#8f00df;"/><path d="m765.67,202.1h0c8.82,0,15.96-7.29,15.96-16.28v-15.32c0-8.99-7.15-16.28-15.96-16.28h0c-8.82,0-15.96,7.29-15.96,16.28v15.32c0,8.99,7.15,16.28,15.96,16.28Zm0-32.82c7.27,0,13.16,3.97,13.16,8.87s-5.89,8.87-13.16,8.87-13.16-3.97-13.16-8.87,5.89-8.87,13.16-8.87Z" style="fill:#8f00df;"/><path d="m729.99,202.1h0c8.82,0,15.96-7.29,15.96-16.28v-15.32c0-8.99-7.15-16.28-15.96-16.28h0c-8.82,0-15.96,7.29-15.96,16.28v15.32c0,8.99,7.15,16.28,15.96,16.28Zm0-32.82c7.27,0,13.16,3.97,13.16,8.87s-5.89,8.87-13.16,8.87-13.16-3.97-13.16-8.87,5.89-8.87,13.16-8.87Z" style="fill:#8f00df;"/><path d="m694.3,202.1h0c8.82,0,15.96-7.29,15.96-16.28v-15.32c0-8.99-7.15-16.28-15.96-16.28h0c-8.82,0-15.96,7.29-15.96,16.28v15.32c0,8.99,7.15,16.28,15.96,16.28Zm0-32.82c7.27,0,13.16,3.97,13.16,8.87s-5.89,8.87-13.16,8.87-13.16-3.97-13.16-8.87,5.89-8.87,13.16-8.87Z" style="fill:#8f00df;"/><path d="m658.62,202.1h0c8.82,0,15.96-7.29,15.96-16.28v-15.32c0-8.99-7.15-16.28-15.96-16.28h0c-8.82,0-15.96,7.29-15.96,16.28v15.32c0,8.99,7.15,16.28,15.96,16.28Zm0-32.82c7.27,0,13.16,3.97,13.16,8.87s-5.89,8.87-13.16,8.87-13.16-3.97-13.16-8.87,5.89-8.87,13.16-8.87Z" style="fill:#8f00df;"/><path d="m622.93,202.1h0c8.82,0,15.96-7.29,15.96-16.28v-15.32c0-8.99-7.15-16.28-15.96-16.28h0c-8.82,0-15.96,7.29-15.96,16.28v15.32c0,8.99,7.15,16.28,15.96,16.28Zm0-32.82c7.27,0,13.16,3.97,13.16,8.87s-5.89,8.87-13.16,8.87-13.16-3.97-13.16-8.87,5.89-8.87,13.16-8.87Z" style="fill:#8f00df;"/><path d="m587.25,202.1h0c8.82,0,15.96-7.29,15.96-16.28v-15.32c0-8.99-7.15-16.28-15.96-16.28h0c-8.82,0-15.96,7.29-15.96,16.28v15.32c0,8.99,7.15,16.28,15.96,16.28Zm0-32.82c7.27,0,13.16,3.97,13.16,8.87s-5.89,8.87-13.16,8.87-13.16-3.97-13.16-8.87,5.89-8.87,13.16-8.87Z" style="fill:#8f00df;"/><path d="m551.56,202.1h0c8.82,0,15.96-7.29,15.96-16.28v-15.32c0-8.99-7.15-16.28-15.96-16.28h0c-8.82,0-15.96,7.29-15.96,16.28v15.32c0,8.99,7.15,16.28,15.96,16.28Zm0-32.82c7.27,0,13.16,3.97,13.16,8.87s-5.89,8.87-13.16,8.87-13.16-3.97-13.16-8.87,5.89-8.87,13.16-8.87Z" style="fill:#8f00df;"/><path d="m515.88,202.1h0c8.82,0,15.96-7.29,15.96-16.28v-15.32c0-8.99-7.15-16.28-15.96-16.28h0c-8.82,0-15.96,7.29-15.96,16.28v15.32c0,8.99,7.15,16.28,15.96,16.28Zm0-32.82c7.27,0,13.16,3.97,13.16,8.87s-5.89,8.87-13.16,8.87-13.16-3.97-13.16-8.87,5.89-8.87,13.16-8.87Z" style="fill:#8f00df;"/><path d="m480.2,202.1h0c8.82,0,15.96-7.29,15.96-16.28v-15.32c0-8.99-7.15-16.28-15.96-16.28h0c-8.82,0-15.96,7.29-15.96,16.28v15.32c0,8.99,7.15,16.28,15.96,16.28Zm0-32.82c7.27,0,13.16,3.97,13.16,8.87s-5.89,8.87-13.16,8.87-13.16-3.97-13.16-8.87,5.89-8.87,13.16-8.87Z" style="fill:#8f00df;"/><path d="m444.51,202.1h0c8.82,0,15.96-7.29,15.96-16.28v-15.32c0-8.99-7.15-16.28-15.96-16.28h0c-8.82,0-15.96,7.29-15.96,16.28v15.32c0,8.99,7.15,16.28,15.96,16.28Zm0-32.82c7.27,0,13.16,3.97,13.16,8.87s-5.89,8.87-13.16,8.87-13.16-3.97-13.16-8.87,5.89-8.87,13.16-8.87Z" style="fill:#8f00df;"/><path d="m408.83,202.1h0c8.82,0,15.96-7.29,15.96-16.28v-15.32c0-8.99-7.15-16.28-15.96-16.28h0c-8.82,0-15.96,7.29-15.96,16.28v15.32c0,8.99,7.15,16.28,15.96,16.28Zm0-32.82c7.27,0,13.16,3.97,13.16,8.87s-5.89,8.87-13.16,8.87-13.16-3.97-13.16-8.87,5.89-8.87,13.16-8.87Z" style="fill:#8f00df;"/><path d="m765.67,150.7h0c8.82,0,15.96-7.29,15.96-16.28v-15.32c0-8.99-7.15-16.28-15.96-16.28h0c-8.82,0-15.96,7.29-15.96,16.28v15.32c0,8.99,7.15,16.28,15.96,16.28Zm0-32.82c7.27,0,13.16,3.97,13.16,8.87s-5.89,8.87-13.16,8.87-13.16-3.97-13.16-8.87,5.89-8.87,13.16-8.87Z" style="fill:#8f00df;"/><path d="m729.99,150.7h0c8.82,0,15.96-7.29,15.96-16.28v-15.32c0-8.99-7.15-16.28-15.96-16.28h0c-8.82,0-15.96,7.29-15.96,16.28v15.32c0,8.99,7.15,16.28,15.96,16.28Zm0-32.82c7.27,0,13.16,3.97,13.16,8.87s-5.89,8.87-13.16,8.87-13.16-3.97-13.16-8.87,5.89-8.87,13.16-8.87Z" style="fill:#8f00df;"/><path d="m694.3,150.7h0c8.82,0,15.96-7.29,15.96-16.28v-15.32c0-8.99-7.15-16.28-15.96-16.28h0c-8.82,0-15.96,7.29-15.96,16.28v15.32c0,8.99,7.15,16.28,15.96,16.28Zm0-32.82c7.27,0,13.16,3.97,13.16,8.87s-5.89,8.87-13.16,8.87-13.16-3.97-13.16-8.87,5.89-8.87,13.16-8.87Z" style="fill:#8f00df;"/><path d="m658.62,150.7h0c8.82,0,15.96-7.29,15.96-16.28v-15.32c0-8.99-7.15-16.28-15.96-16.28h0c-8.82,0-15.96,7.29-15.96,16.28v15.32c0,8.99,7.15,16.28,15.96,16.28Zm0-32.82c7.27,0,13.16,3.97,13.16,8.87s-5.89,8.87-13.16,8.87-13.16-3.97-13.16-8.87,5.89-8.87,13.16-8.87Z" style="fill:#8f00df;"/><path d="m622.93,150.7h0c8.82,0,15.96-7.29,15.96-16.28v-15.32c0-8.99-7.15-16.28-15.96-16.28h0c-8.82,0-15.96,7.29-15.96,16.28v15.32c0,8.99,7.15,16.28,15.96,16.28Zm0-32.82c7.27,0,13.16,3.97,13.16,8.87s-5.89,8.87-13.16,8.87-13.16-3.97-13.16-8.87,5.89-8.87,13.16-8.87Z" style="fill:#8f00df;"/><path d="m587.25,150.7h0c8.82,0,15.96-7.29,15.96-16.28v-15.32c0-8.99-7.15-16.28-15.96-16.28h0c-8.82,0-15.96,7.29-15.96,16.28v15.32c0,8.99,7.15,16.28,15.96,16.28Zm0-32.82c7.27,0,13.16,3.97,13.16,8.87s-5.89,8.87-13.16,8.87-13.16-3.97-13.16-8.87,5.89-8.87,13.16-8.87Z" style="fill:#8f00df;"/><path d="m551.56,150.7h0c8.82,0,15.96-7.29,15.96-16.28v-15.32c0-8.99-7.15-16.28-15.96-16.28h0c-8.82,0-15.96,7.29-15.96,16.28v15.32c0,8.99,7.15,16.28,15.96,16.28Zm0-32.82c7.27,0,13.16,3.97,13.16,8.87s-5.89,8.87-13.16,8.87-13.16-3.97-13.16-8.87,5.89-8.87,13.16-8.87Z" style="fill:#8f00df;"/><path d="m515.88,150.7h0c8.82,0,15.96-7.29,15.96-16.28v-15.32c0-8.99-7.15-16.28-15.96-16.28h0c-8.82,0-15.96,7.29-15.96,16.28v15.32c0,8.99,7.15,16.28,15.96,16.28Zm0-32.82c7.27,0,13.16,3.97,13.16,8.87s-5.89,8.87-13.16,8.87-13.16-3.97-13.16-8.87,5.89-8.87,13.16-8.87Z" style="fill:#8f00df;"/><path d="m480.2,150.7h0c8.82,0,15.96-7.29,15.96-16.28v-15.32c0-8.99-7.15-16.28-15.96-16.28h0c-8.82,0-15.96,7.29-15.96,16.28v15.32c0,8.99,7.15,16.28,15.96,16.28Zm0-32.82c7.27,0,13.16,3.97,13.16,8.87s-5.89,8.87-13.16,8.87-13.16-3.97-13.16-8.87,5.89-8.87,13.16-8.87Z" style="fill:#8f00df;"/><path d="m444.51,150.7h0c8.82,0,15.96-7.29,15.96-16.28v-15.32c0-8.99-7.15-16.28-15.96-16.28h0c-8.82,0-15.96,7.29-15.96,16.28v15.32c0,8.99,7.15,16.28,15.96,16.28Zm0-32.82c7.27,0,13.16,3.97,13.16,8.87s-5.89,8.87-13.16,8.87-13.16-3.97-13.16-8.87,5.89-8.87,13.16-8.87Z" style="fill:#8f00df;"/><path d="m408.83,150.7h0c8.82,0,15.96-7.29,15.96-16.28v-15.32c0-8.99-7.15-16.28-15.96-16.28h0c-8.82,0-15.96,7.29-15.96,16.28v15.32c0,8.99,7.15,16.28,15.96,16.28Zm0-32.82c7.27,0,13.16,3.97,13.16,8.87s-5.89,8.87-13.16,8.87-13.16-3.97-13.16-8.87,5.89-8.87,13.16-8.87Z" style="fill:#8f00df;"/><path d="m765.67,99.29h0c8.82,0,15.96-7.29,15.96-16.28v-15.32c0-8.99-7.15-16.28-15.96-16.28h0c-8.82,0-15.96,7.29-15.96,16.28v15.32c0,8.99,7.15,16.28,15.96,16.28Zm0-32.82c7.27,0,13.16,3.97,13.16,8.87s-5.89,8.87-13.16,8.87-13.16-3.97-13.16-8.87,5.89-8.87,13.16-8.87Z" style="fill:#8f00df;"/><path d="m729.99,99.29h0c8.82,0,15.96-7.29,15.96-16.28v-15.32c0-8.99-7.15-16.28-15.96-16.28h0c-8.82,0-15.96,7.29-15.96,16.28v15.32c0,8.99,7.15,16.28,15.96,16.28Zm0-32.82c7.27,0,13.16,3.97,13.16,8.87s-5.89,8.87-13.16,8.87-13.16-3.97-13.16-8.87,5.89-8.87,13.16-8.87Z" style="fill:#8f00df;"/><path d="m694.3,99.29h0c8.82,0,15.96-7.29,15.96-16.28v-15.32c0-8.99-7.15-16.28-15.96-16.28h0c-8.82,0-15.96,7.29-15.96,16.28v15.32c0,8.99,7.15,16.28,15.96,16.28Zm0-32.82c7.27,0,13.16,3.97,13.16,8.87s-5.89,8.87-13.16,8.87-13.16-3.97-13.16-8.87,5.89-8.87,13.16-8.87Z" style="fill:#8f00df;"/><path d="m658.62,99.29h0c8.82,0,15.96-7.29,15.96-16.28v-15.32c0-8.99-7.15-16.28-15.96-16.28h0c-8.82,0-15.96,7.29-15.96,16.28v15.32c0,8.99,7.15,16.28,15.96,16.28Zm0-32.82c7.27,0,13.16,3.97,13.16,8.87s-5.89,8.87-13.16,8.87-13.16-3.97-13.16-8.87,5.89-8.87,13.16-8.87Z" style="fill:#8f00df;"/><path d="m622.93,99.29h0c8.82,0,15.96-7.29,15.96-16.28v-15.32c0-8.99-7.15-16.28-15.96-16.28h0c-8.82,0-15.96,7.29-15.96,16.28v15.32c0,8.99,7.15,16.28,15.96,16.28Zm0-32.82c7.27,0,13.16,3.97,13.16,8.87s-5.89,8.87-13.16,8.87-13.16-3.97-13.16-8.87,5.89-8.87,13.16-8.87Z" style="fill:#8f00df;"/><path d="m587.25,99.29h0c8.82,0,15.96-7.29,15.96-16.28v-15.32c0-8.99-7.15-16.28-15.96-16.28h0c-8.82,0-15.96,7.29-15.96,16.28v15.32c0,8.99,7.15,16.28,15.96,16.28Zm0-32.82c7.27,0,13.16,3.97,13.16,8.87s-5.89,8.87-13.16,8.87-13.16-3.97-13.16-8.87,5.89-8.87,13.16-8.87Z" style="fill:#8f00df;"/><path d="m551.56,99.29h0c8.82,0,15.96-7.29,15.96-16.28v-15.32c0-8.99-7.15-16.28-15.96-16.28h0c-8.82,0-15.96,7.29-15.96,16.28v15.32c0,8.99,7.15,16.28,15.96,16.28Zm0-32.82c7.27,0,13.16,3.97,13.16,8.87s-5.89,8.87-13.16,8.87-13.16-3.97-13.16-8.87,5.89-8.87,13.16-8.87Z" style="fill:#8f00df;"/><path d="m515.88,99.29h0c8.82,0,15.96-7.29,15.96-16.28v-15.32c0-8.99-7.15-16.28-15.96-16.28h0c-8.82,0-15.96,7.29-15.96,16.28v15.32c0,8.99,7.15,16.28,15.96,16.28Zm0-32.82c7.27,0,13.16,3.97,13.16,8.87s-5.89,8.87-13.16,8.87-13.16-3.97-13.16-8.87,5.89-8.87,13.16-8.87Z" style="fill:#8f00df;"/><path d="m480.2,99.29h0c8.82,0,15.96-7.29,15.96-16.28v-15.32c0-8.99-7.15-16.28-15.96-16.28h0c-8.82,0-15.96,7.29-15.96,16.28v15.32c0,8.99,7.15,16.28,15.96,16.28Zm0-32.82c7.27,0,13.16,3.97,13.16,8.87s-5.89,8.87-13.16,8.87-13.16-3.97-13.16-8.87,5.89-8.87,13.16-8.87Z" style="fill:#8f00df;"/><path d="m444.51,99.29h0c8.82,0,15.96-7.29,15.96-16.28v-15.32c0-8.99-7.15-16.28-15.96-16.28h0c-8.82,0-15.96,7.29-15.96,16.28v15.32c0,8.99,7.15,16.28,15.96,16.28Zm0-32.82c7.27,0,13.16,3.97,13.16,8.87s-5.89,8.87-13.16,8.87-13.16-3.97-13.16-8.87,5.89-8.87,13.16-8.87Z" style="fill:#8f00df;"/><path d="m408.83,99.29h0c8.82,0,15.96-7.29,15.96-16.28v-15.32c0-8.99-7.15-16.28-15.96-16.28h0c-8.82,0-15.96,7.29-15.96,16.28v15.32c0,8.99,7.15,16.28,15.96,16.28Zm0-32.82c7.27,0,13.16,3.97,13.16,8.87s-5.89,8.87-13.16,8.87-13.16-3.97-13.16-8.87,5.89-8.87,13.16-8.87Z" style="fill:#8f00df;"/><path d="m765.67,47.88h0c8.82,0,15.96-7.29,15.96-16.28v-15.32c0-8.99-7.15-16.28-15.96-16.28h0c-8.82,0-15.96,7.29-15.96,16.28v15.32c0,8.99,7.15,16.28,15.96,16.28Zm0-32.82c7.27,0,13.16,3.97,13.16,8.87s-5.89,8.87-13.16,8.87-13.16-3.97-13.16-8.87,5.89-8.87,13.16-8.87Z" style="fill:#8f00df;"/><path d="m729.99,47.88h0c8.82,0,15.96-7.29,15.96-16.28v-15.32c0-8.99-7.15-16.28-15.96-16.28h0c-8.82,0-15.96,7.29-15.96,16.28v15.32c0,8.99,7.15,16.28,15.96,16.28Zm0-32.82c7.27,0,13.16,3.97,13.16,8.87s-5.89,8.87-13.16,8.87-13.16-3.97-13.16-8.87,5.89-8.87,13.16-8.87Z" style="fill:#8f00df;"/><path d="m694.3,47.88h0c8.82,0,15.96-7.29,15.96-16.28v-15.32c0-8.99-7.15-16.28-15.96-16.28h0c-8.82,0-15.96,7.29-15.96,16.28v15.32c0,8.99,7.15,16.28,15.96,16.28Zm0-32.82c7.27,0,13.16,3.97,13.16,8.87s-5.89,8.87-13.16,8.87-13.16-3.97-13.16-8.87,5.89-8.87,13.16-8.87Z" style="fill:#8f00df;"/><path d="m658.62,47.88h0c8.82,0,15.96-7.29,15.96-16.28v-15.32c0-8.99-7.15-16.28-15.96-16.28h0c-8.82,0-15.96,7.29-15.96,16.28v15.32c0,8.99,7.15,16.28,15.96,16.28Zm0-32.82c7.27,0,13.16,3.97,13.16,8.87s-5.89,8.87-13.16,8.87-13.16-3.97-13.16-8.87,5.89-8.87,13.16-8.87Z" style="fill:#8f00df;"/><path d="m622.93,47.88h0c8.82,0,15.96-7.29,15.96-16.28v-15.32C638.9,7.29,631.75,0,622.93,0h0C614.12,0,606.97,7.29,606.97,16.28v15.32c0,8.99,7.15,16.28,15.96,16.28Zm0-32.82c7.27,0,13.16,3.97,13.16,8.87s-5.89,8.87-13.16,8.87-13.16-3.97-13.16-8.87,5.89-8.87,13.16-8.87Z" style="fill:#8f00df;"/><path d="m587.25,47.88h0c8.82,0,15.96-7.29,15.96-16.28v-15.32C603.21,7.29,596.07,0,587.25,0h0C578.43,0,571.28,7.29,571.28,16.28v15.32c0,8.99,7.15,16.28,15.96,16.28Zm0-32.82c7.27,0,13.16,3.97,13.16,8.87s-5.89,8.87-13.16,8.87-13.16-3.97-13.16-8.87,5.89-8.87,13.16-8.87Z" style="fill:#8f00df;"/><path d="m551.56,47.88h0c8.82,0,15.96-7.29,15.96-16.28v-15.32C567.53,7.29,560.38,0,551.56,0h0C542.75,0,535.6,7.29,535.6,16.28v15.32c0,8.99,7.15,16.28,15.96,16.28Zm0-32.82c7.27,0,13.16,3.97,13.16,8.87s-5.89,8.87-13.16,8.87-13.16-3.97-13.16-8.87,5.89-8.87,13.16-8.87Z" style="fill:#8f00df;"/><path d="m515.88,47.88h0c8.82,0,15.96-7.29,15.96-16.28v-15.32C531.84,7.29,524.7,0,515.88,0h0C507.06,0,499.92,7.29,499.92,16.28v15.32c0,8.99,7.15,16.28,15.96,16.28Zm0-32.82c7.27,0,13.16,3.97,13.16,8.87s-5.89,8.87-13.16,8.87-13.16-3.97-13.16-8.87,5.89-8.87,13.16-8.87Z" style="fill:#8f00df;"/><path d="m480.2,47.88h0c8.82,0,15.96-7.29,15.96-16.28v-15.32C496.16,7.29,489.01,0,480.2,0h0C471.38,0,464.23,7.29,464.23,16.28v15.32c0,8.99,7.15,16.28,15.96,16.28Zm0-32.82c7.27,0,13.16,3.97,13.16,8.87s-5.89,8.87-13.16,8.87-13.16-3.97-13.16-8.87,5.89-8.87,13.16-8.87Z" style="fill:#8f00df;"/><path d="m444.51,47.88h0c8.82,0,15.96-7.29,15.96-16.28v-15.32C460.48,7.29,453.33,0,444.51,0h0C435.69,0,428.55,7.29,428.55,16.28v15.32c0,8.99,7.15,16.28,15.96,16.28Zm0-32.82c7.27,0,13.16,3.97,13.16,8.87s-5.89,8.87-13.16,8.87-13.16-3.97-13.16-8.87,5.89-8.87,13.16-8.87Z" style="fill:#8f00df;"/><path d="m408.83,47.88h0c8.82,0,15.96-7.29,15.96-16.28v-15.32C424.79,7.29,417.64,0,408.83,0h0C400.01,0,392.86,7.29,392.86,16.28v15.32c0,8.99,7.15,16.28,15.96,16.28Zm0-32.82c7.27,0,13.16,3.97,13.16,8.87s-5.89,8.87-13.16,8.87-13.16-3.97-13.16-8.87,5.89-8.87,13.16-8.87Z" style="fill:#8f00df;"/><path d="m980.28,253.51h0c8.82,0,15.96-7.29,15.96-16.28v-15.32c0-8.99-7.15-16.28-15.96-16.28h0c-8.82,0-15.96,7.29-15.96,16.28v15.32c0,8.99,7.15,16.28,15.96,16.28Zm0-32.82c7.27,0,13.16,3.97,13.16,8.87s-5.89,8.87-13.16,8.87-13.16-3.97-13.16-8.87,5.89-8.87,13.16-8.87Z" style="fill:#8f00df;"/><path d="m944.6,253.51h0c8.82,0,15.96-7.29,15.96-16.28v-15.32c0-8.99-7.15-16.28-15.96-16.28h0c-8.82,0-15.96,7.29-15.96,16.28v15.32c0,8.99,7.15,16.28,15.96,16.28Zm0-32.82c7.27,0,13.16,3.97,13.16,8.87s-5.89,8.87-13.16,8.87-13.16-3.97-13.16-8.87,5.89-8.87,13.16-8.87Z" style="fill:#8f00df;"/><path d="m908.91,253.51h0c8.82,0,15.96-7.29,15.96-16.28v-15.32c0-8.99-7.15-16.28-15.96-16.28h0c-8.82,0-15.96,7.29-15.96,16.28v15.32c0,8.99,7.15,16.28,15.96,16.28Zm0-32.82c7.27,0,13.16,3.97,13.16,8.87s-5.89,8.87-13.16,8.87-13.16-3.97-13.16-8.87,5.89-8.87,13.16-8.87Z" style="fill:#8f00df;"/><path d="m873.23,253.51h0c8.82,0,15.96-7.29,15.96-16.28v-15.32c0-8.99-7.15-16.28-15.96-16.28h0c-8.82,0-15.96,7.29-15.96,16.28v15.32c0,8.99,7.15,16.28,15.96,16.28Zm0-32.82c7.27,0,13.16,3.97,13.16,8.87s-5.89,8.87-13.16,8.87-13.16-3.97-13.16-8.87,5.89-8.87,13.16-8.87Z" style="fill:#8f00df;"/><path d="m837.54,253.51h0c8.82,0,15.96-7.29,15.96-16.28v-15.32c0-8.99-7.15-16.28-15.96-16.28h0c-8.82,0-15.96,7.29-15.96,16.28v15.32c0,8.99,7.15,16.28,15.96,16.28Zm0-32.82c7.27,0,13.16,3.97,13.16,8.87s-5.89,8.87-13.16,8.87-13.16-3.97-13.16-8.87,5.89-8.87,13.16-8.87Z" style="fill:#8f00df;"/><path d="m801.86,253.51h0c8.82,0,15.96-7.29,15.96-16.28v-15.32c0-8.99-7.15-16.28-15.96-16.28h0c-8.82,0-15.96,7.29-15.96,16.28v15.32c0,8.99,7.15,16.28,15.96,16.28Zm0-32.82c7.27,0,13.16,3.97,13.16,8.87s-5.89,8.87-13.16,8.87-13.16-3.97-13.16-8.87,5.89-8.87,13.16-8.87Z" style="fill:#8f00df;"/><path d="m980.28,202.1h0c8.82,0,15.96-7.29,15.96-16.28v-15.32c0-8.99-7.15-16.28-15.96-16.28h0c-8.82,0-15.96,7.29-15.96,16.28v15.32c0,8.99,7.15,16.28,15.96,16.28Zm0-32.82c7.27,0,13.16,3.97,13.16,8.87s-5.89,8.87-13.16,8.87-13.16-3.97-13.16-8.87,5.89-8.87,13.16-8.87Z" style="fill:#8f00df;"/><path d="m944.6,202.1h0c8.82,0,15.96-7.29,15.96-16.28v-15.32c0-8.99-7.15-16.28-15.96-16.28h0c-8.82,0-15.96,7.29-15.96,16.28v15.32c0,8.99,7.15,16.28,15.96,16.28Zm0-32.82c7.27,0,13.16,3.97,13.16,8.87s-5.89,8.87-13.16,8.87-13.16-3.97-13.16-8.87,5.89-8.87,13.16-8.87Z" style="fill:#8f00df;"/><path d="m908.91,202.1h0c8.82,0,15.96-7.29,15.96-16.28v-15.32c0-8.99-7.15-16.28-15.96-16.28h0c-8.82,0-15.96,7.29-15.96,16.28v15.32c0,8.99,7.15,16.28,15.96,16.28Zm0-32.82c7.27,0,13.16,3.97,13.16,8.87s-5.89,8.87-13.16,8.87-13.16-3.97-13.16-8.87,5.89-8.87,13.16-8.87Z" style="fill:#8f00df;"/><path d="m873.23,202.1h0c8.82,0,15.96-7.29,15.96-16.28v-15.32c0-8.99-7.15-16.28-15.96-16.28h0c-8.82,0-15.96,7.29-15.96,16.28v15.32c0,8.99,7.15,16.28,15.96,16.28Zm0-32.82c7.27,0,13.16,3.97,13.16,8.87s-5.89,8.87-13.16,8.87-13.16-3.97-13.16-8.87,5.89-8.87,13.16-8.87Z" style="fill:#8f00df;"/><path d="m837.54,202.1h0c8.82,0,15.96-7.29,15.96-16.28v-15.32c0-8.99-7.15-16.28-15.96-16.28h0c-8.82,0-15.96,7.29-15.96,16.28v15.32c0,8.99,7.15,16.28,15.96,16.28Zm0-32.82c7.27,0,13.16,3.97,13.16,8.87s-5.89,8.87-13.16,8.87-13.16-3.97-13.16-8.87,5.89-8.87,13.16-8.87Z" style="fill:#8f00df;"/><path d="m801.86,202.1h0c8.82,0,15.96-7.29,15.96-16.28v-15.32c0-8.99-7.15-16.28-15.96-16.28h0c-8.82,0-15.96,7.29-15.96,16.28v15.32c0,8.99,7.15,16.28,15.96,16.28Zm0-32.82c7.27,0,13.16,3.97,13.16,8.87s-5.89,8.87-13.16,8.87-13.16-3.97-13.16-8.87,5.89-8.87,13.16-8.87Z" style="fill:#8f00df;"/><path d="m980.28,150.7h0c8.82,0,15.96-7.29,15.96-16.28v-15.32c0-8.99-7.15-16.28-15.96-16.28h0c-8.82,0-15.96,7.29-15.96,16.28v15.32c0,8.99,7.15,16.28,15.96,16.28Zm0-32.82c7.27,0,13.16,3.97,13.16,8.87s-5.89,8.87-13.16,8.87-13.16-3.97-13.16-8.87,5.89-8.87,13.16-8.87Z" style="fill:#8f00df;"/><path d="m944.6,150.7h0c8.82,0,15.96-7.29,15.96-16.28v-15.32c0-8.99-7.15-16.28-15.96-16.28h0c-8.82,0-15.96,7.29-15.96,16.28v15.32c0,8.99,7.15,16.28,15.96,16.28Zm0-32.82c7.27,0,13.16,3.97,13.16,8.87s-5.89,8.87-13.16,8.87-13.16-3.97-13.16-8.87,5.89-8.87,13.16-8.87Z" style="fill:#8f00df;"/><path d="m908.91,150.7h0c8.82,0,15.96-7.29,15.96-16.28v-15.32c0-8.99-7.15-16.28-15.96-16.28h0c-8.82,0-15.96,7.29-15.96,16.28v15.32c0,8.99,7.15,16.28,15.96,16.28Zm0-32.82c7.27,0,13.16,3.97,13.16,8.87s-5.89,8.87-13.16,8.87-13.16-3.97-13.16-8.87,5.89-8.87,13.16-8.87Z" style="fill:#8f00df;"/><path d="m873.23,150.7h0c8.82,0,15.96-7.29,15.96-16.28v-15.32c0-8.99-7.15-16.28-15.96-16.28h0c-8.82,0-15.96,7.29-15.96,16.28v15.32c0,8.99,7.15,16.28,15.96,16.28Zm0-32.82c7.27,0,13.16,3.97,13.16,8.87s-5.89,8.87-13.16,8.87-13.16-3.97-13.16-8.87,5.89-8.87,13.16-8.87Z" style="fill:#8f00df;"/><path d="m837.54,150.7h0c8.82,0,15.96-7.29,15.96-16.28v-15.32c0-8.99-7.15-16.28-15.96-16.28h0c-8.82,0-15.96,7.29-15.96,16.28v15.32c0,8.99,7.15,16.28,15.96,16.28Zm0-32.82c7.27,0,13.16,3.97,13.16,8.87s-5.89,8.87-13.16,8.87-13.16-3.97-13.16-8.87,5.89-8.87,13.16-8.87Z" style="fill:#8f00df;"/><path d="m801.86,150.7h0c8.82,0,15.96-7.29,15.96-16.28v-15.32c0-8.99-7.15-16.28-15.96-16.28h0c-8.82,0-15.96,7.29-15.96,16.28v15.32c0,8.99,7.15,16.28,15.96,16.28Zm0-32.82c7.27,0,13.16,3.97,13.16,8.87s-5.89,8.87-13.16,8.87-13.16-3.97-13.16-8.87,5.89-8.87,13.16-8.87Z" style="fill:#8f00df;"/><path d="m980.28,99.29h0c8.82,0,15.96-7.29,15.96-16.28v-15.32c0-8.99-7.15-16.28-15.96-16.28h0c-8.82,0-15.96,7.29-15.96,16.28v15.32c0,8.99,7.15,16.28,15.96,16.28Zm0-32.82c7.27,0,13.16,3.97,13.16,8.87s-5.89,8.87-13.16,8.87-13.16-3.97-13.16-8.87,5.89-8.87,13.16-8.87Z" style="fill:#8f00df;"/><path d="m944.6,99.29h0c8.82,0,15.96-7.29,15.96-16.28v-15.32c0-8.99-7.15-16.28-15.96-16.28h0c-8.82,0-15.96,7.29-15.96,16.28v15.32c0,8.99,7.15,16.28,15.96,16.28Zm0-32.82c7.27,0,13.16,3.97,13.16,8.87s-5.89,8.87-13.16,8.87-13.16-3.97-13.16-8.87,5.89-8.87,13.16-8.87Z" style="fill:#8f00df;"/><path d="m908.91,99.29h0c8.82,0,15.96-7.29,15.96-16.28v-15.32c0-8.99-7.15-16.28-15.96-16.28h0c-8.82,0-15.96,7.29-15.96,16.28v15.32c0,8.99,7.15,16.28,15.96,16.28Zm0-32.82c7.27,0,13.16,3.97,13.16,8.87s-5.89,8.87-13.16,8.87-13.16-3.97-13.16-8.87,5.89-8.87,13.16-8.87Z" style="fill:#8f00df;"/><path d="m873.23,99.29h0c8.82,0,15.96-7.29,15.96-16.28v-15.32c0-8.99-7.15-16.28-15.96-16.28h0c-8.82,0-15.96,7.29-15.96,16.28v15.32c0,8.99,7.15,16.28,15.96,16.28Zm0-32.82c7.27,0,13.16,3.97,13.16,8.87s-5.89,8.87-13.16,8.87-13.16-3.97-13.16-8.87,5.89-8.87,13.16-8.87Z" style="fill:#8f00df;"/><path d="m837.54,99.29h0c8.82,0,15.96-7.29,15.96-16.28v-15.32c0-8.99-7.15-16.28-15.96-16.28h0c-8.82,0-15.96,7.29-15.96,16.28v15.32c0,8.99,7.15,16.28,15.96,16.28Zm0-32.82c7.27,0,13.16,3.97,13.16,8.87s-5.89,8.87-13.16,8.87-13.16-3.97-13.16-8.87,5.89-8.87,13.16-8.87Z" style="fill:#8f00df;"/><path d="m801.86,99.29h0c8.82,0,15.96-7.29,15.96-16.28v-15.32c0-8.99-7.15-16.28-15.96-16.28h0c-8.82,0-15.96,7.29-15.96,16.28v15.32c0,8.99,7.15,16.28,15.96,16.28Zm0-32.82c7.27,0,13.16,3.97,13.16,8.87s-5.89,8.87-13.16,8.87-13.16-3.97-13.16-8.87,5.89-8.87,13.16-8.87Z" style="fill:#8f00df;"/><path d="m980.28,47.88h0c8.82,0,15.96-7.29,15.96-16.28v-15.32C996.24,7.29,989.1,0,980.28,0h0C971.46,0,964.32,7.29,964.32,16.28v15.32c0,8.99,7.15,16.28,15.96,16.28Zm0-32.82c7.27,0,13.16,3.97,13.16,8.87s-5.89,8.87-13.16,8.87-13.16-3.97-13.16-8.87,5.89-8.87,13.16-8.87Z" style="fill:#8f00df;"/><path d="m944.6,47.88h0c8.82,0,15.96-7.29,15.96-16.28v-15.32C960.56,7.29,953.41,0,944.6,0h0C935.78,0,928.63,7.29,928.63,16.28v15.32c0,8.99,7.15,16.28,15.96,16.28Zm0-32.82c7.27,0,13.16,3.97,13.16,8.87s-5.89,8.87-13.16,8.87-13.16-3.97-13.16-8.87,5.89-8.87,13.16-8.87Z" style="fill:#8f00df;"/><path d="m908.91,47.88h0c8.82,0,15.96-7.29,15.96-16.28v-15.32C924.88,7.29,917.73,0,908.91,0h0C900.09,0,892.95,7.29,892.95,16.28v15.32c0,8.99,7.15,16.28,15.96,16.28Zm0-32.82c7.27,0,13.16,3.97,13.16,8.87s-5.89,8.87-13.16,8.87-13.16-3.97-13.16-8.87,5.89-8.87,13.16-8.87Z" style="fill:#8f00df;"/><path d="m873.23,47.88h0c8.82,0,15.96-7.29,15.96-16.28v-15.32C889.19,7.29,882.04,0,873.23,0h0C864.41,0,857.26,7.29,857.26,16.28v15.32c0,8.99,7.15,16.28,15.96,16.28Zm0-32.82c7.27,0,13.16,3.97,13.16,8.87s-5.89,8.87-13.16,8.87-13.16-3.97-13.16-8.87,5.89-8.87,13.16-8.87Z" style="fill:#8f00df;"/><path d="m837.54,47.88h0c8.82,0,15.96-7.29,15.96-16.28v-15.32C853.51,7.29,846.36,0,837.54,0h0C828.73,0,821.58,7.29,821.58,16.28v15.32c0,8.99,7.15,16.28,15.96,16.28Zm0-32.82c7.27,0,13.16,3.97,13.16,8.87s-5.89,8.87-13.16,8.87-13.16-3.97-13.16-8.87,5.89-8.87,13.16-8.87Z" style="fill:#8f00df;"/><path d="m801.86,47.88h0c8.82,0,15.96-7.29,15.96-16.28v-15.32C817.82,7.29,810.67,0,801.86,0h0C793.04,0,785.89,7.29,785.89,16.28v15.32c0,8.99,7.15,16.28,15.96,16.28Zm0-32.82c7.27,0,13.16,3.97,13.16,8.87s-5.89,8.87-13.16,8.87-13.16-3.97-13.16-8.87,5.89-8.87,13.16-8.87Z" style="fill:#8f00df;"/><path d="m1372.24,253.51h0c8.82,0,15.96-7.29,15.96-16.28v-15.32c0-8.99-7.15-16.28-15.96-16.28h0c-8.82,0-15.96,7.29-15.96,16.28v15.32c0,8.99,7.15,16.28,15.96,16.28Zm0-32.82c7.27,0,13.16,3.97,13.16,8.87s-5.89,8.87-13.16,8.87-13.16-3.97-13.16-8.87,5.89-8.87,13.16-8.87Z" style="fill:#8f00df;"/><path d="m1336.56,253.51h0c8.82,0,15.96-7.29,15.96-16.28v-15.32c0-8.99-7.15-16.28-15.96-16.28h0c-8.82,0-15.96,7.29-15.96,16.28v15.32c0,8.99,7.15,16.28,15.96,16.28Zm0-32.82c7.27,0,13.16,3.97,13.16,8.87s-5.89,8.87-13.16,8.87-13.16-3.97-13.16-8.87,5.89-8.87,13.16-8.87Z" style="fill:#8f00df;"/><path d="m1300.87,253.51h0c8.82,0,15.96-7.29,15.96-16.28v-15.32c0-8.99-7.15-16.28-15.96-16.28h0c-8.82,0-15.96,7.29-15.96,16.28v15.32c0,8.99,7.15,16.28,15.96,16.28Zm0-32.82c7.27,0,13.16,3.97,13.16,8.87s-5.89,8.87-13.16,8.87-13.16-3.97-13.16-8.87,5.89-8.87,13.16-8.87Z" style="fill:#8f00df;"/><path d="m1265.19,253.51h0c8.82,0,15.96-7.29,15.96-16.28v-15.32c0-8.99-7.15-16.28-15.96-16.28h0c-8.82,0-15.96,7.29-15.96,16.28v15.32c0,8.99,7.15,16.28,15.96,16.28Zm0-32.82c7.27,0,13.16,3.97,13.16,8.87s-5.89,8.87-13.16,8.87-13.16-3.97-13.16-8.87,5.89-8.87,13.16-8.87Z" style="fill:#8f00df;"/><path d="m1229.51,253.51h0c8.82,0,15.96-7.29,15.96-16.28v-15.32c0-8.99-7.15-16.28-15.96-16.28h0c-8.82,0-15.96,7.29-15.96,16.28v15.32c0,8.99,7.15,16.28,15.96,16.28Zm0-32.82c7.27,0,13.16,3.97,13.16,8.87s-5.89,8.87-13.16,8.87-13.16-3.97-13.16-8.87,5.89-8.87,13.16-8.87Z" style="fill:#8f00df;"/><path d="m1193.82,253.51h0c8.82,0,15.96-7.29,15.96-16.28v-15.32c0-8.99-7.15-16.28-15.96-16.28h0c-8.82,0-15.96,7.29-15.96,16.28v15.32c0,8.99,7.15,16.28,15.96,16.28Zm0-32.82c7.27,0,13.16,3.97,13.16,8.87s-5.89,8.87-13.16,8.87-13.16-3.97-13.16-8.87,5.89-8.87,13.16-8.87Z" style="fill:#8f00df;"/><path d="m1158.14,253.51h0c8.82,0,15.96-7.29,15.96-16.28v-15.32c0-8.99-7.15-16.28-15.96-16.28h0c-8.82,0-15.96,7.29-15.96,16.28v15.32c0,8.99,7.15,16.28,15.96,16.28Zm0-32.82c7.27,0,13.16,3.97,13.16,8.87s-5.89,8.87-13.16,8.87-13.16-3.97-13.16-8.87,5.89-8.87,13.16-8.87Z" style="fill:#8f00df;"/><path d="m1122.45,253.51h0c8.82,0,15.96-7.29,15.96-16.28v-15.32c0-8.99-7.15-16.28-15.96-16.28h0c-8.82,0-15.96,7.29-15.96,16.28v15.32c0,8.99,7.15,16.28,15.96,16.28Zm0-32.82c7.27,0,13.16,3.97,13.16,8.87s-5.89,8.87-13.16,8.87-13.16-3.97-13.16-8.87,5.89-8.87,13.16-8.87Z" style="fill:#8f00df;"/><path d="m1086.77,253.51h0c8.82,0,15.96-7.29,15.96-16.28v-15.32c0-8.99-7.15-16.28-15.96-16.28h0c-8.82,0-15.96,7.29-15.96,16.28v15.32c0,8.99,7.15,16.28,15.96,16.28Zm0-32.82c7.27,0,13.16,3.97,13.16,8.87s-5.89,8.87-13.16,8.87-13.16-3.97-13.16-8.87,5.89-8.87,13.16-8.87Z" style="fill:#8f00df;"/><path d="m1051.08,253.51h0c8.82,0,15.96-7.29,15.96-16.28v-15.32c0-8.99-7.15-16.28-15.96-16.28h0c-8.82,0-15.96,7.29-15.96,16.28v15.32c0,8.99,7.15,16.28,15.96,16.28Zm0-32.82c7.27,0,13.16,3.97,13.16,8.87s-5.89,8.87-13.16,8.87-13.16-3.97-13.16-8.87,5.89-8.87,13.16-8.87Z" style="fill:#8f00df;"/><path d="m1015.4,253.51h0c8.82,0,15.96-7.29,15.96-16.28v-15.32c0-8.99-7.15-16.28-15.96-16.28h0c-8.82,0-15.96,7.29-15.96,16.28v15.32c0,8.99,7.15,16.28,15.96,16.28Zm0-32.82c7.27,0,13.16,3.97,13.16,8.87s-5.89,8.87-13.16,8.87-13.16-3.97-13.16-8.87,5.89-8.87,13.16-8.87Z" style="fill:#8f00df;"/><path d="m1372.24,202.1h0c8.82,0,15.96-7.29,15.96-16.28v-15.32c0-8.99-7.15-16.28-15.96-16.28h0c-8.82,0-15.96,7.29-15.96,16.28v15.32c0,8.99,7.15,16.28,15.96,16.28Zm0-32.82c7.27,0,13.16,3.97,13.16,8.87s-5.89,8.87-13.16,8.87-13.16-3.97-13.16-8.87,5.89-8.87,13.16-8.87Z" style="fill:#8f00df;"/><path d="m1336.56,202.1h0c8.82,0,15.96-7.29,15.96-16.28v-15.32c0-8.99-7.15-16.28-15.96-16.28h0c-8.82,0-15.96,7.29-15.96,16.28v15.32c0,8.99,7.15,16.28,15.96,16.28Zm0-32.82c7.27,0,13.16,3.97,13.16,8.87s-5.89,8.87-13.16,8.87-13.16-3.97-13.16-8.87,5.89-8.87,13.16-8.87Z" style="fill:#8f00df;"/><path d="m1300.87,202.1h0c8.82,0,15.96-7.29,15.96-16.28v-15.32c0-8.99-7.15-16.28-15.96-16.28h0c-8.82,0-15.96,7.29-15.96,16.28v15.32c0,8.99,7.15,16.28,15.96,16.28Zm0-32.82c7.27,0,13.16,3.97,13.16,8.87s-5.89,8.87-13.16,8.87-13.16-3.97-13.16-8.87,5.89-8.87,13.16-8.87Z" style="fill:#8f00df;"/><path d="m1265.19,202.1h0c8.82,0,15.96-7.29,15.96-16.28v-15.32c0-8.99-7.15-16.28-15.96-16.28h0c-8.82,0-15.96,7.29-15.96,16.28v15.32c0,8.99,7.15,16.28,15.96,16.28Zm0-32.82c7.27,0,13.16,3.97,13.16,8.87s-5.89,8.87-13.16,8.87-13.16-3.97-13.16-8.87,5.89-8.87,13.16-8.87Z" style="fill:#8f00df;"/><path d="m1229.51,202.1h0c8.82,0,15.96-7.29,15.96-16.28v-15.32c0-8.99-7.15-16.28-15.96-16.28h0c-8.82,0-15.96,7.29-15.96,16.28v15.32c0,8.99,7.15,16.28,15.96,16.28Zm0-32.82c7.27,0,13.16,3.97,13.16,8.87s-5.89,8.87-13.16,8.87-13.16-3.97-13.16-8.87,5.89-8.87,13.16-8.87Z" style="fill:#8f00df;"/><path d="m1193.82,202.1h0c8.82,0,15.96-7.29,15.96-16.28v-15.32c0-8.99-7.15-16.28-15.96-16.28h0c-8.82,0-15.96,7.29-15.96,16.28v15.32c0,8.99,7.15,16.28,15.96,16.28Zm0-32.82c7.27,0,13.16,3.97,13.16,8.87s-5.89,8.87-13.16,8.87-13.16-3.97-13.16-8.87,5.89-8.87,13.16-8.87Z" style="fill:#8f00df;"/><path d="m1158.14,202.1h0c8.82,0,15.96-7.29,15.96-16.28v-15.32c0-8.99-7.15-16.28-15.96-16.28h0c-8.82,0-15.96,7.29-15.96,16.28v15.32c0,8.99,7.15,16.28,15.96,16.28Zm0-32.82c7.27,0,13.16,3.97,13.16,8.87s-5.89,8.87-13.16,8.87-13.16-3.97-13.16-8.87,5.89-8.87,13.16-8.87Z" style="fill:#8f00df;"/><path d="m1122.45,202.1h0c8.82,0,15.96-7.29,15.96-16.28v-15.32c0-8.99-7.15-16.28-15.96-16.28h0c-8.82,0-15.96,7.29-15.96,16.28v15.32c0,8.99,7.15,16.28,15.96,16.28Zm0-32.82c7.27,0,13.16,3.97,13.16,8.87s-5.89,8.87-13.16,8.87-13.16-3.97-13.16-8.87,5.89-8.87,13.16-8.87Z" style="fill:#8f00df;"/><path d="m1086.77,202.1h0c8.82,0,15.96-7.29,15.96-16.28v-15.32c0-8.99-7.15-16.28-15.96-16.28h0c-8.82,0-15.96,7.29-15.96,16.28v15.32c0,8.99,7.15,16.28,15.96,16.28Zm0-32.82c7.27,0,13.16,3.97,13.16,8.87s-5.89,8.87-13.16,8.87-13.16-3.97-13.16-8.87,5.89-8.87,13.16-8.87Z" style="fill:#8f00df;"/><path d="m1051.08,202.1h0c8.82,0,15.96-7.29,15.96-16.28v-15.32c0-8.99-7.15-16.28-15.96-16.28h0c-8.82,0-15.96,7.29-15.96,16.28v15.32c0,8.99,7.15,16.28,15.96,16.28Zm0-32.82c7.27,0,13.16,3.97,13.16,8.87s-5.89,8.87-13.16,8.87-13.16-3.97-13.16-8.87,5.89-8.87,13.16-8.87Z" style="fill:#8f00df;"/><path d="m1015.4,202.1h0c8.82,0,15.96-7.29,15.96-16.28v-15.32c0-8.99-7.15-16.28-15.96-16.28h0c-8.82,0-15.96,7.29-15.96,16.28v15.32c0,8.99,7.15,16.28,15.96,16.28Zm0-32.82c7.27,0,13.16,3.97,13.16,8.87s-5.89,8.87-13.16,8.87-13.16-3.97-13.16-8.87,5.89-8.87,13.16-8.87Z" style="fill:#8f00df;"/><path d="m1372.24,150.7h0c8.82,0,15.96-7.29,15.96-16.28v-15.32c0-8.99-7.15-16.28-15.96-16.28h0c-8.82,0-15.96,7.29-15.96,16.28v15.32c0,8.99,7.15,16.28,15.96,16.28Zm0-32.82c7.27,0,13.16,3.97,13.16,8.87s-5.89,8.87-13.16,8.87-13.16-3.97-13.16-8.87,5.89-8.87,13.16-8.87Z" style="fill:#8f00df;"/><path d="m1336.56,150.7h0c8.82,0,15.96-7.29,15.96-16.28v-15.32c0-8.99-7.15-16.28-15.96-16.28h0c-8.82,0-15.96,7.29-15.96,16.28v15.32c0,8.99,7.15,16.28,15.96,16.28Zm0-32.82c7.27,0,13.16,3.97,13.16,8.87s-5.89,8.87-13.16,8.87-13.16-3.97-13.16-8.87,5.89-8.87,13.16-8.87Z" style="fill:#8f00df;"/><path d="m1300.87,150.7h0c8.82,0,15.96-7.29,15.96-16.28v-15.32c0-8.99-7.15-16.28-15.96-16.28h0c-8.82,0-15.96,7.29-15.96,16.28v15.32c0,8.99,7.15,16.28,15.96,16.28Zm0-32.82c7.27,0,13.16,3.97,13.16,8.87s-5.89,8.87-13.16,8.87-13.16-3.97-13.16-8.87,5.89-8.87,13.16-8.87Z" style="fill:#8f00df;"/><path d="m1265.19,150.7h0c8.82,0,15.96-7.29,15.96-16.28v-15.32c0-8.99-7.15-16.28-15.96-16.28h0c-8.82,0-15.96,7.29-15.96,16.28v15.32c0,8.99,7.15,16.28,15.96,16.28Zm0-32.82c7.27,0,13.16,3.97,13.16,8.87s-5.89,8.87-13.16,8.87-13.16-3.97-13.16-8.87,5.89-8.87,13.16-8.87Z" style="fill:#8f00df;"/><path d="m1229.51,150.7h0c8.82,0,15.96-7.29,15.96-16.28v-15.32c0-8.99-7.15-16.28-15.96-16.28h0c-8.82,0-15.96,7.29-15.96,16.28v15.32c0,8.99,7.15,16.28,15.96,16.28Zm0-32.82c7.27,0,13.16,3.97,13.16,8.87s-5.89,8.87-13.16,8.87-13.16-3.97-13.16-8.87,5.89-8.87,13.16-8.87Z" style="fill:#8f00df;"/><path d="m1193.82,150.7h0c8.82,0,15.96-7.29,15.96-16.28v-15.32c0-8.99-7.15-16.28-15.96-16.28h0c-8.82,0-15.96,7.29-15.96,16.28v15.32c0,8.99,7.15,16.28,15.96,16.28Zm0-32.82c7.27,0,13.16,3.97,13.16,8.87s-5.89,8.87-13.16,8.87-13.16-3.97-13.16-8.87,5.89-8.87,13.16-8.87Z" style="fill:#8f00df;"/><path d="m1158.14,150.7h0c8.82,0,15.96-7.29,15.96-16.28v-15.32c0-8.99-7.15-16.28-15.96-16.28h0c-8.82,0-15.96,7.29-15.96,16.28v15.32c0,8.99,7.15,16.28,15.96,16.28Zm0-32.82c7.27,0,13.16,3.97,13.16,8.87s-5.89,8.87-13.16,8.87-13.16-3.97-13.16-8.87,5.89-8.87,13.16-8.87Z" style="fill:#8f00df;"/><path d="m1122.45,150.7h0c8.82,0,15.96-7.29,15.96-16.28v-15.32c0-8.99-7.15-16.28-15.96-16.28h0c-8.82,0-15.96,7.29-15.96,16.28v15.32c0,8.99,7.15,16.28,15.96,16.28Zm0-32.82c7.27,0,13.16,3.97,13.16,8.87s-5.89,8.87-13.16,8.87-13.16-3.97-13.16-8.87,5.89-8.87,13.16-8.87Z" style="fill:#8f00df;"/><path d="m1086.77,150.7h0c8.82,0,15.96-7.29,15.96-16.28v-15.32c0-8.99-7.15-16.28-15.96-16.28h0c-8.82,0-15.96,7.29-15.96,16.28v15.32c0,8.99,7.15,16.28,15.96,16.28Zm0-32.82c7.27,0,13.16,3.97,13.16,8.87s-5.89,8.87-13.16,8.87-13.16-3.97-13.16-8.87,5.89-8.87,13.16-8.87Z" style="fill:#8f00df;"/><path d="m1051.08,150.7h0c8.82,0,15.96-7.29,15.96-16.28v-15.32c0-8.99-7.15-16.28-15.96-16.28h0c-8.82,0-15.96,7.29-15.96,16.28v15.32c0,8.99,7.15,16.28,15.96,16.28Zm0-32.82c7.27,0,13.16,3.97,13.16,8.87s-5.89,8.87-13.16,8.87-13.16-3.97-13.16-8.87,5.89-8.87,13.16-8.87Z" style="fill:#8f00df;"/><path d="m1015.4,150.7h0c8.82,0,15.96-7.29,15.96-16.28v-15.32c0-8.99-7.15-16.28-15.96-16.28h0c-8.82,0-15.96,7.29-15.96,16.28v15.32c0,8.99,7.15,16.28,15.96,16.28Zm0-32.82c7.27,0,13.16,3.97,13.16,8.87s-5.89,8.87-13.16,8.87-13.16-3.97-13.16-8.87,5.89-8.87,13.16-8.87Z" style="fill:#8f00df;"/><path d="m1372.24,99.29h0c8.82,0,15.96-7.29,15.96-16.28v-15.32c0-8.99-7.15-16.28-15.96-16.28h0c-8.82,0-15.96,7.29-15.96,16.28v15.32c0,8.99,7.15,16.28,15.96,16.28Zm0-32.82c7.27,0,13.16,3.97,13.16,8.87s-5.89,8.87-13.16,8.87-13.16-3.97-13.16-8.87,5.89-8.87,13.16-8.87Z" style="fill:#8f00df;"/><path d="m1336.56,99.29h0c8.82,0,15.96-7.29,15.96-16.28v-15.32c0-8.99-7.15-16.28-15.96-16.28h0c-8.82,0-15.96,7.29-15.96,16.28v15.32c0,8.99,7.15,16.28,15.96,16.28Zm0-32.82c7.27,0,13.16,3.97,13.16,8.87s-5.89,8.87-13.16,8.87-13.16-3.97-13.16-8.87,5.89-8.87,13.16-8.87Z" style="fill:#8f00df;"/><path d="m1300.87,99.29h0c8.82,0,15.96-7.29,15.96-16.28v-15.32c0-8.99-7.15-16.28-15.96-16.28h0c-8.82,0-15.96,7.29-15.96,16.28v15.32c0,8.99,7.15,16.28,15.96,16.28Zm0-32.82c7.27,0,13.16,3.97,13.16,8.87s-5.89,8.87-13.16,8.87-13.16-3.97-13.16-8.87,5.89-8.87,13.16-8.87Z" style="fill:#8f00df;"/><path d="m1265.19,99.29h0c8.82,0,15.96-7.29,15.96-16.28v-15.32c0-8.99-7.15-16.28-15.96-16.28h0c-8.82,0-15.96,7.29-15.96,16.28v15.32c0,8.99,7.15,16.28,15.96,16.28Zm0-32.82c7.27,0,13.16,3.97,13.16,8.87s-5.89,8.87-13.16,8.87-13.16-3.97-13.16-8.87,5.89-8.87,13.16-8.87Z" style="fill:#8f00df;"/><path d="m1229.51,99.29h0c8.82,0,15.96-7.29,15.96-16.28v-15.32c0-8.99-7.15-16.28-15.96-16.28h0c-8.82,0-15.96,7.29-15.96,16.28v15.32c0,8.99,7.15,16.28,15.96,16.28Zm0-32.82c7.27,0,13.16,3.97,13.16,8.87s-5.89,8.87-13.16,8.87-13.16-3.97-13.16-8.87,5.89-8.87,13.16-8.87Z" style="fill:#8f00df;"/><path d="m1193.82,99.29h0c8.82,0,15.96-7.29,15.96-16.28v-15.32c0-8.99-7.15-16.28-15.96-16.28h0c-8.82,0-15.96,7.29-15.96,16.28v15.32c0,8.99,7.15,16.28,15.96,16.28Zm0-32.82c7.27,0,13.16,3.97,13.16,8.87s-5.89,8.87-13.16,8.87-13.16-3.97-13.16-8.87,5.89-8.87,13.16-8.87Z" style="fill:#8f00df;"/><path d="m1158.14,99.29h0c8.82,0,15.96-7.29,15.96-16.28v-15.32c0-8.99-7.15-16.28-15.96-16.28h0c-8.82,0-15.96,7.29-15.96,16.28v15.32c0,8.99,7.15,16.28,15.96,16.28Zm0-32.82c7.27,0,13.16,3.97,13.16,8.87s-5.89,8.87-13.16,8.87-13.16-3.97-13.16-8.87,5.89-8.87,13.16-8.87Z" style="fill:#8f00df;"/><path d="m1122.45,99.29h0c8.82,0,15.96-7.29,15.96-16.28v-15.32c0-8.99-7.15-16.28-15.96-16.28h0c-8.82,0-15.96,7.29-15.96,16.28v15.32c0,8.99,7.15,16.28,15.96,16.28Zm0-32.82c7.27,0,13.16,3.97,13.16,8.87s-5.89,8.87-13.16,8.87-13.16-3.97-13.16-8.87,5.89-8.87,13.16-8.87Z" style="fill:#8f00df;"/><path d="m1086.77,99.29h0c8.82,0,15.96-7.29,15.96-16.28v-15.32c0-8.99-7.15-16.28-15.96-16.28h0c-8.82,0-15.96,7.29-15.96,16.28v15.32c0,8.99,7.15,16.28,15.96,16.28Zm0-32.82c7.27,0,13.16,3.97,13.16,8.87s-5.89,8.87-13.16,8.87-13.16-3.97-13.16-8.87,5.89-8.87,13.16-8.87Z" style="fill:#8f00df;"/><path d="m1051.08,99.29h0c8.82,0,15.96-7.29,15.96-16.28v-15.32c0-8.99-7.15-16.28-15.96-16.28h0c-8.82,0-15.96,7.29-15.96,16.28v15.32c0,8.99,7.15,16.28,15.96,16.28Zm0-32.82c7.27,0,13.16,3.97,13.16,8.87s-5.89,8.87-13.16,8.87-13.16-3.97-13.16-8.87,5.89-8.87,13.16-8.87Z" style="fill:#8f00df;"/><path d="m1015.4,99.29h0c8.82,0,15.96-7.29,15.96-16.28v-15.32c0-8.99-7.15-16.28-15.96-16.28h0c-8.82,0-15.96,7.29-15.96,16.28v15.32c0,8.99,7.15,16.28,15.96,16.28Zm0-32.82c7.27,0,13.16,3.97,13.16,8.87s-5.89,8.87-13.16,8.87-13.16-3.97-13.16-8.87,5.89-8.87,13.16-8.87Z" style="fill:#8f00df;"/><path d="m1372.24,47.88h0c8.82,0,15.96-7.29,15.96-16.28v-15.32C1388.21,7.29,1381.06,0,1372.24,0h0C1363.43,0,1356.28,7.29,1356.28,16.28v15.32c0,8.99,7.15,16.28,15.96,16.28Zm0-32.82c7.27,0,13.16,3.97,13.16,8.87s-5.89,8.87-13.16,8.87-13.16-3.97-13.16-8.87,5.89-8.87,13.16-8.87Z" style="fill:#8f00df;"/><path d="m1336.56,47.88h0c8.82,0,15.96-7.29,15.96-16.28v-15.32C1352.52,7.29,1345.38,0,1336.56,0h0C1327.74,0,1320.59,7.29,1320.59,16.28v15.32c0,8.99,7.15,16.28,15.96,16.28Zm0-32.82c7.27,0,13.16,3.97,13.16,8.87s-5.89,8.87-13.16,8.87-13.16-3.97-13.16-8.87,5.89-8.87,13.16-8.87Z" style="fill:#8f00df;"/><path d="m1300.87,47.88h0c8.82,0,15.96-7.29,15.96-16.28v-15.32C1316.84,7.29,1309.69,0,1300.87,0h0C1292.06,0,1284.91,7.29,1284.91,16.28v15.32c0,8.99,7.15,16.28,15.96,16.28Zm0-32.82c7.27,0,13.16,3.97,13.16,8.87s-5.89,8.87-13.16,8.87-13.16-3.97-13.16-8.87,5.89-8.87,13.16-8.87Z" style="fill:#8f00df;"/><path d="m1265.19,47.88h0c8.82,0,15.96-7.29,15.96-16.28v-15.32C1281.15,7.29,1274.01,0,1265.19,0h0c-8.82,0-15.96,7.29-15.96,16.28v15.32c0,8.99,7.15,16.28,15.96,16.28Zm0-32.82c7.27,0,13.16,3.97,13.16,8.87s-5.89,8.87-13.16,8.87-13.16-3.97-13.16-8.87,5.89-8.87,13.16-8.87Z" style="fill:#8f00df;"/><path d="m1229.51,47.88h0c8.82,0,15.96-7.29,15.96-16.28v-15.32C1245.47,7.29,1238.32,0,1229.51,0h0C1220.69,0,1213.54,7.29,1213.54,16.28v15.32c0,8.99,7.15,16.28,15.96,16.28Zm0-32.82c7.27,0,13.16,3.97,13.16,8.87s-5.89,8.87-13.16,8.87-13.16-3.97-13.16-8.87,5.89-8.87,13.16-8.87Z" style="fill:#8f00df;"/><path d="m1193.82,47.88h0c8.82,0,15.96-7.29,15.96-16.28v-15.32C1209.79,7.29,1202.64,0,1193.82,0h0C1185,0,1177.86,7.29,1177.86,16.28v15.32c0,8.99,7.15,16.28,15.96,16.28Zm0-32.82c7.27,0,13.16,3.97,13.16,8.87s-5.89,8.87-13.16,8.87-13.16-3.97-13.16-8.87,5.89-8.87,13.16-8.87Z" style="fill:#8f00df;"/><path d="m1158.14,47.88h0c8.82,0,15.96-7.29,15.96-16.28v-15.32C1174.1,7.29,1166.95,0,1158.14,0h0C1149.32,0,1142.17,7.29,1142.17,16.28v15.32c0,8.99,7.15,16.28,15.96,16.28Zm0-32.82c7.27,0,13.16,3.97,13.16,8.87s-5.89,8.87-13.16,8.87-13.16-3.97-13.16-8.87,5.89-8.87,13.16-8.87Z" style="fill:#8f00df;"/><path d="m1122.45,47.88h0c8.82,0,15.96-7.29,15.96-16.28v-15.32C1138.42,7.29,1131.27,0,1122.45,0h0C1113.64,0,1106.49,7.29,1106.49,16.28v15.32c0,8.99,7.15,16.28,15.96,16.28Zm0-32.82c7.27,0,13.16,3.97,13.16,8.87s-5.89,8.87-13.16,8.87-13.16-3.97-13.16-8.87,5.89-8.87,13.16-8.87Z" style="fill:#8f00df;"/><path d="m1086.77,47.88h0c8.82,0,15.96-7.29,15.96-16.28v-15.32C1102.73,7.29,1095.58,0,1086.77,0h0C1077.95,0,1070.8,7.29,1070.8,16.28v15.32c0,8.99,7.15,16.28,15.96,16.28Zm0-32.82c7.27,0,13.16,3.97,13.16,8.87s-5.89,8.87-13.16,8.87-13.16-3.97-13.16-8.87,5.89-8.87,13.16-8.87Z" style="fill:#8f00df;"/><path d="m1051.08,47.88h0c8.82,0,15.96-7.29,15.96-16.28v-15.32C1067.05,7.29,1059.9,0,1051.08,0h0C1042.27,0,1035.12,7.29,1035.12,16.28v15.32c0,8.99,7.15,16.28,15.96,16.28Zm0-32.82c7.27,0,13.16,3.97,13.16,8.87s-5.89,8.87-13.16,8.87-13.16-3.97-13.16-8.87,5.89-8.87,13.16-8.87Z" style="fill:#8f00df;"/><path d="m1015.4,47.88h0c8.82,0,15.96-7.29,15.96-16.28v-15.32C1031.36,7.29,1024.22,0,1015.4,0h0C1006.58,0,999.44,7.29,999.44,16.28v15.32c0,8.99,7.15,16.28,15.96,16.28Zm0-32.82c7.27,0,13.16,3.97,13.16,8.87s-5.89,8.87-13.16,8.87-13.16-3.97-13.16-8.87,5.89-8.87,13.16-8.87Z" style="fill:#8f00df;"/><path d="m1765.05,253.51h0c8.82,0,15.96-7.29,15.96-16.28v-15.32c0-8.99-7.15-16.28-15.96-16.28h0c-8.82,0-15.96,7.29-15.96,16.28v15.32c0,8.99,7.15,16.28,15.96,16.28Zm0-32.82c7.27,0,13.16,3.97,13.16,8.87s-5.89,8.87-13.16,8.87-13.16-3.97-13.16-8.87,5.89-8.87,13.16-8.87Z" style="fill:#8f00df;"/><path d="m1729.37,253.51h0c8.82,0,15.96-7.29,15.96-16.28v-15.32c0-8.99-7.15-16.28-15.96-16.28h0c-8.82,0-15.96,7.29-15.96,16.28v15.32c0,8.99,7.15,16.28,15.96,16.28Zm0-32.82c7.27,0,13.16,3.97,13.16,8.87s-5.89,8.87-13.16,8.87-13.16-3.97-13.16-8.87,5.89-8.87,13.16-8.87Z" style="fill:#8f00df;"/><path d="m1693.68,253.51h0c8.82,0,15.96-7.29,15.96-16.28v-15.32c0-8.99-7.15-16.28-15.96-16.28h0c-8.82,0-15.96,7.29-15.96,16.28v15.32c0,8.99,7.15,16.28,15.96,16.28Zm0-32.82c7.27,0,13.16,3.97,13.16,8.87s-5.89,8.87-13.16,8.87-13.16-3.97-13.16-8.87,5.89-8.87,13.16-8.87Z" style="fill:#8f00df;"/><path d="m1658,253.51h0c8.82,0,15.96-7.29,15.96-16.28v-15.32c0-8.99-7.15-16.28-15.96-16.28h0c-8.82,0-15.96,7.29-15.96,16.28v15.32c0,8.99,7.15,16.28,15.96,16.28Zm0-32.82c7.27,0,13.16,3.97,13.16,8.87s-5.89,8.87-13.16,8.87-13.16-3.97-13.16-8.87,5.89-8.87,13.16-8.87Z" style="fill:#8f00df;"/><path d="m1622.31,253.51h0c8.82,0,15.96-7.29,15.96-16.28v-15.32c0-8.99-7.15-16.28-15.96-16.28h0c-8.82,0-15.96,7.29-15.96,16.28v15.32c0,8.99,7.15,16.28,15.96,16.28Zm0-32.82c7.27,0,13.16,3.97,13.16,8.87s-5.89,8.87-13.16,8.87-13.16-3.97-13.16-8.87,5.89-8.87,13.16-8.87Z" style="fill:#8f00df;"/><path d="m1586.63,253.51h0c8.82,0,15.96-7.29,15.96-16.28v-15.32c0-8.99-7.15-16.28-15.96-16.28h0c-8.82,0-15.96,7.29-15.96,16.28v15.32c0,8.99,7.15,16.28,15.96,16.28Zm0-32.82c7.27,0,13.16,3.97,13.16,8.87s-5.89,8.87-13.16,8.87-13.16-3.97-13.16-8.87,5.89-8.87,13.16-8.87Z" style="fill:#8f00df;"/><path d="m1550.94,253.51h0c8.82,0,15.96-7.29,15.96-16.28v-15.32c0-8.99-7.15-16.28-15.96-16.28h0c-8.82,0-15.96,7.29-15.96,16.28v15.32c0,8.99,7.15,16.28,15.96,16.28Zm0-32.82c7.27,0,13.16,3.97,13.16,8.87s-5.89,8.87-13.16,8.87-13.16-3.97-13.16-8.87,5.89-8.87,13.16-8.87Z" style="fill:#8f00df;"/><path d="m1515.26,253.51h0c8.82,0,15.96-7.29,15.96-16.28v-15.32c0-8.99-7.15-16.28-15.96-16.28h0c-8.82,0-15.96,7.29-15.96,16.28v15.32c0,8.99,7.15,16.28,15.96,16.28Zm0-32.82c7.27,0,13.16,3.97,13.16,8.87s-5.89,8.87-13.16,8.87-13.16-3.97-13.16-8.87,5.89-8.87,13.16-8.87Z" style="fill:#8f00df;"/><path d="m1479.57,253.51h0c8.82,0,15.96-7.29,15.96-16.28v-15.32c0-8.99-7.15-16.28-15.96-16.28h0c-8.82,0-15.96,7.29-15.96,16.28v15.32c0,8.99,7.15,16.28,15.96,16.28Zm0-32.82c7.27,0,13.16,3.97,13.16,8.87s-5.89,8.87-13.16,8.87-13.16-3.97-13.16-8.87,5.89-8.87,13.16-8.87Z" style="fill:#8f00df;"/><path d="m1443.89,253.51h0c8.82,0,15.96-7.29,15.96-16.28v-15.32c0-8.99-7.15-16.28-15.96-16.28h0c-8.82,0-15.96,7.29-15.96,16.28v15.32c0,8.99,7.15,16.28,15.96,16.28Zm0-32.82c7.27,0,13.16,3.97,13.16,8.87s-5.89,8.87-13.16,8.87-13.16-3.97-13.16-8.87,5.89-8.87,13.16-8.87Z" style="fill:#8f00df;"/><path d="m1408.21,253.51h0c8.82,0,15.96-7.29,15.96-16.28v-15.32c0-8.99-7.15-16.28-15.96-16.28h0c-8.82,0-15.96,7.29-15.96,16.28v15.32c0,8.99,7.15,16.28,15.96,16.28Zm0-32.82c7.27,0,13.16,3.97,13.16,8.87s-5.89,8.87-13.16,8.87-13.16-3.97-13.16-8.87,5.89-8.87,13.16-8.87Z" style="fill:#8f00df;"/><path d="m1765.05,202.1h0c8.82,0,15.96-7.29,15.96-16.28v-15.32c0-8.99-7.15-16.28-15.96-16.28h0c-8.82,0-15.96,7.29-15.96,16.28v15.32c0,8.99,7.15,16.28,15.96,16.28Zm0-32.82c7.27,0,13.16,3.97,13.16,8.87s-5.89,8.87-13.16,8.87-13.16-3.97-13.16-8.87,5.89-8.87,13.16-8.87Z" style="fill:#8f00df;"/><path d="m1729.37,202.1h0c8.82,0,15.96-7.29,15.96-16.28v-15.32c0-8.99-7.15-16.28-15.96-16.28h0c-8.82,0-15.96,7.29-15.96,16.28v15.32c0,8.99,7.15,16.28,15.96,16.28Zm0-32.82c7.27,0,13.16,3.97,13.16,8.87s-5.89,8.87-13.16,8.87-13.16-3.97-13.16-8.87,5.89-8.87,13.16-8.87Z" style="fill:#8f00df;"/><path d="m1693.68,202.1h0c8.82,0,15.96-7.29,15.96-16.28v-15.32c0-8.99-7.15-16.28-15.96-16.28h0c-8.82,0-15.96,7.29-15.96,16.28v15.32c0,8.99,7.15,16.28,15.96,16.28Zm0-32.82c7.27,0,13.16,3.97,13.16,8.87s-5.89,8.87-13.16,8.87-13.16-3.97-13.16-8.87,5.89-8.87,13.16-8.87Z" style="fill:#8f00df;"/><path d="m1658,202.1h0c8.82,0,15.96-7.29,15.96-16.28v-15.32c0-8.99-7.15-16.28-15.96-16.28h0c-8.82,0-15.96,7.29-15.96,16.28v15.32c0,8.99,7.15,16.28,15.96,16.28Zm0-32.82c7.27,0,13.16,3.97,13.16,8.87s-5.89,8.87-13.16,8.87-13.16-3.97-13.16-8.87,5.89-8.87,13.16-8.87Z" style="fill:#8f00df;"/><path d="m1622.31,202.1h0c8.82,0,15.96-7.29,15.96-16.28v-15.32c0-8.99-7.15-16.28-15.96-16.28h0c-8.82,0-15.96,7.29-15.96,16.28v15.32c0,8.99,7.15,16.28,15.96,16.28Zm0-32.82c7.27,0,13.16,3.97,13.16,8.87s-5.89,8.87-13.16,8.87-13.16-3.97-13.16-8.87,5.89-8.87,13.16-8.87Z" style="fill:#8f00df;"/><path d="m1586.63,202.1h0c8.82,0,15.96-7.29,15.96-16.28v-15.32c0-8.99-7.15-16.28-15.96-16.28h0c-8.82,0-15.96,7.29-15.96,16.28v15.32c0,8.99,7.15,16.28,15.96,16.28Zm0-32.82c7.27,0,13.16,3.97,13.16,8.87s-5.89,8.87-13.16,8.87-13.16-3.97-13.16-8.87,5.89-8.87,13.16-8.87Z" style="fill:#8f00df;"/><path d="m1550.94,202.1h0c8.82,0,15.96-7.29,15.96-16.28v-15.32c0-8.99-7.15-16.28-15.96-16.28h0c-8.82,0-15.96,7.29-15.96,16.28v15.32c0,8.99,7.15,16.28,15.96,16.28Zm0-32.82c7.27,0,13.16,3.97,13.16,8.87s-5.89,8.87-13.16,8.87-13.16-3.97-13.16-8.87,5.89-8.87,13.16-8.87Z" style="fill:#8f00df;"/><path d="m1515.26,202.1h0c8.82,0,15.96-7.29,15.96-16.28v-15.32c0-8.99-7.15-16.28-15.96-16.28h0c-8.82,0-15.96,7.29-15.96,16.28v15.32c0,8.99,7.15,16.28,15.96,16.28Zm0-32.82c7.27,0,13.16,3.97,13.16,8.87s-5.89,8.87-13.16,8.87-13.16-3.97-13.16-8.87,5.89-8.87,13.16-8.87Z" style="fill:#8f00df;"/><path d="m1479.57,202.1h0c8.82,0,15.96-7.29,15.96-16.28v-15.32c0-8.99-7.15-16.28-15.96-16.28h0c-8.82,0-15.96,7.29-15.96,16.28v15.32c0,8.99,7.15,16.28,15.96,16.28Zm0-32.82c7.27,0,13.16,3.97,13.16,8.87s-5.89,8.87-13.16,8.87-13.16-3.97-13.16-8.87,5.89-8.87,13.16-8.87Z" style="fill:#8f00df;"/><path d="m1443.89,202.1h0c8.82,0,15.96-7.29,15.96-16.28v-15.32c0-8.99-7.15-16.28-15.96-16.28h0c-8.82,0-15.96,7.29-15.96,16.28v15.32c0,8.99,7.15,16.28,15.96,16.28Zm0-32.82c7.27,0,13.16,3.97,13.16,8.87s-5.89,8.87-13.16,8.87-13.16-3.97-13.16-8.87,5.89-8.87,13.16-8.87Z" style="fill:#8f00df;"/><path d="m1408.21,202.1h0c8.82,0,15.96-7.29,15.96-16.28v-15.32c0-8.99-7.15-16.28-15.96-16.28h0c-8.82,0-15.96,7.29-15.96,16.28v15.32c0,8.99,7.15,16.28,15.96,16.28Zm0-32.82c7.27,0,13.16,3.97,13.16,8.87s-5.89,8.87-13.16,8.87-13.16-3.97-13.16-8.87,5.89-8.87,13.16-8.87Z" style="fill:#8f00df;"/><path d="m1765.05,150.7h0c8.82,0,15.96-7.29,15.96-16.28v-15.32c0-8.99-7.15-16.28-15.96-16.28h0c-8.82,0-15.96,7.29-15.96,16.28v15.32c0,8.99,7.15,16.28,15.96,16.28Zm0-32.82c7.27,0,13.16,3.97,13.16,8.87s-5.89,8.87-13.16,8.87-13.16-3.97-13.16-8.87,5.89-8.87,13.16-8.87Z" style="fill:#8f00df;"/><path d="m1729.37,150.7h0c8.82,0,15.96-7.29,15.96-16.28v-15.32c0-8.99-7.15-16.28-15.96-16.28h0c-8.82,0-15.96,7.29-15.96,16.28v15.32c0,8.99,7.15,16.28,15.96,16.28Zm0-32.82c7.27,0,13.16,3.97,13.16,8.87s-5.89,8.87-13.16,8.87-13.16-3.97-13.16-8.87,5.89-8.87,13.16-8.87Z" style="fill:#8f00df;"/><path d="m1693.68,150.7h0c8.82,0,15.96-7.29,15.96-16.28v-15.32c0-8.99-7.15-16.28-15.96-16.28h0c-8.82,0-15.96,7.29-15.96,16.28v15.32c0,8.99,7.15,16.28,15.96,16.28Zm0-32.82c7.27,0,13.16,3.97,13.16,8.87s-5.89,8.87-13.16,8.87-13.16-3.97-13.16-8.87,5.89-8.87,13.16-8.87Z" style="fill:#8f00df;"/><path d="m1658,150.7h0c8.82,0,15.96-7.29,15.96-16.28v-15.32c0-8.99-7.15-16.28-15.96-16.28h0c-8.82,0-15.96,7.29-15.96,16.28v15.32c0,8.99,7.15,16.28,15.96,16.28Zm0-32.82c7.27,0,13.16,3.97,13.16,8.87s-5.89,8.87-13.16,8.87-13.16-3.97-13.16-8.87,5.89-8.87,13.16-8.87Z" style="fill:#8f00df;"/><path d="m1622.31,150.7h0c8.82,0,15.96-7.29,15.96-16.28v-15.32c0-8.99-7.15-16.28-15.96-16.28h0c-8.82,0-15.96,7.29-15.96,16.28v15.32c0,8.99,7.15,16.28,15.96,16.28Zm0-32.82c7.27,0,13.16,3.97,13.16,8.87s-5.89,8.87-13.16,8.87-13.16-3.97-13.16-8.87,5.89-8.87,13.16-8.87Z" style="fill:#8f00df;"/><path d="m1586.63,150.7h0c8.82,0,15.96-7.29,15.96-16.28v-15.32c0-8.99-7.15-16.28-15.96-16.28h0c-8.82,0-15.96,7.29-15.96,16.28v15.32c0,8.99,7.15,16.28,15.96,16.28Zm0-32.82c7.27,0,13.16,3.97,13.16,8.87s-5.89,8.87-13.16,8.87-13.16-3.97-13.16-8.87,5.89-8.87,13.16-8.87Z" style="fill:#8f00df;"/><path d="m1550.94,150.7h0c8.82,0,15.96-7.29,15.96-16.28v-15.32c0-8.99-7.15-16.28-15.96-16.28h0c-8.82,0-15.96,7.29-15.96,16.28v15.32c0,8.99,7.15,16.28,15.96,16.28Zm0-32.82c7.27,0,13.16,3.97,13.16,8.87s-5.89,8.87-13.16,8.87-13.16-3.97-13.16-8.87,5.89-8.87,13.16-8.87Z" style="fill:#8f00df;"/><path d="m1515.26,150.7h0c8.82,0,15.96-7.29,15.96-16.28v-15.32c0-8.99-7.15-16.28-15.96-16.28h0c-8.82,0-15.96,7.29-15.96,16.28v15.32c0,8.99,7.15,16.28,15.96,16.28Zm0-32.82c7.27,0,13.16,3.97,13.16,8.87s-5.89,8.87-13.16,8.87-13.16-3.97-13.16-8.87,5.89-8.87,13.16-8.87Z" style="fill:#8f00df;"/><path d="m1479.57,150.7h0c8.82,0,15.96-7.29,15.96-16.28v-15.32c0-8.99-7.15-16.28-15.96-16.28h0c-8.82,0-15.96,7.29-15.96,16.28v15.32c0,8.99,7.15,16.28,15.96,16.28Zm0-32.82c7.27,0,13.16,3.97,13.16,8.87s-5.89,8.87-13.16,8.87-13.16-3.97-13.16-8.87,5.89-8.87,13.16-8.87Z" style="fill:#8f00df;"/><path d="m1443.89,150.7h0c8.82,0,15.96-7.29,15.96-16.28v-15.32c0-8.99-7.15-16.28-15.96-16.28h0c-8.82,0-15.96,7.29-15.96,16.28v15.32c0,8.99,7.15,16.28,15.96,16.28Zm0-32.82c7.27,0,13.16,3.97,13.16,8.87s-5.89,8.87-13.16,8.87-13.16-3.97-13.16-8.87,5.89-8.87,13.16-8.87Z" style="fill:#8f00df;"/><path d="m1408.21,150.7h0c8.82,0,15.96-7.29,15.96-16.28v-15.32c0-8.99-7.15-16.28-15.96-16.28h0c-8.82,0-15.96,7.29-15.96,16.28v15.32c0,8.99,7.15,16.28,15.96,16.28Zm0-32.82c7.27,0,13.16,3.97,13.16,8.87s-5.89,8.87-13.16,8.87-13.16-3.97-13.16-8.87,5.89-8.87,13.16-8.87Z" style="fill:#8f00df;"/><path d="m1765.05,99.29h0c8.82,0,15.96-7.29,15.96-16.28v-15.32c0-8.99-7.15-16.28-15.96-16.28h0c-8.82,0-15.96,7.29-15.96,16.28v15.32c0,8.99,7.15,16.28,15.96,16.28Zm0-32.82c7.27,0,13.16,3.97,13.16,8.87s-5.89,8.87-13.16,8.87-13.16-3.97-13.16-8.87,5.89-8.87,13.16-8.87Z" style="fill:#8f00df;"/><path d="m1729.37,99.29h0c8.82,0,15.96-7.29,15.96-16.28v-15.32c0-8.99-7.15-16.28-15.96-16.28h0c-8.82,0-15.96,7.29-15.96,16.28v15.32c0,8.99,7.15,16.28,15.96,16.28Zm0-32.82c7.27,0,13.16,3.97,13.16,8.87s-5.89,8.87-13.16,8.87-13.16-3.97-13.16-8.87,5.89-8.87,13.16-8.87Z" style="fill:#8f00df;"/><path d="m1693.68,99.29h0c8.82,0,15.96-7.29,15.96-16.28v-15.32c0-8.99-7.15-16.28-15.96-16.28h0c-8.82,0-15.96,7.29-15.96,16.28v15.32c0,8.99,7.15,16.28,15.96,16.28Zm0-32.82c7.27,0,13.16,3.97,13.16,8.87s-5.89,8.87-13.16,8.87-13.16-3.97-13.16-8.87,5.89-8.87,13.16-8.87Z" style="fill:#8f00df;"/><path d="m1658,99.29h0c8.82,0,15.96-7.29,15.96-16.28v-15.32c0-8.99-7.15-16.28-15.96-16.28h0c-8.82,0-15.96,7.29-15.96,16.28v15.32c0,8.99,7.15,16.28,15.96,16.28Zm0-32.82c7.27,0,13.16,3.97,13.16,8.87s-5.89,8.87-13.16,8.87-13.16-3.97-13.16-8.87,5.89-8.87,13.16-8.87Z" style="fill:#8f00df;"/><path d="m1622.31,99.29h0c8.82,0,15.96-7.29,15.96-16.28v-15.32c0-8.99-7.15-16.28-15.96-16.28h0c-8.82,0-15.96,7.29-15.96,16.28v15.32c0,8.99,7.15,16.28,15.96,16.28Zm0-32.82c7.27,0,13.16,3.97,13.16,8.87s-5.89,8.87-13.16,8.87-13.16-3.97-13.16-8.87,5.89-8.87,13.16-8.87Z" style="fill:#8f00df;"/><path d="m1586.63,99.29h0c8.82,0,15.96-7.29,15.96-16.28v-15.32c0-8.99-7.15-16.28-15.96-16.28h0c-8.82,0-15.96,7.29-15.96,16.28v15.32c0,8.99,7.15,16.28,15.96,16.28Zm0-32.82c7.27,0,13.16,3.97,13.16,8.87s-5.89,8.87-13.16,8.87-13.16-3.97-13.16-8.87,5.89-8.87,13.16-8.87Z" style="fill:#8f00df;"/><path d="m1550.94,99.29h0c8.82,0,15.96-7.29,15.96-16.28v-15.32c0-8.99-7.15-16.28-15.96-16.28h0c-8.82,0-15.96,7.29-15.96,16.28v15.32c0,8.99,7.15,16.28,15.96,16.28Zm0-32.82c7.27,0,13.16,3.97,13.16,8.87s-5.89,8.87-13.16,8.87-13.16-3.97-13.16-8.87,5.89-8.87,13.16-8.87Z" style="fill:#8f00df;"/><path d="m1515.26,99.29h0c8.82,0,15.96-7.29,15.96-16.28v-15.32c0-8.99-7.15-16.28-15.96-16.28h0c-8.82,0-15.96,7.29-15.96,16.28v15.32c0,8.99,7.15,16.28,15.96,16.28Zm0-32.82c7.27,0,13.16,3.97,13.16,8.87s-5.89,8.87-13.16,8.87-13.16-3.97-13.16-8.87,5.89-8.87,13.16-8.87Z" style="fill:#8f00df;"/><path d="m1479.57,99.29h0c8.82,0,15.96-7.29,15.96-16.28v-15.32c0-8.99-7.15-16.28-15.96-16.28h0c-8.82,0-15.96,7.29-15.96,16.28v15.32c0,8.99,7.15,16.28,15.96,16.28Zm0-32.82c7.27,0,13.16,3.97,13.16,8.87s-5.89,8.87-13.16,8.87-13.16-3.97-13.16-8.87,5.89-8.87,13.16-8.87Z" style="fill:#8f00df;"/><path d="m1443.89,99.29h0c8.82,0,15.96-7.29,15.96-16.28v-15.32c0-8.99-7.15-16.28-15.96-16.28h0c-8.82,0-15.96,7.29-15.96,16.28v15.32c0,8.99,7.15,16.28,15.96,16.28Zm0-32.82c7.27,0,13.16,3.97,13.16,8.87s-5.89,8.87-13.16,8.87-13.16-3.97-13.16-8.87,5.89-8.87,13.16-8.87Z" style="fill:#8f00df;"/><path d="m1408.21,99.29h0c8.82,0,15.96-7.29,15.96-16.28v-15.32c0-8.99-7.15-16.28-15.96-16.28h0c-8.82,0-15.96,7.29-15.96,16.28v15.32c0,8.99,7.15,16.28,15.96,16.28Zm0-32.82c7.27,0,13.16,3.97,13.16,8.87s-5.89,8.87-13.16,8.87-13.16-3.97-13.16-8.87,5.89-8.87,13.16-8.87Z" style="fill:#8f00df;"/><path d="m1765.05,47.88h0c8.82,0,15.96-7.29,15.96-16.28v-15.32C1781.01,7.29,1773.87,0,1765.05,0h0C1756.23,0,1749.09,7.29,1749.09,16.28v15.32c0,8.99,7.15,16.28,15.96,16.28Zm0-32.82c7.27,0,13.16,3.97,13.16,8.87s-5.89,8.87-13.16,8.87-13.16-3.97-13.16-8.87,5.89-8.87,13.16-8.87Z" style="fill:#8f00df;"/><path d="m1729.37,47.88h0c8.82,0,15.96-7.29,15.96-16.28v-15.32C1745.33,7.29,1738.18,0,1729.37,0h0C1720.55,0,1713.4,7.29,1713.4,16.28v15.32c0,8.99,7.15,16.28,15.96,16.28Zm0-32.82c7.27,0,13.16,3.97,13.16,8.87s-5.89,8.87-13.16,8.87-13.16-3.97-13.16-8.87,5.89-8.87,13.16-8.87Z" style="fill:#8f00df;"/><path d="m1693.68,47.88h0c8.82,0,15.96-7.29,15.96-16.28v-15.32C1709.64,7.29,1702.5,0,1693.68,0h0C1684.86,0,1677.72,7.29,1677.72,16.28v15.32c0,8.99,7.15,16.28,15.96,16.28Zm0-32.82c7.27,0,13.16,3.97,13.16,8.87s-5.89,8.87-13.16,8.87-13.16-3.97-13.16-8.87,5.89-8.87,13.16-8.87Z" style="fill:#8f00df;"/><path d="m1658,47.88h0c8.82,0,15.96-7.29,15.96-16.28v-15.32C1673.96,7.29,1666.81,0,1658,0h0c-8.82,0-15.96,7.29-15.96,16.28v15.32c0,8.99,7.15,16.28,15.96,16.28Zm0-32.82c7.27,0,13.16,3.97,13.16,8.87s-5.89,8.87-13.16,8.87-13.16-3.97-13.16-8.87,5.89-8.87,13.16-8.87Z" style="fill:#8f00df;"/><path d="m1622.31,47.88h0c8.82,0,15.96-7.29,15.96-16.28v-15.32C1638.28,7.29,1631.13,0,1622.31,0h0C1613.5,0,1606.35,7.29,1606.35,16.28v15.32c0,8.99,7.15,16.28,15.96,16.28Zm0-32.82c7.27,0,13.16,3.97,13.16,8.87s-5.89,8.87-13.16,8.87-13.16-3.97-13.16-8.87,5.89-8.87,13.16-8.87Z" style="fill:#8f00df;"/><path d="m1586.63,47.88h0c8.82,0,15.96-7.29,15.96-16.28v-15.32C1602.59,7.29,1595.44,0,1586.63,0h0C1577.81,0,1570.66,7.29,1570.66,16.28v15.32c0,8.99,7.15,16.28,15.96,16.28Zm0-32.82c7.27,0,13.16,3.97,13.16,8.87s-5.89,8.87-13.16,8.87-13.16-3.97-13.16-8.87,5.89-8.87,13.16-8.87Z" style="fill:#8f00df;"/><path d="m1550.94,47.88h0c8.82,0,15.96-7.29,15.96-16.28v-15.32C1566.91,7.29,1559.76,0,1550.94,0h0C1542.13,0,1534.98,7.29,1534.98,16.28v15.32c0,8.99,7.15,16.28,15.96,16.28Zm0-32.82c7.27,0,13.16,3.97,13.16,8.87s-5.89,8.87-13.16,8.87-13.16-3.97-13.16-8.87,5.89-8.87,13.16-8.87Z" style="fill:#8f00df;"/><path d="m1515.26,47.88h0c8.82,0,15.96-7.29,15.96-16.28v-15.32C1531.22,7.29,1524.08,0,1515.26,0h0C1506.44,0,1499.3,7.29,1499.3,16.28v15.32c0,8.99,7.15,16.28,15.96,16.28Zm0-32.82c7.27,0,13.16,3.97,13.16,8.87s-5.89,8.87-13.16,8.87-13.16-3.97-13.16-8.87,5.89-8.87,13.16-8.87Z" style="fill:#8f00df;"/><path d="m1479.57,47.88h0c8.82,0,15.96-7.29,15.96-16.28v-15.32C1495.54,7.29,1488.39,0,1479.57,0h0C1470.76,0,1463.61,7.29,1463.61,16.28v15.32c0,8.99,7.15,16.28,15.96,16.28Zm0-32.82c7.27,0,13.16,3.97,13.16,8.87s-5.89,8.87-13.16,8.87-13.16-3.97-13.16-8.87,5.89-8.87,13.16-8.87Z" style="fill:#8f00df;"/><path d="m1443.89,47.88h0c8.82,0,15.96-7.29,15.96-16.28v-15.32C1459.85,7.29,1452.71,0,1443.89,0h0C1435.07,0,1427.93,7.29,1427.93,16.28v15.32c0,8.99,7.15,16.28,15.96,16.28Zm0-32.82c7.27,0,13.16,3.97,13.16,8.87s-5.89,8.87-13.16,8.87-13.16-3.97-13.16-8.87,5.89-8.87,13.16-8.87Z" style="fill:#8f00df;"/><path d="m1408.21,47.88h0c8.82,0,15.96-7.29,15.96-16.28v-15.32C1424.17,7.29,1417.02,0,1408.21,0h0C1399.39,0,1392.24,7.29,1392.24,16.28v15.32c0,8.99,7.15,16.28,15.96,16.28Zm0-32.82c7.27,0,13.16,3.97,13.16,8.87s-5.89,8.87-13.16,8.87-13.16-3.97-13.16-8.87,5.89-8.87,13.16-8.87Z" style="fill:#8f00df;"/><path d="m1979.66,253.51h0c8.82,0,15.96-7.29,15.96-16.28v-15.32c0-8.99-7.15-16.28-15.96-16.28h0c-8.82,0-15.96,7.29-15.96,16.28v15.32c0,8.99,7.15,16.28,15.96,16.28Zm0-32.82c7.27,0,13.16,3.97,13.16,8.87s-5.89,8.87-13.16,8.87-13.16-3.97-13.16-8.87,5.89-8.87,13.16-8.87Z" style="fill:#8f00df;"/><path d="m1943.97,253.51h0c8.82,0,15.96-7.29,15.96-16.28v-15.32c0-8.99-7.15-16.28-15.96-16.28h0c-8.82,0-15.96,7.29-15.96,16.28v15.32c0,8.99,7.15,16.28,15.96,16.28Zm0-32.82c7.27,0,13.16,3.97,13.16,8.87s-5.89,8.87-13.16,8.87-13.16-3.97-13.16-8.87,5.89-8.87,13.16-8.87Z" style="fill:#8f00df;"/><path d="m1908.29,253.51h0c8.82,0,15.96-7.29,15.96-16.28v-15.32c0-8.99-7.15-16.28-15.96-16.28h0c-8.82,0-15.96,7.29-15.96,16.28v15.32c0,8.99,7.15,16.28,15.96,16.28Zm0-32.82c7.27,0,13.16,3.97,13.16,8.87s-5.89,8.87-13.16,8.87-13.16-3.97-13.16-8.87,5.89-8.87,13.16-8.87Z" style="fill:#8f00df;"/><path d="m1872.61,253.51h0c8.82,0,15.96-7.29,15.96-16.28v-15.32c0-8.99-7.15-16.28-15.96-16.28h0c-8.82,0-15.96,7.29-15.96,16.28v15.32c0,8.99,7.15,16.28,15.96,16.28Zm0-32.82c7.27,0,13.16,3.97,13.16,8.87s-5.89,8.87-13.16,8.87-13.16-3.97-13.16-8.87,5.89-8.87,13.16-8.87Z" style="fill:#8f00df;"/><path d="m1836.92,253.51h0c8.82,0,15.96-7.29,15.96-16.28v-15.32c0-8.99-7.15-16.28-15.96-16.28h0c-8.82,0-15.96,7.29-15.96,16.28v15.32c0,8.99,7.15,16.28,15.96,16.28Zm0-32.82c7.27,0,13.16,3.97,13.16,8.87s-5.89,8.87-13.16,8.87-13.16-3.97-13.16-8.87,5.89-8.87,13.16-8.87Z" style="fill:#8f00df;"/><path d="m1801.24,253.51h0c8.82,0,15.96-7.29,15.96-16.28v-15.32c0-8.99-7.15-16.28-15.96-16.28h0c-8.82,0-15.96,7.29-15.96,16.28v15.32c0,8.99,7.15,16.28,15.96,16.28Zm0-32.82c7.27,0,13.16,3.97,13.16,8.87s-5.89,8.87-13.16,8.87-13.16-3.97-13.16-8.87,5.89-8.87,13.16-8.87Z" style="fill:#8f00df;"/><path d="m1979.66,202.1h0c8.82,0,15.96-7.29,15.96-16.28v-15.32c0-8.99-7.15-16.28-15.96-16.28h0c-8.82,0-15.96,7.29-15.96,16.28v15.32c0,8.99,7.15,16.28,15.96,16.28Zm0-32.82c7.27,0,13.16,3.97,13.16,8.87s-5.89,8.87-13.16,8.87-13.16-3.97-13.16-8.87,5.89-8.87,13.16-8.87Z" style="fill:#8f00df;"/><path d="m1943.97,202.1h0c8.82,0,15.96-7.29,15.96-16.28v-15.32c0-8.99-7.15-16.28-15.96-16.28h0c-8.82,0-15.96,7.29-15.96,16.28v15.32c0,8.99,7.15,16.28,15.96,16.28Zm0-32.82c7.27,0,13.16,3.97,13.16,8.87s-5.89,8.87-13.16,8.87-13.16-3.97-13.16-8.87,5.89-8.87,13.16-8.87Z" style="fill:#8f00df;"/><path d="m1908.29,202.1h0c8.82,0,15.96-7.29,15.96-16.28v-15.32c0-8.99-7.15-16.28-15.96-16.28h0c-8.82,0-15.96,7.29-15.96,16.28v15.32c0,8.99,7.15,16.28,15.96,16.28Zm0-32.82c7.27,0,13.16,3.97,13.16,8.87s-5.89,8.87-13.16,8.87-13.16-3.97-13.16-8.87,5.89-8.87,13.16-8.87Z" style="fill:#8f00df;"/><path d="m1872.61,202.1h0c8.82,0,15.96-7.29,15.96-16.28v-15.32c0-8.99-7.15-16.28-15.96-16.28h0c-8.82,0-15.96,7.29-15.96,16.28v15.32c0,8.99,7.15,16.28,15.96,16.28Zm0-32.82c7.27,0,13.16,3.97,13.16,8.87s-5.89,8.87-13.16,8.87-13.16-3.97-13.16-8.87,5.89-8.87,13.16-8.87Z" style="fill:#8f00df;"/><path d="m1836.92,202.1h0c8.82,0,15.96-7.29,15.96-16.28v-15.32c0-8.99-7.15-16.28-15.96-16.28h0c-8.82,0-15.96,7.29-15.96,16.28v15.32c0,8.99,7.15,16.28,15.96,16.28Zm0-32.82c7.27,0,13.16,3.97,13.16,8.87s-5.89,8.87-13.16,8.87-13.16-3.97-13.16-8.87,5.89-8.87,13.16-8.87Z" style="fill:#8f00df;"/><path d="m1801.24,202.1h0c8.82,0,15.96-7.29,15.96-16.28v-15.32c0-8.99-7.15-16.28-15.96-16.28h0c-8.82,0-15.96,7.29-15.96,16.28v15.32c0,8.99,7.15,16.28,15.96,16.28Zm0-32.82c7.27,0,13.16,3.97,13.16,8.87s-5.89,8.87-13.16,8.87-13.16-3.97-13.16-8.87,5.89-8.87,13.16-8.87Z" style="fill:#8f00df;"/><path d="m1979.66,150.7h0c8.82,0,15.96-7.29,15.96-16.28v-15.32c0-8.99-7.15-16.28-15.96-16.28h0c-8.82,0-15.96,7.29-15.96,16.28v15.32c0,8.99,7.15,16.28,15.96,16.28Zm0-32.82c7.27,0,13.16,3.97,13.16,8.87s-5.89,8.87-13.16,8.87-13.16-3.97-13.16-8.87,5.89-8.87,13.16-8.87Z" style="fill:#8f00df;"/><path d="m1943.97,150.7h0c8.82,0,15.96-7.29,15.96-16.28v-15.32c0-8.99-7.15-16.28-15.96-16.28h0c-8.82,0-15.96,7.29-15.96,16.28v15.32c0,8.99,7.15,16.28,15.96,16.28Zm0-32.82c7.27,0,13.16,3.97,13.16,8.87s-5.89,8.87-13.16,8.87-13.16-3.97-13.16-8.87,5.89-8.87,13.16-8.87Z" style="fill:#8f00df;"/><path d="m1908.29,150.7h0c8.82,0,15.96-7.29,15.96-16.28v-15.32c0-8.99-7.15-16.28-15.96-16.28h0c-8.82,0-15.96,7.29-15.96,16.28v15.32c0,8.99,7.15,16.28,15.96,16.28Zm0-32.82c7.27,0,13.16,3.97,13.16,8.87s-5.89,8.87-13.16,8.87-13.16-3.97-13.16-8.87,5.89-8.87,13.16-8.87Z" style="fill:#8f00df;"/><path d="m1872.61,150.7h0c8.82,0,15.96-7.29,15.96-16.28v-15.32c0-8.99-7.15-16.28-15.96-16.28h0c-8.82,0-15.96,7.29-15.96,16.28v15.32c0,8.99,7.15,16.28,15.96,16.28Zm0-32.82c7.27,0,13.16,3.97,13.16,8.87s-5.89,8.87-13.16,8.87-13.16-3.97-13.16-8.87,5.89-8.87,13.16-8.87Z" style="fill:#8f00df;"/><path d="m1836.92,150.7h0c8.82,0,15.96-7.29,15.96-16.28v-15.32c0-8.99-7.15-16.28-15.96-16.28h0c-8.82,0-15.96,7.29-15.96,16.28v15.32c0,8.99,7.15,16.28,15.96,16.28Zm0-32.82c7.27,0,13.16,3.97,13.16,8.87s-5.89,8.87-13.16,8.87-13.16-3.97-13.16-8.87,5.89-8.87,13.16-8.87Z" style="fill:#8f00df;"/><path d="m1801.24,150.7h0c8.82,0,15.96-7.29,15.96-16.28v-15.32c0-8.99-7.15-16.28-15.96-16.28h0c-8.82,0-15.96,7.29-15.96,16.28v15.32c0,8.99,7.15,16.28,15.96,16.28Zm0-32.82c7.27,0,13.16,3.97,13.16,8.87s-5.89,8.87-13.16,8.87-13.16-3.97-13.16-8.87,5.89-8.87,13.16-8.87Z" style="fill:#8f00df;"/><path d="m1979.66,99.29h0c8.82,0,15.96-7.29,15.96-16.28v-15.32c0-8.99-7.15-16.28-15.96-16.28h0c-8.82,0-15.96,7.29-15.96,16.28v15.32c0,8.99,7.15,16.28,15.96,16.28Zm0-32.82c7.27,0,13.16,3.97,13.16,8.87s-5.89,8.87-13.16,8.87-13.16-3.97-13.16-8.87,5.89-8.87,13.16-8.87Z" style="fill:#8f00df;"/><path d="m1943.97,99.29h0c8.82,0,15.96-7.29,15.96-16.28v-15.32c0-8.99-7.15-16.28-15.96-16.28h0c-8.82,0-15.96,7.29-15.96,16.28v15.32c0,8.99,7.15,16.28,15.96,16.28Zm0-32.82c7.27,0,13.16,3.97,13.16,8.87s-5.89,8.87-13.16,8.87-13.16-3.97-13.16-8.87,5.89-8.87,13.16-8.87Z" style="fill:#8f00df;"/><path d="m1908.29,99.29h0c8.82,0,15.96-7.29,15.96-16.28v-15.32c0-8.99-7.15-16.28-15.96-16.28h0c-8.82,0-15.96,7.29-15.96,16.28v15.32c0,8.99,7.15,16.28,15.96,16.28Zm0-32.82c7.27,0,13.16,3.97,13.16,8.87s-5.89,8.87-13.16,8.87-13.16-3.97-13.16-8.87,5.89-8.87,13.16-8.87Z" style="fill:#8f00df;"/><path d="m1872.61,99.29h0c8.82,0,15.96-7.29,15.96-16.28v-15.32c0-8.99-7.15-16.28-15.96-16.28h0c-8.82,0-15.96,7.29-15.96,16.28v15.32c0,8.99,7.15,16.28,15.96,16.28Zm0-32.82c7.27,0,13.16,3.97,13.16,8.87s-5.89,8.87-13.16,8.87-13.16-3.97-13.16-8.87,5.89-8.87,13.16-8.87Z" style="fill:#8f00df;"/><path d="m1836.92,99.29h0c8.82,0,15.96-7.29,15.96-16.28v-15.32c0-8.99-7.15-16.28-15.96-16.28h0c-8.82,0-15.96,7.29-15.96,16.28v15.32c0,8.99,7.15,16.28,15.96,16.28Zm0-32.82c7.27,0,13.16,3.97,13.16,8.87s-5.89,8.87-13.16,8.87-13.16-3.97-13.16-8.87,5.89-8.87,13.16-8.87Z" style="fill:#8f00df;"/><path d="m1801.24,99.29h0c8.82,0,15.96-7.29,15.96-16.28v-15.32c0-8.99-7.15-16.28-15.96-16.28h0c-8.82,0-15.96,7.29-15.96,16.28v15.32c0,8.99,7.15,16.28,15.96,16.28Zm0-32.82c7.27,0,13.16,3.97,13.16,8.87s-5.89,8.87-13.16,8.87-13.16-3.97-13.16-8.87,5.89-8.87,13.16-8.87Z" style="fill:#8f00df;"/><path d="m1979.66,47.88h0c8.82,0,15.96-7.29,15.96-16.28v-15.32C1995.62,7.29,1988.48,0,1979.66,0h0C1970.84,0,1963.69,7.29,1963.69,16.28v15.32c0,8.99,7.15,16.28,15.96,16.28Zm0-32.82c7.27,0,13.16,3.97,13.16,8.87s-5.89,8.87-13.16,8.87-13.16-3.97-13.16-8.87,5.89-8.87,13.16-8.87Z" style="fill:#8f00df;"/><path d="m1943.97,47.88h0c8.82,0,15.96-7.29,15.96-16.28v-15.32C1959.94,7.29,1952.79,0,1943.97,0h0C1935.16,0,1928.01,7.29,1928.01,16.28v15.32c0,8.99,7.15,16.28,15.96,16.28Zm0-32.82c7.27,0,13.16,3.97,13.16,8.87s-5.89,8.87-13.16,8.87-13.16-3.97-13.16-8.87,5.89-8.87,13.16-8.87Z" style="fill:#8f00df;"/><path d="m1908.29,47.88h0c8.82,0,15.96-7.29,15.96-16.28v-15.32C1924.25,7.29,1917.11,0,1908.29,0h0C1899.47,0,1892.33,7.29,1892.33,16.28v15.32c0,8.99,7.15,16.28,15.96,16.28Zm0-32.82c7.27,0,13.16,3.97,13.16,8.87s-5.89,8.87-13.16,8.87-13.16-3.97-13.16-8.87,5.89-8.87,13.16-8.87Z" style="fill:#8f00df;"/><path d="m1872.61,47.88h0c8.82,0,15.96-7.29,15.96-16.28v-15.32C1888.57,7.29,1881.42,0,1872.61,0h0C1863.79,0,1856.64,7.29,1856.64,16.28v15.32c0,8.99,7.15,16.28,15.96,16.28Zm0-32.82c7.27,0,13.16,3.97,13.16,8.87s-5.89,8.87-13.16,8.87-13.16-3.97-13.16-8.87,5.89-8.87,13.16-8.87Z" style="fill:#8f00df;"/><path d="m1836.92,47.88h0c8.82,0,15.96-7.29,15.96-16.28v-15.32C1852.89,7.29,1845.74,0,1836.92,0h0C1828.1,0,1820.96,7.29,1820.96,16.28v15.32c0,8.99,7.15,16.28,15.96,16.28Zm0-32.82c7.27,0,13.16,3.97,13.16,8.87s-5.89,8.87-13.16,8.87-13.16-3.97-13.16-8.87,5.89-8.87,13.16-8.87Z" style="fill:#8f00df;"/><path d="m1801.24,47.88h0c8.82,0,15.96-7.29,15.96-16.28v-15.32C1817.2,7.29,1810.05,0,1801.24,0h0C1792.42,0,1785.27,7.29,1785.27,16.28v15.32c0,8.99,7.15,16.28,15.96,16.28Zm0-32.82c7.27,0,13.16,3.97,13.16,8.87s-5.89,8.87-13.16,8.87-13.16-3.97-13.16-8.87,5.89-8.87,13.16-8.87Z" style="fill:#8f00df;"/></g></svg>