<?xml version="1.0" encoding="UTF-8"?><svg id="Camada_2" xmlns="http://www.w3.org/2000/svg" viewBox="0 0 1431.82 1087.15"><path d="m578.21,579.31c0-50.05,40.95-91,91.01-91l501.03.02c50.05,0,91,40.95,91,91.01v102.18c0,50.05-40.96,91-91.01,91h-103.82s34.48,149.24,34.48,149.24c5.26,22.77-24.39,36.46-38.32,17.7l-123.9-166.95h-269.48c-50.05-.01-91-40.97-91-91.02v-102.18Z" style="fill:#ff55f4;"/><path d="m843.04,589.59h-8.26l-2.27,14.48h-6.44l2.27-14.48h-10.08l-2.27,14.48h-6.44l2.35-14.48h-8.26l.91-5.69h8.19l1.67-10.31h-8.26l.91-5.69h8.26l2.27-14.4h6.37l-2.27,14.4h10.08l2.27-14.4h6.52l-2.27,14.4h8.19l-.91,5.69h-8.19l-1.67,10.31h8.26l-.91,5.69Zm-22.29-16l-1.59,10.31h10.08l1.59-10.31h-10.08Z" style="fill:#fff;"/><path d="m862.97,575.26h22.51v8.04h-22.51v20.77h-9.7v-50.56h33.43v8.04h-23.73v13.72Z" style="fill:#fff;"/><path d="m902.32,574.12h4.55l16.75-20.62h11.98l-20.47,24.71,22.59,25.85h-12.28l-18.57-21.6h-4.55v21.6h-9.7v-50.56h9.7v20.62Z" style="fill:#fff;"/><path d="m963.57,604.07h-9.7v-42.07h-14.63v-8.49h39.27v8.49h-14.93v42.07Z" style="fill:#fff;"/><path d="m1030.58,604.07h-16.3l-14.48-27.75c-.91-1.89-1.89-3.94-4.93-10.92l-1.67-3.56h-.3l.08,3.26c.23,4.85.23,5.23.23,9.93v29.03h-9.55v-50.56h16.22l13.19,25.62c1.89,3.79,2.5,5.08,5.91,12.36l1.97,4.17h.3l-.08-3.26c-.23-4.7-.23-5.08-.23-9.78v-29.11h9.63v50.56Z" style="fill:#fff;"/><path d="m669.94,680.56h-8.26l-2.27,14.48h-6.44l2.27-14.48h-10.08l-2.27,14.48h-6.44l2.35-14.48h-8.26l.91-5.69h8.19l1.67-10.31h-8.26l.91-5.69h8.26l2.27-14.4h6.37l-2.27,14.4h10.08l2.27-14.4h6.52l-2.27,14.4h8.19l-.91,5.69h-8.19l-1.67,10.31h8.26l-.91,5.69Zm-22.29-16l-1.59,10.31h10.08l1.59-10.31h-10.08Z" style="fill:#fff;"/><path d="m680.17,644.47h20.47c5.38,0,5.91,0,7.81.15,4.47.3,7.96,2.2,9.85,5.31,1.67,2.8,2.27,6.06,2.27,12.21,0,9.4-2.35,14.02-8.19,15.77q-2.05.68-11.22.83h-11.29v16.3h-9.7v-50.56Zm20.62,25.93c8.57,0,9.93-1.14,9.93-8.41,0-5.61-.61-7.66-2.58-8.72-1.36-.61-2.27-.76-6.37-.76h-11.9v17.89h10.92Z" style="fill:#fff;"/><path d="m736.04,695.03h-9.7v-50.56h9.7v50.56Z" style="fill:#fff;"/><path d="m785.92,676.99v1.74c0,7.58-.76,10.38-3.49,12.96-1.59,1.52-4.25,2.81-7.05,3.34-1.59.23-6.06.46-10.54.46-8.72,0-11.07-.38-14.4-2.27-4.4-2.35-6.29-6.14-6.82-13.34-.23-2.88-.38-9.1-.38-13.72,0-10.54.99-14.4,4.4-17.66,3.79-3.64,7.58-4.47,19.86-4.47,8.04,0,11.22.68,13.8,2.88,2.12,1.82,3.41,4.47,3.87,8.19.15,1.21.23,2.73.3,6.22h-9.63c-.15-8.11-1.06-8.95-9.7-8.95-6.44,0-9.25.53-10.76,1.97-1.29,1.29-1.82,3.11-1.97,6.97q-.08,1.29-.08,8.19c0,16.6.68,17.66,11.52,17.66,9.85,0,11.52-1.21,11.52-8.04,0-.46,0-1.14-.08-2.12h9.63Z" style="fill:#fff;"/><path d="m827.38,645.68c4.55,2.05,7.12,5.69,8.11,11.6.38,2.27.53,5.23.53,11.98,0,12.13-.46,15.46-2.58,19.25-1.82,3.18-5.16,5.38-9.7,6.29-2.05.46-6.06.68-10.99.68-7.5,0-11.29-.61-14.4-2.27-4.02-2.2-6.06-5.46-6.97-11.07-.38-2.35-.46-4.78-.46-11.07,0-13.04.53-16.75,2.88-20.47,1.89-2.96,5.23-5.08,9.4-5.91,1.97-.46,6.14-.68,10.69-.68,7.2,0,10.54.46,13.49,1.67Zm-26.61,26.15c0,8.87.38,11.14,2.2,13.27,1.44,1.67,3.71,2.05,11.45,2.05s9.48-.83,10.76-4.47c.91-2.5.99-3.79.99-13.27,0-7.96,0-8.19-.38-10.54-.45-2.96-1.67-4.85-3.56-5.69-1.67-.68-3.56-.83-9.25-.83-6.14,0-8.19.38-9.78,1.97-1.67,1.59-2.35,4.25-2.43,9.25v8.26Z" style="fill:#fff;"/><path d="m852.93,686.54h23.58v8.49h-33.28v-50.56h9.7v42.07Z" style="fill:#fff;"/><path d="m891.06,665.62h23.58v7.12h-23.58v14.25h25.09v8.04h-34.79v-50.56h34.57v8.04h-24.86v13.12Zm18.65-28.2l-15.62,2.65-1.06-4.25,14.78-5.16,1.9,6.75Z" style="fill:#fff;"/><path d="m923.27,644.47h24.94c6.97,0,11.37,1.36,14.25,4.32,3.64,3.71,4.85,8.04,4.85,16.83,0,13.64-.46,17.81-2.12,21.38-2.8,5.53-7.88,8.04-16.68,8.04h-25.24v-50.56Zm23.35,42.22c4.62,0,7.2-.91,8.72-3.03,1.67-2.35,2.12-5.38,2.12-14.02s-.38-11.67-1.97-13.87c-1.44-2.05-3.79-2.88-8.26-2.88h-14.25v33.81h13.64Z" style="fill:#fff;"/><path d="m983.77,665.62h23.58v7.12h-23.58v14.25h25.09v8.04h-34.79v-50.56h34.57v8.04h-24.86v13.12Z" style="fill:#fff;"/><path d="m1015.98,644.47h24.94c5.38,0,8.11.46,10.23,1.59,3.34,1.9,4.85,5.53,4.85,11.67,0,6.97-1.97,9.93-7.43,11.14v.23c6.59,1.06,8.64,3.94,8.64,12.05,0,10.23-3.87,13.87-14.93,13.87h-26.3v-50.56Zm21.45,21.23c4.09,0,5.53-.23,6.75-.91,1.59-.91,2.2-2.58,2.2-6.06,0-3.26-.68-4.85-2.27-5.69-.91-.38-1.97-.53-4.7-.53h-13.72v13.19h11.75Zm-1.21,21.3c10.08,0,11.37-.76,11.37-6.82,0-4.02-.68-5.76-2.65-6.67-1.14-.53-2.35-.61-6.97-.61h-12.28v14.1h10.54Z" style="fill:#fff;"/><path d="m1098.99,645.68c4.55,2.05,7.13,5.69,8.11,11.6.38,2.27.53,5.23.53,11.98,0,12.13-.45,15.46-2.58,19.25-1.82,3.18-5.15,5.38-9.7,6.29-2.05.46-6.06.68-10.99.68-7.5,0-11.29-.61-14.4-2.27-4.02-2.2-6.06-5.46-6.97-11.07-.38-2.35-.46-4.78-.46-11.07,0-13.04.53-16.75,2.88-20.47,1.9-2.96,5.23-5.08,9.4-5.91,1.97-.46,6.14-.68,10.69-.68,7.2,0,10.54.46,13.49,1.67Zm-26.61,26.15c0,8.87.38,11.14,2.2,13.27,1.44,1.67,3.71,2.05,11.45,2.05s9.48-.83,10.76-4.47c.91-2.5.99-3.79.99-13.27,0-7.96,0-8.19-.38-10.54-.46-2.96-1.67-4.85-3.56-5.69-1.67-.68-3.56-.83-9.25-.83-6.14,0-8.19.38-9.78,1.97-1.67,1.59-2.35,4.25-2.43,9.25v8.26Z" style="fill:#fff;"/><path d="m1161.76,695.03h-16.3l-14.48-27.75c-.91-1.89-1.89-3.94-4.93-10.92l-1.67-3.56h-.3l.08,3.26c.23,4.85.23,5.23.23,9.93v29.03h-9.55v-50.56h16.22l13.19,25.62c1.89,3.79,2.5,5.08,5.91,12.36l1.97,4.17h.3l-.08-3.26c-.23-4.7-.23-5.08-.23-9.78v-29.11h9.63v50.56Z" style="fill:#fff;"/><path d="m1180.33,665.62h23.58v7.12h-23.58v14.25h25.09v8.04h-34.79v-50.56h34.57v8.04h-24.86v13.12Zm18.65-28.2l-15.62,2.65-1.06-4.25,14.78-5.16,1.9,6.75Z" style="fill:#fff;"/><path d="m396.8,609.59l7.7,1.75,1.91.43,71.38,15.4c22.28,5.06,45.11,1.16,64.37-10.97,19.26-12.13,32.64-31.03,37.69-53.22l48.51-213.52-289.35-65.76-46.94,206.62c-11.39,50.14,20.02,100.02,70.16,111.42l34.58,7.86h0Z" style="fill:#ff55f4;"/><path d="m579.18,417.83c-19.18-.25-35.83-16.66-37.9-37.37-.43-4.34-4.31-7.51-8.64-7.07-4.34.43-7.5,4.3-7.07,8.64,1.13,11.32,5.51,21.71,12.06,30.16-1.04,2.13-2.5,4.28-4.28,6.72-29.5,40.23-77.74,63.44-122.9,59.15-12.33-1.17-42.46-6.68-55.98-32.4-2.03-3.86-6.8-5.34-10.66-3.31-3.86,2.03-5.34,6.8-3.31,10.66,12.05,22.92,37,37.78,68.46,40.77,4.05.38,8.11.57,12.19.57,46.86,0,94.83-25.06,124.94-66.11,1.1-1.5,2.2-3.06,3.24-4.7,8.58,6.22,18.83,9.93,29.65,10.08.04,0,.07,0,.11,0,4.31,0,7.84-3.47,7.89-7.79.06-4.36-3.43-7.94-7.79-8Z"/><path d="m606.07,122.51l-60.29-14.86c-3.77-1.15-7.62-2.18-11.52-3.07-12.11-2.75-24.23-4.07-36.14-4.07-10.93,0-21.7,1.14-32.18,3.27,7.19,4.91,14.44,10.36,21.71,16.32,2.1,1.67,4.2,3.35,6.3,5.03,6.37,5.09,12.25,10.89,17.8,16.86,11.92,12.82,22.2,27.06,31.95,41.56,7.23,10.76,14.19,21.7,21.17,32.63,3.87,6.07,7.89,12.37,12.11,18.91,18.83,29.19,34.01,59.7,48.38,97.49l-291.82-66.32c-4.26-.97-8.48,1.7-9.45,5.95-.97,4.25,1.7,8.48,5.95,9.45l298.33,67.8-48.51,213.52c-5.04,22.19-18.43,41.1-37.69,53.22-19.26,12.13-42.09,16.03-64.37,10.97l-71.38-15.4-1.91-.43-7.7-1.75-23.03,101.37c-2.96,13.05-.67,26.47,6.46,37.8,6.99,11.1,17.81,18.87,30.52,21.96l-.03.14,22.34,5.08c22.73,5.16,45.35-9.07,50.51-31.81l22.4-98.57,30.31,6.26c7,1.59,14.06,2.35,21.07,2.35,46.24,0,90.43-33.03,100.91-79.16l47.01-206.9c.11-.47.21-.92.31-1.34l9.1,2.07,13.82-51.9c19.88-87.5-34.94-174.55-122.44-194.43Zm-149.98,607.15c-2.03,8.94-7.42,16.55-15.18,21.43-7.76,4.88-16.95,6.45-25.89,4.42h0c-18.45-4.19-30.05-22.61-25.86-41.06l19.55-86.03,65.66,14.16c.48.11.95.2,1.43.3l-19.71,86.77Zm134.14-503.13c-4.21-6.52-8.21-12.8-12.07-18.84-24.47-38.34-43.28-67.8-69.76-91,7.5.53,14.98,1.62,22.36,3.29,38.21,8.68,70.74,31.72,91.62,64.87,20.88,33.15,27.6,72.45,18.91,110.66l-4.95,21.79c-13.68-34.47-28.3-63.16-46.11-90.77Zm99.65,138.08l-47.01,206.9c-4.21,18.53-15.33,35.53-31.31,47.89-15.83,12.24-35.08,18.98-54.21,18.98-5.94,0-11.86-.66-17.58-1.96l-.15-.03-.15-.03-1.11-.23c4.17-1.9,8.25-4.09,12.2-6.57,22.83-14.38,38.69-36.78,44.67-63.09l48.56-213.74,46.37,10.54c-.1.45-.19.9-.29,1.34Zm23.29-51.45l-9.82,36.91-55.4-12.59,8.74-38.47c14.06-61.86-9.24-123.5-55.01-161.33l.9.23c38.21,8.68,70.74,31.72,91.62,64.87,20.83,33.08,27.56,72.26,18.98,110.39Z"/><path d="m647.94,337.48l55.4,12.59,9.82-36.91c8.59-38.12,1.85-77.31-18.98-110.39-20.88-33.15-53.42-56.19-91.62-64.87l-.9-.23c45.78,37.83,69.07,99.47,55.01,161.33l-8.74,38.47Z" style="fill:#11e353;"/><path d="m578.15,207.69c3.86,6.05,7.87,12.33,12.07,18.84,17.81,27.61,32.43,56.3,46.11,90.77l4.95-21.79c8.68-38.21,1.96-77.5-18.91-110.66-20.88-33.15-53.42-56.19-91.62-64.87-7.38-1.68-14.86-2.77-22.36-3.29,26.48,23.2,45.29,52.66,69.76,91Z" style="fill:#11e353;"/><path d="m324.07,272.21c.96-4.25,5.19-6.91,9.45-5.95l291.82,66.32c-14.38-37.79-29.55-68.3-48.38-97.49-4.22-6.54-8.24-12.84-12.11-18.91-6.97-10.93-13.93-21.87-21.17-32.63-9.75-14.5-20.03-28.74-31.95-41.56-5.55-5.97-11.43-11.77-17.8-16.86-2.1-1.68-4.2-3.36-6.3-5.03-7.27-5.96-14.52-11.41-21.71-16.32,0,0,.01,0,.02,0-50.98-34.8-99.05-42.52-129.21-14.54-34.52,32.01-37.15,102.98-12.76,183.56.03-.19.06-.39.1-.58Z" style="fill:#11e353;"/><path d="m440.91,751.09c7.76-4.88,13.15-12.5,15.18-21.43l19.71-86.77c-.48-.1-.96-.2-1.43-.3l-65.66-14.16-19.55,86.03c-4.19,18.45,7.41,36.87,25.86,41.06h0c8.94,2.03,18.13.46,25.89-4.42Z" style="fill:#fff;"/><path d="m689.88,364.61c.1-.45.19-.9.29-1.34l-46.37-10.54-48.56,213.74c-5.98,26.31-21.84,48.71-44.67,63.09-3.95,2.49-8.02,4.67-12.2,6.57l1.11.23.15.03.15.03c5.72,1.3,11.63,1.96,17.58,1.96,19.12,0,38.37-6.74,54.21-18.98,15.98-12.36,27.1-29.36,31.31-47.89l47.01-206.9Z" style="fill:#8e00d4;"/></svg>