<?xml version="1.0" encoding="utf-8"?>
<!-- Generator: Adobe Illustrator 27.6.1, SVG Export Plug-In . SVG Version: 6.00 Build 0)  -->
<svg version="1.1" id="Camada_1" xmlns="http://www.w3.org/2000/svg" xmlns:xlink="http://www.w3.org/1999/xlink" x="0px" y="0px"
	 viewBox="0 0 3000 2247.42" style="enable-background:new 0 0 3000 2247.42;" xml:space="preserve">
<style type="text/css">
	.st0{fill-rule:evenodd;clip-rule:evenodd;}
</style>
<path class="st0" d="M1464.34,0c693.19,0,1345.15,317.25,1520.53,794.91c-104.41,0.05-885.86-0.12-898.6-0.11
	c33.97-504.41-356.19-630.22-689.11-629.66c-336.34,0.56-631.2,138.18-632.97,503.07c-1.67,344.85,275.09,494.97,526.19,496.46
	c186.71,1.11,446.08,3.9,565.82-2.2c63.04-3.21,113.63-21.41,133.2-64.95c21.51-47.84-1.55-60.54-48.44-60.54
	c-27.26-0.08-544.9-3.3-544.9-3.3v-88.06c0,0,1584.75-0.04,1603.88,0c0,0.51,0.05,87.34,0.05,87.85
	c0,633.76-497.29,1214.4-1535.66,1214.4c-988.85,0-1493.84-580.64-1463.01-1214.4C30.89,425.82,661.32,0,1464.34,0z"/>
</svg>
