<?xml version="1.0" encoding="utf-8"?>
<!-- Generator: Adobe Illustrator 27.5.0, SVG Export Plug-In . SVG Version: 6.00 Build 0)  -->
<svg version="1.1" id="Layer_1" xmlns="http://www.w3.org/2000/svg" xmlns:xlink="http://www.w3.org/1999/xlink" x="0px" y="0px"
	 viewBox="0 0 100.27 100.27" style="enable-background:new 0 0 100.27 100.27;" xml:space="preserve">
<style type="text/css">
	.st0{fill:#020304;}
	.st1{fill:#FFFFFF;}
	.st2{fill:#1E1E1C;}
</style>
<g>
	<g>
		<g>
			<path class="st0" d="M85.16,35.17c-0.89-7.67-6.69-14.34-14.1-16.2c-7.94-2-16.01,0.97-20.55,7.57
				c-0.12,0.17-0.24,0.35-0.36,0.53c-3.42-5.08-8.2-7.98-14.22-8.62c-9.3-0.98-18.03,5.15-20.32,14.26
				c-1.31,5.21-0.6,10.41,2.16,15.91c2.42,4.81,5.81,8.77,9.12,12.32c4.87,5.24,10.22,9.91,15.28,14.17
				c1.71,1.44,3.37,2.87,5.13,4.37c0.79,0.68,1.58,1.35,2.38,2.04l0.48,0.41l1.62-1.38c0.79-0.67,1.56-1.33,2.33-1.99
				c1.05-0.9,2.1-1.8,3.15-2.69c4.85-4.12,9.86-8.39,14.38-13.06c3.67-3.79,7.45-7.98,10.23-12.91
				C84.65,44.93,85.73,40.12,85.16,35.17z"/>
			<path class="st1" d="M50.15,77.31c-2.25-1.92-4.42-3.8-6.63-5.66c-4.67-3.94-9.26-7.97-13.42-12.45
				c-3.05-3.28-5.92-6.69-7.94-10.72c-2.17-4.31-3.06-8.82-1.86-13.59c1.94-7.7,9.38-12.91,17.23-12.09
				c5.34,0.56,9.42,3.17,12.31,7.67c0.09,0.14,0.19,0.26,0.32,0.45c0.3-0.46,0.56-0.87,0.84-1.27c3.83-5.56,10.74-8.1,17.44-6.42
				c6.32,1.59,11.19,7.19,11.95,13.74c0.52,4.52-0.62,8.68-2.83,12.59c-2.38,4.22-5.58,7.8-8.92,11.26
				c-4.82,4.98-10.18,9.35-15.43,13.86C52.2,75.56,51.2,76.42,50.15,77.31z"/>
		</g>
	</g>
	<g>
		<path class="st0" d="M50.15,72.45c-1.85-1.58-3.64-3.13-5.44-4.65c-3.84-3.24-7.61-6.55-11.03-10.23c-2.5-2.69-4.86-5.5-6.53-8.81
			c-1.78-3.54-2.51-7.25-1.53-11.17c1.59-6.33,7.71-10.61,14.16-9.93c4.39,0.46,7.74,2.61,10.12,6.31c0.07,0.11,0.16,0.22,0.27,0.37
			c0.25-0.38,0.46-0.71,0.69-1.04c3.15-4.57,8.83-6.66,14.33-5.27c5.19,1.31,9.19,5.91,9.82,11.29c0.43,3.72-0.51,7.13-2.32,10.34
			c-1.95,3.47-4.58,6.41-7.33,9.25c-3.96,4.09-8.37,7.69-12.68,11.39C51.84,71.01,51.01,71.71,50.15,72.45z"/>
	</g>
	<g>
		<g>
			<g>
				<path class="st2" d="M36.93,43.92l-1.08,0.11l0.01,1.7l-1.59,0.16l0.26-10.15l2.13-0.21l2.37,9.89l-1.74,0.17L36.93,43.92z
					 M35.86,42.28l0.73-0.07l-0.72-3.4L35.86,42.28z"/>
				<path class="st0" d="M34.27,47.12c-0.31,0-0.61-0.12-0.84-0.33c-0.26-0.24-0.4-0.58-0.39-0.94L33.3,35.7
					c0.02-0.62,0.49-1.14,1.11-1.2l2.13-0.21c0.61-0.07,1.18,0.34,1.32,0.94l2.37,9.89c0.08,0.35,0.01,0.71-0.19,1
					c-0.21,0.29-0.53,0.48-0.88,0.51l-1.74,0.17c-0.27,0.03-0.52-0.03-0.74-0.16c-0.19,0.16-0.43,0.27-0.69,0.3l-1.59,0.16
					C34.35,47.12,34.31,47.12,34.27,47.12z M35.74,36.96l-0.02,0.62c0,0,0.01,0,0.01,0c0.05-0.01,0.1-0.01,0.15-0.01L35.74,36.96z"
					/>
			</g>
			<g>
				<path class="st2" d="M44.33,42.79c0.07,1.26-0.43,2.18-1.45,2.47l0.98,1.97l-2.24,0.13l-0.11-1.97
					c-1.16-0.1-1.81-0.92-1.89-2.32l-0.3-5.31c-0.09-1.56,0.46-2.6,2.02-2.69l0.41-0.02c1.58-0.09,2.21,0.89,2.29,2.43L44.33,42.79z
					 M42.14,37.43c-0.03-0.45-0.2-0.65-0.51-0.64c-0.37,0.02-0.47,0.24-0.45,0.69L41.49,43c0.02,0.31,0.16,0.59,0.53,0.57
					c0.37-0.02,0.44-0.31,0.43-0.62L42.14,37.43z"/>
				<path class="st0" d="M41.62,48.58c-0.65,0-1.19-0.51-1.23-1.17l-0.06-1.08c-1.15-0.5-1.86-1.64-1.94-3.22l-0.3-5.31
					c-0.06-1.09,0.14-1.99,0.61-2.67c0.39-0.56,1.15-1.25,2.57-1.33l0.41-0.02c1.02-0.06,3.4,0.18,3.6,3.6l0.3,5.33c0,0,0,0,0,0
					c0.07,1.26-0.32,2.33-1.06,3.02l0.47,0.94c0.19,0.37,0.17,0.81-0.04,1.17c-0.21,0.36-0.58,0.59-1,0.61l-2.24,0.13
					C41.66,48.58,41.64,48.58,41.62,48.58z"/>
			</g>
			<g>
				<path class="st2" d="M45.43,34.98l1.86-0.02l0.08,7.8c0,0.42,0.16,0.62,0.45,0.62c0.28,0,0.43-0.21,0.43-0.63l-0.08-7.8
					l1.86-0.02l0.08,7.73c0.02,1.68-0.76,2.5-2.06,2.51l-0.45,0c-1.31,0.01-2.07-0.79-2.08-2.47L45.43,34.98z"/>
				<path class="st0" d="M47.57,46.41c-1.27,0-2.02-0.56-2.43-1.03c-0.56-0.64-0.85-1.54-0.86-2.67l-0.08-7.73
					c0-0.33,0.12-0.64,0.35-0.88c0.23-0.23,0.54-0.37,0.87-0.37l1.86-0.02c0.15,0,0.3,0.03,0.44,0.08c0.14-0.05,0.29-0.08,0.44-0.09
					l1.86-0.02c0,0,0.01,0,0.01,0c0.68,0,1.23,0.54,1.24,1.22l0.08,7.73c0.01,1.13-0.27,2.03-0.83,2.69
					c-0.41,0.48-1.16,1.05-2.45,1.07l-0.45,0C47.6,46.41,47.58,46.41,47.57,46.41z"/>
			</g>
			<g>
				<path class="st2" d="M55.35,35.07l-0.06,1.77l-1.96-0.06l-0.07,2.19l1.54,0.05l-0.06,1.81l-1.54-0.05l-0.08,2.48l2.06,0.07
					l-0.06,1.81l-3.86-0.12l0.32-10.07L55.35,35.07z"/>
				<path class="st0" d="M55.12,46.38c-0.01,0-0.03,0-0.04,0l-3.86-0.12c-0.33-0.01-0.64-0.15-0.86-0.39
					c-0.22-0.24-0.34-0.56-0.33-0.88l0.32-10.07c0.01-0.33,0.15-0.64,0.39-0.86c0.24-0.22,0.56-0.35,0.88-0.33l3.76,0.12
					c0.33,0.01,0.64,0.15,0.86,0.39c0.22,0.24,0.34,0.56,0.33,0.88l-0.06,1.77c-0.02,0.58-0.43,1.05-0.96,1.17
					c0.05,0.04,0.1,0.08,0.14,0.13c0.22,0.24,0.34,0.56,0.33,0.88l-0.06,1.81c-0.02,0.68-0.6,1.22-1.27,1.19l-0.31-0.01l0,0.01
					l0.82,0.03c0.33,0.01,0.64,0.15,0.86,0.39c0.22,0.24,0.34,0.56,0.33,0.88l-0.06,1.81C56.34,45.86,55.79,46.38,55.12,46.38z"/>
			</g>
			<g>
				<path class="st2" d="M59.11,40.96l1.78,0.13l-0.17,2.27c-0.09,1.19-0.67,2.29-2.25,2.17l-0.36-0.03
					c-1.73-0.13-2.04-1.28-1.95-2.53l0.42-5.67c0.09-1.22,0.71-2.24,2.29-2.13l0.36,0.03c1.73,0.13,2,1.22,1.92,2.37l-0.12,1.69
					l-1.78-0.13l0.12-1.62c0.03-0.38-0.08-0.59-0.42-0.61c-0.34-0.02-0.46,0.16-0.49,0.55l-0.42,5.67c-0.03,0.41,0.1,0.62,0.41,0.64
					c0.32,0.02,0.46-0.21,0.49-0.58L59.11,40.96z"/>
				<path class="st0" d="M58.69,46.78c-0.1,0-0.2,0-0.31-0.01l-0.36-0.03c-1.51-0.11-2.26-0.84-2.62-1.43
					c-0.39-0.63-0.54-1.43-0.47-2.43l0.42-5.67c0.07-0.94,0.38-1.74,0.91-2.31c0.46-0.49,1.29-1.06,2.7-0.96l0.36,0.03
					c1,0.07,3.29,0.58,3.06,3.69l-0.12,1.69c-0.03,0.37-0.21,0.68-0.48,0.89c0.02,0.02,0.03,0.03,0.05,0.05
					c0.21,0.25,0.32,0.57,0.3,0.9l-0.17,2.27C61.81,45.5,60.54,46.78,58.69,46.78z"/>
			</g>
			<g>
				<path class="st2" d="M66.54,36.06l-0.2,1.76l-1.95-0.23l-0.25,2.18l1.53,0.18l-0.21,1.8l-1.53-0.18l-0.28,2.46l2.04,0.24
					l-0.21,1.8l-3.83-0.44l1.16-10.01L66.54,36.06z"/>
				<path class="st0" d="M65.48,47.32c-0.05,0-0.1,0-0.14-0.01l-3.83-0.44c-0.33-0.04-0.62-0.2-0.83-0.46
					c-0.2-0.26-0.3-0.58-0.26-0.91l1.16-10.01c0.04-0.33,0.2-0.62,0.46-0.83c0.26-0.2,0.58-0.3,0.91-0.26l3.74,0.43
					c0.68,0.08,1.16,0.69,1.08,1.37l-0.2,1.76c-0.04,0.33-0.2,0.62-0.46,0.83c-0.17,0.14-0.38,0.23-0.6,0.26
					c0.28,0.26,0.44,0.64,0.39,1.05l-0.21,1.8c-0.04,0.33-0.2,0.62-0.46,0.83c-0.26,0.2-0.58,0.3-0.91,0.26l-0.31-0.04l0,0.01
					l0.82,0.09c0.33,0.04,0.62,0.2,0.83,0.46c0.2,0.26,0.3,0.58,0.26,0.91l-0.21,1.8C66.63,46.85,66.1,47.32,65.48,47.32z"/>
			</g>
		</g>
		<g>
			<g>
				<path class="st2" d="M33.41,55.29l1.77-0.22l0.29,2.26c0.15,1.18-0.21,2.37-1.78,2.57l-0.36,0.05c-1.72,0.22-2.25-0.85-2.41-2.1
					l-0.71-5.64c-0.15-1.21,0.25-2.34,1.82-2.54l0.36-0.05c1.72-0.22,2.2,0.8,2.35,1.94l0.21,1.68l-1.77,0.22l-0.2-1.61
					c-0.05-0.38-0.19-0.56-0.53-0.52c-0.34,0.04-0.42,0.24-0.37,0.63l0.71,5.64c0.05,0.4,0.22,0.59,0.53,0.55
					c0.32-0.04,0.41-0.3,0.37-0.66L33.41,55.29z"/>
				<path class="st0" d="M32.94,61.2c-1.14,0-2.9-0.46-3.24-3.2l-0.71-5.64c-0.12-0.94,0.03-1.78,0.43-2.44
					c0.35-0.57,1.06-1.3,2.46-1.47l0.36-0.05c1.48-0.19,2.35,0.35,2.81,0.83c0.5,0.52,0.8,1.23,0.92,2.18l0.21,1.68
					c0.04,0.32-0.05,0.65-0.25,0.91c-0.01,0.02-0.03,0.04-0.04,0.05c0.28,0.19,0.48,0.5,0.52,0.86l0.29,2.26
					c0.27,2.15-0.85,3.7-2.85,3.95l-0.36,0.05C33.33,61.19,33.15,61.2,32.94,61.2z M32.47,57.66L32.47,57.66L32.47,57.66z"/>
			</g>
			<g>
				<path class="st2" d="M41.29,56.69c0.12,1.47-0.59,2.51-1.94,2.62l-0.41,0.03c-1.42,0.11-2.24-0.69-2.37-2.27l-0.43-5.31
					c-0.12-1.55,0.4-2.61,1.95-2.74L38.51,49c1.58-0.13,2.23,0.84,2.35,2.38L41.29,56.69z M38.98,51.39
					c-0.04-0.45-0.22-0.65-0.53-0.62c-0.36,0.03-0.47,0.26-0.43,0.7l0.44,5.51c0.02,0.31,0.17,0.58,0.55,0.55
					c0.36-0.03,0.44-0.32,0.41-0.63L38.98,51.39z"/>
				<path class="st0" d="M38.69,60.59c-1.9,0-3.17-1.28-3.34-3.42l-0.43-5.31c-0.09-1.09,0.1-1.99,0.54-2.68
					c0.37-0.57,1.12-1.28,2.54-1.39l0.41-0.03c1.02-0.08,3.41,0.1,3.68,3.51l0.43,5.32l0,0c0.18,2.2-1.06,3.78-3.07,3.95l-0.41,0.03
					C38.93,60.58,38.81,60.59,38.69,60.59z M38.19,57.01L38.19,57.01L38.19,57.01z"/>
			</g>
			<g>
				<path class="st2" d="M44.38,58.87l-1.8,0.06l-0.35-10.07l2.84-0.1c1.1-0.04,1.67,0.54,1.71,1.62l0.06,1.61
					c0.03,0.84-0.42,1.22-0.75,1.38c0.29,0.1,0.79,0.42,0.81,1.16l0.12,3.42c0.01,0.43,0.1,0.62,0.17,0.74l0,0.07l-1.8,0.06
					c-0.1-0.1-0.17-0.32-0.19-0.77l-0.1-2.94c-0.02-0.47-0.13-0.59-0.49-0.58l-0.38,0.01L44.38,58.87z M44.17,52.9l0.35-0.01
					c0.37-0.01,0.5-0.15,0.48-0.63l-0.05-1.37c-0.02-0.43-0.1-0.57-0.47-0.55l-0.41,0.01L44.17,52.9z"/>
				<path class="st0" d="M42.58,60.16c-0.31,0-0.61-0.12-0.84-0.33c-0.24-0.22-0.38-0.53-0.39-0.86L40.99,48.9
					c-0.01-0.33,0.11-0.65,0.33-0.89s0.53-0.38,0.86-0.39l2.84-0.1c1.11-0.04,1.78,0.38,2.15,0.73c0.36,0.35,0.8,0.99,0.84,2.08
					l0.06,1.61c0.02,0.5-0.08,0.95-0.27,1.35c0.19,0.33,0.31,0.72,0.33,1.19l0.12,3.42c0,0.1,0.01,0.15,0.02,0.18
					c0.09,0.17,0.15,0.37,0.16,0.56l0,0.07c0.01,0.33-0.11,0.65-0.33,0.89c-0.22,0.24-0.53,0.38-0.86,0.39l-1.8,0.06
					c-0.18,0.01-0.35-0.03-0.51-0.09c-0.15,0.08-0.32,0.12-0.5,0.13l-1.8,0.06C42.61,60.16,42.59,60.16,42.58,60.16z M48.27,58.11
					L48.27,58.11L48.27,58.11z"/>
			</g>
			<g>
				<path class="st2" d="M50.76,57.09l-1.08-0.01l-0.18,1.69l-1.6-0.02l1.37-10.06l2.14,0.02l1.27,10.09l-1.75-0.02L50.76,57.09z
					 M49.87,55.35l0.73,0.01l-0.35-3.46L49.87,55.35z"/>
				<path class="st0" d="M52.68,60.04c0,0-0.01,0-0.01,0l-1.75-0.02c-0.27,0-0.51-0.09-0.72-0.24c-0.2,0.14-0.46,0.22-0.72,0.22
					l-1.6-0.02c-0.35,0-0.69-0.16-0.92-0.43c-0.23-0.27-0.34-0.62-0.29-0.97l1.37-10.06c0.08-0.61,0.61-1.07,1.22-1.07
					c0,0,0.01,0,0.01,0l2.14,0.02c0.62,0.01,1.14,0.47,1.21,1.08l1.27,10.09c0.04,0.35-0.07,0.71-0.3,0.98
					C53.37,59.89,53.03,60.04,52.68,60.04z M50.25,50.67c0.05,0,0.1,0,0.16,0.01l-0.08-0.63L50.25,50.67
					C50.25,50.67,50.25,50.67,50.25,50.67z"/>
			</g>
			<g>
				<path class="st2" d="M56.43,54.54l1.79,0.09l-0.12,2.27c-0.06,1.19-0.62,2.3-2.21,2.22l-0.37-0.02c-1.73-0.09-2.06-1.23-2-2.49
					l0.3-5.68c0.06-1.22,0.66-2.26,2.24-2.17l0.37,0.02c1.73,0.09,2.03,1.18,1.97,2.33l-0.09,1.69l-1.79-0.09l0.09-1.62
					c0.02-0.38-0.09-0.59-0.43-0.61c-0.34-0.02-0.46,0.17-0.48,0.56l-0.3,5.68c-0.02,0.41,0.12,0.62,0.43,0.63
					c0.32,0.02,0.46-0.22,0.48-0.59L56.43,54.54z M54.64,61.44l0.04-0.85l0.68,0.04c0.2,0.01,0.3-0.07,0.31-0.21l0-0.01
					c0.01-0.14-0.08-0.21-0.29-0.22l-0.47-0.03l0.07-1.24l0.81,0.04l-0.03,0.49l0.04,0c0.72,0.06,1.05,0.41,1.02,1.03l0,0.04
					c-0.04,0.7-0.6,1.01-1.35,0.97L54.64,61.44z"/>
				<path class="st0" d="M55.59,62.73c-0.06,0-0.13,0-0.19-0.01l-0.82-0.04c-0.33-0.02-0.63-0.16-0.85-0.41
					c-0.22-0.24-0.33-0.56-0.32-0.89l0.04-0.85c0.01-0.24,0.1-0.47,0.24-0.67l0-0.04c-0.8-0.49-1.5-1.45-1.4-3.28l0.3-5.68
					c0.05-0.94,0.35-1.75,0.86-2.33c0.45-0.5,1.27-1.09,2.68-1.01l0.36,0.02c1,0.05,3.3,0.51,3.14,3.63l-0.09,1.69
					c-0.02,0.37-0.2,0.69-0.46,0.9c0.24,0.24,0.38,0.58,0.36,0.94l-0.12,2.27c-0.05,0.93-0.33,1.73-0.82,2.31
					c-0.14,0.17-0.31,0.34-0.53,0.5c0.06,0.23,0.09,0.49,0.07,0.76l0,0.04c-0.04,0.73-0.38,1.34-0.95,1.73
					C56.69,62.58,56.17,62.73,55.59,62.73z"/>
			</g>
			<g>
				<path class="st2" d="M61.7,57.71l-1.08-0.1l-0.32,1.67l-1.59-0.15l2.23-9.91l2.13,0.21l0.4,10.16l-1.74-0.17L61.7,57.71z
					 M61.72,48.58c-0.07-0.01-0.11,0.04-0.12,0.14l-0.02,0.22l-0.97-0.09l0.04-0.46c0.07-0.69,0.4-1.01,0.87-0.96
					c0.27,0.03,0.45,0.1,0.71,0.25c0.22,0.13,0.28,0.16,0.35,0.17c0.05,0.01,0.08-0.03,0.09-0.13l0.02-0.22l0.97,0.09l-0.04,0.46
					c-0.07,0.75-0.5,0.99-0.87,0.95c-0.23-0.02-0.41-0.08-0.71-0.26C61.89,48.65,61.81,48.59,61.72,48.58z M60.96,55.9l0.73,0.07
					l-0.05-3.47L60.96,55.9z"/>
				<path class="st0" d="M63.46,60.81c-0.04,0-0.08,0-0.12-0.01l-1.74-0.17c-0.26-0.03-0.5-0.13-0.69-0.3
					c-0.22,0.13-0.47,0.19-0.74,0.16l-1.59-0.15c-0.35-0.03-0.67-0.22-0.88-0.51c-0.21-0.29-0.28-0.65-0.2-1l2.09-9.3
					c-0.16-0.23-0.25-0.52-0.22-0.83l0.04-0.46c0.15-1.56,1.25-2.16,2.22-2.08c0.25,0.02,0.46,0.07,0.64,0.14
					c0.17-0.06,0.35-0.08,0.53-0.07l0.97,0.09c0.33,0.03,0.63,0.19,0.84,0.44c0.21,0.25,0.31,0.58,0.28,0.9l-0.04,0.46
					c-0.06,0.58-0.26,1.04-0.54,1.38l0.39,9.99c0.01,0.36-0.13,0.7-0.39,0.95C64.08,60.7,63.78,60.81,63.46,60.81z M61.74,51.26
					c0,0,0.01,0,0.01,0c0.05,0,0.1,0.01,0.15,0.02l-0.02-0.63L61.74,51.26z"/>
			</g>
			<g>
				<path class="st2" d="M69.17,58.04c-0.2,1.46-1.12,2.32-2.46,2.13l-0.4-0.06c-1.41-0.2-2.04-1.16-1.82-2.73l0.74-5.27
					c0.22-1.54,0.96-2.46,2.5-2.25l0.4,0.06c1.57,0.22,1.99,1.31,1.78,2.83L69.17,58.04z M68.07,52.36
					c0.06-0.44-0.07-0.68-0.38-0.72c-0.36-0.05-0.51,0.15-0.57,0.59l-0.77,5.47c-0.04,0.31,0.04,0.61,0.41,0.66
					c0.36,0.05,0.5-0.22,0.54-0.53L68.07,52.36z"/>
				<path class="st0" d="M67.06,61.43c-0.17,0-0.35-0.01-0.52-0.04l-0.4-0.06c-1.33-0.19-2.03-0.86-2.38-1.39
					c-0.48-0.72-0.65-1.64-0.49-2.73l0.74-5.27c0.33-2.36,1.79-3.6,3.9-3.3l0.4,0.06c1.43,0.2,2.13,0.95,2.46,1.54
					c0.4,0.71,0.52,1.59,0.37,2.68l-0.74,5.28c-0.14,1.02-0.56,1.86-1.21,2.44C68.61,61.16,67.87,61.43,67.06,61.43z M68.07,52.36
					L68.07,52.36L68.07,52.36z"/>
			</g>
		</g>
	</g>
	<g>
		<g>
			<path class="st1" d="M36.93,43.91l-1.08,0.11l0.01,1.7l-1.59,0.16l0.26-10.15l2.13-0.21l2.37,9.89l-1.74,0.17L36.93,43.91z
				 M35.86,42.28l0.73-0.07l-0.72-3.4L35.86,42.28z"/>
			<path class="st1" d="M44.33,42.79c0.07,1.26-0.43,2.18-1.45,2.47l0.98,1.97l-2.24,0.13l-0.11-1.97c-1.16-0.1-1.81-0.91-1.89-2.32
				l-0.3-5.31c-0.09-1.56,0.46-2.6,2.02-2.69l0.41-0.02c1.58-0.09,2.21,0.89,2.29,2.43L44.33,42.79z M42.14,37.43
				c-0.03-0.45-0.2-0.65-0.51-0.64c-0.37,0.02-0.47,0.24-0.45,0.69L41.49,43c0.02,0.31,0.16,0.59,0.53,0.57
				c0.37-0.02,0.44-0.31,0.43-0.62L42.14,37.43z"/>
			<path class="st1" d="M45.43,34.98l1.86-0.02l0.08,7.8c0,0.42,0.16,0.62,0.45,0.62c0.28,0,0.43-0.21,0.43-0.63l-0.08-7.8
				l1.86-0.02l0.08,7.73c0.02,1.68-0.76,2.5-2.06,2.51l-0.45,0c-1.31,0.01-2.07-0.79-2.08-2.47L45.43,34.98z"/>
			<path class="st1" d="M55.35,35.07l-0.06,1.77l-1.96-0.06l-0.07,2.19l1.54,0.05l-0.06,1.81l-1.54-0.05l-0.08,2.48l2.06,0.07
				l-0.06,1.81l-3.86-0.12l0.32-10.07L55.35,35.07z"/>
			<path class="st1" d="M59.11,40.96l1.78,0.13l-0.17,2.27c-0.09,1.19-0.67,2.29-2.25,2.17l-0.36-0.03
				c-1.73-0.13-2.04-1.28-1.95-2.53l0.42-5.67c0.09-1.22,0.71-2.24,2.29-2.13l0.36,0.03c1.73,0.13,2,1.22,1.92,2.37l-0.12,1.69
				l-1.78-0.13l0.12-1.62c0.03-0.38-0.08-0.59-0.42-0.61c-0.34-0.02-0.46,0.16-0.49,0.55l-0.42,5.67c-0.03,0.4,0.1,0.62,0.41,0.64
				c0.32,0.02,0.46-0.21,0.49-0.58L59.11,40.96z"/>
			<path class="st1" d="M66.54,36.06l-0.2,1.76l-1.95-0.23l-0.25,2.18l1.53,0.18l-0.21,1.8l-1.53-0.18l-0.28,2.46l2.04,0.24
				l-0.21,1.8l-3.83-0.44l1.16-10.01L66.54,36.06z"/>
		</g>
		<g>
			<path class="st1" d="M33.41,55.29l1.77-0.22l0.29,2.26c0.15,1.18-0.21,2.37-1.78,2.57l-0.36,0.05c-1.72,0.22-2.25-0.85-2.41-2.1
				l-0.71-5.64c-0.15-1.21,0.25-2.34,1.82-2.54l0.36-0.05c1.72-0.22,2.2,0.8,2.35,1.94l0.21,1.68l-1.77,0.22l-0.2-1.61
				c-0.05-0.38-0.19-0.56-0.53-0.52c-0.34,0.04-0.42,0.24-0.37,0.63l0.71,5.64c0.05,0.4,0.22,0.59,0.53,0.55
				c0.32-0.04,0.41-0.3,0.37-0.66L33.41,55.29z"/>
			<path class="st1" d="M41.29,56.69c0.12,1.47-0.59,2.51-1.94,2.62l-0.41,0.03c-1.42,0.11-2.24-0.69-2.37-2.27l-0.43-5.31
				c-0.12-1.55,0.4-2.61,1.95-2.74L38.51,49c1.58-0.13,2.23,0.84,2.35,2.38L41.29,56.69z M38.98,51.39
				c-0.04-0.45-0.22-0.65-0.53-0.62c-0.36,0.03-0.47,0.25-0.43,0.7l0.44,5.51c0.02,0.31,0.17,0.58,0.55,0.55
				c0.36-0.03,0.44-0.32,0.41-0.63L38.98,51.39z"/>
			<path class="st1" d="M44.38,58.87l-1.8,0.06l-0.35-10.07l2.84-0.1c1.1-0.04,1.67,0.54,1.71,1.62l0.06,1.61
				c0.03,0.84-0.42,1.22-0.75,1.38c0.29,0.1,0.79,0.42,0.81,1.16l0.12,3.42c0.01,0.43,0.1,0.62,0.17,0.74l0,0.07l-1.8,0.06
				c-0.1-0.11-0.17-0.32-0.19-0.77l-0.1-2.94c-0.02-0.47-0.13-0.59-0.49-0.58l-0.38,0.01L44.38,58.87z M44.17,52.9l0.35-0.01
				c0.37-0.01,0.5-0.15,0.48-0.63l-0.05-1.37c-0.02-0.43-0.1-0.57-0.47-0.55l-0.41,0.01L44.17,52.9z"/>
			<path class="st1" d="M50.76,57.09l-1.08-0.01l-0.18,1.69l-1.6-0.02l1.37-10.06l2.14,0.02l1.27,10.09l-1.75-0.02L50.76,57.09z
				 M49.87,55.35l0.73,0.01l-0.35-3.46L49.87,55.35z"/>
			<path class="st1" d="M56.43,54.54l1.79,0.09l-0.12,2.27c-0.06,1.19-0.62,2.3-2.21,2.22l-0.37-0.02c-1.73-0.09-2.06-1.23-2-2.49
				l0.3-5.68c0.06-1.22,0.66-2.26,2.24-2.17l0.37,0.02c1.73,0.09,2.03,1.18,1.97,2.33l-0.09,1.69l-1.79-0.09l0.09-1.62
				c0.02-0.38-0.09-0.59-0.43-0.61c-0.34-0.02-0.46,0.17-0.48,0.56l-0.3,5.68c-0.02,0.41,0.12,0.62,0.43,0.63
				c0.32,0.02,0.46-0.22,0.48-0.59L56.43,54.54z M54.64,61.44l0.04-0.85l0.68,0.04c0.2,0.01,0.3-0.07,0.31-0.21l0-0.01
				c0.01-0.14-0.08-0.21-0.29-0.22l-0.47-0.03l0.07-1.24l0.81,0.04l-0.03,0.49l0.04,0c0.72,0.06,1.05,0.41,1.02,1.03l0,0.04
				c-0.04,0.7-0.6,1.01-1.35,0.97L54.64,61.44z"/>
			<path class="st1" d="M61.7,57.71l-1.08-0.1l-0.32,1.67l-1.59-0.15l2.23-9.91l2.13,0.21l0.4,10.16l-1.74-0.17L61.7,57.71z
				 M61.72,48.58c-0.07-0.01-0.11,0.04-0.12,0.14l-0.02,0.22l-0.97-0.09l0.04-0.46c0.07-0.69,0.4-1.01,0.87-0.96
				c0.27,0.03,0.45,0.1,0.71,0.25c0.22,0.13,0.28,0.16,0.35,0.17c0.05,0.01,0.08-0.03,0.09-0.13l0.02-0.22l0.97,0.09l-0.04,0.46
				c-0.07,0.75-0.5,0.99-0.87,0.95c-0.23-0.02-0.41-0.08-0.71-0.26C61.89,48.65,61.81,48.59,61.72,48.58z M60.96,55.9l0.73,0.07
				l-0.05-3.47L60.96,55.9z"/>
			<path class="st1" d="M69.17,58.04c-0.21,1.46-1.12,2.32-2.46,2.13l-0.4-0.06c-1.41-0.2-2.04-1.16-1.82-2.73l0.74-5.27
				c0.22-1.54,0.96-2.46,2.5-2.25l0.4,0.06c1.57,0.22,1.99,1.31,1.78,2.83L69.17,58.04z M68.07,52.36c0.06-0.44-0.07-0.68-0.38-0.72
				c-0.36-0.05-0.51,0.15-0.58,0.59l-0.77,5.47c-0.04,0.31,0.04,0.61,0.41,0.66c0.36,0.05,0.5-0.22,0.54-0.53L68.07,52.36z"/>
		</g>
	</g>
</g>
</svg>
