<?xml version="1.0" encoding="utf-8"?>
<!-- Generator: Adobe Illustrator 27.5.0, SVG Export Plug-In . SVG Version: 6.00 Build 0)  -->
<svg version="1.1" id="Layer_1" xmlns="http://www.w3.org/2000/svg" xmlns:xlink="http://www.w3.org/1999/xlink" x="0px" y="0px"
	 viewBox="0 0 100.27 100.27" style="enable-background:new 0 0 100.27 100.27;" xml:space="preserve">
<style type="text/css">
	.st0{fill:#FFFFFF;}
	.st1{fill:#020304;}
</style>
<g>
	<path class="st0" d="M45.05,17.88c-3.63,0-7.08,1.74-9.25,4.64l-6.9,9.25c-1.34,1.8-2.12,3.92-2.27,6.15
		c-0.03,0.13-0.04,0.26-0.04,0.39v20.32v3.96v13.44c0,3.5,2.85,6.36,6.36,6.36h34.37c3.5,0,6.36-2.85,6.36-6.36V62.93v-4.29V41.08
		c0-0.23-0.04-0.46-0.13-0.67c-0.17-1.29-0.56-2.52-1.15-3.68l-5.67-11.16c-1.75-3.44-5.08-5.77-8.9-6.23l-11.38-1.38
		C45.98,17.91,45.51,17.88,45.05,17.88L45.05,17.88z"/>
	<g>
		<path class="st1" d="M36.71,73.11c0,0.87-0.38,1.49-1.1,1.65l0.6,1.4h-1.56v-1.37c-0.8-0.11-1.22-0.7-1.22-1.68v-3.68
			c0-1.08,0.42-1.78,1.5-1.78h0.28c1.1,0,1.49,0.7,1.49,1.77V73.11z M35.4,69.33c0-0.31-0.11-0.46-0.33-0.46
			c-0.25,0-0.34,0.15-0.34,0.46v3.82c0,0.22,0.08,0.41,0.35,0.41c0.25,0,0.32-0.2,0.32-0.41V69.33z"/>
		<path class="st1" d="M38,67.73h1.28v5.4c0,0.29,0.1,0.43,0.31,0.43c0.2,0,0.3-0.14,0.3-0.43v-5.4h1.28v5.35
			c0,1.16-0.54,1.72-1.44,1.72h-0.31c-0.91,0-1.42-0.56-1.42-1.72V67.73z"/>
		<path class="st1" d="M44.2,73.53h-0.75l-0.11,1.17h-1.11l0.88-6.97h1.48l0.95,6.97h-1.21L44.2,73.53z M43.58,72.33h0.51
			l-0.26-2.39L43.58,72.33z"/>
		<path class="st1" d="M46.66,67.73h1.77c0.94,0,1.36,0.43,1.36,1.49v3.94c0,1-0.35,1.55-1.36,1.55h-1.77V67.73z M47.9,73.54h0.24
			c0.29,0,0.37-0.15,0.37-0.49v-3.75c0-0.34-0.09-0.47-0.33-0.47H47.9V73.54z"/>
		<path class="st1" d="M52.35,74.71H51.1v-6.97h1.97c0.76,0,1.14,0.41,1.14,1.16v1.12c0,0.58-0.32,0.83-0.55,0.94
			c0.2,0.07,0.53,0.31,0.53,0.82v2.37c0,0.3,0.06,0.43,0.1,0.52v0.05h-1.25c-0.07-0.07-0.11-0.22-0.11-0.53v-2.03
			c0-0.33-0.07-0.41-0.33-0.41h-0.26V74.71z M52.35,70.57h0.24c0.25,0,0.35-0.09,0.35-0.42V69.2c0-0.3-0.06-0.39-0.31-0.39h-0.28
			V70.57z"/>
		<path class="st1" d="M57.29,73.53h-0.75l-0.11,1.17h-1.11l0.88-6.97h1.48l0.95,6.97h-1.21L57.29,73.53z M56.67,72.33h0.51
			l-0.26-2.39L56.67,72.33z"/>
		<path class="st1" d="M59.75,67.73h1.77c0.94,0,1.36,0.43,1.36,1.49v3.94c0,1-0.35,1.55-1.36,1.55h-1.77V67.73z M61,73.54h0.24
			c0.29,0,0.37-0.15,0.37-0.49v-3.75c0-0.34-0.09-0.47-0.33-0.47H61V73.54z"/>
		<path class="st1" d="M65.9,73.53h-0.75l-0.11,1.17h-1.11l0.88-6.97h1.48l0.95,6.97h-1.21L65.9,73.53z M65.27,72.33h0.51
			l-0.26-2.39L65.27,72.33z"/>
	</g>
	<g>
		<path class="st1" d="M33.66,59.63h5.05c1.4,0,2.08,0.38,2.08,1.5c0,0.98-0.36,1.17-0.85,1.31v0.02c0.77,0.09,1.05,0.51,1.05,1.37
			c0,1.26-0.74,1.52-1.75,1.52h-5.59V59.63z M35.41,61.9h3.11c0.32,0,0.51-0.12,0.51-0.44c0-0.33-0.19-0.45-0.51-0.45h-3.11V61.9z
			 M35.41,63.98h3.15c0.38,0,0.63-0.09,0.63-0.42c0-0.39-0.25-0.47-0.63-0.47h-3.15V63.98z"/>
		<path class="st1" d="M42.32,61.64c0-1.68,0.94-2.07,2.52-2.07h2.82c1.58,0,2.52,0.4,2.52,2.07v1.71c0,1.68-0.94,2.07-2.52,2.07
			h-2.82c-1.58,0-2.52-0.4-2.52-2.07V61.64z M44.13,62.81c0,0.83,0.17,1.15,1,1.15h2.25c0.83,0,1-0.32,1-1.15v-0.62
			c0-0.71-0.17-1.15-1.1-1.15h-2.06c-0.93,0-1.1,0.43-1.1,1.15V62.81z"/>
		<path class="st1" d="M51.64,59.63h1.76v4.26h3.95v1.47h-5.7V59.63z"/>
		<path class="st1" d="M61.02,59.63h2.29l3.15,5.73H64.5l-0.55-1.01h-3.56l-0.51,1.01h-1.96L61.02,59.63z M61.05,63.11h2.25
			l-1.14-2.15L61.05,63.11z"/>
	</g>
	<path class="st1" d="M67.14,39.85l-5.38-10.59c-0.92-1.81-2.67-3.04-4.69-3.28h0l-10.8-1.31c-2.16-0.26-4.3,0.66-5.6,2.4
		l-0.96,1.29c0,0,0,0.01-0.01,0.01l-5.59,7.49c-1.23,1.64-1.54,3.78-0.84,5.7l4.01,11.1c0.87,2.41,3.16,4.01,5.72,4.01
		c0.03,0,0.06,0,0.09,0l11.1-0.17c1.43-0.02,2.78-0.54,3.85-1.46c0.01-0.01,0.02-0.01,0.03-0.02c0.06-0.04,0.11-0.09,0.16-0.15
		c0.07-0.07,0.14-0.14,0.21-0.21l7.62-7.81C67.89,44.98,68.32,42.17,67.14,39.85z M60.53,29.88l1.82,3.57l-0.49-0.01
		c-0.02-0.04-0.05-0.08-0.08-0.11l-4.02-4.4l-0.12-1.44C58.88,27.85,59.94,28.71,60.53,29.88z M60.64,38.85l2.74,3.76l-11.95-0.76
		l-3.87-8.6l3.21,0.42l4.59,4.57c0.11,0.11,0.27,0.18,0.43,0.2L60.64,38.85z M50.16,42.39l-2.25,2.55l-3.45-2.05l-0.31-6.5
		l2.11-2.67L50.16,42.39z M56.24,27.26l0.09,1.12L51.6,27.8c-0.01,0-0.02,0-0.04,0l-1.31-1.26L56.24,27.26z M45.54,26
		c0.19,0,0.37,0.01,0.56,0.03l1.9,0.23l2.78,2.69l-0.31,3.28l-3.58-0.46l-2.53-5.62C44.75,26.05,45.14,26,45.54,26z M41.77,27.89
		c0.37-0.49,0.82-0.9,1.33-1.21l2.53,5.62l-2.4,3.03l-2.67-1.94l0.35-4.36L41.77,27.89z M39.36,31.12l-0.23,2.81l-2.4,3.09
		l-1.04-0.99L39.36,31.12z M35.93,44.87l-1.37-3.78c-0.47-1.31-0.34-2.74,0.34-3.93l1.05,1c-0.01,0.06-0.02,0.12-0.01,0.18l0.5,5.68
		L35.93,44.87z M39.86,54.08c-0.56-0.51-1.01-1.15-1.28-1.89l-2.04-5.65l0.67-1.11l2.44,2.07l0.98,5.73L39.86,54.08z M41.01,54.85
		l0.45-0.51l1.33,0.94C42.16,55.26,41.56,55.11,41.01,54.85z M41.79,51.89L41,47.27l2.88-3.13l3.11,1.85L41.79,51.89z M49.28,55.19
		l-4.15,0.06l-1.87-1.32l4.65-0.43l1.97,1.05L49.28,55.19z M47.72,52.14l-4.71,0.44l5.09-5.77l2.33,2.14L47.72,52.14z M54.18,55.12
		l-2.97,0.05l0.16-0.17l5.01-1.29l0.39,0.59C56.01,54.82,55.12,55.1,54.18,55.12z M51.56,48.11l-2.55-2.34l2.25-2.56l7.6,0.48
		l-1.57,2.65L51.56,48.11z M57.8,53.36l-0.19-0.28l3.26-3.7c0.46-0.17,0.88-0.32,1.25-0.45L57.8,53.36z M65.09,45.89l-0.67,0.69
		c-0.38,0.18-2.01,0.78-3.84,1.45l-1.91-1.31l1.74-2.93l5.75,0.36C65.94,44.79,65.58,45.39,65.09,45.89z M66.42,42.8l-1.25-0.08
		l-3.26-4.47c0-0.01,0-0.02,0-0.04l0.03-3.4l1.11,0.03l2.86,5.62C66.29,41.21,66.45,42.01,66.42,42.8z"/>
	<path class="st1" d="M45.05,19.72c0.39,0,0.78,0.02,1.17,0.07l11.38,1.38c3.22,0.39,6.02,2.35,7.49,5.24l5.67,11.16
		c1.06,2.08,1.18,4.46,1.1,6.75c-0.07,1.87-0.02,3.76-0.02,5.64c0,2.84,0,5.67,0,8.51c0,0.06,0,0.12,0,0.18v4.29v13.11
		c0,2.5-2.02,4.52-4.52,4.52H32.94c-2.5,0-4.52-2.02-4.52-4.52V62.59v-3.96V38.32l0.03-0.02c0.08-1.93,0.73-3.82,1.92-5.42l6.9-9.25
		C39.09,21.18,42,19.72,45.05,19.72 M45.05,17.88c-3.63,0-7.08,1.74-9.25,4.64l-6.9,9.25c-1.34,1.8-2.12,3.92-2.27,6.15
		c-0.03,0.13-0.04,0.26-0.04,0.39v20.32v3.96v13.44c0,3.5,2.85,6.36,6.36,6.36h34.37c3.5,0,6.36-2.85,6.36-6.36V62.93v-4.29
		c0-1.79,0-3.58,0-5.37c0-3.04,0-6.09,0-9.13c0-1.28,0.1-2.57-0.13-3.84c-0.23-1.24-0.57-2.44-1.14-3.57l-5.67-11.16
		c-1.75-3.44-5.08-5.77-8.9-6.23l-11.38-1.38C45.98,17.91,45.51,17.88,45.05,17.88z"/>
</g>
</svg>
