<?xml version="1.0" encoding="utf-8"?>
<!-- Generator: Adobe Illustrator 27.5.0, SVG Export Plug-In . SVG Version: 6.00 Build 0)  -->
<svg version="1.1" id="Layer_1" xmlns="http://www.w3.org/2000/svg" xmlns:xlink="http://www.w3.org/1999/xlink" x="0px" y="0px"
	 viewBox="0 0 100.27 100.27" style="enable-background:new 0 0 100.27 100.27;" xml:space="preserve">
<style type="text/css">
	.st0{fill:#FFFFFF;}
</style>
<g>
	<g>
		<path d="M59.99,66.03c-0.79,0-1.91-0.26-2.76-1.49l-0.44-0.62c-0.58-0.82-1.13-1.59-1.75-2.27c-1.23-1.35-2.89-2.31-4.65-3.32
			c-0.19-0.08-0.47-0.24-0.74-0.51c0.01,0.01,0.01,0.02-0.03,0.02c-0.05,0-0.17-0.01-0.38-0.01c0,0-0.62,0.01-0.77,0.01
			c-2.98,0-5.8-0.98-8.6-2.99c-1.06,0.1-2.05,0.14-3.03,0.14c-0.83,0-1.66-0.04-2.46-0.1c-2.58-0.24-4.61-0.79-6.4-1.72
			c-3.1-1.62-5.04-4.22-5.77-7.74c-1.06-5.21,1.25-10.75,5.74-13.8c0.28-0.19,0.58-0.35,0.88-0.51c0.16-0.08,0.38-0.2,0.45-0.25
			c0-0.02,0.11-0.22,0.18-0.38c0.14-0.27,0.31-0.61,0.54-0.95c1.37-2.01,3.32-3.55,5.78-4.59c2.04-0.85,4.05-1.28,5.99-1.28
			c0.94,0,1.88,0.1,2.8,0.3c1.31-0.96,2.74-1.28,4.1-1.48c1.02-0.16,2.06-0.24,3.09-0.24c1.24,0,2.49,0.12,3.7,0.36
			c1.31,0.27,2.8,0.68,4.13,1.66c0.01,0,0.18,0,0.18,0c3.1,0,6.12,0.98,8.95,2.91c2.61,1.79,4.37,3.89,5.39,6.44
			c0.24,0.6,0.37,1.18,0.49,1.7c0.01,0.03,0.02,0.07,0.02,0.1c1.16,0.94,1.86,2.14,2.4,3.23c2.27,4.65,1.28,10.68-2.34,14.34
			c-1.15,1.16-2.52,2.01-4.08,2.52c-1.08,1.43-2.48,2.57-4.16,3.38c0.16,0.78,0.45,1.61,0.9,2.54l0.06,0.11
			c0.06,0.12,0.12,0.24,0.18,0.37c0.42,0.86,0.38,1.92-0.14,2.76c-0.51,0.84-1.44,1.35-2.48,1.36c-0.3,0-3.28,0-3.28,0l-0.65,0
			c-0.3,0-0.6,0-0.91,0.01L59.99,66.03z"/>
		<path class="st0" d="M51.76,24.38c1.1,0,2.19,0.11,3.28,0.32c1.16,0.24,2.33,0.57,3.3,1.3c0.4,0.31,0.79,0.4,1.29,0.4
			c0.04,0,0.09,0,0.13,0c2.85,0,5.41,0.95,7.76,2.54c2.04,1.4,3.68,3.15,4.61,5.47c0.26,0.65,0.37,1.35,0.55,2.03
			c0.03,0.11,0.07,0.26,0.15,0.31c1.09,0.68,1.73,1.73,2.28,2.84c1.88,3.85,1.06,8.86-1.95,11.9c-1.01,1.02-2.21,1.72-3.6,2.11
			c-0.15,0.04-0.32,0.15-0.41,0.27c-1.14,1.64-2.66,2.78-4.52,3.48c-0.36,0.14-0.47,0.32-0.45,0.69c0.09,1.53,0.57,2.94,1.23,4.31
			c0.06,0.13,0.14,0.26,0.2,0.4c0.29,0.6-0.04,1.14-0.7,1.15c-0.28,0-0.57,0-0.85,0c-0.57,0-1.14,0-1.71,0
			c-0.45,0-0.89-0.01-1.34-0.01c-0.33,0-0.66,0-0.99,0.02c-0.01,0-0.02,0-0.04,0c-0.47,0-0.75-0.2-1.01-0.58
			c-0.76-1.05-1.49-2.14-2.36-3.1c-1.48-1.63-3.38-2.71-5.26-3.79c-0.07-0.03-0.15-0.06-0.2-0.11c-0.55-0.54-1.22-0.62-1.91-0.62
			c-0.13,0-0.27,0-0.4,0.01c-0.13,0-0.25,0.01-0.37,0.01c-2.88,0-5.39-1.11-7.67-2.82c-0.19-0.14-0.35-0.22-0.56-0.22
			c-0.04,0-0.08,0-0.12,0.01c-1.09,0.11-2.19,0.18-3.28,0.18c-0.76,0-1.52-0.03-2.28-0.1c-1.95-0.18-3.84-0.57-5.6-1.49
			c-2.57-1.34-4.09-3.48-4.67-6.29c-0.88-4.33,1.09-9.06,4.85-11.61c0.53-0.36,1.19-0.56,1.63-1c0.43-0.44,0.62-1.11,0.98-1.63
			c1.22-1.78,2.89-3.01,4.86-3.84c1.68-0.7,3.4-1.12,5.16-1.12c0.8,0,1.6,0.08,2.42,0.27c0.2,0.05,0.38,0.07,0.55,0.07
			c0.36,0,0.67-0.11,1.01-0.39c0.93-0.73,2.08-0.98,3.23-1.15C49.91,24.45,50.84,24.38,51.76,24.38 M51.76,20.12
			c-1.14,0-2.3,0.09-3.44,0.27c-1.28,0.19-2.77,0.51-4.2,1.33c-0.78-0.12-1.56-0.18-2.34-0.18c-2.22,0-4.51,0.49-6.8,1.44
			c-2.85,1.2-5.11,3-6.73,5.36c-0.24,0.35-0.43,0.69-0.57,0.98c-0.26,0.14-0.58,0.31-0.92,0.54c-5.19,3.52-7.86,9.94-6.63,15.98
			c0.85,4.13,3.23,7.31,6.87,9.21c2.04,1.07,4.32,1.69,7.17,1.95c0.88,0.08,1.77,0.11,2.67,0.11c0.8,0,1.61-0.03,2.44-0.09
			c2.96,1.97,5.98,2.94,9.19,2.94c0.16,0,0.31,0,0.47-0.01c0.17,0.1,0.33,0.19,0.47,0.26c1.58,0.91,3.06,1.77,4.05,2.86
			c0.53,0.58,1.04,1.31,1.59,2.07c0.15,0.21,0.3,0.42,0.45,0.63c1.45,2.06,3.43,2.37,4.48,2.37h0.05l0.08,0l0.04,0l0.04,0
			c0.28-0.01,0.56-0.01,0.83-0.01l0.63,0c0.23,0,0.47,0,0.7,0l0.84,0l0.87,0c0.3,0,0.6,0,0.9,0c1.78-0.03,3.38-0.91,4.28-2.37
			c0.88-1.43,0.97-3.22,0.24-4.8c-0.07-0.15-0.14-0.3-0.22-0.45l0.02,0.04l-0.02-0.03l-0.02-0.03c-0.1-0.21-0.19-0.41-0.27-0.61
			c1.09-0.72,2.06-1.58,2.9-2.59c1.63-0.63,3.07-1.58,4.31-2.83c4.31-4.35,5.44-11.24,2.75-16.76c-0.53-1.08-1.26-2.35-2.4-3.45
			c-0.11-0.44-0.25-0.93-0.46-1.45c-1.17-2.91-3.24-5.4-6.15-7.4c-3.06-2.08-6.31-3.18-9.68-3.28c-1.5-0.94-3.08-1.36-4.34-1.62
			C54.53,20.26,53.15,20.12,51.76,20.12L51.76,20.12z"/>
	</g>
	<g>
		<path d="M31.9,78.7c-3.48,0-6.32-2.83-6.32-6.32V62.31c0-0.82-0.83-3.82-1.63-6.71c-2.53-9.14-3.4-13.21-2.25-14.73
			c0.33-0.44,0.81-0.68,1.36-0.68c0,0,54.15,1.56,54.15,1.56c0.54,0,1.04,0.27,1.34,0.74c0.94,1.47-0.35,4.67-3.77,12.15
			c-1.31,2.86-3.09,6.77-3.09,7.67v6.06c0,0.64-0.52,1.15-1.15,1.15l-3.83,0c0.05,2.26,0.06,5.51-1.89,7.51
			c-1.07,1.1-2.57,1.65-4.45,1.65H31.9z"/>
		<path class="st0" d="M23.06,41.35l54.12,1.56c2.84,0-6.65,16.56-6.65,19.4v6.06l-5,0c0,2.84,0.81,9.17-5.17,9.17H31.9
			c-2.84,0-5.17-2.32-5.17-5.17V62.31C26.74,59.47,20.22,41.35,23.06,41.35 M23.06,39.04c-0.9,0-1.73,0.41-2.28,1.13
			c-1.46,1.91-0.8,5.43,2.05,15.73c0.7,2.52,1.57,5.67,1.59,6.41l0,10.06c0,4.12,3.35,7.47,7.47,7.47h28.47c2.2,0,3.98-0.67,5.27-2
			c1.94-1.99,2.23-4.85,2.24-7.16l2.66,0c1.27,0,2.31-1.03,2.31-2.31v-6.02c0.13-0.96,1.78-4.58,2.99-7.23
			c3.76-8.23,4.96-11.29,3.7-13.26c-0.51-0.79-1.35-1.25-2.3-1.27l-54.1-1.56C23.11,39.04,23.08,39.04,23.06,39.04L23.06,39.04z"/>
	</g>
	<g>
		<path class="st0" d="M35.61,61.6v0.2c-0.01,1.17-0.13,1.52-0.63,1.92c-0.26,0.2-0.64,0.37-0.99,0.43
			c-0.21,0.04-0.68,0.06-1.33,0.06c-1.3,0-1.6-0.03-2.04-0.22c-0.61-0.27-1-0.75-1.14-1.41c-0.07-0.34-0.12-1.28-0.12-2.41
			c0-1.18,0.17-1.73,0.66-2.18c0.57-0.53,1.12-0.65,2.8-0.65c1.05,0,1.39,0.04,1.81,0.22c0.52,0.23,0.8,0.63,0.89,1.26
			c0.03,0.23,0.04,0.42,0.05,0.99H33.7c-0.02-0.43-0.03-0.5-0.11-0.63c-0.13-0.21-0.4-0.28-1.09-0.28c-0.67,0-0.96,0.12-1.07,0.47
			c-0.09,0.23-0.11,0.59-0.11,2c0,1.07,0.21,1.29,1.24,1.29c0.94,0,1.18-0.17,1.18-0.86c0-0.02,0-0.11-0.01-0.19H35.61z"/>
		<path class="st0" d="M40.72,59.81c0.35,0.35,0.48,0.81,0.48,1.77c0,2.19-0.41,2.63-2.49,2.63c-1.23,0-1.87-0.21-2.19-0.73
			c-0.23-0.39-0.28-0.69-0.28-1.85c0-1.06,0.13-1.49,0.52-1.84c0.39-0.34,0.84-0.43,2.05-0.43C39.92,59.36,40.37,59.47,40.72,59.81z
			 M37.88,61.71c0,1.14,0.13,1.34,0.85,1.34s0.85-0.2,0.85-1.38c0-0.96-0.14-1.16-0.84-1.16C38.02,60.51,37.88,60.71,37.88,61.71z"
			/>
		<path class="st0" d="M46.58,62.26c0,0.76-0.05,1.05-0.23,1.33c-0.29,0.47-0.74,0.62-1.83,0.62c-1.19,0-1.71-0.11-2.12-0.46
			c-0.43-0.37-0.55-0.83-0.55-1.96c0-1.04,0.11-1.51,0.44-1.88c0.33-0.38,0.94-0.55,1.91-0.55c1.85,0,2.33,0.38,2.33,1.83h-1.56
			c-0.01-0.54-0.13-0.67-0.66-0.67c-0.74,0-0.83,0.13-0.83,1.21c0,1.18,0.09,1.31,0.82,1.31c0.61,0,0.71-0.12,0.71-0.78H46.58z
			 M45.19,64.8l-1.43,0.84l-0.43-0.49l1.25-1.09L45.19,64.8z"/>
		<path class="st0" d="M47.35,60.82c0.01-0.57,0.06-0.77,0.24-0.99c0.31-0.35,0.79-0.47,1.95-0.47c1.39,0,2,0.2,2.27,0.76
			c0.1,0.17,0.17,0.63,0.17,0.95v3.08h-1.62l0.05-0.77h-0.04c-0.22,0.63-0.56,0.82-1.5,0.82c-1.28,0-1.73-0.4-1.73-1.5
			c0-1.03,0.52-1.44,1.78-1.44c0.95,0,1.22,0.11,1.41,0.59h0.03v-0.92c0-0.46-0.2-0.62-0.75-0.62c-0.48,0-0.61,0.1-0.64,0.52H47.35z
			 M48.78,62.68c0,0.43,0.16,0.52,0.87,0.52c0.56,0,0.71-0.12,0.71-0.55c0-0.36-0.18-0.46-0.83-0.46
			C48.97,62.2,48.78,62.32,48.78,62.68z"/>
		<path class="st0" d="M55.02,60.61v1.53h-2.54v-1.53H55.02z"/>
		<path class="st0" d="M35.83,73.92l-0.72-0.5c-0.6,0.4-1.19,0.52-2.57,0.52c-1.08,0-1.64-0.09-2.09-0.37
			c-0.55-0.32-0.85-0.75-0.99-1.41c-0.05-0.28-0.07-0.63-0.07-1.28c0-1.23,0.05-1.93,0.19-2.37c0.17-0.58,0.66-1.04,1.36-1.27
			c0.39-0.12,0.95-0.18,1.86-0.18c0.96,0,1.47,0.06,1.87,0.23c0.68,0.28,1.07,0.76,1.22,1.48c0.07,0.31,0.1,0.82,0.1,1.79
			c0,1.05-0.02,1.36-0.15,1.82l0.77,0.52L35.83,73.92z M33,70.48l1.01,0.68c0.02-0.24,0.02-0.3,0.02-0.67c0-1.01-0.02-1.2-0.13-1.45
			c-0.15-0.32-0.4-0.42-1.17-0.42c-0.83,0-1.08,0.08-1.25,0.41c-0.12,0.23-0.15,0.57-0.15,1.59c0,1.63,0.1,1.77,1.36,1.77
			c0.4,0,0.52-0.01,0.77-0.08l-1.2-0.81L33,70.48z"/>
		<path class="st0" d="M41.77,73.89h-1.62l0.09-0.97H40.2c-0.23,0.71-0.69,1.03-1.54,1.03c-0.71,0-1.22-0.23-1.47-0.68
			c-0.13-0.22-0.18-0.48-0.18-0.9v-3.21h1.62v2.71c0.01,0.51,0.01,0.51,0.06,0.61c0.1,0.17,0.3,0.26,0.61,0.26
			c0.35,0,0.63-0.13,0.75-0.37c0.09-0.14,0.1-0.22,0.1-0.74v-2.48h1.62V73.89z"/>
		<path class="st0" d="M47.41,72.31v0.09c0,0.41-0.1,0.75-0.29,0.99c-0.3,0.4-0.83,0.55-1.87,0.55c-1.16,0-1.74-0.14-2.14-0.5
			c-0.36-0.35-0.48-0.85-0.48-2.04c0-1.03,0.14-1.52,0.52-1.85c0.37-0.32,0.92-0.46,1.9-0.46c1.82,0,2.35,0.51,2.35,2.24v0.45h-3.18
			c-0.01,0.08-0.01,0.16-0.01,0.19c0,0.68,0.19,0.88,0.85,0.88c0.58,0,0.75-0.12,0.75-0.56H47.41z M45.86,70.94
			c-0.01-0.07-0.01-0.13-0.01-0.15c0-0.24-0.02-0.3-0.09-0.4c-0.12-0.15-0.28-0.19-0.75-0.19c-0.45,0-0.61,0.06-0.7,0.26
			c-0.04,0.1-0.05,0.12-0.06,0.48H45.86z"/>
		<path class="st0" d="M49.88,68.27h-1.62v-1.15h1.62V68.27z M49.88,73.89h-1.62v-4.74h1.62V73.89z"/>
		<path class="st0" d="M54.2,71.39l1.43,2.51h-1.89l-0.72-1.56l-0.69,1.56h-1.96l1.48-2.51l-1.29-2.23h1.89l0.56,1.31l0.6-1.31h1.89
			L54.2,71.39z"/>
		<path class="st0" d="M60.28,69.55c0.35,0.35,0.48,0.81,0.48,1.77c0,2.19-0.41,2.63-2.49,2.63c-1.23,0-1.87-0.21-2.19-0.73
			c-0.23-0.39-0.28-0.69-0.28-1.85c0-1.06,0.13-1.49,0.52-1.84c0.39-0.34,0.84-0.43,2.05-0.43C59.48,69.1,59.93,69.21,60.28,69.55z
			 M57.44,71.45c0,1.14,0.13,1.34,0.85,1.34s0.85-0.2,0.85-1.38c0-0.96-0.14-1.16-0.84-1.16C57.58,70.25,57.44,70.45,57.44,71.45z"
			/>
	</g>
	<g>
		<g>
			<path d="M77.23,39.21c-0.6-1.2-1.29-2.34-2.47-3.08c-0.09-0.05-0.13-0.22-0.16-0.34c-0.19-0.74-0.31-1.49-0.6-2.2
				c-1.01-2.51-2.78-4.41-4.99-5.93c-2.58-1.76-5.41-2.78-8.55-2.75c-0.54,0-0.96-0.1-1.4-0.43c-1.05-0.79-2.32-1.15-3.57-1.41
				c-2.18-0.43-4.38-0.45-6.56-0.11c-1.25,0.18-2.49,0.46-3.5,1.25c-0.55,0.44-1.02,0.5-1.69,0.35c-2.83-0.63-5.57-0.18-8.21,0.92
				c-2.13,0.9-3.94,2.23-5.26,4.16c-0.39,0.56-0.6,1.29-1.06,1.77c-0.48,0.48-1.19,0.69-1.77,1.08c-4.07,2.76-6.21,7.89-5.25,12.58
				c0.63,3.04,2.27,5.36,5.06,6.81c1.91,1,3.95,1.42,6.07,1.61c2.01,0.17,4.02,0.12,6.02-0.09c0.29-0.03,0.5,0.04,0.74,0.23
				c2.58,1.93,5.42,3.15,8.71,3.04c0.9-0.02,1.79-0.03,2.5,0.66c0.05,0.05,0.14,0.09,0.22,0.12c2.04,1.17,4.1,2.34,5.7,4.11
				c0.94,1.04,1.73,2.22,2.56,3.36c0.29,0.42,0.61,0.64,1.14,0.63c0.84-0.03,1.68-0.01,2.52-0.01c0.93,0,1.85,0.01,2.77,0
				c0.72-0.01,1.07-0.6,0.76-1.25c-0.07-0.15-0.15-0.29-0.22-0.43c-0.71-1.48-1.23-3.01-1.33-4.67c-0.02-0.4,0.1-0.6,0.49-0.75
				c2.01-0.76,3.66-1.99,4.9-3.77c0.1-0.13,0.28-0.25,0.44-0.29c1.51-0.42,2.81-1.18,3.9-2.29C78.38,48.81,79.27,43.38,77.23,39.21z
				 M74.53,50.36c-0.77,0.95-1.96,1.84-2.74,2.09c0.01-0.87,0.05-1.76,0.04-2.64c0-0.35-0.07-0.7-0.14-1.05
				c-0.11-0.48-0.48-0.74-0.91-0.67c-0.47,0.07-0.74,0.43-0.66,0.95c0.15,0.94,0.21,1.89,0.04,2.84c-0.26,1.51-1.12,2.62-2.25,3.57
				c-0.86,0.73-1.83,1.28-2.9,1.61c-0.78,0.24-1.11,0.77-1.17,1.52c-0.13,1.3,0.16,2.55,0.54,3.77c0.16,0.51,0.36,1.02,0.55,1.56
				c-0.14,0.01-0.25,0.02-0.37,0.02c-1.06,0-2.12-0.01-3.17,0.01c-0.27,0-0.42-0.09-0.56-0.3c-1.3-2.1-2.91-3.93-4.97-5.32
				c-1.08-0.75-2.22-1.42-3.34-2.11c-0.11-0.08-0.23-0.14-0.39-0.24c1-0.42,1.88-0.93,2.58-1.7c0.66-0.74,1.26-1.55,1.89-2.33
				c0.37,0.78,0.92,1.48,1.7,1.96c1.61,1,3.27,1.05,4.9,0.1c1.64-0.96,2.36-2.46,2.28-4.34c-0.02-0.53-0.38-0.89-0.83-0.87
				c-0.49,0.03-0.79,0.41-0.77,0.97c0.05,1.76-1.06,3.09-2.73,3.26c-2.09,0.23-3.82-1.73-3.23-3.75c0.47-1.57,1.22-3.01,2.58-4.02
				c1.58-1.18,3.32-1.42,5.15-0.61c0.61,0.26,1.11,0.66,1.4,1.3c0.2,0.43,0.65,0.6,1.05,0.42c0.42-0.18,0.6-0.64,0.4-1.09
				c-0.38-0.91-1.07-1.53-1.93-1.98c-2.52-1.34-5.88-0.74-7.85,1.38c-1,1.07-1.59,2.35-2.21,3.64c-0.62,1.3-1.25,2.61-2.06,3.78
				c-1.55,2.25-3.79,3.17-6.5,2.88c-1.9-0.19-3.74-0.64-5.38-1.64c-2.06-1.25-3.64-2.93-4.29-5.32c-1.08-3.96,1.55-8.2,5.64-9.1
				c0.73-0.15,1.48-0.2,2.22-0.23c0.34-0.01,0.7,0.1,1.02,0.24c0.91,0.4,1.22,1.15,0.94,2.11c-0.05,0.17-0.12,0.37-0.11,0.55
				c0.02,0.36,0.31,0.64,0.69,0.69c0.36,0.05,0.68-0.14,0.86-0.53c0.54-1.22,0.29-2.6-0.64-3.55c-0.07-0.07-0.13-0.15-0.13-0.15
				c0.53-0.59,1.07-1.13,1.54-1.73c0.21-0.27,0.29-0.64,0.36-0.99c0.08-0.44-0.21-0.79-0.65-0.88c-0.38-0.08-0.76,0.16-0.89,0.54
				c-0.44,1.25-1.68,2.08-3.01,2.07c-4.07-0.03-7.46,2.07-8.95,5.65c-1.28,3.09-0.92,6.02,1.02,8.76c0.07,0.1,0.14,0.19,0.22,0.3
				c0,0-0.01,0.02-0.01,0.07c-0.04,0.01-0.11,0.03-0.16,0.04c-2.74,0.18-5.47,0.16-8.14-0.61c-2.25-0.65-4.17-1.79-5.35-3.91
				c-1.3-2.35-1.51-4.84-0.77-7.41c0.85-2.92,2.58-5.15,5.21-6.67c0.1-0.07,0.21-0.12,0.33-0.17c0.02-0.01,0.04,0,0.05,0
				c0.13,0.73,0.16,1.45,0.39,2.1c0.27,0.74,0.68,1.44,1.11,2.11c0.26,0.43,0.78,0.45,1.14,0.17c0.35-0.28,0.41-0.75,0.12-1.14
				c-1.51-1.96-1.47-4.64,0.45-6.84c1.68-1.92,3.86-2.96,6.33-3.43c2.97-0.57,5.69-0.02,8.08,1.92c0.41,0.33,0.91,0.28,1.19-0.09
				c0.29-0.37,0.23-0.84-0.21-1.17c-0.56-0.43-1.16-0.82-1.78-1.26c0.74-0.49,1.55-0.73,2.38-0.88c2.21-0.41,4.42-0.41,6.6,0.1
				c1.84,0.43,3.23,1.58,4.28,3.13c0.27,0.39,0.49,0.81,0.7,1.23c0.26,0.49,0.7,0.68,1.14,0.47c0.41-0.21,0.55-0.67,0.3-1.16
				c-0.31-0.63-0.67-1.22-1.02-1.84c4.97-0.17,11.19,4.15,12.13,8.93c-0.49-0.15-0.95-0.33-1.43-0.43c-2.3-0.56-4.47-0.17-6.54,0.92
				c-0.48,0.25-0.63,0.7-0.41,1.13c0.24,0.43,0.68,0.53,1.19,0.27c1.91-0.97,3.89-1.3,5.96-0.6c3.08,1.04,5.22,4.27,5.05,7.52
				C76.58,46.53,75.97,48.59,74.53,50.36z"/>
		</g>
		<path class="st0" d="M76.7,44.29c-0.12,2.24-0.73,4.3-2.17,6.07c-0.77,0.95-1.96,1.84-2.74,2.09c0.01-0.87,0.05-1.76,0.04-2.64
			c0-0.35-0.07-0.7-0.14-1.05c-0.11-0.48-0.48-0.74-0.91-0.67c-0.47,0.07-0.74,0.43-0.66,0.95c0.15,0.94,0.21,1.89,0.04,2.84
			c-0.26,1.51-1.12,2.62-2.25,3.57c-0.86,0.73-1.83,1.28-2.9,1.61c-0.78,0.24-1.11,0.77-1.17,1.52c-0.13,1.3,0.16,2.55,0.54,3.77
			c0.16,0.51,0.36,1.02,0.55,1.56c-0.14,0.01-0.25,0.02-0.37,0.02c-1.06,0-2.12-0.01-3.17,0.01c-0.27,0-0.42-0.09-0.56-0.3
			c-1.3-2.1-2.91-3.93-4.97-5.32c-1.08-0.75-2.22-1.42-3.34-2.11c-0.11-0.08-0.23-0.14-0.39-0.24c1-0.42,1.88-0.93,2.58-1.7
			c0.66-0.74,1.26-1.55,1.89-2.33c0.37,0.78,0.92,1.48,1.7,1.96c1.61,1,3.27,1.05,4.9,0.1c1.64-0.96,2.36-2.46,2.28-4.34
			c-0.02-0.53-0.38-0.89-0.83-0.87c-0.49,0.03-0.79,0.41-0.77,0.97c0.05,1.76-1.06,3.09-2.73,3.26c-2.09,0.23-3.82-1.73-3.23-3.75
			c0.47-1.57,1.22-3.01,2.58-4.02c1.58-1.18,3.32-1.42,5.15-0.61c0.61,0.26,1.11,0.66,1.4,1.3c0.2,0.43,0.65,0.6,1.05,0.42
			c0.42-0.18,0.6-0.64,0.4-1.09c-0.38-0.91-1.07-1.53-1.93-1.98c-2.52-1.34-5.88-0.74-7.85,1.38c-1,1.07-1.59,2.35-2.21,3.64
			c-0.62,1.3-1.25,2.61-2.06,3.78c-1.55,2.25-3.79,3.17-6.5,2.88c-1.9-0.19-3.74-0.64-5.38-1.64c-2.06-1.25-3.64-2.93-4.29-5.32
			c-1.08-3.96,1.55-8.2,5.64-9.1c0.73-0.15,1.48-0.2,2.22-0.23c0.34-0.01,0.7,0.1,1.02,0.24c0.91,0.4,1.22,1.15,0.94,2.11
			c-0.05,0.17-0.12,0.37-0.11,0.55c0.02,0.36,0.31,0.64,0.69,0.69c0.36,0.05,0.68-0.14,0.86-0.53c0.54-1.22,0.29-2.6-0.64-3.55
			c-0.07-0.07-0.13-0.15-0.13-0.15c0.53-0.59,1.07-1.13,1.54-1.73c0.21-0.27,0.29-0.64,0.36-0.99c0.08-0.44-0.21-0.79-0.65-0.88
			c-0.38-0.08-0.76,0.16-0.89,0.54c-0.44,1.25-1.68,2.08-3.01,2.07c-4.07-0.03-7.46,2.07-8.95,5.65c-1.28,3.09-0.92,6.02,1.02,8.76
			c0.07,0.1,0.14,0.19,0.22,0.3c0,0-0.01,0.02-0.01,0.07c-0.04,0.01-0.11,0.03-0.16,0.04c-2.74,0.18-5.47,0.16-8.14-0.61
			c-2.25-0.65-4.17-1.79-5.35-3.91c-1.3-2.35-1.51-4.84-0.77-7.41c0.85-2.92,2.58-5.15,5.21-6.67c0.1-0.07,0.21-0.12,0.33-0.17
			c0.02-0.01,0.04,0,0.05,0c0.13,0.73,0.16,1.45,0.39,2.1c0.27,0.74,0.68,1.44,1.11,2.11c0.26,0.43,0.78,0.45,1.14,0.17
			c0.35-0.28,0.41-0.75,0.12-1.14c-1.51-1.96-1.47-4.64,0.45-6.84c1.68-1.92,3.86-2.96,6.33-3.43c2.97-0.57,5.69-0.02,8.08,1.92
			c0.41,0.33,0.91,0.28,1.19-0.09c0.29-0.37,0.23-0.84-0.21-1.17c-0.56-0.43-1.16-0.82-1.78-1.26c0.74-0.49,1.55-0.73,2.38-0.88
			c2.21-0.41,4.42-0.41,6.6,0.1c1.84,0.43,3.23,1.58,4.28,3.13c0.27,0.39,0.49,0.81,0.7,1.23c0.26,0.49,0.7,0.68,1.14,0.47
			c0.41-0.21,0.55-0.67,0.3-1.16c-0.31-0.63-0.67-1.22-1.02-1.84c4.97-0.17,11.19,4.15,12.13,8.93c-0.49-0.15-0.95-0.33-1.43-0.43
			c-2.3-0.56-4.47-0.17-6.54,0.92c-0.48,0.25-0.63,0.7-0.41,1.13c0.24,0.43,0.68,0.53,1.19,0.27c1.91-0.97,3.89-1.3,5.96-0.6
			C74.73,37.81,76.87,41.04,76.7,44.29z"/>
		<path d="M59.04,36.53c0.3,0.75,0.43,1.47,0.26,2.23c-0.25,1.09-0.94,1.81-1.93,2.27c-0.43,0.2-0.88,0.03-1.07-0.37
			c-0.19-0.4-0.04-0.85,0.38-1.07c0.68-0.35,1.16-0.84,1.07-1.66c-0.1-0.88-0.53-1.56-1.36-1.93c-2.37-1.04-3.95-2.74-4.39-5.35
			c-0.1-0.58-0.02-1.19,0.04-1.78c0.05-0.46,0.48-0.73,0.92-0.66c0.41,0.07,0.75,0.47,0.66,0.89c-0.45,1.99,0.92,4.16,2.77,5.13
			c1.43,0.75,2.92,0.98,4.42,0.26c0.49-0.24,0.91-0.67,1.3-1.07c0.39-0.4,0.81-0.53,1.21-0.24c0.37,0.27,0.42,0.75,0.1,1.19
			c-0.89,1.22-2.12,1.86-3.6,2.07C59.57,36.48,59.33,36.5,59.04,36.53z"/>
		<path d="M48.28,49.9c-2.32-0.01-4.41-1.53-5.16-3.75c-0.2-0.59-0.02-1.04,0.48-1.2c0.44-0.14,0.83,0.1,1.03,0.66
			c0.63,1.72,2.14,2.75,3.91,2.67c1.63-0.08,3.08-1.28,3.51-2.93c0.07-0.29,0.09-0.59,0.13-0.88c0.06-0.46,0.42-0.78,0.85-0.76
			c0.43,0.03,0.76,0.41,0.75,0.86C53.73,47.5,51.23,49.92,48.28,49.9z"/>
		<path d="M42.15,29.97c1.72,0.05,3.28,0.8,4.55,2.17c0.35,0.37,0.34,0.84,0.01,1.17c-0.33,0.32-0.83,0.3-1.19-0.08
			c-0.8-0.85-1.74-1.43-2.9-1.6c-1.91-0.29-3.42,0.65-4,2.52c-0.12,0.38-0.16,0.8-0.24,1.19c-0.09,0.44-0.46,0.73-0.87,0.69
			c-0.42-0.04-0.76-0.39-0.72-0.84C36.99,32.32,38.88,29.98,42.15,29.97z"/>
		<path d="M30.34,44.55c-1.38-0.03-2.83-0.74-4.01-2.01c-0.34-0.37-0.32-0.85,0.01-1.16c0.34-0.31,0.82-0.29,1.16,0.07
			c0.75,0.79,1.63,1.33,2.74,1.47c1.68,0.21,3.02-0.66,3.5-2.3c0.09-0.3,0.14-0.61,0.19-0.91c0.08-0.57,0.41-0.88,0.91-0.83
			c0.47,0.05,0.76,0.42,0.7,0.97C35.24,42.66,33.35,44.55,30.34,44.55z"/>
	</g>
</g>
</svg>
