<?xml version="1.0" encoding="utf-8"?>
<!-- Generator: Adobe Illustrator 27.5.0, SVG Export Plug-In . SVG Version: 6.00 Build 0)  -->
<svg version="1.1" id="Layer_1" xmlns="http://www.w3.org/2000/svg" xmlns:xlink="http://www.w3.org/1999/xlink" x="0px" y="0px"
	 viewBox="0 0 100.27 100.27" style="enable-background:new 0 0 100.27 100.27;" xml:space="preserve">
<style type="text/css">
	.st0{fill:#FFFFFF;stroke:#000000;stroke-width:2.5054;stroke-miterlimit:10;}
	.st1{fill:#FFFFFF;}
	.st2{fill:#020203;}
	.st3{font-family:'Druk-Medium';}
	.st4{font-size:10.1644px;}
	.st5{font-family:'Druk-Bold';}
</style>
<g>
	<path class="st0" d="M66.4,87.85H34.38c-1.19,0-2.16-0.97-2.16-2.16v-72c0-1.19,0.97-2.16,2.16-2.16H66.4
		c1.19,0,2.16,0.97,2.16,2.16v72C68.55,86.88,67.59,87.85,66.4,87.85z"/>
	<g>
		<path d="M76.22,49.44c0-3.3,0.02-6.61-0.02-9.9c-0.01-0.5-0.22-1.12-0.56-1.47c-4.44-4.53-8.91-9.05-13.42-13.51
			c-0.43-0.43-1.19-0.78-1.8-0.78c-6.57-0.05-13.15-0.05-19.71,0.01c-0.7,0.01-1.57,0.36-2.05,0.85
			c-4.41,4.32-8.78,8.69-13.07,13.12c-0.59,0.6-0.98,1.66-1,2.51c-0.1,6.26-0.05,12.51-0.12,18.77c0,1.05,0.31,1.81,1.05,2.52
			c4.35,4.26,8.65,8.57,13.04,12.79c0.55,0.53,1.5,0.89,2.28,0.9c6.49,0.1,12.98,0.11,19.46,0.08c0.59,0,1.37-0.21,1.76-0.6
			c4.53-4.51,9.03-9.06,13.47-13.64c0.42-0.44,0.66-1.24,0.67-1.86C76.25,55.95,76.22,52.69,76.22,49.44z M73.09,52.67
			c-0.03,1.91,0.03,3.82-0.03,5.73c-0.02,0.45-0.26,0.99-0.58,1.31c-3.83,3.91-7.69,7.81-11.59,11.65c-0.47,0.46-1.25,0.8-1.9,0.82
			c-2.87,0.1-5.75,0.04-8.62,0.04v0.04c-2.83,0-5.66,0.05-8.49-0.03c-0.7-0.03-1.55-0.35-2.03-0.84c-3.87-3.81-7.67-7.7-11.45-11.6
			c-0.37-0.39-0.66-1.04-0.67-1.57c-0.13-5.9-0.2-11.8-0.24-17.7c0-0.38,0.24-0.85,0.52-1.12c3.93-3.93,7.88-7.85,11.89-11.72
			c0.5-0.48,1.36-0.81,2.05-0.81c5.61-0.07,11.23-0.07,16.84-0.01c0.73,0.01,1.64,0.34,2.16,0.85c4.06,3.93,8.04,7.93,12.03,11.94
			c0.18,0.19,0.33,0.52,0.33,0.78C73.25,44.51,73.15,48.59,73.09,52.67z"/>
		<path class="st1" d="M72.98,39.66c-3.99-4-7.98-8.01-12.03-11.94c-0.52-0.51-1.43-0.84-2.16-0.85
			c-5.61-0.06-11.23-0.06-16.84,0.01c-0.7,0-1.56,0.33-2.05,0.81c-4,3.87-7.96,7.79-11.89,11.72c-0.28,0.28-0.52,0.74-0.52,1.12
			c0.04,5.9,0.12,11.8,0.24,17.7c0.01,0.53,0.3,1.18,0.67,1.57c3.78,3.9,7.58,7.79,11.45,11.6c0.49,0.49,1.33,0.8,2.03,0.84
			c2.83,0.08,5.66,0.03,8.49,0.03v-0.04c2.87,0,5.75,0.05,8.62-0.04c0.65-0.01,1.43-0.36,1.9-0.82c3.9-3.85,7.75-7.74,11.59-11.65
			c0.32-0.33,0.56-0.87,0.58-1.31c0.06-1.91,0-3.82,0.03-5.73c0.06-4.08,0.16-8.16,0.22-12.22C73.31,40.18,73.16,39.85,72.98,39.66z
			 M69.64,56.31c-0.04,0.78-0.38,1.73-0.91,2.28c-3.15,3.18-6.37,6.28-9.64,9.34c-0.5,0.48-1.36,0.79-2.05,0.81
			c-4.4,0.07-8.79,0.08-13.19,0c-0.78-0.02-1.74-0.39-2.3-0.93c-3.24-3.08-6.42-6.24-9.53-9.44c-0.52-0.54-0.88-1.45-0.89-2.19
			c-0.08-4.47-0.1-8.95-0.01-13.42c0.01-0.69,0.42-1.53,0.92-2.03c3.17-3.22,6.38-6.41,9.66-9.52c0.53-0.51,1.46-0.84,2.21-0.85
			c4.44-0.08,8.88-0.07,13.3-0.01c0.63,0.01,1.38,0.35,1.82,0.78c3.27,3.13,6.5,6.28,9.67,9.5c0.52,0.53,0.88,1.41,0.92,2.15
			c0.12,2.3,0.04,4.6,0.04,6.9h0.01C69.69,51.88,69.77,54.11,69.64,56.31z"/>
		<path d="M69.64,56.31c-0.04,0.78-0.38,1.73-0.91,2.28c-3.15,3.18-6.37,6.28-9.64,9.34c-0.5,0.48-1.36,0.79-2.05,0.81
			c-4.4,0.07-8.79,0.08-13.19,0c-0.78-0.02-1.74-0.39-2.3-0.93c-3.24-3.08-6.42-6.24-9.53-9.44c-0.52-0.54-0.88-1.45-0.89-2.19
			c-0.08-4.47-0.1-8.95-0.01-13.42c0.01-0.69,0.42-1.53,0.92-2.03c3.17-3.22,6.38-6.41,9.66-9.52c0.53-0.51,1.46-0.84,2.21-0.85
			c4.44-0.08,8.88-0.07,13.3-0.01c0.63,0.01,1.38,0.35,1.82,0.78c3.27,3.13,6.5,6.28,9.67,9.5c0.52,0.53,0.88,1.41,0.92,2.15
			c0.12,2.3,0.04,4.6,0.04,6.9h0.01C69.69,51.88,69.77,54.11,69.64,56.31z"/>
	</g>
	<g>
		<path class="st1" d="M50.61,33.91c-0.07,0-0.14,0.01-0.21,0.01c-0.07,0-0.14-0.01-0.21-0.01c-8.06,0-12.11,6.53-12.11,14.59
			c0,2.31,5.41,4.78,5.41,4.78l3.8,11.4l1.55-2.44l1.55,3.39l0.01-0.03l0.01,0.03l1.55-3.39l1.55,2.44l3.8-11.4
			c0,0,5.41-2.47,5.41-4.78C62.72,40.44,58.66,33.91,50.61,33.91z"/>
		<path d="M58.65,45.92c0,0-5.52,2.25-5.99,3.4c-0.48,1.15,1.6,1.02,2.61,0.49C56.27,49.28,58.65,45.92,58.65,45.92z"/>
		<g>
			<path d="M49.42,47.26l8.55-10.86c-0.74-0.61-1.58-1.12-2.49-1.51l-8.97,11.39c-1.07-0.32-2.18-0.59-2.96-0.62l-4.87-2.29
				c-0.21,0.82-0.37,1.67-0.47,2.55l4.09,1.93c0.1,0.73,0.31,1.53,0.58,2.22l-1.18,2.27c0.98,0.57,1.77,0.94,1.77,0.94l0.22,0.67
				l0.99-1.9C49.86,54.01,49.33,49.93,49.42,47.26z"/>
		</g>
	</g>
	<text transform="matrix(1 0 0 1 34.7854 22.647)" class="st2 st3 st4">CONTEÚDO</text>
	<text transform="matrix(1 0 0 1 35.0871 84.7639)" class="st2 st5 st4">RESTRITO</text>
</g>
</svg>
