<?xml version="1.0" encoding="utf-8"?>
<!-- Generator: Adobe Illustrator 27.5.0, SVG Export Plug-In . SVG Version: 6.00 Build 0)  -->
<svg version="1.1" id="Layer_1" xmlns="http://www.w3.org/2000/svg" xmlns:xlink="http://www.w3.org/1999/xlink" x="0px" y="0px"
	 viewBox="0 0 100.27 100.27" style="enable-background:new 0 0 100.27 100.27;" xml:space="preserve">
<style type="text/css">
	.st0{fill:#020203;}
	.st1{fill:#FFFFFF;}
</style>
<g>
	<polygon class="st0" points="65.43,20.17 34.85,20.17 18.09,36.46 18.09,80.1 82.18,80.1 82.18,36.46 	"/>
	<rect x="52.87" y="43.03" class="st1" width="7.28" height="7.28"/>
	<path class="st1" d="M76.68,55.19v-16.8L62.51,25.27l0.04-0.04l-25.1,0.22L23.79,39.12v16.07h-4.48H18.1v1.37h1.21h5.33h51.54h0.49
		h5.5v-1.37H76.68z M75.31,55.19H71.2v-9.37c0-1.99-1.61-3.61-3.61-3.61c-1.99,0-3.61,1.61-3.61,3.61v9.37H48.32V39.12h0l13.7-13.37
		l-0.46,0.5l13.75,12.73V55.19z"/>
	<polygon class="st1" points="26.44,68.23 26.44,69.35 25.2,69.35 25.2,70.74 26.17,70.74 26.17,71.88 25.2,71.88 25.2,73.45 
		26.5,73.45 26.5,74.6 24.06,74.6 24.06,68.23 	"/>
	<polygon class="st1" points="27.36,68.23 28.51,68.23 28.86,70.14 29.21,68.23 30.29,68.23 29.61,71.19 30.41,74.6 29.26,74.6 
		28.82,72.39 28.37,74.6 27.25,74.6 28.06,71.19 	"/>
	<polygon class="st1" points="33.84,68.23 33.84,69.35 33.03,69.35 33.03,74.6 31.89,74.6 31.89,69.35 31.07,69.35 31.07,68.23 	"/>
	<path class="st1" d="M35.87,74.6h-1.14v-6.37h1.8c0.69,0,1.05,0.38,1.05,1.06v1.02c0,0.53-0.29,0.76-0.51,0.86
		c0.18,0.07,0.49,0.28,0.49,0.75v2.17c0,0.27,0.05,0.39,0.09,0.47v0.04h-1.14c-0.06-0.07-0.1-0.21-0.1-0.49v-1.86
		c0-0.3-0.07-0.38-0.3-0.38h-0.24V74.6z M35.87,70.82h0.22c0.23,0,0.32-0.09,0.32-0.39v-0.87c0-0.27-0.05-0.36-0.28-0.36h-0.26
		V70.82z"/>
	<path class="st1" d="M40.18,73.53H39.5l-0.1,1.07h-1.01l0.81-6.37h1.35l0.87,6.37H40.3L40.18,73.53z M39.61,72.43h0.46l-0.24-2.18
		L39.61,72.43z"/>
	<path class="st1" d="M45.13,73.14c0,0.93-0.5,1.55-1.35,1.55h-0.26c-0.9,0-1.38-0.55-1.38-1.55v-3.37c0-0.98,0.39-1.63,1.37-1.63
		h0.26c1,0,1.36,0.64,1.36,1.62V73.14z M43.93,69.68c0-0.28-0.1-0.42-0.3-0.42c-0.23,0-0.31,0.14-0.31,0.42v3.5
		c0,0.2,0.08,0.38,0.32,0.38c0.23,0,0.29-0.18,0.29-0.38V69.68z"/>
	<path class="st1" d="M47.24,74.6H46.1v-6.37h1.8c0.69,0,1.05,0.38,1.05,1.06v1.02c0,0.53-0.29,0.76-0.51,0.86
		c0.18,0.07,0.49,0.28,0.49,0.75v2.17c0,0.27,0.05,0.39,0.09,0.47v0.04h-1.14c-0.06-0.07-0.1-0.21-0.1-0.49v-1.86
		c0-0.3-0.07-0.38-0.3-0.38h-0.24V74.6z M47.24,70.82h0.22c0.23,0,0.32-0.09,0.32-0.39v-0.87c0-0.27-0.05-0.36-0.28-0.36h-0.26
		V70.82z"/>
	<path class="st1" d="M49.91,68.23h1.62c0.86,0,1.24,0.39,1.24,1.36v3.6c0,0.92-0.32,1.41-1.24,1.41h-1.62V68.23z M51.05,73.54h0.22
		c0.27,0,0.33-0.14,0.33-0.45v-3.43c0-0.31-0.09-0.43-0.3-0.43h-0.26V73.54z"/>
	<rect x="53.75" y="68.23" class="st1" width="1.14" height="6.37"/>
	<polygon class="st1" points="56.97,68.23 57.75,71.48 57.75,68.23 58.76,68.23 58.76,74.6 57.79,74.6 56.91,71.1 56.91,74.6 
		55.9,74.6 55.9,68.23 	"/>
	<path class="st1" d="M61.36,73.53h-0.69l-0.1,1.07h-1.01l0.81-6.37h1.35l0.87,6.37h-1.11L61.36,73.53z M60.96,67.02h0.91L61.48,68
		h-0.89L60.96,67.02z M60.79,72.43h0.46l-0.24-2.18L60.79,72.43z"/>
	<path class="st1" d="M64.53,74.6h-1.14v-6.37h1.8c0.69,0,1.05,0.38,1.05,1.06v1.02c0,0.53-0.29,0.76-0.51,0.86
		c0.18,0.07,0.49,0.28,0.49,0.75v2.17c0,0.27,0.05,0.39,0.09,0.47v0.04h-1.14c-0.06-0.07-0.1-0.21-0.1-0.49v-1.86
		c0-0.3-0.07-0.38-0.3-0.38h-0.24V74.6z M64.53,70.82h0.22c0.23,0,0.32-0.09,0.32-0.39v-0.87c0-0.27-0.05-0.36-0.28-0.36h-0.26
		V70.82z"/>
	<rect x="67.2" y="68.23" class="st1" width="1.14" height="6.37"/>
	<path class="st1" d="M72.3,73.14c0,0.93-0.5,1.55-1.35,1.55h-0.26c-0.9,0-1.38-0.55-1.38-1.55v-3.37c0-0.98,0.39-1.63,1.37-1.63
		h0.26c1,0,1.36,0.64,1.36,1.62V73.14z M71.11,69.68c0-0.28-0.1-0.42-0.3-0.42c-0.23,0-0.31,0.14-0.31,0.42v3.5
		c0,0.2,0.08,0.38,0.32,0.38c0.23,0,0.29-0.18,0.29-0.38V69.68z"/>
	<path class="st1" d="M74.77,68.15c0.89,0,1.22,0.39,1.22,1.25v0.86h-1.1v-0.8c0-0.21-0.04-0.33-0.25-0.33
		c-0.2,0-0.25,0.13-0.25,0.34v0.15c0,0.3,0.07,0.51,0.35,0.82l0.65,0.73c0.57,0.65,0.69,1.08,0.69,1.64v0.3
		c0,0.96-0.44,1.58-1.39,1.58h-0.22c-0.87,0-1.3-0.46-1.3-1.32v-1.15h1.12v1.02c0,0.26,0.09,0.39,0.29,0.39
		c0.19,0,0.28-0.15,0.28-0.46v-0.12c0-0.45-0.03-0.63-0.37-0.99l-0.66-0.73c-0.48-0.51-0.61-1-0.61-1.62v-0.27
		c0-0.82,0.5-1.27,1.29-1.27H74.77z"/>
	<path class="st1" d="M24.37,63.22c0-1.14,0.64-1.4,1.71-1.4h1.4c1.69,0,1.91,0.36,1.9,1.46H28.2v-0.11c0-0.28-0.2-0.36-0.56-0.36
		h-1.3c-0.63,0-0.75,0.29-0.75,0.78v0.42c0,0.56,0.12,0.78,0.68,0.78h1.27c0.54,0,0.7-0.05,0.7-0.54h1.19v0.36
		c0,0.65-0.24,1.17-1.43,1.17h-1.92c-1.07,0-1.71-0.27-1.71-1.4V63.22z"/>
	<path class="st1" d="M30.34,63.22c0-1.14,0.64-1.4,1.71-1.4h1.91c1.07,0,1.71,0.27,1.71,1.4v1.16c0,1.14-0.64,1.4-1.71,1.4h-1.91
		c-1.07,0-1.71-0.27-1.71-1.4V63.22z M31.56,64.01c0,0.56,0.12,0.78,0.68,0.78h1.52c0.56,0,0.68-0.21,0.68-0.78v-0.42
		c0-0.48-0.12-0.78-0.75-0.78H32.3c-0.63,0-0.75,0.29-0.75,0.78V64.01z"/>
	<polygon class="st1" points="36.37,61.86 40.91,61.86 40.91,62.82 39.23,62.82 39.23,65.74 38.04,65.74 38.04,62.82 36.37,62.82 	
		"/>
	<rect x="41.76" y="61.86" class="st1" width="1.19" height="3.88"/>
	<path class="st1" d="M44.13,61.86h3.59c1.19,0,1.61,0.39,1.61,1.35v1.18c0,0.96-0.42,1.35-1.61,1.35h-3.59V61.86z M45.32,64.74
		h2.11c0.51,0,0.71-0.14,0.71-0.7v-0.53c0-0.55-0.2-0.7-0.71-0.7h-2.11V64.74z"/>
	<rect x="50.38" y="61.86" class="st1" width="1.19" height="3.88"/>
	<path class="st1" d="M54.43,61.86h1.55l2.13,3.88h-1.32l-0.37-0.69h-2.41l-0.35,0.69h-1.33L54.43,61.86z M54.45,64.22h1.52
		l-0.77-1.46L54.45,64.22z"/>
	<polygon class="st1" points="58.81,61.86 60.65,61.86 62.89,64.68 62.9,64.68 62.9,61.86 64.09,61.86 64.09,65.74 62.24,65.74 
		60.01,62.92 60,62.92 60,65.74 58.81,65.74 	"/>
	<path class="st1" d="M65.07,63.22c0-1.14,0.64-1.4,1.71-1.4h1.91c1.07,0,1.71,0.27,1.71,1.4v1.16c0,1.14-0.64,1.4-1.71,1.4h-1.91
		c-1.07,0-1.71-0.27-1.71-1.4V63.22z M66.3,64.01c0,0.56,0.12,0.78,0.68,0.78h1.52c0.56,0,0.68-0.21,0.68-0.78v-0.42
		c0-0.48-0.12-0.78-0.75-0.78h-1.39c-0.63,0-0.75,0.29-0.75,0.78V64.01z"/>
	<path class="st1" d="M71.32,64.47h1.19c0.01,0.41,0.17,0.44,0.51,0.44h1.46c0.25,0,0.51-0.03,0.51-0.33c0-0.34-0.14-0.36-1.67-0.36
		c-1.79,0-1.99-0.21-1.99-1.17c0-0.7,0.06-1.24,1.57-1.24h1.66c1.37,0,1.5,0.47,1.5,1.15v0.12h-1.19c0-0.28-0.03-0.4-0.58-0.4h-1.32
		c-0.27,0-0.45,0.09-0.45,0.3c0,0.34,0.14,0.35,1.42,0.34c1.85-0.01,2.28,0.11,2.28,1.24c0,1.05-0.35,1.22-1.94,1.22h-1.44
		c-1.08,0-1.52-0.2-1.52-1.05V64.47z"/>
	<path class="st0" d="M46.97,39.66c0-2.77-2.08-5.05-4.76-5.37c-0.61-2.32-2.72-4.03-5.24-4.03c-2.53,0-4.65,1.73-5.24,4.07
		c-2.56,0.43-4.51,2.65-4.51,5.34c0,2.63,1.87,4.81,4.35,5.31c0.1,2.9,2.48,5.22,5.41,5.22c2.91,0,5.29-2.3,5.41-5.18
		C44.98,44.62,46.97,42.37,46.97,39.66"/>
	<path class="st0" d="M36.97,58.15c-0.38,0-0.68-0.31-0.68-0.68V41.23c0-0.38,0.31-0.68,0.68-0.68c0.38,0,0.68,0.31,0.68,0.68v16.24
		C37.66,57.84,37.35,58.15,36.97,58.15"/>
	<polygon class="st1" points="40.42,38.41 39.4,37.5 37.66,39.47 37.66,34.93 36.29,34.93 36.29,42.77 34.69,40.96 35.46,39.25 
		34.21,38.69 33.7,39.84 32.53,38.52 31.51,39.42 36.29,44.84 36.29,50.17 37.66,50.17 37.66,41.53 	"/>
	<path class="st0" d="M36.76,52.18c-0.45,0-0.87,0.09-1.26,0.25c-0.45-1.24-1.64-2.13-3.04-2.13c-1.4,0-2.58,0.89-3.04,2.13
		c-0.39-0.16-0.81-0.25-1.26-0.25c-1.79,0-3.24,1.45-3.24,3.24c0,1.79,1.45,3.24,3.24,3.24c0.83,0,1.58-0.31,2.15-0.82
		c0.57,0.51,1.32,0.82,2.15,0.82c0.83,0,1.58-0.31,2.15-0.82c0.57,0.51,1.32,0.82,2.15,0.82c1.79,0,3.24-1.45,3.24-3.24
		C40,53.63,38.54,52.18,36.76,52.18"/>
</g>
</svg>
