<?xml version="1.0" encoding="utf-8"?>
<!-- Generator: Adobe Illustrator 27.5.0, SVG Export Plug-In . SVG Version: 6.00 Build 0)  -->
<svg version="1.1" id="Layer_1" xmlns="http://www.w3.org/2000/svg" xmlns:xlink="http://www.w3.org/1999/xlink" x="0px" y="0px"
	 viewBox="0 0 100.27 100.27" style="enable-background:new 0 0 100.27 100.27;" xml:space="preserve">
<style type="text/css">
	.st0{fill:#FFFFFF;}
	.st1{clip-path:url(#SVGID_00000016034586652422109620000004692031112425540529_);}
</style>
<g>
	<path d="M87.63,54.59l-5.6-3.93v-1.99c0-1.29-0.56-2.52-1.5-3.38c0.02-0.7-0.03-1.41-0.15-2.1c-0.35-1.98-1.24-3.79-2.6-5.26v-6.98
		c0-2.62-2.13-4.76-4.76-4.76H20.84c-2.62,0-4.76,2.13-4.76,4.76v13.13h-0.13c-2.54,0-4.6,2.06-4.6,4.6v20.84
		c0,2.54,2.06,4.6,4.6,4.6h61.48c2.54,0,4.6-2.06,4.6-4.6V58.27l2.01,1.41c0.69,0.48,1.52,0.67,2.32,0.53
		c0.83-0.15,1.57-0.63,2.02-1.32C89.33,57.51,88.99,55.59,87.63,54.59z"/>
	<g>
		<g>
			<path class="st0" d="M18.7,52.39h3.03l0.94,6.95l0.94-6.95h2.83v13.75h-2.22v-8.13l-1.22,8.13h-0.92l-1.24-8.13v8.13H18.7V52.39z
				"/>
		</g>
		<g>
			<path class="st0" d="M30.99,66.14h-2.46V52.39h2.46V66.14z"/>
		</g>
		<g>
			<path class="st0" d="M36.3,52.23c1.92,0,2.64,0.89,2.64,2.7v1.85h-2.37v-1.72c0-0.44-0.09-0.72-0.54-0.72
				c-0.42,0-0.54,0.28-0.54,0.74v0.31c0,0.65,0.15,1.09,0.76,1.77l1.4,1.57c1.24,1.39,1.5,2.37,1.5,3.53v0.65
				c0,2.05-0.96,3.4-2.99,3.4h-0.48c-1.87,0-2.81-1-2.81-2.85v-2.48h2.42v2.2c0,0.55,0.18,0.83,0.63,0.83c0.42,0,0.61-0.33,0.61-1
				v-0.26c0-0.96-0.07-1.35-0.79-2.14l-1.42-1.57c-1.02-1.11-1.31-2.2-1.31-3.49v-0.59c0-1.76,1.07-2.74,2.79-2.74H36.3z"/>
		</g>
		<g>
			<path class="st0" d="M46.67,52.39v2.42h-1.76v11.33h-2.46V54.81H40.7v-2.42H46.67z"/>
		</g>
		<g>
			<path class="st0" d="M53.65,52.39v2.42h-2.68v2.99h2.11v2.48h-2.11v3.38h2.81v2.48h-5.27V52.39H53.65z M50.92,49.79h1.96
				l-0.83,2.13h-1.92L50.92,49.79z"/>
		</g>
		<g>
			<path class="st0" d="M58.11,66.14h-2.46V52.39h3.88c1.5,0,2.25,0.83,2.25,2.29v2.2c0,1.11-0.63,1.66-1.09,1.85
				c0.41,0.15,1.05,0.59,1.05,1.63v4.68c0,0.59,0.11,0.85,0.2,1.02v0.09h-2.46c-0.11-0.15-0.22-0.44-0.22-1.05v-4.01
				c0-0.63-0.15-0.81-0.65-0.81h-0.52V66.14z M58.11,57.99h0.48c0.48,0,0.68-0.18,0.68-0.83V55.3c0-0.59-0.11-0.78-0.61-0.78h-0.55
				V57.99z"/>
		</g>
		<g>
			<path class="st0" d="M66.24,66.14h-2.46V52.39h2.46V66.14z"/>
		</g>
		<g>
			<path class="st0" d="M74.72,63c0,2.01-1.07,3.35-2.92,3.35h-0.55c-1.94,0-2.98-1.2-2.98-3.35v-7.26c0-2.13,0.83-3.51,2.96-3.51
				h0.55c2.16,0,2.94,1.39,2.94,3.49V63z M72.15,55.54c0-0.61-0.2-0.91-0.65-0.91c-0.48,0-0.67,0.3-0.67,0.91v7.54
				c0,0.42,0.17,0.81,0.68,0.81c0.5,0,0.63-0.39,0.63-0.81V55.54z"/>
		</g>
	</g>
	<g>
		<g>
			<path class="st0" d="M26.62,40.95h2.44v3.11c0,1.64-0.67,3.18-2.85,3.18h-0.5c-2.37,0-2.9-1.53-2.9-3.25v-7.76
				c0-1.66,0.72-3.12,2.9-3.12h0.5c2.35,0,2.85,1.46,2.85,3.03v2.31h-2.44v-2.22c0-0.52-0.17-0.79-0.63-0.79s-0.61,0.26-0.61,0.79
				v7.76c0,0.54,0.18,0.83,0.63,0.83c0.44,0,0.61-0.33,0.61-0.83V40.95z"/>
		</g>
		<g>
			<path class="st0" d="M33.52,47.01h-2.46V33.26h3.88c1.5,0,2.25,0.83,2.25,2.29v2.2c0,1.11-0.63,1.66-1.09,1.85
				c0.41,0.15,1.05,0.59,1.05,1.63v4.68c0,0.59,0.11,0.85,0.2,1.02v0.09H34.9c-0.11-0.15-0.22-0.44-0.22-1.05v-4.01
				c0-0.63-0.15-0.81-0.65-0.81h-0.52V47.01z M33.52,38.86H34c0.48,0,0.68-0.18,0.68-0.83v-1.87c0-0.59-0.11-0.78-0.61-0.78h-0.55
				V38.86z"/>
		</g>
		<g>
			<path class="st0" d="M41.65,47.01h-2.46V33.26h2.46V47.01z"/>
		</g>
		<g>
			<path class="st0" d="M43.74,33.26h3.03l0.94,6.95l0.94-6.95h2.83v13.75h-2.22v-8.13l-1.22,8.13h-0.92l-1.24-8.13v8.13h-2.14
				V33.26z"/>
		</g>
		<g>
			<path class="st0" d="M58.71,33.26v2.42h-2.68v2.99h2.11v2.48h-2.11v3.38h2.81v2.48h-5.27V33.26H58.71z"/>
		</g>
		<g>
			<path class="st0" d="M69.13,33.26v2.42h-2.68v2.99h2.11v2.48h-2.11v3.38h2.81v2.48H64V33.26H69.13z"/>
		</g>
	</g>
	<g>
		<g>
			<circle cx="69.93" cy="44.9" r="8.44"/>
		</g>
		<g>
			<defs>
				<circle id="SVGID_1_" cx="70.29" cy="45.02" r="8.05"/>
			</defs>
			<clipPath id="SVGID_00000007407731405128949290000007216534622039816637_">
				<use xlink:href="#SVGID_1_"  style="overflow:visible;"/>
			</clipPath>
			<g style="clip-path:url(#SVGID_00000007407731405128949290000007216534622039816637_);">
				<g>
					<path class="st0" d="M25.93,26.59h4.2l1.31,9.63l1.31-9.63h3.92v19.06h-3.07V34.38L31.9,45.66h-1.28L28.9,34.38v11.27h-2.97
						V26.59z"/>
				</g>
				<g>
					<path class="st0" d="M42.97,45.66h-3.41V26.59h3.41V45.66z"/>
				</g>
				<g>
					<path class="st0" d="M50.32,26.36c2.66,0,3.66,1.23,3.66,3.74v2.56h-3.28v-2.38c0-0.62-0.13-1-0.74-1
						c-0.59,0-0.74,0.38-0.74,1.03v0.44c0,0.9,0.2,1.51,1.05,2.46l1.95,2.18c1.72,1.92,2.08,3.28,2.08,4.89v0.9
						c0,2.84-1.33,4.71-4.15,4.71h-0.67c-2.59,0-3.89-1.38-3.89-3.95v-3.43h3.36v3.05c0,0.77,0.26,1.15,0.87,1.15
						c0.59,0,0.85-0.46,0.85-1.38v-0.36c0-1.33-0.1-1.87-1.1-2.97l-1.97-2.18c-1.41-1.54-1.82-3.05-1.82-4.84v-0.82
						c0-2.43,1.49-3.79,3.87-3.79H50.32z"/>
				</g>
				<g>
					<path class="st0" d="M64.7,26.59v3.36h-2.43v15.71h-3.41V29.95h-2.43v-3.36H64.7z"/>
				</g>
				<g>
					<path class="st0" d="M73.55,31.79v3.36h-3.72v4.15h2.92v3.43h-2.92v4.69h3.89v3.43h-7.3V31.79H73.55z M69.75,28.17h2.72
						l-1.15,2.95h-2.66L69.75,28.17z"/>
				</g>
				<g>
					<path class="st0" d="M91.83,45.66h-3.41V26.59h3.41V45.66z"/>
				</g>
				<g>
					<path class="st0" d="M103.59,41.3c0,2.79-1.49,4.64-4.05,4.64h-0.77c-2.69,0-4.13-1.67-4.13-4.64V31.23
						c0-2.95,1.15-4.87,4.1-4.87h0.77c3,0,4.07,1.92,4.07,4.84V41.3z M100.03,30.95c0-0.85-0.28-1.26-0.9-1.26
						c-0.67,0-0.92,0.41-0.92,1.26V41.4c0,0.59,0.23,1.13,0.95,1.13c0.69,0,0.87-0.54,0.87-1.13V30.95z"/>
				</g>
			</g>
		</g>
		<g>
			<g>
				<path class="st0" d="M80.39,51.34c-0.53-0.37-1.22-0.39-1.74-0.08l-1.38-0.97c1.42-1.89,2.06-4.36,1.62-6.86
					c-0.85-4.84-5.48-8.11-10.34-7.26c-4.87,0.85-8.11,5.5-7.26,10.34c0.85,4.84,5.5,8.11,10.34,7.26c1.86-0.33,3.49-1.21,4.75-2.48
					c0,0.03,0.03,0.02,0.04,0.05l1.44,1.01c-0.12,0.6,0.13,1.24,0.67,1.61l6.38,4.48c0.38,0.26,0.8,0.35,1.2,0.28
					c0.4-0.07,0.8-0.3,1.03-0.67c0.5-0.72,0.33-1.73-0.4-2.26L80.39,51.34z M68.9,38.14c3.78-0.66,7.37,1.86,8.03,5.64
					c0.66,3.78-1.86,7.37-5.64,8.03c-3.78,0.66-7.37-1.86-8.03-5.64S65.12,38.8,68.9,38.14z"/>
				<path d="M85.84,59.16c-0.41,0-0.82-0.13-1.17-0.38l-6.38-4.48c-0.58-0.41-0.9-1.07-0.87-1.75l-1.01-0.71
					c-1.32,1.22-2.93,2.03-4.7,2.34c-2.45,0.43-4.93-0.13-6.98-1.57c-2.05-1.44-3.41-3.58-3.84-6.03c-0.43-2.45,0.12-4.93,1.56-6.97
					c1.44-2.05,3.58-3.41,6.04-3.85c5.08-0.89,9.93,2.52,10.82,7.6c0.42,2.39-0.11,4.86-1.45,6.84l0.84,0.59
					c0.63-0.26,1.36-0.19,1.94,0.22l6.34,4.45c0.91,0.67,1.13,1.93,0.5,2.83c-0.27,0.43-0.76,0.75-1.3,0.84
					C86.06,59.15,85.95,59.16,85.84,59.16z M76.76,51.09l1.55,1.09l-0.05,0.26c-0.09,0.45,0.11,0.92,0.5,1.2l6.38,4.48
					c0.27,0.19,0.59,0.27,0.9,0.21c0.31-0.05,0.6-0.24,0.76-0.49c0.39-0.55,0.25-1.31-0.29-1.71l-6.34-4.45
					c-0.39-0.27-0.9-0.3-1.3-0.06l-0.23,0.14l-1.94-1.36l0.25-0.34c1.39-1.85,1.95-4.23,1.55-6.55c-0.81-4.63-5.24-7.74-9.87-6.93
					c-2.24,0.39-4.2,1.64-5.51,3.51c-1.31,1.87-1.81,4.13-1.42,6.36c0.39,2.23,1.64,4.19,3.51,5.5c1.87,1.31,4.13,1.82,6.36,1.43
					c1.72-0.3,3.29-1.12,4.53-2.36l0.56-0.56L76.76,51.09z M70.08,52.33c-1.5,0-2.96-0.46-4.21-1.34c-1.61-1.13-2.68-2.81-3.02-4.75
					c-0.34-1.93,0.1-3.88,1.22-5.49c1.13-1.61,2.81-2.68,4.75-3.02l0,0c1.93-0.34,3.88,0.1,5.49,1.22c1.61,1.13,2.68,2.81,3.02,4.75
					c0.7,3.99-1.98,7.81-5.97,8.51C70.94,52.29,70.51,52.33,70.08,52.33z M68.97,38.54c-1.72,0.3-3.22,1.25-4.22,2.68
					c-1,1.43-1.39,3.16-1.09,4.88c0.3,1.72,1.25,3.22,2.68,4.22c1.43,1,3.16,1.39,4.88,1.09c3.55-0.62,5.93-4.01,5.31-7.56
					c-0.3-1.72-1.25-3.22-2.68-4.22C72.42,38.63,70.69,38.24,68.97,38.54L68.97,38.54z"/>
			</g>
		</g>
	</g>
</g>
</svg>
