<?xml version="1.0" encoding="utf-8"?>
<!-- Generator: Adobe Illustrator 27.5.0, SVG Export Plug-In . SVG Version: 6.00 Build 0)  -->
<svg version="1.1" id="Layer_1" xmlns="http://www.w3.org/2000/svg" xmlns:xlink="http://www.w3.org/1999/xlink" x="0px" y="0px"
	 viewBox="0 0 100.27 100.27" style="enable-background:new 0 0 100.27 100.27;" xml:space="preserve">
<style type="text/css">
	.st0{fill:#FFFFFF;}
	.st1{font-family:'Druk-Medium';}
	.st2{font-size:11.1065px;}
	.st3{font-family:'Druk-WideMedium';}
	.st4{font-size:8.7927px;}
</style>
<g>
	<path d="M73.57,52.24c0,0,0-10.28,0-15.4c0-11.23-10.49-20.33-23.43-20.33S26.7,25.61,26.7,36.83c0,5.82,0,14.78,0,14.78l6.37-6.03
		v6.12l3.92-2.66l0.12,8.16l4.35-5.06l0.1,5.86l5.45-9.65l12.85-0.02l5.23,9.76l0.03-9.14l3.27,3.49v-6.69L73.57,52.24z"/>
	<path d="M70.92,83.71h-41.6c-1.45,0-2.62-1.17-2.62-2.62V44.28c0-1.45,1.17-2.62,2.62-2.62h41.6c1.45,0,2.62,1.17,2.62,2.62v36.81
		C73.55,82.54,72.37,83.71,70.92,83.71z"/>
	<path class="st0" d="M70.72,50.44c0,0,0-9.04,0-13.55c0-9.87-9.23-17.88-20.61-17.88s-20.61,8-20.61,17.88c0,5.12,0,13,0,13
		l5.61-5.3v5.39l3.45-2.34l0.11,7.18l3.83-4.45l0.09,5.15l4.79-8.49L58.68,47l4.6,8.59l0.03-8.04l2.88,3.07v-5.88L70.72,50.44z"/>
	<g>
		<path d="M57.73,63.52c3.37-0.02,4.97-1.44,4.97-4.36V44.7c0-4.72-0.12-9.44,0.04-14.16c0.14-4.16-2.97-7.01-8.09-7.04
			c-2.59-0.02-5.19,0-7.78,0c-5.49,0-8.57,2.7-8.44,7.49c0.02,0.69-0.22,0.98-0.96,1.22c-2.55,0.85-4,3.58-2.88,5.75
			c0.57,1.1,1.57,2.05,2.52,2.97c0.8,0.76,1.39,1.53,1.59,2.6c0.45,2.47,2.08,4.25,4.59,5.39c0.74,0.33,0.99,0.7,0.97,1.4
			c-0.05,3.03-0.08,6.07-0.04,9.1c0.05,2.66,1.79,4.11,4.82,4.12C51.92,63.55,54.83,63.54,57.73,63.52z M46.99,59.38
			c-0.02-3.67-0.03-7.35,0-11.01c0.01-0.7-0.21-1.05-1-1.2c-3.05-0.57-4.82-2.83-4.63-5.06c0.05-0.51-0.38-1.16-0.8-1.58
			c-0.87-0.9-1.92-1.66-2.84-2.52c-0.91-0.85-1-1.94-0.29-2.74c0.89-1.01,2.21-1.38,3.37-0.73c1.52,0.86,2.94,1.85,4.38,2.82
			c1.5,1.01,2.93,2.1,4.47,3.06c0.5,0.3,1.3,0.45,1.9,0.36c2.79-0.46,4.35-2.39,3.82-4.58c-0.86-0.04-1.08,0.44-1.22,1.06
			c-0.33,1.39-1.11,2.06-2.52,2.26c-0.42-1.52-0.84-3.05-1.28-4.65c1.03-0.27,2.59,0.3,3.97-0.84c-2.04-0.71-4.03-0.1-6.21-0.52
			c0.84-0.76,1.53-1.34,2.17-1.98c0.41-0.41,1.4-0.87,0.71-1.45c-0.71-0.57-1.17,0.33-1.65,0.68c-0.7,0.51-1.31,1.11-1.96,1.67
			c-0.15-0.05-0.31-0.09-0.46-0.13c0-0.86,0.06-1.72-0.02-2.57c-0.05-0.37-0.38-0.72-0.59-1.08c-0.24,0.36-0.67,0.71-0.7,1.09
			c-0.1,1.28-0.05,2.57-0.08,3.85c-0.02,0.76,0.28,1.13,1.21,1.29c2.36,0.38,3.52,1.98,3.1,4.17c-0.19-0.07-0.37-0.11-0.5-0.2
			c-2.53-1.72-5.05-3.44-7.56-5.19c-0.22-0.15-0.34-0.51-0.34-0.79c-0.05-1.08-0.03-2.15-0.01-3.23c0.03-1.87,1.33-3.21,3.47-3.44
			c1.5-0.16,3.01-0.2,4.5-0.2c2.21,0.01,4.41-0.02,6.59,0.17c2.59,0.23,3.88,1.67,3.89,4c0,5.15-0.02,10.31-0.02,15.46l0.03,13.74
			c0,1.33-0.41,1.71-1.9,1.72c-3.02,0.02-6.04,0.02-9.04,0.01C47.45,61.08,47,60.69,46.99,59.38z"/>
		<path class="st0" d="M48.94,61.09c-1.49-0.01-1.94-0.4-1.95-1.71c-0.02-3.67-0.03-7.35,0-11.01c0.01-0.7-0.21-1.05-1-1.2
			c-3.05-0.57-4.82-2.83-4.63-5.06c0.05-0.51-0.38-1.16-0.8-1.58c-0.87-0.9-1.92-1.66-2.84-2.52c-0.91-0.85-1-1.94-0.29-2.74
			c0.89-1.01,2.21-1.38,3.37-0.73c1.52,0.86,2.94,1.85,4.38,2.82c1.5,1.01,2.93,2.1,4.47,3.06c0.5,0.3,1.3,0.45,1.9,0.36
			c2.79-0.46,4.35-2.39,3.82-4.58c-0.86-0.04-1.08,0.44-1.22,1.06c-0.33,1.39-1.11,2.06-2.52,2.26c-0.42-1.52-0.84-3.05-1.28-4.65
			c1.03-0.27,2.59,0.3,3.97-0.84c-2.04-0.71-4.03-0.1-6.21-0.52c0.84-0.76,1.53-1.34,2.17-1.98c0.41-0.41,1.4-0.87,0.71-1.45
			c-0.71-0.57-1.17,0.33-1.65,0.68c-0.7,0.51-1.31,1.11-1.96,1.67c-0.15-0.05-0.31-0.09-0.46-0.13c0-0.86,0.06-1.72-0.02-2.57
			c-0.05-0.37-0.38-0.72-0.59-1.08c-0.24,0.36-0.67,0.71-0.7,1.09c-0.1,1.28-0.05,2.57-0.08,3.85c-0.02,0.76,0.28,1.13,1.21,1.29
			c2.36,0.38,3.52,1.98,3.1,4.17c-0.19-0.07-0.37-0.11-0.5-0.2c-2.53-1.72-5.05-3.44-7.56-5.19c-0.22-0.15-0.34-0.51-0.34-0.79
			c-0.05-1.08-0.03-2.15-0.01-3.23c0.03-1.87,1.33-3.21,3.47-3.44c1.5-0.16,3.01-0.2,4.5-0.2c2.21,0.01,4.41-0.02,6.59,0.17
			c2.59,0.23,3.88,1.67,3.89,4c0,5.15-0.02,10.31-0.02,15.46l0.03,13.74c0,1.33-0.41,1.71-1.9,1.72
			C54.96,61.1,51.95,61.1,48.94,61.09z"/>
	</g>
	<text transform="matrix(1.1529 0 0 1 28.8193 72.0227)"><tspan x="0" y="0" class="st0 st1 st2">CUEQUINHA &amp;</tspan><tspan x="-0.42" y="9.26" class="st0 st3 st4">SOCO</tspan></text>
</g>
</svg>
