<?xml version="1.0" encoding="utf-8"?>
<!-- Generator: Adobe Illustrator 27.5.0, SVG Export Plug-In . SVG Version: 6.00 Build 0)  -->
<svg version="1.1" id="Layer_1" xmlns="http://www.w3.org/2000/svg" xmlns:xlink="http://www.w3.org/1999/xlink" x="0px" y="0px"
	 viewBox="0 0 100.27 100.27" style="enable-background:new 0 0 100.27 100.27;" xml:space="preserve">
<style type="text/css">
	.st0{fill:#FFFFFF;}
</style>
<g>
	<g>
		<polygon points="34.27,39.11 12.99,75.96 87.28,75.96 66,39.11 		"/>
	</g>
	<g>
		<g>
			<path d="M48.85,46.8c-5.96-0.15-11.56-3.07-15.76-8.23c-0.59-0.72-1.37-2.19-0.01-3.93c4.1-5.24,10.29-8.25,16.98-8.25
				c6.7,0,12.89,3.01,17,8.26c0.99,1.26,0.98,2.65-0.02,3.91c-4.27,5.39-10.54,8.24-18.14,8.24C48.91,46.8,48.87,46.8,48.85,46.8z"
				/>
		</g>
		<g>
			<path d="M50.06,28.47c5.74,0,11.47,2.49,15.36,7.46c0.4,0.51,0.39,0.84-0.01,1.34c-3.74,4.73-9.33,7.45-16.51,7.45c0,0,0,0,0,0
				c-5.12-0.13-10.24-2.6-14.2-7.47c-0.41-0.51-0.37-0.84,0.01-1.33C38.6,30.96,44.33,28.47,50.06,28.47 M50.06,24.32v4.16V24.32
				c-7.34,0-14.12,3.3-18.62,9.04c-1.59,2.04-1.58,4.54,0.04,6.52c4.59,5.64,10.75,8.84,17.33,9c0.03,0,0.07,0,0.1,0
				c8.26,0,15.1-3.12,19.77-9.03c1.6-2.03,1.61-4.45,0.02-6.48C64.2,27.62,57.4,24.32,50.06,24.32L50.06,24.32z"/>
		</g>
		<g>
			<path class="st0" d="M50.06,28.47c5.74,0,11.47,2.49,15.36,7.46c0.4,0.51,0.39,0.84-0.01,1.34c-3.74,4.73-9.33,7.45-16.51,7.45
				c0,0,0,0,0,0c-5.12-0.13-10.24-2.6-14.2-7.47c-0.41-0.51-0.37-0.84,0.01-1.33C38.6,30.96,44.33,28.47,50.06,28.47 M50.06,26.39
				v2.08V26.39c-6.69,0-12.88,3.01-16.99,8.25c-1.36,1.74-0.58,3.21,0.01,3.93c4.2,5.16,9.8,8.09,15.76,8.23l0.03,0h0.03
				c7.6,0,13.88-2.85,18.14-8.24c1-1.26,1-2.65,0.02-3.91C62.96,29.4,56.76,26.39,50.06,26.39L50.06,26.39z"/>
		</g>
	</g>
	<g>
		<circle class="st0" cx="49.57" cy="36.53" r="6.28"/>
	</g>
	<g>
		<path d="M49.57,42.99l-6.39-6.39l6.39-6.39l6.39,6.39L49.57,42.99z M44.33,36.6l5.24,5.24l5.24-5.24l-5.24-5.24L44.33,36.6z"/>
	</g>
	<g>
		<circle cx="49.57" cy="36.53" r="2.87"/>
	</g>
	<g>
		<g>
			<path class="st0" d="M29.02,57.21h4.05c1.34,0,1.81,0.44,1.81,1.52v1.33c0,1.08-0.47,1.52-1.81,1.52h-4.05V57.21z M30.36,60.46
				h2.38c0.57,0,0.8-0.16,0.8-0.79v-0.59c0-0.62-0.22-0.79-0.8-0.79h-2.38V60.46z"/>
		</g>
		<g>
			<path class="st0" d="M36.07,57.21h1.34v4.38h-1.34V57.21z"/>
		</g>
		<g>
			<path class="st0" d="M38.61,60.15h1.34c0.01,0.47,0.19,0.5,0.58,0.5h1.64c0.28,0,0.57-0.03,0.57-0.37c0-0.38-0.16-0.4-1.89-0.4
				c-2.02,0-2.25-0.24-2.25-1.32c0-0.79,0.07-1.4,1.76-1.4h1.87c1.55,0,1.69,0.53,1.69,1.29v0.14h-1.34c0-0.32-0.04-0.45-0.65-0.45
				h-1.49c-0.3,0-0.51,0.1-0.51,0.34c0,0.38,0.16,0.39,1.6,0.39c2.08-0.01,2.57,0.12,2.57,1.4c0,1.18-0.4,1.37-2.18,1.37h-1.63
				c-1.22,0-1.71-0.23-1.71-1.18V60.15z"/>
		</g>
		<g>
			<path class="st0" d="M44.94,57.21h5.11v1.09h-1.89v3.29h-1.34V58.3h-1.89V57.21z"/>
		</g>
		<g>
			<path class="st0" d="M50.84,58.74c0-1.28,0.72-1.58,1.93-1.58h2.15c1.21,0,1.93,0.3,1.93,1.58v1.31c0,1.28-0.72,1.58-1.93,1.58
				h-2.15c-1.21,0-1.93-0.3-1.93-1.58V58.74z M52.22,59.63c0,0.63,0.13,0.88,0.77,0.88h1.72c0.63,0,0.77-0.24,0.77-0.88v-0.47
				c0-0.54-0.13-0.88-0.84-0.88h-1.57c-0.71,0-0.84,0.33-0.84,0.88V59.63z"/>
		</g>
		<g>
			<path class="st0" d="M57.96,57.21h3.66c1.28,0,1.58,0.64,1.58,1.5v0.37c0,0.65-0.28,1.4-1.23,1.4h-2.67v1.1h-1.34V57.21z
				 M59.31,59.4h2.08c0.31,0,0.44-0.21,0.44-0.47v-0.17c0-0.3-0.14-0.47-0.55-0.47h-1.97V59.4z"/>
		</g>
		<g>
			<path class="st0" d="M64.3,57.21h1.34v4.38H64.3V57.21z"/>
		</g>
		<g>
			<path class="st0" d="M68.87,57.21h1.75l2.41,4.38h-1.49l-0.42-0.77h-2.72L68,61.59h-1.5L68.87,57.21z M68.89,59.87h1.72
				l-0.87-1.64L68.89,59.87z"/>
		</g>
		<g>
			<path class="st0" d="M24.21,63.74h2.07v5.03h4.66v1.74h-6.74V63.74z"/>
		</g>
		<g>
			<path class="st0" d="M35.76,63.74h2.7l3.72,6.76h-2.31l-0.64-1.2h-4.2l-0.61,1.2H32.1L35.76,63.74z M35.8,67.85h2.65l-1.35-2.54
				L35.8,67.85z"/>
		</g>
		<g>
			<path class="st0" d="M42.67,63.74h7.9v1.68h-2.92v5.08h-2.07v-5.08h-2.92V63.74z"/>
		</g>
		<g>
			<path class="st0" d="M52.53,63.74h2.07v6.76h-2.07V63.74z"/>
		</g>
		<g>
			<path class="st0" d="M57.05,63.74h3.21l3.9,4.91h0.02v-4.91h2.07v6.76h-3.21l-3.9-4.91h-0.02v4.91h-2.07V63.74z"/>
		</g>
		<g>
			<path class="st0" d="M71.59,63.74h2.7l3.72,6.76H75.7l-0.64-1.2h-4.2l-0.61,1.2h-2.32L71.59,63.74z M71.63,67.85h2.65l-1.35-2.54
				L71.63,67.85z"/>
		</g>
	</g>
</g>
</svg>
