<?xml version="1.0" encoding="utf-8"?>
<!-- Generator: Adobe Illustrator 27.5.0, SVG Export Plug-In . SVG Version: 6.00 Build 0)  -->
<svg version="1.1" id="Layer_1" xmlns="http://www.w3.org/2000/svg" xmlns:xlink="http://www.w3.org/1999/xlink" x="0px" y="0px"
	 viewBox="0 0 100.27 100.27" style="enable-background:new 0 0 100.27 100.27;" xml:space="preserve">
<style type="text/css">
	.st0{fill:#FFFFFF;}
</style>
<g>
	<g>
		<path d="M51.27,20.59l2.16-1.55c0.85-0.61,2.04-0.43,2.68,0.4l1.61,2.11c0.5,0.66,1.37,0.93,2.16,0.67l2.52-0.84
			c1-0.33,2.08,0.19,2.44,1.17l0.92,2.5c0.29,0.78,1.04,1.29,1.87,1.27l2.66-0.06c1.05-0.02,1.93,0.79,1.98,1.84l0.14,2.65
			c0.04,0.83,0.61,1.54,1.41,1.77l2.56,0.73c1.01,0.29,1.61,1.33,1.35,2.34l-0.65,2.58c-0.2,0.81,0.13,1.65,0.83,2.1l2.23,1.45
			c0.88,0.57,1.15,1.74,0.6,2.64l-1.38,2.27c-0.43,0.71-0.36,1.62,0.17,2.25l1.7,2.04c0.67,0.81,0.58,2-0.2,2.7l-1.99,1.76
			c-0.62,0.55-0.82,1.44-0.5,2.2l1.03,2.45c0.4,0.97-0.03,2.08-0.99,2.52l-2.42,1.1c-0.76,0.34-1.21,1.13-1.13,1.96l0.26,2.65
			c0.1,1.05-0.65,1.98-1.69,2.12l-2.64,0.34c-0.82,0.11-1.49,0.72-1.66,1.54l-0.53,2.6c-0.21,1.03-1.2,1.7-2.24,1.52l-2.62-0.45
			c-0.82-0.14-1.64,0.25-2.04,0.98l-1.28,2.33c-0.5,0.92-1.65,1.27-2.59,0.8l-2.37-1.21c-0.74-0.38-1.64-0.24-2.23,0.34l-1.91,1.85
			c-0.75,0.73-1.95,0.73-2.71,0l-1.91-1.85c-0.6-0.58-1.49-0.71-2.23-0.34l-2.37,1.21c-0.94,0.48-2.08,0.12-2.59-0.8l-1.28-2.33
			c-0.4-0.73-1.22-1.12-2.04-0.98l-2.62,0.45c-1.03,0.18-2.02-0.5-2.24-1.52l-0.53-2.6c-0.17-0.81-0.83-1.43-1.66-1.54l-2.64-0.34
			c-1.04-0.13-1.79-1.07-1.69-2.12l0.26-2.65c0.08-0.83-0.37-1.61-1.13-1.96l-2.42-1.1c-0.96-0.43-1.39-1.55-0.99-2.52l1.03-2.45
			c0.32-0.77,0.12-1.65-0.5-2.2l-1.99-1.76c-0.79-0.7-0.87-1.89-0.2-2.7l1.7-2.04c0.53-0.64,0.6-1.54,0.17-2.25l-1.38-2.27
			c-0.54-0.9-0.28-2.07,0.6-2.64l2.23-1.45c0.7-0.45,1.03-1.3,0.83-2.1l-0.65-2.58c-0.26-1.02,0.34-2.06,1.35-2.34l2.56-0.73
			c0.8-0.23,1.37-0.94,1.41-1.77l0.14-2.65c0.06-1.05,0.93-1.86,1.98-1.84l2.66,0.06c0.83,0.02,1.58-0.49,1.87-1.27l0.92-2.5
			c0.36-0.99,1.44-1.51,2.44-1.17l2.52,0.84c0.79,0.26,1.66-0.01,2.16-0.67l1.61-2.11c0.64-0.84,1.82-1.01,2.68-0.4l2.16,1.55
			C49.68,21.07,50.59,21.07,51.27,20.59z"/>
	</g>
	<g>
		<g>
			<g>
				<path class="st0" d="M65.74,58.82c0.65,0.05,1.3,0.1,1.94,0.17c0.29,0.03,0.57,0.1,0.85,0.17c0.46,0.12,0.92,0.28,1.38,0.37
					c0.77,0.15,1.5,0.39,2.19,0.75c0.13,0.07,0.23,0.06,0.29-0.09c0.34-0.87,0.69-1.74,1.02-2.61c0.02-0.06-0.03-0.21-0.08-0.23
					c-0.4-0.19-0.8-0.38-1.21-0.53c-0.43-0.15-0.87-0.26-1.31-0.38c-0.36-0.11-0.72-0.28-1.09-0.32c-0.56-0.07-1.12-0.14-1.68-0.25
					c-0.62-0.13-1.26-0.17-1.89-0.24c-1.22-0.13-2.44-0.1-3.65,0.01c-0.91,0.09-1.81,0.28-2.72,0.42c-0.27,0.04-0.57,0.02-0.82,0.11
					c-1.03,0.36-2.1,0.57-3.11,1c-0.36,0.16-0.74,0.29-1.11,0.43c-0.51,0.2-0.91,0.59-1.46,0.7c-0.02,0-0.04,0.02-0.06,0.03
					c-0.63,0.39-1.28,0.76-1.89,1.18c-0.73,0.5-1.44,1.02-2.12,1.56c-0.44,0.35-0.81,0.79-1.25,1.14c-0.7,0.54-1.23,1.24-1.82,1.88
					c-0.31,0.34-0.57,0.71-0.84,1.08c-0.27,0.36-0.55,0.73-0.8,1.1c-0.23,0.34-0.45,0.69-0.65,1.04c-0.33,0.57-0.67,1.14-0.96,1.73
					c-0.29,0.58-0.53,1.18-0.77,1.78c-0.2,0.5-0.35,1.02-0.53,1.53c-0.07,0.18,0.02,0.24,0.16,0.29c0.64,0.21,1.27,0.43,1.91,0.64
					c0.27,0.09,0.54,0.15,0.83,0.23c0.12-0.36,0.23-0.69,0.35-1.02c0.11-0.31,0.22-0.62,0.35-0.92c0.22-0.5,0.46-0.99,0.7-1.47
					c0.19-0.39,0.38-0.78,0.61-1.14c0.4-0.62,0.86-1.2,1.26-1.82c0.48-0.75,1.11-1.37,1.7-2.01c0.24-0.26,0.49-0.5,0.74-0.74
					c0.37-0.35,0.75-0.69,1.12-1.03c0.02-0.02,0.05-0.03,0.08-0.05c0.21-0.16,0.43-0.32,0.64-0.48c0.16-0.11,0.32-0.22,0.48-0.33
					c0.2-0.14,0.4-0.28,0.6-0.42c0.05-0.04,0.1-0.09,0.16-0.13c0.59-0.32,1.19-0.64,1.78-0.96c0.29-0.15,0.57-0.32,0.87-0.45
					c0.28-0.12,0.57-0.2,0.85-0.32c0.56-0.24,1.1-0.51,1.71-0.61c0.3-0.05,0.59-0.18,0.88-0.25c0.72-0.17,1.42-0.43,2.17-0.42
					c0.22,0,0.44-0.01,0.65-0.04C63.38,58.76,64.56,58.73,65.74,58.82z"/>
			</g>
			<g>
				<path class="st0" d="M31.74,61.83c0.24-0.42,0.49-0.84,0.73-1.26c0.19-0.33,0.37-0.67,0.58-0.98c0.34-0.51,0.7-1.02,1.06-1.52
					c0.4-0.55,0.79-1.1,1.21-1.64c0.34-0.43,0.71-0.84,1.07-1.27c0.29-0.34,0.56-0.7,0.87-1.03c0.59-0.61,1.19-1.21,1.81-1.8
					c0.45-0.42,0.92-0.82,1.39-1.22c0.43-0.37,0.87-0.73,1.3-1.09c0.07-0.06,0.13-0.12,0.21-0.17c0.46-0.33,0.92-0.65,1.39-0.98
					c0.43-0.3,0.85-0.63,1.3-0.9c0.66-0.4,1.35-0.76,2.01-1.15c0.41-0.24,0.81-0.5,1.26-0.67c0.52-0.2,0.95-0.61,1.52-0.68
					c0.03,0,0.06-0.04,0.1-0.05c0.28-0.15,0.56-0.31,0.85-0.43c0.48-0.2,0.98-0.37,1.47-0.54c0.39-0.14,0.79-0.26,1.19-0.39
					c0.29-0.1,0.58-0.21,0.87-0.31c0.36-0.12,0.72-0.31,1.08-0.33c0.69-0.04,1.32-0.3,1.98-0.44c0.23-0.05,0.47-0.11,0.7-0.14
					c0.49-0.07,0.99-0.12,1.49-0.19c1.59-0.23,3.18-0.39,4.78-0.4c2.09-0.01,4.17,0.1,6.23,0.53c0.16,0.03,0.33,0.05,0.49,0.05
					c0.75-0.01,1.43,0.26,2.14,0.43c0.28,0.06,0.56,0.11,0.87,0.18c-0.01-0.1-0.01-0.13-0.02-0.17c-0.39-1.07-0.78-2.13-1.18-3.19
					c-0.03-0.07-0.15-0.14-0.24-0.16c-0.55-0.12-1.11-0.24-1.67-0.33c-0.85-0.14-1.71-0.32-2.57-0.37
					c-1.39-0.07-2.78-0.08-4.17-0.06c-1.26,0.01-2.51,0.07-3.76,0.14c-0.58,0.03-1.16,0.15-1.73,0.24
					c-0.78,0.12-1.54,0.38-2.33,0.42c-0.16,0.01-0.32,0.05-0.48,0.1c-0.53,0.14-1.05,0.3-1.57,0.44c-0.54,0.15-1.08,0.29-1.62,0.45
					c-0.33,0.1-0.64,0.24-0.97,0.35c-0.19,0.06-0.39,0.09-0.58,0.16c-0.74,0.29-1.47,0.58-2.2,0.88c-0.2,0.08-0.38,0.21-0.58,0.29
					c-0.79,0.29-1.54,0.68-2.27,1.08c-0.95,0.53-1.88,1.08-2.82,1.63c-0.24,0.14-0.47,0.28-0.7,0.43c-0.15,0.1-0.28,0.22-0.43,0.32
					c-0.47,0.33-0.96,0.63-1.42,0.97c-0.56,0.42-1.1,0.87-1.63,1.33c-0.46,0.39-0.9,0.81-1.35,1.21c-0.35,0.31-0.72,0.6-1.05,0.93
					c-0.75,0.77-1.48,1.56-2.2,2.36c-0.55,0.61-1.07,1.25-1.59,1.88c-0.21,0.25-0.4,0.52-0.59,0.79c-0.26,0.38-0.52,0.76-0.77,1.15
					c-0.48,0.74-0.97,1.47-1.43,2.21c-0.32,0.51-0.59,1.06-0.9,1.57c-0.13,0.21-0.14,0.39-0.02,0.6c0.54,0.89,1.07,1.78,1.6,2.67
					c0.05,0.08,0.12,0.14,0.19,0.23c0.04-0.06,0.07-0.09,0.09-0.13c0.23-0.46,0.45-0.92,0.68-1.38
					C31.53,62.26,31.63,62.04,31.74,61.83z"/>
			</g>
			<g>
				<path class="st0" d="M42.1,68.59c0.16-0.31,0.34-0.61,0.5-0.92c0.14-0.28,0.25-0.58,0.42-0.84c0.51-0.77,1.03-1.54,1.58-2.28
					c0.61-0.82,1.26-1.6,1.99-2.32c0.33-0.33,0.64-0.69,0.99-1.01c0.39-0.36,0.82-0.68,1.23-1.02c0.15-0.13,0.28-0.3,0.44-0.41
					c0.44-0.31,0.88-0.6,1.33-0.89c0.48-0.31,0.96-0.62,1.45-0.92c0.18-0.11,0.34-0.24,0.52-0.34c0.3-0.16,0.6-0.29,0.9-0.44
					c0.21-0.1,0.4-0.23,0.61-0.32c0.39-0.17,0.79-0.34,1.2-0.5c0.28-0.11,0.56-0.2,0.84-0.3c0.21-0.07,0.42-0.13,0.63-0.21
					c0.37-0.12,0.73-0.28,1.1-0.37c0.69-0.17,1.38-0.33,2.08-0.45c1.01-0.18,2.01-0.4,3.04-0.36c1.08,0.03,2.17-0.01,3.25,0.02
					c0.58,0.01,1.16,0.08,1.74,0.17c0.73,0.12,1.45,0.3,2.17,0.46c0.4,0.09,0.81,0.14,1.2,0.26c0.81,0.26,1.6,0.55,2.41,0.83
					c0.03-0.03,0.05-0.04,0.05-0.05c0.2-0.96,0.41-1.91,0.6-2.87c0.01-0.06-0.05-0.17-0.1-0.19c-0.71-0.27-1.37-0.69-2.15-0.72
					c-0.06,0-0.12-0.02-0.17-0.04c-0.95-0.31-1.91-0.58-2.92-0.69c-1.23-0.13-2.44-0.36-3.68-0.39c-1.69-0.04-3.36,0.04-5.03,0.32
					c-0.52,0.09-1.04,0.11-1.55,0.23c-1.03,0.25-2.04,0.54-3.06,0.83c-0.26,0.07-0.5,0.2-0.75,0.29c-0.47,0.17-0.94,0.34-1.4,0.52
					c-0.36,0.14-0.72,0.28-1.07,0.45c-0.6,0.3-1.2,0.63-1.79,0.96c-0.31,0.17-0.61,0.33-0.91,0.52c-0.23,0.14-0.44,0.31-0.66,0.46
					c-0.47,0.32-0.96,0.63-1.42,0.97c-0.4,0.3-0.77,0.63-1.15,0.95c-0.47,0.4-0.97,0.77-1.42,1.2c-0.45,0.42-0.87,0.88-1.29,1.34
					c-0.42,0.46-0.83,0.92-1.22,1.4c-0.32,0.39-0.61,0.81-0.91,1.22c-0.26,0.35-0.52,0.69-0.76,1.05c-0.2,0.3-0.38,0.61-0.56,0.92
					c-0.24,0.42-0.48,0.85-0.71,1.28c-0.17,0.31-0.33,0.62-0.49,0.92c-0.07,0.13-0.16,0.25-0.21,0.39c-0.18,0.59-0.56,1.1-0.69,1.71
					c0,0.01-0.01,0.03-0.02,0.04c-0.15,0.35-0.29,0.69-0.44,1.04c-0.08,0.17-0.01,0.28,0.14,0.36c0.49,0.26,0.96,0.54,1.45,0.8
					c0.32,0.17,0.64,0.32,0.97,0.47c0.25,0.11,0.27,0.1,0.32-0.16c0.03-0.12,0.06-0.25,0.1-0.37c0.25-0.66,0.5-1.32,0.77-1.97
					C41.75,69.25,41.93,68.92,42.1,68.59z"/>
			</g>
			<g>
				<path class="st0" d="M38.86,65.96c0.33-0.6,0.64-1.2,1.01-1.78c0.42-0.67,0.91-1.3,1.34-1.95c0.56-0.84,1.23-1.6,1.92-2.33
					c0.58-0.62,1.15-1.25,1.81-1.8c0.55-0.46,1.03-0.98,1.64-1.37c0.47-0.3,0.89-0.67,1.33-1.01c0.11-0.09,0.22-0.18,0.34-0.25
					c0.57-0.35,1.17-0.67,1.71-1.06c0.46-0.33,0.98-0.52,1.46-0.8c0.24-0.14,0.52-0.21,0.77-0.33c0.32-0.15,0.62-0.33,0.94-0.47
					c0.27-0.11,0.56-0.15,0.83-0.27c0.54-0.24,1.05-0.57,1.67-0.59c0.05,0,0.1-0.03,0.15-0.05c0.86-0.31,1.7-0.66,2.63-0.7
					c0.11,0,0.22-0.03,0.33-0.06c1.33-0.36,2.68-0.57,4.05-0.6c1.47-0.03,2.95,0.01,4.42,0.1c0.84,0.05,1.67,0.24,2.5,0.38
					c0.32,0.05,0.64,0.13,0.96,0.2c0.44,0.09,0.88,0.18,1.31,0.29c0.29,0.07,0.57,0.19,0.85,0.29c0.54,0.17,1.09,0.34,1.64,0.51
					c0.01,0,0.01,0,0.04-0.01c0.01-0.03,0.03-0.06,0.03-0.09c0.03-1.01,0.06-2.02,0.08-3.03c0-0.06-0.08-0.14-0.14-0.16
					c-0.27-0.12-0.55-0.24-0.83-0.33c-0.4-0.13-0.8-0.24-1.2-0.34c-0.29-0.07-0.59-0.11-0.88-0.17c-0.53-0.12-1.06-0.28-1.59-0.38
					c-0.52-0.09-1.05-0.13-1.58-0.17c-1.35-0.1-2.7-0.22-4.05-0.27c-0.85-0.03-1.71,0.04-2.55,0.13c-1.23,0.13-2.48,0.14-3.68,0.48
					c-0.75,0.21-1.51,0.34-2.26,0.53c-0.35,0.09-0.69,0.23-1.04,0.34c-0.39,0.12-0.8,0.19-1.18,0.34c-0.78,0.31-1.55,0.65-2.33,0.99
					c-0.39,0.17-0.79,0.35-1.17,0.54c-0.17,0.08-0.33,0.2-0.5,0.29c-0.23,0.11-0.47,0.19-0.69,0.32c-0.54,0.32-1.07,0.65-1.6,0.99
					c-0.13,0.08-0.24,0.18-0.36,0.26c-0.54,0.36-1.08,0.71-1.61,1.08c-0.35,0.24-0.68,0.52-1,0.79c-0.69,0.58-1.39,1.15-2.04,1.77
					c-0.59,0.56-1.12,1.17-1.67,1.77c-0.38,0.42-0.75,0.85-1.12,1.27c-0.18,0.2-0.35,0.4-0.51,0.62c-0.25,0.35-0.49,0.71-0.74,1.06
					c-0.41,0.6-0.84,1.2-1.23,1.81c-0.33,0.53-0.63,1.08-0.92,1.63c-0.42,0.8-0.83,1.61-1.22,2.42c-0.15,0.31-0.23,0.64-0.34,0.96
					c-0.02,0.06-0.05,0.13-0.09,0.18c-0.14,0.16-0.08,0.28,0.07,0.39c0.73,0.57,1.47,1.13,2.2,1.7c0.07,0.06,0.16,0.09,0.24,0.14
					c0.1-0.28,0.19-0.54,0.29-0.8c0.06-0.15,0.15-0.29,0.22-0.44c0.24-0.57,0.47-1.16,0.72-1.73
					C38.41,66.77,38.64,66.37,38.86,65.96z"/>
			</g>
			<g>
				<path class="st0" d="M34.97,64.47c0.42-0.74,0.84-1.48,1.27-2.21c0.23-0.4,0.49-0.78,0.74-1.17c0.18-0.27,0.37-0.52,0.56-0.78
					c0.33-0.45,0.65-0.91,1-1.35c0.26-0.33,0.54-0.63,0.81-0.95c0.28-0.33,0.54-0.68,0.83-1c0.34-0.37,0.71-0.72,1.08-1.07
					c0.64-0.61,1.27-1.22,1.93-1.8c0.44-0.39,0.93-0.72,1.4-1.08c0.16-0.12,0.3-0.27,0.47-0.38c0.43-0.28,0.89-0.52,1.28-0.84
					c0.42-0.34,0.88-0.61,1.34-0.87c0.15-0.08,0.27-0.23,0.42-0.29c0.66-0.23,1.17-0.75,1.86-0.92c0.05-0.01,0.09-0.05,0.14-0.07
					c0.28-0.14,0.55-0.3,0.84-0.43c0.26-0.12,0.54-0.17,0.79-0.31c0.53-0.29,1.08-0.51,1.66-0.66c0.22-0.06,0.43-0.17,0.65-0.24
					c0.34-0.12,0.67-0.24,1.02-0.34c0.34-0.1,0.7-0.16,1.04-0.25c0.3-0.08,0.6-0.21,0.9-0.27c1.05-0.19,2.1-0.4,3.16-0.54
					c1.06-0.14,2.13-0.24,3.19-0.3c1.23-0.07,2.45-0.04,3.67,0.1c0.94,0.11,1.87,0.26,2.8,0.39c0.44,0.06,0.88,0.08,1.31,0.18
					c0.7,0.16,1.38,0.38,2.07,0.57c0.42,0.11,0.84,0.21,1.26,0.32c0.01,0,0.03-0.01,0.08-0.03c-0.03-0.32-0.05-0.65-0.11-0.98
					c-0.11-0.72-0.24-1.43-0.37-2.14c-0.02-0.11-0.12-0.27-0.21-0.3c-0.54-0.16-1.1-0.28-1.65-0.41c-0.17-0.04-0.35-0.06-0.53-0.09
					c-0.84-0.17-1.66-0.39-2.51-0.48c-1.24-0.13-2.49-0.21-3.74-0.23c-1.22-0.02-2.45,0.06-3.68,0.1c-0.46,0.01-0.93-0.01-1.39,0.05
					c-0.86,0.11-1.71,0.27-2.57,0.42c-0.56,0.1-1.12,0.21-1.67,0.31c-0.89,0.16-1.69,0.64-2.61,0.7c-0.05,0-0.1,0.04-0.15,0.06
					c-0.64,0.24-1.24,0.59-1.93,0.7c-0.08,0.01-0.15,0.05-0.23,0.09c-0.31,0.15-0.62,0.3-0.93,0.44c-0.67,0.3-1.35,0.57-2,0.89
					c-0.62,0.31-1.21,0.66-1.82,1c-0.13,0.07-0.25,0.17-0.38,0.24c-0.53,0.32-1.08,0.61-1.59,0.95c-0.63,0.42-1.24,0.86-1.83,1.32
					c-0.72,0.57-1.43,1.16-2.12,1.75c-0.44,0.38-0.87,0.77-1.28,1.18c-0.72,0.72-1.45,1.45-2.13,2.21c-0.48,0.54-0.91,1.13-1.36,1.7
					c-0.28,0.35-0.57,0.7-0.82,1.07c-0.44,0.66-0.86,1.34-1.29,2.02c-0.33,0.52-0.67,1.04-0.97,1.58c-0.3,0.55-0.55,1.12-0.82,1.68
					c-0.01,0.03-0.03,0.05-0.04,0.08c-0.14,0.28-0.28,0.56-0.42,0.84c-0.1,0.2-0.06,0.38,0.1,0.55c0.6,0.66,1.2,1.33,1.8,2
					c0.09,0.1,0.2,0.18,0.31,0.28c0.03-0.05,0.05-0.06,0.06-0.08c0.31-0.73,0.62-1.45,0.93-2.18
					C34.73,64.95,34.84,64.71,34.97,64.47z"/>
			</g>
		</g>
	</g>
	<g>
		<path class="st0" d="M24.63,48.52c0.97-1.42,2-2.77,3.08-4.05c0.79-0.93,1.28-1.23,1.81-1.2c0.42,0.02,0.74,0.23,1.25,0.79
			c0.18,0.2,0.45,0.52,0.63,0.75c0.33,0.43,0.69,0.94,0.87,1.24c0.38,0.63,0.42,1.38,0.12,1.9c-0.16,0.28-0.3,0.47-0.67,0.89
			c-1.03,1.2-2.02,2.48-2.94,3.83C27.4,51.29,26.01,49.91,24.63,48.52z M30.48,48.13c0.29-0.34,0.31-0.37,0.39-0.57
			c0.17-0.4,0.05-0.72-0.61-1.51c-0.8-0.96-1.11-1.02-1.75-0.26c-0.63,0.75-1.24,1.52-1.83,2.32c0.69,0.73,1.38,1.47,2.08,2.2
			C29.32,49.56,29.89,48.83,30.48,48.13z"/>
		<path class="st0" d="M35.28,37.46c0.79-0.36,1.38-0.17,1.96,0.61c0.15,0.19,0.41,0.61,0.78,1.25c0.74,1.27,0.92,1.85,0.79,2.47
			c-0.09,0.45-0.36,0.81-0.93,1.29c-0.21,0.18-0.74,0.6-1.12,0.92c-0.94,0.77-1.41,1.18-1.68,1.33c-0.49,0.29-0.88,0.32-1.28,0.1
			c-0.41-0.21-0.71-0.53-1.5-1.58c-0.6-0.81-0.75-1.02-0.91-1.41c-0.27-0.62-0.24-1.13,0.11-1.72c0.26-0.44,0.62-0.83,1.76-1.78
			C34.51,37.89,34.93,37.63,35.28,37.46z M32.95,41.4c-0.06,0.3,0.07,0.59,0.57,1.3c0.51,0.73,0.75,0.94,1,0.97
			c0.27,0.03,0.48-0.13,1.4-0.9c1.06-0.86,1.26-1.06,1.25-1.42c0.01-0.27-0.12-0.56-0.55-1.25c-0.8-1.29-0.84-1.33-2.45-0.04
			C33.23,40.85,33.01,41.12,32.95,41.4z"/>
		<path class="st0" d="M38.79,35.11c0.53-0.31,1.07-0.61,1.62-0.9c1.32,1.04,2.59,2.12,3.83,3.24c-0.01-1.69,0.04-3.39,0.14-5.09
			c0.58-0.23,1.16-0.45,1.74-0.65c-0.24,2.24-0.38,4.48-0.42,6.71c-0.59,0.25-1.17,0.53-1.74,0.81
			C42.31,37.79,40.58,36.41,38.79,35.11z"/>
		<path class="st0" d="M48.59,30.93c0.72-0.2,1.45-0.39,2.19-0.55c1.56,1.72,3.04,3.5,4.44,5.32c-0.56,0.08-1.11,0.18-1.66,0.29
			c-0.26-0.32-0.52-0.63-0.79-0.94c-1.08,0.23-2.14,0.49-3.19,0.81c-0.04,0.39-0.07,0.78-0.1,1.17c-0.55,0.17-1.09,0.36-1.63,0.55
			C47.98,35.36,48.23,33.14,48.59,30.93z M51.87,33.95c-0.6-0.69-1.2-1.38-1.82-2.05c-0.13,0.87-0.25,1.74-0.34,2.6
			C50.42,34.29,51.14,34.11,51.87,33.95z"/>
		<path class="st0" d="M54.87,29.67c0.56-0.07,1.13-0.13,1.7-0.18c0.3,1.48,0.59,2.97,0.89,4.45c1.2-0.1,2.41-0.15,3.64-0.14
			c0.07,0.49,0.13,0.98,0.2,1.47c-1.72-0.01-3.42,0.09-5.09,0.3C55.77,33.6,55.32,31.63,54.87,29.67z"/>
		<path class="st0" d="M68.16,30.01c0.01,0.44,0.02,0.89,0.02,1.33c-1.55-0.26-3.1-0.45-4.63-0.55c0.03,0.34,0.06,0.68,0.09,1.02
			c1.42,0.1,2.85,0.26,4.29,0.5c0.01,0.39,0.02,0.77,0.03,1.16c-1.41-0.23-2.82-0.4-4.21-0.49c0.03,0.35,0.06,0.7,0.1,1.05
			c1.47,0.1,2.96,0.28,4.45,0.54c0.01,0.44,0.02,0.88,0.02,1.33c-1.99-0.34-3.97-0.54-5.92-0.6c-0.24-1.98-0.47-3.95-0.71-5.93
			C63.82,29.43,65.98,29.64,68.16,30.01z"/>
	</g>
</g>
</svg>
