<?xml version="1.0" encoding="utf-8"?>
<!-- Generator: Adobe Illustrator 27.5.0, SVG Export Plug-In . SVG Version: 6.00 Build 0)  -->
<svg version="1.1" id="Layer_1" xmlns="http://www.w3.org/2000/svg" xmlns:xlink="http://www.w3.org/1999/xlink" x="0px" y="0px"
	 viewBox="0 0 100.27 100.27" style="enable-background:new 0 0 100.27 100.27;" xml:space="preserve">
<style type="text/css">
	.st0{fill:#FFFFFF;}
	.st1{fill:#020304;}
</style>
<g>
	<path class="st0" d="M28.23,20.54c-3.93,0-7.54,1.73-10.44,4.99c-1.91,2.15-3.41,4.88-4.34,7.88c-0.91,2.95-1.22,5.97-0.89,8.72
		c0.5,4.19,0.95,8.06,1.38,11.82c0.23,2.04,0.45,4.06,0.67,6.01c0.06,0.56,0.14,1.1,0.22,1.63c0.15,1.01,0.29,1.97,0.28,2.9
		c0,0.62-0.16,1.27-0.32,1.96c-0.19,0.83-0.39,1.7-0.39,2.66c0,5.85,4.76,10.6,10.6,10.6c3.53,0,6.82-1.77,8.78-4.67h44.75
		c1.93,0,3.49-1.57,3.49-3.49V61.43h2.32c1.93,0,3.49-1.57,3.49-3.49V44.34c0-1.93-1.57-3.49-3.49-3.49H80V30.44
		c0-1.93-1.57-3.49-3.49-3.49H36.36c-0.28-1.45-0.96-2.79-1.98-3.88c-1.37-1.47-3.25-2.36-5.28-2.49l-0.03,0
		C28.79,20.55,28.51,20.54,28.23,20.54L28.23,20.54z"/>
	<path class="st1" d="M28.23,22.08c0.25,0,0.5,0.01,0.75,0.02c0.01,0,0.02,0,0.03,0c3.39,0.23,5.97,3.01,5.97,6.38h41.53
		c1.08,0,1.96,0.88,1.96,1.96v11.78c0,0.06,0,0.11-0.01,0.17h5.89c1.08,0,1.96,0.88,1.96,1.96v13.59c0,1.08-0.88,1.96-1.96,1.96
		h-3.86v11.68c0,1.08-0.88,1.96-1.96,1.96H32.93c-1.55,2.78-4.52,4.67-7.93,4.67c-5,0-9.07-4.07-9.07-9.07
		c0-1.57,0.7-3.03,0.71-4.61c0.01-1.59-0.34-3.15-0.51-4.71c-0.22-2.01-0.44-4.01-0.67-6.02c-0.45-3.94-0.91-7.89-1.38-11.83
		C13.07,33.49,18.76,22.08,28.23,22.08 M28.23,20.54c-3.93,0-7.54,1.73-10.44,4.99c-1.91,2.15-3.41,4.88-4.34,7.88
		c-0.91,2.95-1.22,5.97-0.89,8.72c0.5,4.19,0.95,8.06,1.38,11.82c0.23,2.04,0.45,4.06,0.67,6.01c0.06,0.56,0.14,1.1,0.22,1.63
		c0.15,1.01,0.29,1.97,0.28,2.9c0,0.62-0.16,1.27-0.32,1.96c-0.19,0.83-0.39,1.7-0.39,2.66c0,5.85,4.76,10.6,10.6,10.6
		c3.53,0,6.82-1.77,8.78-4.67h44.75c1.93,0,3.49-1.57,3.49-3.49V61.43h2.32c1.93,0,3.49-1.57,3.49-3.49V44.34
		c0-1.93-1.57-3.49-3.49-3.49H80V30.44c0-1.93-1.57-3.49-3.49-3.49H36.36c-0.28-1.45-0.96-2.79-1.98-3.88
		c-1.37-1.47-3.25-2.36-5.28-2.49l-0.03,0C28.79,20.55,28.51,20.54,28.23,20.54L28.23,20.54z"/>
	<g>
		<path class="st1" d="M37.97,33.49v1.56h-1.73v1.93h1.36v1.6h-1.36v2.19h1.82v1.6h-3.4v-8.89H37.97z"/>
		<path class="st1" d="M41.57,33.38c1.24,0,1.71,0.55,1.71,1.74v1.19h-1.53v-1.11c0-0.29-0.06-0.47-0.35-0.47
			c-0.27,0-0.35,0.18-0.35,0.48v0.2c0,0.42,0.1,0.7,0.49,1.15l0.91,1.02c0.8,0.91,0.97,1.5,0.97,2.28v0.42c0,1.34-0.61,2.2-1.93,2.2
			h-0.31c-1.21,0-1.82-0.64-1.82-1.84v-1.6h1.56v1.42c0,0.36,0.13,0.54,0.41,0.54c0.26,0,0.39-0.21,0.39-0.64v-0.17
			c0-0.62-0.04-0.87-0.51-1.39l-0.92-1.01c-0.67-0.72-0.85-1.4-0.85-2.26v-0.38c0-1.15,0.69-1.77,1.8-1.77H41.57z"/>
		<path class="st1" d="M46.44,38.81v3.56h-1.59v-8.89h2.26c1.35,0,1.64,0.66,1.64,1.76v1.78c0,1.1-0.44,1.79-1.55,1.79H46.44z
			 M46.44,37.37h0.3c0.37,0,0.41-0.23,0.41-0.5v-1.48c0-0.32-0.04-0.53-0.41-0.53h-0.3V37.37z"/>
		<path class="st1" d="M52.09,40.88h-0.96l-0.14,1.49h-1.41l1.12-8.89h1.89l1.21,8.89h-1.54L52.09,40.88z M51.29,39.35h0.64
			l-0.33-3.05L51.29,39.35z"/>
		<path class="st1" d="M55.09,33.49h2.26c1.19,0,1.73,0.55,1.73,1.9v5.02c0,1.28-0.44,1.97-1.73,1.97h-2.26V33.49z M56.68,40.89
			h0.31c0.37,0,0.47-0.19,0.47-0.62v-4.78c0-0.43-0.12-0.6-0.42-0.6h-0.36V40.89z"/>
		<path class="st1" d="M62.81,40.88h-0.96l-0.14,1.49H60.3l1.12-8.89h1.89l1.21,8.89h-1.54L62.81,40.88z M62.01,39.35h0.65
			l-0.33-3.05L62.01,39.35z"/>
		<path class="st1" d="M68.02,39.63c0-1.09,0.44-1.73,1.15-2.26c-0.35-0.75-0.53-1.29-0.53-2.05v-0.33c0-0.69,0.3-1.6,1.53-1.6h0.26
			c1.15,0,1.48,0.64,1.48,1.6v0.16c0,0.97-0.24,1.45-1.21,2.25l0.98,2.15c0.1-0.76,0.07-1.66,0.07-2.47h1.34
			c-0.04,1.73-0.16,2.93-0.55,3.93c0.23,0.18,0.45,0.24,0.73,0.29c-0.06,0.2-0.11,0.41-0.14,0.58c-0.08,0.32-0.16,0.65-0.19,0.73
			c-0.56-0.08-0.94-0.2-1.27-0.48c-0.24,0.23-0.62,0.39-1.21,0.39h-0.16c-1.45,0-2.29-0.86-2.29-2.45V39.63z M70.98,41.11
			l-1.31-2.69c-0.08,0.23-0.16,0.53-0.16,0.91v0.31c0,1.1,0.38,1.55,1.05,1.55C70.74,41.19,70.87,41.17,70.98,41.11z M70,35.25
			c0,0.45,0.06,0.68,0.29,1.19c0.27-0.38,0.32-0.63,0.32-1.21v-0.18c0-0.39-0.06-0.51-0.3-0.51c-0.24,0-0.31,0.13-0.31,0.51V35.25z"
			/>
		<path class="st1" d="M34.65,46.33h3.4v1.55h-1.82v1.93h1.34v1.6h-1.34v3.8h-1.59V46.33z"/>
		<path class="st1" d="M42.34,46.33v1.56h-1.73v1.93h1.36v1.6h-1.36v2.19h1.82v1.6h-3.4v-8.89H42.34z"/>
		<path class="st1" d="M44.97,55.22h-1.59v-8.89h1.59V55.22z"/>
		<path class="st1" d="M49.77,46.33v1.56h-1.13v7.32h-1.59V47.9h-1.13v-1.56H49.77z"/>
		<path class="st1" d="M52.3,55.22h-1.59v-8.89h1.59V55.22z"/>
		<path class="st1" d="M55.82,51.3h1.58v2.01c0,1.05-0.44,2.05-1.84,2.05h-0.32c-1.53,0-1.87-0.99-1.87-2.1v-5.02
			c0-1.08,0.48-2.02,1.87-2.02h0.32c1.53,0,1.84,0.94,1.84,1.96v1.49h-1.58v-1.43c0-0.33-0.11-0.51-0.41-0.51
			c-0.3,0-0.39,0.17-0.39,0.51v5.02c0,0.36,0.13,0.54,0.41,0.54c0.29,0,0.39-0.21,0.39-0.54V51.3z M54.57,57.46v-0.75h0.6
			c0.18,0,0.26-0.07,0.26-0.2V56.5c0-0.12-0.08-0.18-0.26-0.18h-0.42v-1.1h0.72v0.43h0.04c0.63,0.02,0.94,0.31,0.94,0.86v0.04
			c0,0.62-0.48,0.92-1.15,0.92H54.57z"/>
		<path class="st1" d="M60.64,53.73h-0.96l-0.14,1.49h-1.41l1.12-8.89h1.89l1.21,8.89H60.8L60.64,53.73z M59.84,52.2h0.64
			l-0.33-3.05L59.84,52.2z"/>
		<path class="st1" d="M64.75,55.22h-1.59v-8.89h2.51c0.97,0,1.46,0.53,1.46,1.48v1.42c0,0.74-0.41,1.06-0.7,1.19
			c0.25,0.1,0.68,0.39,0.68,1.05v3.02c0,0.38,0.07,0.55,0.13,0.66v0.06h-1.59c-0.08-0.1-0.14-0.29-0.14-0.68v-2.59
			c0-0.42-0.1-0.53-0.42-0.53h-0.33V55.22z M64.75,49.95h0.31c0.32,0,0.44-0.12,0.44-0.54v-1.21c0-0.38-0.07-0.5-0.39-0.5h-0.36
			V49.95z"/>
		<path class="st1" d="M69.76,55.22h-1.59v-8.89h1.59V55.22z"/>
		<path class="st1" d="M73.09,53.73h-0.96l-0.14,1.49h-1.41l1.12-8.89h1.89l1.21,8.89h-1.54L73.09,53.73z M72.29,52.2h0.65
			l-0.33-3.05L72.29,52.2z"/>
		<path class="st1" d="M77.34,52.47c0-1.09,0.44-1.73,1.15-2.26c-0.35-0.75-0.53-1.29-0.53-2.05v-0.33c0-0.69,0.3-1.6,1.53-1.6h0.26
			c1.15,0,1.48,0.64,1.48,1.6v0.16c0,0.97-0.24,1.45-1.21,2.25l0.98,2.15c0.1-0.76,0.07-1.66,0.07-2.47h1.34
			c-0.04,1.73-0.16,2.93-0.55,3.93c0.23,0.18,0.45,0.24,0.73,0.29c-0.06,0.2-0.11,0.41-0.14,0.58c-0.08,0.32-0.16,0.65-0.19,0.73
			c-0.56-0.08-0.94-0.2-1.27-0.48c-0.24,0.23-0.62,0.39-1.21,0.39h-0.16c-1.45,0-2.29-0.86-2.29-2.45V52.47z M80.3,53.95l-1.31-2.69
			c-0.08,0.23-0.16,0.53-0.16,0.91v0.31c0,1.1,0.38,1.55,1.05,1.55C80.06,54.04,80.2,54.01,80.3,53.95z M79.32,48.1
			c0,0.45,0.06,0.68,0.29,1.19c0.27-0.38,0.32-0.63,0.32-1.21v-0.18c0-0.39-0.06-0.51-0.3-0.51c-0.24,0-0.31,0.13-0.31,0.51V48.1z"
			/>
		<path class="st1" d="M36.24,64.51v3.56h-1.59v-8.89h2.26c1.35,0,1.64,0.66,1.64,1.76v1.78c0,1.1-0.44,1.79-1.55,1.79H36.24z
			 M36.24,63.06h0.3c0.37,0,0.41-0.23,0.41-0.5v-1.48c0-0.32-0.04-0.53-0.41-0.53h-0.3V63.06z"/>
		<path class="st1" d="M41.89,66.57h-0.96l-0.14,1.49h-1.41l1.12-8.89h1.89l1.21,8.89h-1.54L41.89,66.57z M41.09,65.04h0.64L41.4,62
			L41.09,65.04z"/>
		<path class="st1" d="M46.49,68.07H44.9v-8.89h2.51c0.97,0,1.46,0.53,1.46,1.48v1.42c0,0.74-0.41,1.06-0.7,1.19
			c0.25,0.1,0.68,0.39,0.68,1.05v3.02c0,0.38,0.07,0.55,0.13,0.66v0.06h-1.59c-0.08-0.1-0.14-0.29-0.14-0.68v-2.59
			c0-0.42-0.1-0.53-0.42-0.53h-0.33V68.07z M46.49,62.8h0.31c0.32,0,0.44-0.12,0.44-0.54v-1.21c0-0.38-0.07-0.5-0.39-0.5h-0.36V62.8
			z"/>
		<path class="st1" d="M52.67,66.57h-0.96l-0.14,1.49h-1.41l1.12-8.89h1.89l1.21,8.89h-1.54L52.67,66.57z M51.87,65.04h0.65
			L52.18,62L51.87,65.04z"/>
		<path class="st1" d="M57.17,59.18l1.09,4.54v-4.54h1.41v8.89h-1.35l-1.23-4.87v4.87h-1.41v-8.89H57.17z"/>
		<path class="st1" d="M63.48,66.57h-0.96l-0.14,1.49h-1.41l1.12-8.89h1.89l1.21,8.89h-1.54L63.48,66.57z M62.68,65.04h0.64
			L62.99,62L62.68,65.04z"/>
		<path class="st1" d="M66.41,59.18h1.64v6.88c0,0.37,0.13,0.55,0.39,0.55c0.25,0,0.38-0.18,0.38-0.55v-6.88h1.64V66
			c0,1.48-0.69,2.2-1.84,2.2h-0.39c-1.16,0-1.82-0.72-1.82-2.2V59.18z"/>
		<path class="st1" d="M75.35,59.18v1.56h-1.73v1.93h1.36v1.6h-1.36v2.19h1.82v1.6h-3.4v-8.89H75.35z M75.11,58.87h-1.06l-0.33-0.56
			l-0.32,0.56h-1.06l0.78-1.37h1.22L75.11,58.87z"/>
	</g>
	<g>
		<g>
			<path class="st0" d="M27.42,58.19l1.15-29.71c0,0-8-0.54-7.46,11.67c0.6,13.34,0.89,18.04,0.89,18.04H27.42z"/>
			<path class="st1" d="M28.23,57.58c0-0.13-0.05-0.24-0.13-0.33l1.12-28.74c0.01-0.35-0.25-0.64-0.6-0.67
				c-0.12-0.01-2.89-0.17-5.2,2.09c-2.16,2.11-3.15,5.56-2.94,10.25c0.43,9.74,0.71,14.91,0.83,16.97
				c-0.14,0.09-0.24,0.25-0.24,0.43v1.92c0,0.17,0.08,0.32,0.22,0.42l1.24,0.88c-0.44,1.53-0.28,3.99,0.42,5.72
				c-0.77,0.61-1.26,1.54-1.26,2.6c0,1.83,1.49,3.32,3.32,3.32c1.8,0,3.26-1.44,3.31-3.22c0.01-0.05,0.02-0.09,0.02-0.14
				L28.23,57.58z M24.3,30.87c1.29-1.27,2.78-1.62,3.6-1.71l-1.08,27.91h-4.23c-0.12-2.06-0.39-7.22-0.83-16.94
				C21.57,35.83,22.43,32.72,24.3,30.87z"/>
		</g>
		<g>
			<path class="st0" d="M31.41,50.71c-2.7-0.54-3.56-0.27-5.48,1.69c0.54-2.7,0.27-3.56-1.69-5.48c2.7,0.54,3.56,0.27,5.48-1.69
				C29.18,47.92,29.44,48.78,31.41,50.71z"/>
			<path class="st1" d="M25.92,52.88c-0.08,0-0.15-0.02-0.22-0.06c-0.19-0.1-0.29-0.31-0.25-0.52c0.5-2.53,0.29-3.24-1.56-5.05
				c-0.15-0.15-0.19-0.38-0.09-0.57c0.1-0.19,0.31-0.29,0.52-0.25c2.53,0.5,3.24,0.29,5.05-1.56c0.15-0.15,0.38-0.19,0.57-0.09
				c0.19,0.1,0.29,0.31,0.25,0.52c-0.5,2.53-0.29,3.24,1.56,5.05c0.15,0.15,0.19,0.38,0.09,0.57c-0.1,0.19-0.31,0.29-0.52,0.25
				c-2.53-0.5-3.24-0.28-5.05,1.56C26.17,52.83,26.05,52.88,25.92,52.88z M25.52,47.6c0.93,1.12,1.22,2.05,1.08,3.5
				c1.12-0.93,2.05-1.22,3.5-1.08c-0.93-1.12-1.22-2.05-1.08-3.5C27.91,47.45,26.98,47.74,25.52,47.6z"/>
		</g>
		<g>
			<path class="st0" d="M22.51,43.5c-1.65-1.26-2.32-1.37-4.28-0.68c1.26-1.65,1.37-2.32,0.68-4.28c1.65,1.26,2.32,1.37,4.28,0.68
				C21.93,40.87,21.82,41.54,22.51,43.5z"/>
			<path class="st1" d="M22.51,43.98c-0.1,0-0.21-0.03-0.29-0.1c-1.52-1.16-2.02-1.24-3.82-0.61c-0.2,0.07-0.42,0-0.55-0.17
				c-0.12-0.17-0.12-0.4,0.01-0.57c1.16-1.52,1.24-2.02,0.61-3.83c-0.07-0.2,0-0.42,0.17-0.55c0.17-0.12,0.4-0.12,0.57,0.01
				c1.52,1.16,2.02,1.24,3.83,0.61c0.2-0.07,0.42,0,0.55,0.17c0.12,0.17,0.12,0.4-0.01,0.57c-1.16,1.52-1.24,2.02-0.61,3.82
				c0.07,0.2,0,0.42-0.17,0.55C22.7,43.95,22.6,43.98,22.51,43.98z M20.1,41.92c0.54,0,1.03,0.14,1.58,0.45
				c-0.17-0.88-0.06-1.54,0.37-2.32c-0.88,0.17-1.54,0.06-2.32-0.37c0.17,0.88,0.06,1.54-0.37,2.32
				C19.63,41.95,19.87,41.92,20.1,41.92z"/>
		</g>
	</g>
</g>
</svg>
