<?xml version="1.0" encoding="utf-8"?>
<!-- Generator: Adobe Illustrator 27.5.0, SVG Export Plug-In . SVG Version: 6.00 Build 0)  -->
<svg version="1.1" id="Layer_1" xmlns="http://www.w3.org/2000/svg" xmlns:xlink="http://www.w3.org/1999/xlink" x="0px" y="0px"
	 viewBox="0 0 100.27 100.27" style="enable-background:new 0 0 100.27 100.27;" xml:space="preserve">
<style type="text/css">
	.st0{fill:#020304;}
	.st1{fill:none;stroke:#000000;stroke-width:14.8416;stroke-linecap:round;stroke-miterlimit:10;}
	.st2{fill:#FFFFFF;}
	.st3{fill:#FFFFFF;stroke:#000000;stroke-width:2.9683;stroke-miterlimit:10;}
</style>
<g>
	<path class="st0" d="M79.09,49.12H21.17l5.82,17.64c0.76,2.89,0.76,8.54,23.14,8.54c22.6,0,22.6-5.66,23.35-8.58L79.09,49.12z"/>
	<path class="st1" d="M36.91,26.2"/>
	<g>
		<path class="st2" d="M80.13,65.19c-0.28,0-0.96-0.08-1.44-0.85c-0.59-0.94-0.54-2.22-0.49-3.84c0.05-1.48,0.12-3.29-0.41-4.61
			c-8.43-3.48-18-5.31-27.69-5.31c-9.68,0-19.27,1.83-27.76,5.29c-0.75,2.06-0.71,4.4,0.14,6.38l0.05,0.12
			c0.26,0.78-0.02,1.33-0.2,1.58c-0.31,0.42-0.8,0.67-1.34,0.67c-0.12,0-0.26-0.01-0.42-0.04c-0.52-0.13-1.11-0.4-1.62-0.98
			l-0.28,0.29l-0.72,0.03c-0.35,0-0.64-0.11-0.82-0.19c-0.77-0.31-1.23-0.75-1.44-1.32l-0.07,0.25l-1.58-0.68
			c-0.85-0.36-1.23-0.96-1.4-1.4c-0.25-0.65-0.22-1.41,0.08-2.16c0.86-3.03,3.21-5.49,6.27-6.62c2.92-16.46,15.85-28.3,31.04-28.3
			c2.59,0,5.23,0.34,7.86,1c11.75,2.97,20.86,13.73,23.4,27.56c3.25,1.17,5.75,4.06,6.51,7.61l0.02,0.1l0.01,0.1
			c0.04,0.55-0.11,1.35-0.63,1.91c-0.36,0.39-0.84,0.6-1.36,0.6c-0.26,0-0.52-0.05-0.76-0.16l-0.33-0.14c0,0.39-0.04,0.72-0.13,0.95
			c-0.25,0.66-0.85,1.09-1.52,1.09h-0.4l-0.44-0.23c-0.14-0.08-0.27-0.18-0.38-0.29c-0.08,0.31-0.17,0.56-0.28,0.74
			C81.25,64.87,80.72,65.19,80.13,65.19L80.13,65.19z"/>
		<path d="M50.02,24.98c2.42,0,4.93,0.31,7.49,0.95C70.24,29.15,78,41.03,79.96,53.21c3.23,0.79,5.68,3.56,6.36,6.76
			c0.02,0.35-0.14,0.92-0.51,0.92c-0.05,0-0.11-0.01-0.17-0.04c0,0-2.2-5.02-4.69-6.29c-0.01,0.02-0.03,0.04-0.04,0.06
			c1.42,1.24,2.88,8,2.15,8c-0.03,0-0.06-0.01-0.09-0.03c-0.93-0.54-1.1-5.29-2.83-7.46c-0.03,0.01-0.06,0.03-0.1,0.04
			c0.94,1.68,0.77,8.53,0.08,8.53c-0.06,0-0.12-0.05-0.18-0.15c-0.84-1.34,0.56-5.9-1.06-8.82c-8.93-3.77-18.86-5.64-28.79-5.65
			c-9.97,0-19.94,1.89-28.9,5.64c-1.13,2.54-1.18,5.54-0.08,8.09c0.07,0.21,0.03,0.3-0.13,0.3c-0.04,0-0.08,0-0.13-0.01
			c-2.37-0.6-1.7-6.42-0.7-8.15c-0.02-0.02-0.04-0.03-0.06-0.05c-1.75,1.91-2.24,4.67-2.02,7.21c0.01,0.21-0.02,0.31-0.13,0.31
			c-0.05,0-0.12-0.02-0.22-0.06c-0.29-0.13-0.64-0.2-0.67-0.61c-0.42-2.7,0.48-5.28,2.16-7.38c-0.03-0.02-0.06-0.04-0.09-0.07
			c-2.31,1.47-3.82,3.67-4.51,6.31c-0.8-0.34-0.78-1.09-0.5-1.7c0.8-2.94,3.27-5.19,6.18-5.98C22.7,37.25,34.69,24.98,50.02,24.98
			 M50.02,22.01L50.02,22.01c-15.67,0-29.03,11.97-32.35,28.72c-3.09,1.4-5.44,4.03-6.36,7.21c-0.42,1.08-0.44,2.2-0.06,3.18
			c0.39,0.99,1.17,1.78,2.2,2.22l1.45,0.62c0.36,0.42,0.86,0.81,1.58,1.1c0.51,0.23,0.98,0.34,1.46,0.34c0.24,0,0.48-0.03,0.72-0.08
			c0.44,0.31,0.94,0.54,1.47,0.67l0.08,0.02l0.08,0.02c0.24,0.05,0.47,0.07,0.7,0.07c1.03,0,1.95-0.47,2.54-1.28
			c0.6-0.82,0.75-1.89,0.41-2.91l-0.04-0.13l-0.05-0.12c-0.62-1.44-0.72-3.12-0.3-4.67c8.15-3.22,17.31-4.92,26.56-4.92
			c9.26,0,18.39,1.71,26.48,4.94c0.22,1,0.18,2.33,0.14,3.45c-0.06,1.8-0.12,3.35,0.71,4.68c0.61,0.97,1.62,1.55,2.7,1.55
			c0.93,0,1.79-0.41,2.39-1.13c0.18,0.03,0.37,0.05,0.55,0.05c1.19,0,2.24-0.67,2.77-1.73c0.92-0.01,1.78-0.39,2.42-1.07
			c0.72-0.77,1.11-1.9,1.03-3.03l-0.01-0.21l-0.04-0.2c-0.8-3.76-3.32-6.87-6.65-8.37c-2.85-14.01-12.25-24.87-24.34-27.92
			C55.49,22.37,52.73,22.01,50.02,22.01L50.02,22.01z"/>
	</g>
	<path class="st3" d="M56.42,35.37c0-3.26-2.65-6.18-6.25-6.24c-3.56-0.06-6.28,2.87-6.36,6c-0.09,3.82,2.86,6.47,6.27,6.5
		C53.52,41.65,56.31,39.02,56.42,35.37z"/>
	<path class="st3" d="M34.04,46.27c2.54,0.02,4.66-2.09,4.69-4.67c0.03-2.45-2.13-4.61-4.64-4.64c-2.51-0.03-4.68,2.08-4.71,4.56
		C29.35,44.22,31.46,46.21,34.04,46.27z"/>
	<path class="st3" d="M66.18,46.26c2.67-0.04,4.61-2.15,4.66-4.61c0.06-2.68-2.22-4.7-4.72-4.69c-2.56,0.02-4.6,2.02-4.62,4.57
		C61.48,44.24,63.49,46.16,66.18,46.26z"/>
	<polygon class="st0" points="50.14,30.57 51.22,33.9 54.72,33.9 51.89,35.96 52.97,39.29 50.14,37.24 47.3,39.29 48.38,35.96 
		45.55,33.9 49.05,33.9 	"/>
	<polygon class="st0" points="34.06,38.4 34.78,40.63 37.12,40.63 35.23,42.01 35.95,44.24 34.06,42.86 32.16,44.24 32.88,42.01 
		30.99,40.63 33.33,40.63 	"/>
	<polygon class="st0" points="66.17,38.4 66.89,40.63 69.24,40.63 67.34,42.01 68.07,44.24 66.17,42.86 64.27,44.24 65,42.01 
		63.1,40.63 65.45,40.63 	"/>
	<g>
		<g>
			<path class="st2" d="M29.31,56.57c1.01-0.26,2.01-0.5,3.03-0.73c0.06,0.26,0.12,0.52,0.17,0.78c-1,0.22-2,0.46-3,0.72
				c0.23,0.88,0.46,1.76,0.69,2.65c-0.32,0.08-0.63,0.17-0.95,0.25c-0.55-2.02-1.11-4.04-1.66-6.07c1.42-0.39,2.84-0.74,4.28-1.05
				c0.06,0.26,0.12,0.53,0.17,0.79c-1.08,0.24-2.15,0.5-3.23,0.77C28.98,55.32,29.15,55.95,29.31,56.57z"/>
			<path class="st2" d="M34.59,57.69c-0.06,0.44-0.13,0.88-0.19,1.33c-0.34,0.07-0.67,0.14-1.01,0.21c0.28-2.21,0.62-4.42,1.02-6.62
				c0.5-0.09,1.01-0.19,1.51-0.27c1.15,1.93,2.24,3.88,3.28,5.85c-0.33,0.05-0.67,0.1-1,0.15c-0.21-0.39-0.43-0.79-0.64-1.18
				C36.57,57.32,35.58,57.5,34.59,57.69z M35.32,53.21c-0.22,1.24-0.43,2.48-0.62,3.71c0.83-0.16,1.67-0.31,2.51-0.45
				C36.6,55.38,35.97,54.29,35.32,53.21z"/>
			<path class="st2" d="M38.97,51.88c1.1-0.15,2.2-0.27,3.3-0.38c1.57-0.15,2.15,0.31,2.24,1.66c0.08,1.21-0.14,1.58-1.04,1.81
				c0,0.01,0,0.02,0,0.03c0.72-0.02,1.12,0.38,1.17,1.13c0.04,0.49,0.07,0.98,0.11,1.48c-0.33,0.02-0.65,0.05-0.98,0.08
				c-0.04-0.42-0.07-0.85-0.11-1.27c-0.04-0.74-0.41-1.03-1.19-0.92c-0.66,0.06-1.32,0.14-1.98,0.22c0.09,0.76,0.19,1.52,0.28,2.28
				c-0.32,0.04-0.64,0.08-0.97,0.12C39.52,56.03,39.24,53.95,38.97,51.88z M42.34,54.66c0.44-0.04,0.72-0.12,0.9-0.27
				c0.24-0.19,0.29-0.4,0.25-0.95c-0.06-0.73-0.15-0.94-0.46-1.07c-0.16-0.06-0.42-0.08-0.75-0.04c-0.73,0.07-1.45,0.15-2.18,0.24
				c0.09,0.77,0.19,1.54,0.28,2.31C41.04,54.8,41.69,54.73,42.34,54.66z"/>
			<path class="st2" d="M50.09,51.26c0.6,0.23,0.92,0.7,1.04,1.46c0.05,0.28,0.06,0.58,0.05,1.41c-0.01,1.26-0.03,1.52-0.13,1.98
				c-0.13,0.55-0.44,0.92-0.9,1.12c-0.41,0.17-0.8,0.22-1.71,0.24c-1.05,0.03-1.41,0-1.84-0.16c-0.47-0.18-0.78-0.53-0.93-1.05
				c-0.13-0.44-0.17-0.68-0.24-1.86c-0.09-1.52-0.06-1.92,0.22-2.41c0.22-0.39,0.63-0.67,1.2-0.8c0.24-0.06,0.81-0.11,1.41-0.12
				C49.26,51.05,49.69,51.1,50.09,51.26z M50.16,54.24c0-0.29,0-0.58,0-0.88c0-0.69-0.17-1.14-0.47-1.31
				c-0.26-0.14-0.54-0.17-1.56-0.14c-1.19,0.04-1.48,0.16-1.65,0.68c-0.1,0.32-0.1,0.43-0.04,1.77c0.06,1.17,0.06,1.17,0.12,1.49
				c0.09,0.4,0.25,0.64,0.54,0.73c0.24,0.09,0.5,0.1,1.27,0.08c0.88-0.02,1.16-0.06,1.38-0.22c0.26-0.18,0.41-0.66,0.41-1.31
				C50.16,54.82,50.16,54.53,50.16,54.24z"/>
			<path class="st2" d="M53.2,53.84c1.08,0.03,2.15,0.09,3.23,0.17c-0.02,0.25-0.03,0.5-0.05,0.74c-1.07-0.08-2.13-0.13-3.2-0.16
				c-0.02,0.68-0.04,1.36-0.07,2.04c1.1,0.04,2.19,0.09,3.29,0.17c-0.02,0.27-0.04,0.54-0.06,0.81c-1.41-0.1-2.81-0.17-4.22-0.2
				c0.04-2.1,0.08-4.19,0.13-6.29c1.51,0.03,3.02,0.1,4.53,0.21c-0.02,0.27-0.04,0.54-0.06,0.81c-1.15-0.08-2.3-0.14-3.45-0.18
				C53.24,52.58,53.22,53.21,53.2,53.84z"/>
			<path class="st2" d="M61.38,53.57c0.05-0.42,0.04-0.57-0.04-0.74c-0.13-0.25-0.42-0.37-1.23-0.46c-1.4-0.15-1.68-0.02-1.75,0.81
				c-0.05,0.5,0.06,0.75,0.38,0.89c0.18,0.09,0.27,0.1,1.3,0.26c1.16,0.19,1.52,0.31,1.8,0.57c0.33,0.31,0.41,0.71,0.3,1.46
				c-0.13,0.91-0.35,1.32-0.81,1.53c-0.4,0.18-0.86,0.18-2.07,0.04c-0.99-0.11-1.34-0.19-1.71-0.45c-0.23-0.16-0.41-0.48-0.45-0.8
				c-0.04-0.29-0.03-0.47,0-0.98c0.32,0.03,0.65,0.05,0.97,0.08c-0.05,0.56-0.04,0.71,0.06,0.91c0.14,0.3,0.31,0.35,1.38,0.46
				c1.35,0.15,1.53,0.06,1.66-0.93c0.06-0.47-0.02-0.7-0.28-0.84c-0.17-0.09-0.17-0.09-1.3-0.29c-1.18-0.18-1.32-0.22-1.64-0.4
				c-0.5-0.29-0.68-0.75-0.62-1.58c0.06-0.72,0.26-1.17,0.64-1.39c0.43-0.24,0.95-0.29,2.17-0.15c1.35,0.15,1.86,0.36,2.13,0.83
				c0.16,0.29,0.2,0.64,0.13,1.11c-0.01,0.06-0.02,0.12-0.03,0.19C62.04,53.66,61.71,53.62,61.38,53.57z"/>
			<path class="st2" d="M65.07,58.72c-0.32-0.06-0.64-0.12-0.96-0.17c0.31-1.78,0.61-3.56,0.92-5.34c-0.68-0.12-1.37-0.23-2.05-0.33
				c0.04-0.29,0.08-0.57,0.13-0.86c1.74,0.26,3.48,0.56,5.2,0.93c-0.06,0.29-0.12,0.57-0.18,0.86c-0.69-0.15-1.38-0.29-2.07-0.42
				C65.72,55.17,65.4,56.94,65.07,58.72z"/>
			<path class="st2" d="M69.39,55.94c1.06,0.24,2.11,0.51,3.16,0.79c-0.07,0.24-0.13,0.48-0.2,0.72c-1.04-0.28-2.08-0.54-3.13-0.79
				c-0.15,0.66-0.31,1.33-0.46,1.99c1.08,0.25,2.15,0.52,3.21,0.81c-0.07,0.26-0.14,0.52-0.21,0.78c-1.37-0.38-2.75-0.71-4.14-1.01
				c0.45-2.05,0.89-4.1,1.34-6.15c1.49,0.32,2.97,0.69,4.44,1.09c-0.07,0.26-0.14,0.52-0.21,0.78c-1.12-0.31-2.25-0.59-3.38-0.85
				C69.67,54.72,69.53,55.33,69.39,55.94z"/>
		</g>
	</g>
	<g>
		<g>
			<path class="st2" d="M34.8,65.4c0.01,0.06,0.03,0.13,0.04,0.19c0.2,0.99,0.16,1.35-0.16,1.76c-0.18,0.23-0.48,0.46-0.79,0.58
				c-0.2,0.08-0.71,0.21-1.34,0.36c-1.18,0.28-1.53,0.3-2.08,0.07c-0.37-0.16-0.72-0.52-0.9-0.95c-0.15-0.38-0.41-1.17-0.64-2.01
				c-0.31-1.13-0.3-1.67,0.05-2.18c0.4-0.59,0.88-0.84,2.49-1.22c0.94-0.22,1.26-0.24,1.67-0.17c0.51,0.1,0.82,0.37,1.03,0.89
				c0.08,0.2,0.12,0.35,0.26,0.92c-0.5,0.1-1.01,0.21-1.51,0.32c-0.11-0.44-0.15-0.53-0.26-0.65c-0.18-0.18-0.45-0.19-1.15-0.03
				c-0.66,0.15-0.95,0.3-1.08,0.51c-0.16,0.25-0.14,0.46,0.19,1.76c0.27,1.05,0.35,1.26,0.55,1.47c0.2,0.21,0.51,0.22,1.18,0.06
				c0.71-0.17,1-0.33,1.07-0.6c0.04-0.16,0.03-0.26-0.05-0.64c-0.01-0.04-0.02-0.08-0.03-0.12C33.82,65.6,34.31,65.5,34.8,65.4z"/>
			<path class="st2" d="M37.06,66.17c-0.05,0.39-0.11,0.79-0.16,1.18c-0.5,0.09-1,0.18-1.5,0.28c0.26-2.19,0.57-4.38,0.93-6.56
				c0.78-0.13,1.57-0.25,2.36-0.37c1.02,1.97,1.99,3.96,2.9,5.97c-0.5,0.06-1,0.12-1.5,0.19c-0.17-0.36-0.34-0.72-0.52-1.08
				C38.74,65.9,37.9,66.03,37.06,66.17z M37.7,61.96c-0.18,1.04-0.34,2.07-0.49,3.11c0.64-0.11,1.27-0.2,1.91-0.3
				C38.66,63.83,38.19,62.89,37.7,61.96z"/>
			<path class="st2" d="M41.41,60.37c1.18-0.13,2.37-0.23,3.55-0.31c0.67-0.04,1.08,0,1.38,0.14c0.47,0.21,0.71,0.67,0.74,1.41
				c0.02,0.6-0.07,0.92-0.34,1.15c-0.19,0.16-0.36,0.23-0.63,0.3c0,0.01,0,0.02,0,0.03c0.89,0.06,1.19,0.41,1.23,1.44
				c0.05,1.28-0.42,1.73-1.86,1.81c-1.13,0.07-2.25,0.17-3.38,0.29C41.86,64.54,41.63,62.46,41.41,60.37z M44.55,62.67
				c0.61-0.05,0.66-0.06,0.78-0.15c0.17-0.11,0.23-0.3,0.21-0.65c-0.03-0.54-0.18-0.64-0.81-0.6c-0.55,0.04-1.09,0.08-1.64,0.13
				c0.04,0.46,0.08,0.91,0.12,1.37C43.66,62.74,44.1,62.71,44.55,62.67z M44.68,65.19c1-0.07,1.18-0.19,1.15-0.79
				c-0.02-0.43-0.11-0.62-0.35-0.7c-0.13-0.04-0.16-0.04-0.74-0.01c-0.48,0.03-0.96,0.07-1.43,0.11c0.04,0.49,0.09,0.99,0.13,1.48
				C43.85,65.25,44.26,65.22,44.68,65.19z"/>
			<path class="st2" d="M52.82,60.1c0.63,0.27,0.98,0.73,1.08,1.45c0.05,0.28,0.05,0.7,0.01,1.57c-0.06,1.42-0.15,1.84-0.45,2.29
				c-0.27,0.39-0.71,0.64-1.28,0.75c-0.28,0.05-0.79,0.08-1.37,0.07c-1,0-1.48-0.08-1.89-0.3c-0.51-0.27-0.78-0.67-0.92-1.32
				c-0.06-0.28-0.09-0.6-0.11-1.28c-0.05-1.64,0.01-2.18,0.34-2.63c0.26-0.37,0.73-0.65,1.29-0.76c0.28-0.06,0.85-0.1,1.48-0.1
				C51.97,59.86,52.43,59.93,52.82,60.1z M49.74,61.31c-0.27,0.23-0.31,0.45-0.29,1.93c0.01,1.01,0.06,1.28,0.27,1.51
				c0.17,0.19,0.44,0.23,1.27,0.24c0.8,0.01,1.05-0.09,1.21-0.48c0.11-0.28,0.14-0.51,0.16-1.47c0.03-1.25,0.01-1.42-0.23-1.69
				c-0.17-0.19-0.43-0.25-1.24-0.25C50.17,61.09,49.94,61.14,49.74,61.31z"/>
			<path class="st2" d="M60.15,64.47c-0.01,0.07-0.02,0.13-0.02,0.2c-0.12,1-0.27,1.33-0.7,1.63c-0.24,0.16-0.6,0.28-0.93,0.3
				c-0.21,0.02-0.74-0.02-1.38-0.08c-1.2-0.1-1.54-0.19-1.99-0.59c-0.3-0.26-0.52-0.72-0.55-1.18c-0.03-0.41-0.02-1.24,0.02-2.11
				c0.06-1.17,0.24-1.68,0.72-2.06c0.56-0.44,1.09-0.53,2.73-0.38c0.95,0.09,1.27,0.16,1.63,0.36c0.45,0.25,0.66,0.61,0.7,1.16
				c0.02,0.21,0.01,0.37-0.04,0.95c-0.51-0.06-1.02-0.12-1.53-0.17c0.04-0.45,0.03-0.55-0.04-0.7c-0.11-0.23-0.36-0.32-1.07-0.39
				c-0.67-0.06-0.99-0.01-1.18,0.14c-0.23,0.19-0.27,0.4-0.37,1.73c-0.08,1.08-0.06,1.31,0.06,1.56c0.13,0.27,0.41,0.37,1.09,0.43
				c0.72,0.06,1.05,0,1.2-0.24c0.09-0.14,0.11-0.23,0.15-0.63c0-0.04,0.01-0.08,0.01-0.12C59.16,64.35,59.65,64.41,60.15,64.47z"/>
			<path class="st2" d="M62.23,65.82c0.94,0.14,1.88,0.3,2.82,0.48c-0.08,0.41-0.16,0.82-0.23,1.23c-1.41-0.27-2.82-0.49-4.23-0.68
				c0.28-2.08,0.55-4.16,0.83-6.24c0.52,0.07,1.05,0.14,1.57,0.22C62.74,62.5,62.49,64.16,62.23,65.82z"/>
			<path class="st2" d="M71.29,62.71c0.56,0.41,0.8,0.93,0.74,1.65c-0.02,0.29-0.11,0.69-0.33,1.53c-0.38,1.37-0.55,1.76-0.95,2.14
				c-0.35,0.32-0.84,0.47-1.42,0.45c-0.28-0.01-0.8-0.1-1.36-0.23c-0.98-0.23-1.44-0.41-1.79-0.71c-0.44-0.38-0.62-0.83-0.61-1.49
				c0.01-0.29,0.05-0.61,0.18-1.27c0.31-1.61,0.49-2.12,0.91-2.49c0.33-0.3,0.86-0.47,1.43-0.45c0.28,0,0.86,0.09,1.47,0.24
				C70.51,62.29,70.94,62.46,71.29,62.71z M68,63.21c-0.32,0.16-0.4,0.38-0.71,1.81c-0.21,0.99-0.22,1.26-0.07,1.54
				c0.12,0.22,0.38,0.32,1.19,0.51c0.79,0.19,1.04,0.15,1.29-0.2c0.17-0.25,0.25-0.46,0.48-1.4c0.31-1.22,0.32-1.39,0.15-1.7
				c-0.12-0.22-0.37-0.34-1.16-0.52C68.47,63.09,68.23,63.09,68,63.21z"/>
		</g>
	</g>
	<ellipse class="st2" cx="50.14" cy="71.76" rx="15.55" ry="1.78"/>
</g>
</svg>
