<?xml version="1.0" encoding="utf-8"?>
<!-- Generator: Adobe Illustrator 27.5.0, SVG Export Plug-In . SVG Version: 6.00 Build 0)  -->
<svg version="1.1" id="Layer_1" xmlns="http://www.w3.org/2000/svg" xmlns:xlink="http://www.w3.org/1999/xlink" x="0px" y="0px"
	 viewBox="0 0 100.27 100.27" style="enable-background:new 0 0 100.27 100.27;" xml:space="preserve">
<style type="text/css">
	.st0{fill:#FFFFFF;}
</style>
<g>
	<g>
		<circle cx="50.14" cy="50.14" r="32.96"/>
	</g>
	<g>
		<g>
			<path class="st0" d="M55.24,47.99c-0.19,0.13-0.36,0.25-0.39,0.5c-0.01,0.08-0.09,0.16-0.13,0.24c-0.04,0.07-0.12,0.15-0.11,0.23
				c0.03,0.32-0.21,0.46-0.4,0.63c-0.08,0.07-0.18,0.12-0.26,0.19c-0.07,0.06-0.12,0.15-0.2,0.26c-0.07,0.05-0.19,0.11-0.3,0.2
				c-0.2,0.15-0.39,0.31-0.57,0.48c-0.06,0.06-0.14,0.12-0.16,0.2c-0.09,0.45-0.27,0.88-0.21,1.35c0.01,0.05-0.03,0.14-0.07,0.16
				c-0.11,0.05-0.23,0.1-0.34,0.08c-0.19-0.03-0.25,0.09-0.27,0.22c-0.03,0.19-0.02,0.39-0.01,0.58c0.02,0.34-0.1,0.59-0.42,0.71
				c-0.21,0.07-0.44,0.1-0.67,0.15c-0.06,0.22-0.09,0.25-0.33,0.3c-0.05,0.01-0.09,0.04-0.14,0.06c-0.44,0.19-0.53,0.7-0.89,0.96
				c-0.01,0.01,0,0.05-0.02,0.06c-0.03,0.03-0.07,0.06-0.1,0.1c-0.08,0.08-0.23,0.16-0.23,0.24c0.01,0.5-0.25,0.8-0.65,1.05
				c-0.19,0.11-0.35,0.27-0.52,0.4c-0.06,0.05-0.15,0.1-0.16,0.16c-0.06,0.26-0.08,0.53-0.13,0.79c-0.02,0.12-0.06,0.23-0.1,0.34
				c-0.04,0.12-0.09,0.23-0.13,0.35c0.03,0.02,0.02,0.04,0,0.04c-0.02,0.01-0.04,0.02-0.06,0.02c-0.3,0-0.5,0.15-0.68,0.38
				c-0.13,0.17-0.3,0.34-0.49,0.42c-0.35,0.15-0.52,0.39-0.56,0.76c-0.01,0.11-0.07,0.22-0.13,0.31c-0.12,0.16-0.25,0.31-0.4,0.44
				c-0.11,0.1-0.25,0.15-0.38,0.23c-0.04,0.02-0.1,0.04-0.11,0.07c-0.07,0.31-0.34,0.47-0.51,0.7c-0.18,0.24-0.4,0.37-0.68,0.42
				c-0.08,0.02-0.2,0.1-0.22,0.18c-0.09,0.31-0.35,0.46-0.59,0.62c-0.53,0.34-1.06,0.66-1.6,0.99c-0.04,0.02-0.08,0.06-0.11,0.09
				c0.15,0.01,0.29,0.01,0.4-0.06c0.26-0.15,0.49-0.34,0.75-0.48c0.14-0.08,0.31-0.08,0.47-0.13c0.06-0.02,0.16-0.06,0.17-0.11
				c0.08-0.29,0.29-0.26,0.51-0.24c0.06,0.01,0.16-0.03,0.17-0.07c0.1-0.3,0.38-0.4,0.62-0.5c0.32-0.14,0.64-0.24,0.78-0.59
				c0.07-0.19,0.19-0.27,0.37-0.3c0.22-0.03,0.43-0.1,0.65-0.09c0.16,0.01,0.31,0.15,0.46-0.03c0.02-0.02,0.07-0.02,0.1-0.01
				c0.27,0.03,0.49-0.18,0.5-0.45c0.01-0.15,0.02-0.32,0.26-0.32c0.15,0,0.3-0.11,0.45-0.17c-0.08-0.26,0.01-0.45,0.19-0.61
				c0.11-0.1,0.17-0.24,0.28-0.33c0.16-0.15,0.33-0.3,0.53-0.39c0.13-0.06,0.31,0.01,0.46-0.02c0.08-0.01,0.17-0.09,0.21-0.17
				c0.06-0.1,0.06-0.23,0.1-0.35c0.02-0.06,0.07-0.14,0.12-0.15c0.46-0.13,0.62-0.5,0.77-0.89c0.06-0.16,0.18-0.33,0.31-0.44
				c0.19-0.16,0.31-0.32,0.3-0.58c0-0.04,0.06-0.11,0.11-0.13c0.12-0.06,0.26-0.07,0.36-0.15c0.11-0.08,0.17-0.07,0.27,0.02
				c0.08,0.08,0.22,0.17,0.3,0.15c0.26-0.07,0.52-0.22,0.61-0.48c0.09-0.28,0.25-0.47,0.54-0.6c-0.15-0.36-0.02-0.67,0.07-0.99
				c0.01-0.03,0.03-0.06,0.06-0.08c0.24-0.12,0.48-0.24,0.73-0.36c0.21-0.1,0.35-0.25,0.39-0.49c0.02-0.1,0.1-0.19,0.15-0.29
				c0.05-0.11,0.09-0.23,0.14-0.35c0.03-0.07,0.04-0.2,0.07-0.2c0.18-0.04,0.34-0.07,0.47-0.22c0.07-0.08,0.19-0.11,0.27-0.18
				c0.11-0.11,0.21-0.23,0.3-0.36c0.04-0.07,0.05-0.17,0.05-0.25c0-0.05-0.03-0.11-0.04-0.16c-0.03-0.16-0.06-0.31-0.1-0.52
				c0.17-0.12,0.13-0.33,0.05-0.56c-0.03-0.09-0.03-0.25,0.03-0.31c0.16-0.15,0.3-0.35,0.57-0.35c0.19,0,0.23-0.15,0.15-0.34
				c-0.03-0.06-0.03-0.15,0-0.2c0.17-0.28,0.32-0.59,0.64-0.76c0.21-0.11,0.22-0.31,0.07-0.49c-0.02-0.03-0.06-0.09-0.04-0.11
				c0.15-0.21,0.28-0.46,0.48-0.61c0.24-0.18,0.29-0.21,0.17-0.51c-0.03-0.06-0.05-0.17-0.02-0.21c0.14-0.16,0.3-0.3,0.45-0.44
				c0.16-0.14,0.36-0.25,0.5-0.42c0.1-0.12,0.12-0.32,0.31-0.37c0.01,0,0.02-0.04,0.02-0.06c0.03-0.16,0.05-0.32,0.07-0.48
				c0.01-0.06,0.03-0.13,0.01-0.18c-0.18-0.43-0.27-0.84,0.03-1.26c0.12-0.16,0.21-0.36,0.07-0.58c-0.03-0.04,0-0.13,0.01-0.2
				c0.07-0.28,0.15-0.56,0.2-0.84c0.02-0.13,0.05-0.21,0.15-0.3c0.29-0.27,0.48-0.59,0.38-1.02c-0.05-0.2,0.14-0.41-0.01-0.61
				c-0.01-0.01,0.03-0.05,0.04-0.07c0.39-0.47,0.43-0.61,0.27-1.18c-0.01-0.03,0-0.06,0-0.08c0.05-0.29,0.11-0.58,0.16-0.88
				c0.04-0.31,0.06-0.62,0.1-0.93c-0.11,0.28-0.17,0.57-0.24,0.86c-0.07,0.28-0.09,0.6-0.24,0.82c-0.16,0.24-0.26,0.49-0.3,0.76
				c-0.03,0.22-0.08,0.43-0.25,0.6c-0.05,0.05-0.08,0.13-0.08,0.2c-0.02,0.4-0.22,0.68-0.58,0.85c-0.06,0.03-0.15,0.09-0.15,0.14
				c0,0.27-0.24,0.54-0.03,0.82c0.02,0.03,0.01,0.1,0,0.15c-0.07,0.18-0.15,0.35-0.23,0.52c-0.03,0.07-0.11,0.15-0.09,0.2
				c0.07,0.19-0.06,0.31-0.13,0.44c-0.05,0.08-0.09,0.17-0.12,0.26c-0.15,0.45-0.21,0.97-0.79,1.11c-0.02,0-0.04,0.02-0.05,0.04
				c-0.23,0.28-0.44,0.57-0.55,0.92c-0.03,0.08-0.04,0.17-0.06,0.25c-0.04,0.13-0.11,0.25-0.13,0.39c-0.07,0.35-0.05,0.75-0.48,0.9
				c-0.22,0.07-0.31,0.24-0.42,0.41C55.38,47.91,55.3,47.95,55.24,47.99z"/>
		</g>
		<g>
			<path class="st0" d="M48.72,38.04c0.04-0.06,0.1-0.12,0.13-0.19c0.09-0.19,0.15-0.41,0.28-0.58c0.16-0.2,0.1-0.36-0.01-0.56
				c-0.15,0.45-0.29,0.88-0.43,1.31C48.7,38.03,48.71,38.04,48.72,38.04z"/>
		</g>
		<g>
			<path class="st0" d="M38.62,52.8c0.19-0.1,0.39-0.18,0.57-0.29c0.08-0.05,0.19-0.15,0.19-0.24c0.02-0.24,0.18-0.31,0.37-0.38
				c0.18-0.07,0.35-0.16,0.51-0.26c0.1-0.06,0.22-0.12,0.25-0.21c0.04-0.13,0.09-0.18,0.21-0.18c0.08,0,0.15-0.02,0.23-0.03
				c0.49-0.03,0.53-0.19,0.53-0.46c0.06-0.03,0.13-0.07,0.19-0.09c0.18-0.07,0.3-0.16,0.23-0.38c-0.01-0.04,0.02-0.11,0.06-0.15
				c0.3-0.26,0.52-0.63,0.93-0.76c0.06-0.02,0.13-0.07,0.14-0.12c0.09-0.44,0.47-0.56,0.8-0.7c0.47-0.2,0.48-0.28,0.51-0.72
				c0.1-0.06,0.19-0.12,0.29-0.18c0.36-0.19,0.43-0.32,0.37-0.7c-0.01-0.08-0.01-0.17,0.01-0.25c0.04-0.11,0.17-0.23,0.14-0.31
				c-0.07-0.2,0.1-0.3,0.13-0.45c0.05-0.26,0.34-0.42,0.26-0.73c-0.01-0.02,0.05-0.09,0.09-0.1c0.24-0.04,0.46-0.1,0.54-0.36
				c0.01-0.02,0.04-0.02,0.05-0.04c0.05-0.06,0.12-0.12,0.15-0.2c0.11-0.28,0-0.65,0.34-0.84c0.02-0.01,0.02-0.04,0.03-0.06
				c0.09-0.21,0.18-0.41,0.28-0.62c0.02-0.04,0.05-0.1,0.08-0.11c0.2-0.06,0.19-0.22,0.19-0.38c-0.01-0.16-0.02-0.32,0.1-0.46
				c0.05-0.06,0.06-0.17,0.08-0.26c0.04-0.18,0.07-0.36,0.11-0.54c0.01-0.04,0.06-0.1,0.09-0.09c0.35,0.02,0.41-0.25,0.44-0.48
				c0.05-0.48,0.34-0.9,0.29-1.39c0-0.02,0.02-0.06,0.04-0.07c0.19-0.19,0.19-0.45,0.25-0.68c0.03-0.13,0-0.28,0-0.41
				c-0.34,0.57-0.38,1.27-1,1.64c0,0.11,0.03,0.24-0.01,0.34c-0.11,0.31-0.24,0.62-0.38,0.91c-0.09,0.19-0.01,0.44-0.27,0.57
				c-0.15,0.08-0.27,0.23-0.41,0.34c-0.09,0.07-0.19,0.12-0.26,0.2c-0.08,0.09-0.12,0.2-0.18,0.3c-0.02,0.03-0.05,0.07-0.05,0.1
				c0.03,0.17-0.05,0.27-0.18,0.36c-0.12,0.08-0.16,0.18-0.12,0.31c0.07,0.2-0.04,0.34-0.18,0.46c-0.25,0.22-0.48,0.47-0.75,0.66
				c-0.21,0.15-0.45,0.28-0.69,0.36c-0.2,0.07-0.33,0.26-0.2,0.42c0.14,0.17,0.11,0.28-0.07,0.39c-0.16,0.11-0.31,0.24-0.5,0.39
				c-0.08,0.02-0.22,0.03-0.33,0.09c-0.17,0.09-0.32,0.21-0.47,0.31c-0.33,0.22-0.36,0.37-0.14,0.67c0.03,0.04,0.05,0.11,0.04,0.13
				c-0.16,0.22-0.05,0.44-0.01,0.66c0.01,0.05-0.01,0.12-0.03,0.16c-0.13,0.21-0.26,0.41-0.39,0.62c-0.03,0.04-0.08,0.06-0.12,0.09
				c-0.15,0.15-0.37,0.27-0.44,0.45c-0.13,0.33-0.44,0.35-0.68,0.48c-0.09,0.05-0.18,0.12-0.21,0.21c-0.07,0.15-0.06,0.34-0.24,0.43
				c-0.03,0.01-0.04,0.07-0.05,0.11c-0.09,0.24-0.24,0.41-0.48,0.51c-0.05,0.02-0.08,0.11-0.1,0.17c-0.05,0.16-0.05,0.37-0.15,0.49
				c-0.28,0.33-0.59,0.62-0.89,0.92c-0.04,0.04-0.06,0.09-0.09,0.13c0.01,0.01,0.02,0.02,0.03,0.03c0.13-0.06,0.25-0.11,0.38-0.17
				c0,0.01,0.01,0.02,0.01,0.03c-0.18,0.11-0.36,0.22-0.54,0.34C38.59,52.75,38.61,52.77,38.62,52.8z"/>
		</g>
		<g>
			<path class="st0" d="M60.23,50.55c0,0.08,0.01,0.18-0.04,0.22c-0.13,0.12-0.11,0.25-0.08,0.39c0.01,0.06,0,0.13-0.02,0.19
				c-0.09,0.33-0.35,0.56-0.58,0.77c-0.25,0.22-0.48,0.43-0.51,0.79c0,0.04-0.06,0.09-0.11,0.12c-0.32,0.2-0.64,0.39-0.95,0.58
				c-0.02,0.02-0.05,0.05-0.05,0.08c-0.01,0.27-0.06,0.54,0.08,0.8c0.03,0.05,0.01,0.15-0.02,0.22c-0.07,0.16-0.15,0.32-0.23,0.48
				c-0.05,0.1-0.08,0.23-0.16,0.27c-0.13,0.08-0.29,0.1-0.44,0.15c-0.05,0.02-0.12,0.03-0.13,0.06c-0.1,0.2-0.23,0.31-0.46,0.4
				c-0.44,0.16-0.52,0.64-0.74,0.99c0.09,0.21-0.09,0.35-0.15,0.52c-0.05,0.14-0.15,0.27-0.19,0.42c-0.05,0.17-0.14,0.27-0.31,0.34
				c-0.39,0.15-0.84,0.25-0.91,0.79c-0.01,0.08-0.09,0.15-0.12,0.23c-0.05,0.14-0.09,0.3-0.14,0.44c-0.09,0.23-0.13,0.52-0.3,0.66
				c-0.33,0.28-0.48,0.67-0.75,0.98c-0.1,0.12-0.23,0.22-0.34,0.33c-0.07,0.07-0.16,0.14-0.19,0.22c-0.11,0.35-0.36,0.56-0.69,0.69
				c-0.11,0.04-0.19,0.15-0.27,0.23c-0.16,0.18-0.21,0.47-0.51,0.51c-0.02,0-0.04,0.03-0.06,0.05c-0.08,0.08-0.14,0.17-0.23,0.24
				c-0.25,0.21-0.5,0.4-0.76,0.6c0.05-0.01,0.09-0.02,0.13-0.04c0.35-0.19,0.71-0.34,0.99-0.66c0.16-0.18,0.46-0.25,0.7-0.35
				c0.37-0.14,0.77-0.25,0.82-0.74c0.24-0.2,0.45-0.44,0.71-0.6c0.26-0.16,0.56-0.23,0.83-0.36c0.09-0.04,0.13-0.18,0.19-0.27
				c0.11-0.15,0.26-0.27,0.34-0.43c0.1-0.19,0.21-0.28,0.43-0.28c0.15,0,0.22-0.17,0.2-0.31c-0.01-0.1,0.01-0.21,0.05-0.3
				c0.03-0.07,0.11-0.13,0.16-0.2c0.2-0.27,0.44-0.48,0.8-0.5c0.27-0.02,0.47-0.13,0.6-0.38c0.03-0.05,0.08-0.1,0.13-0.14
				c0.32-0.26,0.57-0.58,0.72-0.98c0.03-0.09,0.06-0.21,0.03-0.29c-0.09-0.25,0.04-0.38,0.23-0.47c0.12-0.06,0.25-0.1,0.38-0.13
				c0.15-0.03,0.24-0.09,0.28-0.24c0.08-0.25,0.18-0.49,0.43-0.64c0.1-0.06,0.15-0.21,0.21-0.32c0.1-0.18,0.17-0.41,0.4-0.46
				c0.36-0.08,0.53-0.39,0.6-0.66c0.09-0.36,0.26-0.61,0.52-0.84c0.05-0.04,0.11-0.09,0.12-0.15c0.03-0.27,0.06-0.55,0.04-0.82
				c-0.01-0.23-0.02-0.42,0.21-0.56c0.15-0.09,0.25-0.22,0.27-0.41c0.02-0.15,0.09-0.3,0.15-0.44c0.02-0.05,0.08-0.09,0.14-0.11
				c0.24-0.05,0.34-0.22,0.39-0.45c0.05-0.24-0.08-0.33-0.23-0.41c0.17-0.41,0.5-0.75,0.38-1.23c-0.01-0.03,0.03-0.08,0.04-0.12
				c0.14-0.32,0.31-0.62,0.29-1c-0.02-0.31,0.12-0.35,0.42-0.48c0.16-0.07,0.25-0.31,0.36-0.47c0.01-0.01-0.01-0.04-0.02-0.06
				c-0.1-0.15-0.06-0.3,0.02-0.44c0.11-0.19,0.12-0.38,0.03-0.59c-0.13-0.3-0.09-0.42,0.13-0.64c0.08-0.08,0.21-0.18,0.21-0.27
				c-0.01-0.17-0.07-0.35-0.14-0.52c-0.05-0.12-0.09-0.21-0.05-0.35c0.04-0.1,0.01-0.23,0.01-0.34c0-0.08,0-0.15,0.01-0.23
				c0-0.1,0.01-0.2,0.02-0.3c-0.05,0.02-0.07,0.04-0.07,0.06c-0.08,0.35-0.1,0.73-0.25,1.06c-0.11,0.24-0.12,0.48-0.19,0.72
				c-0.05,0.18-0.12,0.36-0.19,0.54c-0.03,0.08-0.13,0.14-0.15,0.22c-0.05,0.2-0.06,0.4-0.12,0.6c-0.02,0.09-0.1,0.18-0.18,0.23
				c-0.41,0.27-0.74,0.59-0.7,1.14c0.01,0.09,0.06,0.2,0.04,0.28c-0.05,0.19-0.12,0.37-0.2,0.55c-0.1,0.21-0.15,0.46-0.4,0.57
				c-0.14,0.07-0.15,0.27-0.25,0.37c-0.14,0.15-0.3,0.28-0.47,0.38C60.26,50.18,60.23,50.35,60.23,50.55z"/>
		</g>
		<g>
			<path class="st0" d="M68.65,49.73c0.88,0.15,1.77,0.3,2.69,0.46c-0.61,0.71-1.21,1.39-1.8,2.08c0.01,0.01,0.02,0.02,0.04,0.03
				c0.85-0.48,1.69-0.96,2.59-1.48c-0.29,1-0.56,1.94-0.83,2.87c0.01,0.01,0.02,0.01,0.03,0.02c0.6-0.76,1.19-1.53,1.8-2.3
				c0.74,0.59,1.46,1.17,2.18,1.74c0.01-0.01,0.02-0.02,0.03-0.03c-0.35-0.78-0.71-1.57-1.08-2.39c0.62,0.08,1.18,0.15,1.79,0.23
				c-0.42-0.44-0.8-0.84-1.18-1.24c0.53-0.3,1.07-0.6,1.67-0.95c-0.68-0.1-1.28-0.2-1.94-0.3c0.58-0.49,1.12-0.95,1.66-1.4
				c-0.01-0.01-0.01-0.02-0.02-0.03c-0.62,0.15-1.25,0.3-1.9,0.45c0.13-0.82,0.25-1.58,0.37-2.34c-0.01,0-0.03-0.01-0.04-0.01
				c-0.55,0.7-1.1,1.39-1.67,2.12c-0.15-0.5-0.28-0.96-0.41-1.42c-0.01,0-0.02,0-0.03,0.01c-0.08,0.51-0.16,1.01-0.25,1.56
				c-0.76-0.57-1.49-1.12-2.22-1.67c-0.01,0.01-0.02,0.02-0.04,0.03c0.44,0.73,0.88,1.45,1.35,2.22c-0.63-0.05-1.2-0.09-1.77-0.13
				c0,0.02-0.01,0.04-0.01,0.05c0.47,0.39,0.93,0.78,1.43,1.2c-0.84,0.19-1.64,0.37-2.44,0.56C68.65,49.69,68.65,49.71,68.65,49.73z
				"/>
		</g>
		<g>
			<path class="st0" d="M48.85,65.1c0.39-0.19,0.75-0.41,1.03-0.77c-0.36,0.24-0.71,0.47-1.07,0.71
				C48.82,65.05,48.84,65.08,48.85,65.1z"/>
		</g>
		<g>
			<path class="st0" d="M37.26,53.99c0.24-0.19,0.57-0.29,0.65-0.68c-0.28,0.22-0.53,0.42-0.82,0.65
				C37.17,53.98,37.23,54.01,37.26,53.99z"/>
		</g>
		<g>
			<path class="st0" d="M24.78,48.03c0,0.02,0.01,0.04,0.01,0.06c0.88,0.15,1.77,0.3,2.69,0.46c-0.61,0.71-1.21,1.39-1.8,2.08
				c0.01,0.01,0.02,0.02,0.04,0.03c0.85-0.48,1.69-0.96,2.59-1.48c-0.29,1-0.56,1.94-0.83,2.87c0.01,0.01,0.02,0.01,0.03,0.02
				c0.6-0.76,1.19-1.53,1.8-2.3c0.74,0.59,1.46,1.17,2.18,1.74c0.01-0.01,0.02-0.02,0.03-0.03c-0.35-0.78-0.71-1.57-1.08-2.39
				c0.61,0.08,1.17,0.15,1.78,0.23c-0.41-0.44-0.79-0.84-1.17-1.24c0.53-0.3,1.07-0.6,1.67-0.95c-0.68-0.1-1.28-0.2-1.94-0.3
				c0.58-0.49,1.12-0.94,1.65-1.4c-0.01-0.01-0.01-0.02-0.02-0.03c-0.62,0.15-1.25,0.3-1.89,0.45c0.13-0.82,0.25-1.58,0.37-2.34
				c-0.01,0-0.03-0.01-0.04-0.01c-0.55,0.7-1.1,1.39-1.67,2.12c-0.15-0.5-0.28-0.96-0.41-1.42c-0.01,0-0.02,0-0.03,0.01
				c-0.08,0.51-0.16,1.01-0.25,1.56c-0.76-0.57-1.49-1.12-2.23-1.67c-0.01,0.01-0.02,0.02-0.03,0.04c0.44,0.73,0.88,1.45,1.35,2.22
				c-0.63-0.05-1.2-0.09-1.77-0.13c0,0.02-0.01,0.04-0.01,0.05c0.47,0.39,0.93,0.78,1.43,1.2C26.37,47.67,25.57,47.85,24.78,48.03z"
				/>
		</g>
		<g>
			<path class="st0" d="M55.39,36.54c0.11-0.14,0.09-0.38,0.13-0.57c0-0.02-0.03-0.05-0.07-0.1c-0.1,0.35-0.2,0.66-0.29,0.98
				c-0.05,0.17-0.07,0.35-0.11,0.52c0.02-0.06,0.05-0.12,0.06-0.18C55.17,36.96,55.24,36.75,55.39,36.54z"/>
		</g>
		<g>
			<path class="st0" d="M37.93,60.69c0.17-0.02,0.33-0.04,0.34-0.27c0-0.04,0.08-0.1,0.13-0.13c0.3-0.13,0.62-0.24,0.85-0.51
				c0.23-0.27,0.48-0.51,0.89-0.53c0.19-0.01,0.41-0.1,0.37-0.39c-0.01-0.04,0.06-0.11,0.11-0.14c0.1-0.05,0.21-0.07,0.32-0.12
				c0.17-0.07,0.35-0.12,0.41-0.33c0.09-0.3,0.21-0.36,0.52-0.41c0.16-0.02,0.4-0.1,0.45-0.22c0.11-0.25,0.3-0.32,0.51-0.39
				c0.11-0.04,0.2-0.13,0.31-0.13c0.19,0,0.38,0.05,0.58,0.08c0.08-0.19,0.16-0.37,0.23-0.54c-0.02-0.01-0.04-0.03-0.06-0.04
				c0.12-0.05,0.25-0.1,0.37-0.16c0.2-0.09,0.46-0.05,0.59-0.3c0.16-0.31,0.3-0.63,0.5-0.91c0.16-0.23,0.36-0.5,0.61-0.6
				c0.33-0.13,0.65-0.27,0.95-0.46c0.23-0.15,0.24-0.15,0.07-0.36c0.06-0.08,0.11-0.17,0.19-0.23c0.16-0.12,0.24-0.34,0.48-0.38
				c0.06-0.01,0.14-0.15,0.14-0.23c-0.02-0.24,0.12-0.37,0.28-0.51c0.08-0.07,0.15-0.17,0.17-0.27c0.06-0.27,0.16-0.35,0.42-0.39
				c0.22-0.04,0.44-0.12,0.63-0.23c0.13-0.08,0.25-0.22,0.2-0.45c-0.05-0.26-0.14-0.58,0.23-0.74c0.02-0.01,0.03-0.04,0.03-0.05
				c0.02-0.22,0.15-0.44,0.01-0.66c-0.03-0.04-0.03-0.13,0-0.16c0.13-0.16,0.25-0.38,0.43-0.46c0.36-0.16,0.37-0.53,0.54-0.79
				c0.11-0.16,0.17-0.35,0.24-0.54c0.04-0.1,0.08-0.2,0.09-0.3c0.01-0.19,0.08-0.29,0.27-0.35c0.12-0.04,0.22-0.15,0.31-0.25
				c0.08-0.08,0.1-0.24,0.19-0.28c0.33-0.16,0.45-0.41,0.38-0.76c-0.02-0.08-0.04-0.16-0.04-0.24c-0.01-0.07-0.02-0.15,0.01-0.21
				c0.1-0.21,0.22-0.42,0.34-0.61c0.17-0.27,0.36-0.54,0.54-0.81c0.05-0.07,0.1-0.16,0.12-0.24c0.02-0.12,0.01-0.25,0-0.37
				c-0.01-0.15,0.01-0.32-0.04-0.46c-0.05-0.14-0.03-0.23,0.06-0.33c0.29-0.33,0.59-0.65,0.88-0.97c0.02-0.03,0.06-0.04,0.09-0.06
				c0.13-0.09,0.31-0.56,0.23-0.68c-0.16-0.24-0.01-0.37,0.11-0.55c0.15-0.24,0.37-0.49,0.17-0.82c-0.04-0.06,0-0.18,0.03-0.26
				c0.08-0.19,0.18-0.38,0.28-0.57c-0.04-0.13-0.09-0.27-0.04-0.37c0.15-0.27,0.07-0.57,0.12-0.85c-0.02,0.01-0.06,0.02-0.06,0.04
				c-0.05,0.2-0.13,0.39-0.32,0.52c-0.05,0.03-0.1,0.12-0.08,0.17c0.07,0.2-0.06,0.32-0.14,0.47c-0.07,0.12-0.19,0.25-0.18,0.37
				c0.01,0.22-0.08,0.38-0.17,0.56c-0.05,0.11-0.07,0.23-0.11,0.34c-0.08,0.2-0.13,0.44-0.27,0.59c-0.27,0.28-0.53,0.57-0.74,0.89
				c-0.13,0.2-0.21,0.39-0.08,0.63c0.11,0.21,0.04,0.33-0.17,0.44c-0.09,0.05-0.17,0.16-0.21,0.26c-0.03,0.09,0.04,0.23,0,0.32
				c-0.13,0.27-0.28,0.53-0.57,0.69c-0.31,0.18-0.59,0.41-0.69,0.79c-0.02,0.08-0.09,0.16-0.15,0.22c-0.16,0.15-0.31,0.31-0.34,0.54
				c-0.03,0.18-0.1,0.34-0.28,0.43c-0.37,0.18-0.63,0.47-0.82,0.83c-0.09,0.17-0.19,0.33-0.3,0.49c-0.05,0.07-0.07,0.11-0.02,0.19
				c0.13,0.22,0.1,0.46,0.06,0.69c-0.03,0.19-0.1,0.34-0.31,0.39c-0.09,0.02-0.23,0.06-0.26,0.13c-0.08,0.2-0.23,0.17-0.39,0.16
				c-0.22-0.02-0.42-0.03-0.58,0.2c-0.09,0.13-0.28,0.18-0.32,0.37c-0.01,0.03-0.08,0.07-0.12,0.08c-0.42,0.06-0.64,0.35-0.79,0.72
				c-0.03,0.07-0.06,0.17-0.03,0.22c0.24,0.33,0.13,0.56-0.18,0.75c-0.05,0.03-0.09,0.09-0.14,0.13c-0.07,0.06-0.14,0.14-0.22,0.16
				c-0.28,0.08-0.44,0.26-0.54,0.52c-0.12,0.31-0.31,0.54-0.66,0.62c-0.05,0.01-0.11,0.13-0.1,0.18c0.02,0.13,0.05,0.26,0.12,0.37
				c0.18,0.27,0.16,0.48-0.08,0.69c-0.18,0.15-0.3,0.34-0.22,0.6c0.06,0.2-0.02,0.3-0.25,0.4c-0.23,0.1-0.48,0.19-0.68,0.34
				c-0.19,0.14-0.37,0.22-0.6,0.24c-0.08,0.01-0.18,0.06-0.22,0.12c-0.08,0.14-0.15,0.23-0.33,0.29c-0.37,0.14-0.59,0.45-0.67,0.84
				c-0.01,0.05-0.05,0.11-0.09,0.13c-0.27,0.15-0.54,0.3-0.58,0.66c0,0.03-0.03,0.06-0.05,0.09c-0.19,0.24-0.35,0.49-0.42,0.81
				c-0.05,0.23-0.22,0.29-0.39,0.19c-0.11,0.1-0.24,0.18-0.33,0.29c-0.15,0.19-0.27,0.4-0.41,0.59c-0.11,0.16-0.21,0.34-0.35,0.46
				c-0.28,0.24-0.6,0.44-0.9,0.65c-0.21,0.15-0.43,0.3-0.67,0.47C37.76,60.71,37.85,60.7,37.93,60.69z"/>
		</g>
		<g>
			<polygon class="st0" points="55.05,37.38 55.05,37.39 55.05,37.39 55.05,37.39 			"/>
		</g>
		<g>
			<polygon class="st0" points="49.88,64.32 49.88,64.32 49.88,64.32 49.88,64.32 			"/>
		</g>
	</g>
	<g>
		<g>
			<path class="st0" d="M27.32,37.79l0.85-1.19l1.39,0.99l1.79-2.51l-1.39-0.99l0.85-1.19l3.89,2.77l-0.85,1.19l-1.47-1.05
				l-1.79,2.51l1.47,1.05l-0.85,1.19L27.32,37.79z"/>
		</g>
		<g>
			<path class="st0" d="M34.35,31.73c-0.75-1.18-0.26-1.88,0.86-2.58l1.99-1.25c1.12-0.7,1.96-0.84,2.7,0.34l0.76,1.2
				c0.75,1.18,0.26,1.88-0.86,2.58l-1.99,1.25c-1.12,0.7-1.96,0.84-2.7-0.34L34.35,31.73z M36.14,31.75
				c0.37,0.59,0.63,0.73,1.22,0.36l1.58-1c0.59-0.37,0.57-0.67,0.2-1.26l-0.27-0.43c-0.32-0.5-0.63-0.73-1.29-0.32l-1.45,0.92
				c-0.65,0.41-0.58,0.8-0.26,1.3L36.14,31.75z"/>
		</g>
		<g>
			<path class="st0" d="M42.46,25.54l4.35-0.78c1.11-0.2,1.51,0.3,1.66,1.14l0.05,0.3c0.11,0.63,0.04,1.03-0.6,1.3l0,0.01
				c0.44,0,0.83,0.13,0.97,0.9l0.14,0.8l-1.44,0.26l-0.1-0.56c-0.09-0.49-0.26-0.63-0.71-0.55l-2.27,0.41l0.22,1.22l-1.44,0.26
				L42.46,25.54z M44.32,27.59l2.38-0.43c0.39-0.07,0.5-0.25,0.44-0.59l-0.03-0.16c-0.07-0.42-0.3-0.46-0.75-0.37l-2.25,0.4
				L44.32,27.59z"/>
		</g>
		<g>
			<path class="st0" d="M51.89,24.57l4.34,0.82c1.11,0.21,1.3,0.82,1.15,1.66l-0.06,0.3c-0.12,0.63-0.33,0.97-1.02,1l0,0.01
				c0.41,0.16,0.73,0.41,0.59,1.18l-0.15,0.8l-1.44-0.27l0.11-0.56c0.09-0.49-0.02-0.68-0.47-0.77l-2.26-0.43l-0.23,1.22L51,29.26
				L51.89,24.57z M52.89,27.14l2.38,0.45c0.39,0.07,0.56-0.06,0.62-0.39l0.03-0.16c0.08-0.42-0.12-0.53-0.57-0.62L53.11,26
				L52.89,27.14z"/>
		</g>
		<g>
			<path class="st0" d="M60.21,28.42c0.77-1.17,1.61-1.01,2.71-0.28l1.96,1.29c1.1,0.73,1.57,1.43,0.8,2.6l-0.78,1.19
				c-0.77,1.17-1.61,1.01-2.71,0.28l-1.96-1.29c-1.1-0.73-1.57-1.43-0.8-2.6L60.21,28.42z M60.93,30.06
				c-0.38,0.58-0.41,0.88,0.17,1.26l1.56,1.03c0.58,0.38,0.84,0.24,1.23-0.34l0.28-0.43c0.33-0.5,0.41-0.88-0.24-1.3l-1.43-0.94
				c-0.64-0.42-0.97-0.2-1.29,0.29L60.93,30.06z"/>
		</g>
		<g>
			<path class="st0" d="M69.18,33.26l2.5,3.64c0.64,0.93,0.35,1.5-0.36,1.98l-0.25,0.17c-0.53,0.36-0.92,0.46-1.43-0.01l-0.01,0.01
				c0.18,0.4,0.23,0.81-0.42,1.26l-0.67,0.46l-0.83-1.21l0.47-0.33c0.41-0.28,0.47-0.5,0.21-0.87l-1.3-1.9l-1.02,0.7l-0.83-1.21
				L69.18,33.26z M68.08,35.8l1.37,2c0.22,0.33,0.44,0.36,0.72,0.16l0.13-0.09c0.35-0.24,0.29-0.46,0.03-0.84l-1.3-1.89L68.08,35.8z
				"/>
		</g>
		<g>
			<path class="st0" d="M74.54,56.98l-2.07,5.18l-1.1-0.44l0.76-1.91l-3.33-1.33l0.54-1.36l3.33,1.33l0.76-1.91L74.54,56.98z"/>
		</g>
		<g>
			<path class="st0" d="M63.5,70.52c0.62,1.26,0.06,1.9-1.13,2.48l-2.11,1.03c-1.18,0.58-2.04,0.63-2.65-0.63l-0.63-1.28
				c-0.62-1.26-0.06-1.9,1.13-2.48l2.11-1.03c1.18-0.58,2.04-0.63,2.65,0.63L63.5,70.52z M61.72,70.31c-0.3-0.62-0.55-0.8-1.17-0.49
				l-1.68,0.82c-0.62,0.31-0.64,0.61-0.33,1.23l0.23,0.46c0.26,0.53,0.55,0.79,1.24,0.46l1.54-0.75c0.69-0.34,0.66-0.73,0.4-1.26
				L61.72,70.31z"/>
		</g>
		<g>
			<path class="st0" d="M70.64,65.15l-2.84,3.38c-0.73,0.86-1.35,0.73-2.01,0.18l-0.23-0.2c-0.49-0.41-0.68-0.77-0.37-1.38
				l-0.01-0.01c-0.34,0.28-0.72,0.44-1.32-0.07l-0.62-0.52l0.94-1.12l0.44,0.37c0.38,0.32,0.6,0.32,0.9-0.03l1.48-1.76l-0.95-0.8
				l0.94-1.12L70.64,65.15z M67.9,64.76l-1.56,1.85c-0.25,0.3-0.23,0.52,0.04,0.74l0.12,0.1c0.32,0.27,0.52,0.16,0.82-0.19
				l1.47-1.75L67.9,64.76z"/>
		</g>
		<g>
			<path class="st0" d="M54.5,75.33l-3.98,0.3c-1.39,0.1-1.78-0.57-1.84-1.5l-0.03-0.41c-0.05-0.71,0.2-1.55,1.23-1.63l2.9-0.22
				l-0.09-1.2l1.46-0.11L54.5,75.33z M52.86,73.06l-2.27,0.17c-0.34,0.03-0.46,0.26-0.44,0.54l0.01,0.18
				c0.02,0.32,0.2,0.49,0.64,0.46l2.14-0.16L52.86,73.06z"/>
		</g>
		<g>
			<path class="st0" d="M45.67,75.27L44.23,75l0.88-4.69l1.44,0.27L45.67,75.27z"/>
		</g>
		<g>
			<path class="st0" d="M41.69,72.71c-0.64,1.24-1.49,1.18-2.66,0.57L37.5,72.5c-1.85-0.95-1.89-1.48-1.26-2.67l1.3,0.67l-0.06,0.12
				c-0.16,0.31,0.02,0.51,0.41,0.71l1.42,0.73c0.69,0.35,0.98,0.1,1.25-0.43l0.24-0.46c0.32-0.62,0.31-0.92-0.31-1.23l-1.39-0.72
				c-0.59-0.3-0.79-0.33-1.06,0.19l-1.3-0.67l0.21-0.4c0.37-0.72,0.92-1.15,2.22-0.47l2.1,1.08c1.17,0.6,1.72,1.26,1.08,2.5
				L41.69,72.71z"/>
		</g>
		<g>
			<path class="st0" d="M31.12,67.45l-1.24-1.45l1.92-5.1l1.06,1.24l-0.34,0.9l1.93,2.25l0.92-0.22l1.07,1.24L31.12,67.45z
				 M33.31,65.54l-1.22-1.42l-0.74,1.89L33.31,65.54z"/>
		</g>
		<g>
			<path class="st0" d="M26.76,61.16l-0.52-1.37l3.32-1.25l-1.16-3.08l1.15-0.43l1.68,4.45L26.76,61.16z"/>
		</g>
	</g>
</g>
</svg>
