<?xml version="1.0" encoding="utf-8"?>
<!-- Generator: Adobe Illustrator 27.5.0, SVG Export Plug-In . SVG Version: 6.00 Build 0)  -->
<svg version="1.1" id="Layer_1" xmlns="http://www.w3.org/2000/svg" xmlns:xlink="http://www.w3.org/1999/xlink" x="0px" y="0px"
	 viewBox="0 0 100.27 100.27" style="enable-background:new 0 0 100.27 100.27;" xml:space="preserve">
<style type="text/css">
	.st0{fill:#FFFFFF;stroke:#000000;stroke-width:0.9921;stroke-linejoin:round;stroke-miterlimit:10;}
</style>
<g>
	<path class="st0" d="M85.96,37.19c0.26-0.27,0.26-0.65,0-0.94c-0.45-0.52-0.9-1.04-1.35-1.56c-0.13-0.15-0.15-0.26,0.01-0.41
		c0.45-0.39,0.88-0.8,1.33-1.2c0.24-0.22,0.28-0.64,0.07-0.88c-0.14-0.16-0.3-0.31-0.44-0.46c-0.29-0.31-0.57-0.63-0.85-0.94
		c-0.11-0.12-0.1-0.24,0.01-0.34c0.44-0.43,0.88-0.85,1.32-1.28c0.05-0.05,0.11-0.12,0.12-0.18c0.01-0.3-0.08-0.57-0.29-0.8
		c-0.34-0.36-0.7-0.72-1.04-1.09c-0.41-0.45-0.73-0.41-1.07,0.04c-0.06,0.07-0.11,0.14-0.18,0.2c-0.43,0.38-0.86,0.76-1.3,1.12
		c-0.08,0.07-0.26,0.14-0.32,0.1c-0.19-0.11-0.36-0.28-0.52-0.43c-0.41-0.39-0.81-0.78-1.23-1.16c-0.06-0.05-0.19-0.08-0.26-0.04
		c-0.16,0.08-0.3,0.2-0.43,0.32c-0.4,0.37-0.79,0.75-1.18,1.14c-0.11,0.11-0.2,0.14-0.32,0.04c-0.16-0.14-0.33-0.27-0.48-0.42
		c-0.32-0.31-0.62-0.64-0.95-0.95c-0.13-0.12-0.31-0.18-0.47-0.05c-0.31,0.27-0.6,0.55-0.9,0.84c-0.24,0.23-0.46,0.48-0.71,0.71
		c-0.05,0.05-0.21,0.06-0.27,0.01c-0.16-0.11-0.3-0.25-0.45-0.38c-0.44-0.38-0.87-0.77-1.31-1.15c-0.24-0.21-0.3-0.21-0.55,0.01
		c-0.49,0.44-0.96,0.88-1.44,1.33c-0.16,0.15-0.28,0.13-0.44-0.02c-0.42-0.42-0.86-0.83-1.29-1.24c-0.16-0.15-0.47-0.17-0.63-0.03
		c-0.5,0.44-0.99,0.9-1.47,1.36c-0.19,0.18-0.26,0.17-0.44,0c-0.45-0.44-0.9-0.88-1.37-1.31c-0.31-0.28-0.52-0.29-0.85-0.03
		c-0.29,0.22-0.55,0.48-0.83,0.73c-0.16,0.14-0.32,0.28-0.46,0.44c-0.2,0.22-0.38,0.25-0.61,0.05c-0.17-0.16-0.33-0.34-0.5-0.51
		c-0.27-0.26-0.54-0.52-0.82-0.76c-0.19-0.16-0.46-0.1-0.7,0.12c-0.47,0.43-0.94,0.86-1.4,1.3c-0.15,0.14-0.28,0.16-0.44,0
		c-0.26-0.27-0.52-0.54-0.8-0.79c-0.25-0.23-0.53-0.42-0.79-0.63c-0.23-0.2-0.37-0.2-0.59,0c-0.17,0.15-0.34,0.3-0.51,0.45
		c-0.33,0.3-0.66,0.61-1,0.92c-0.09,0.08-0.18,0.16-0.29,0.05c-0.47-0.45-0.94-0.89-1.39-1.35c-0.29-0.3-0.49-0.37-0.86-0.03
		c-0.44,0.41-0.86,0.85-1.27,1.29c-0.13,0.13-0.23,0.13-0.35,0.01c-0.17-0.17-0.34-0.36-0.53-0.51c-0.36-0.31-0.64-0.71-1.12-0.91
		c-0.26-0.1-0.44-0.09-0.62,0.07c-0.55,0.46-1.09,0.93-1.65,1.39c-0.06,0.05-0.22,0.08-0.27,0.04c-0.45-0.41-0.9-0.82-1.31-1.26
		c-0.35-0.37-0.64-0.45-1.04-0.13c-0.48,0.38-0.92,0.8-1.38,1.21c-0.15,0.14-0.28,0.11-0.4-0.01c-0.13-0.13-0.25-0.28-0.38-0.42
		c-0.32-0.32-0.63-0.65-0.96-0.94c-0.2-0.18-0.52-0.12-0.69,0.06c-0.17,0.19-0.35,0.36-0.53,0.53c-0.26,0.24-0.54,0.47-0.8,0.71
		c-0.28,0.26-0.32,0.25-0.6,0c-0.45-0.43-0.91-0.84-1.36-1.26c-0.13-0.12-0.25-0.2-0.43-0.08c-0.11,0.08-0.24,0.12-0.35,0.21
		c-0.45,0.38-0.9,0.76-1.33,1.17c-0.21,0.2-0.33,0.24-0.53,0.03c-0.38-0.39-0.76-0.78-1.15-1.17c-0.3-0.29-0.68-0.31-0.99-0.02
		c-0.44,0.4-0.86,0.82-1.3,1.23c-0.22,0.21-0.27,0.22-0.48,0.01c-0.41-0.41-0.82-0.82-1.22-1.24c-0.37-0.39-0.54-0.44-0.96-0.1
		c-0.49,0.39-0.93,0.84-1.4,1.26c-0.21,0.19-0.27,0.19-0.46,0c-0.33-0.33-0.66-0.66-0.99-0.99c-0.14-0.14-0.28-0.28-0.45-0.38
		c-0.24-0.14-0.53,0.01-0.83,0.3c-0.39,0.38-0.81,0.73-1.22,1.08c-0.06,0.05-0.21,0.05-0.27,0.01c-0.26-0.21-0.5-0.44-0.74-0.67
		c-0.27-0.27-0.51-0.57-0.78-0.84c-0.19-0.19-0.43-0.16-0.63-0.06c-0.13,0.06-0.2,0.24-0.33,0.33c-0.22,0.16-0.47,0.27-0.66,0.5
		c-0.21,0.26-0.51,0.45-0.78,0.66c-0.05,0.04-0.19,0.06-0.24,0.02c-0.3-0.26-0.59-0.53-0.88-0.81c-0.24-0.23-0.46-0.47-0.7-0.69
		c-0.17-0.16-0.39-0.22-0.58-0.08c-0.26,0.18-0.48,0.4-0.72,0.61c-0.31,0.28-0.61,0.57-0.93,0.84c-0.23,0.2-0.24,0.32-0.02,0.53
		c0.1,0.09,0.2,0.16,0.29,0.25c0.41,0.42,0.81,0.84,1.22,1.26c0.1,0.1,0.21,0.2,0.37,0.36c-0.16,0.13-0.29,0.23-0.42,0.35
		c-0.43,0.4-0.86,0.8-1.29,1.21c-0.22,0.21-0.2,0.32,0.01,0.53c0.49,0.49,0.99,0.98,1.47,1.47c0.18,0.19,0.16,0.27-0.03,0.44
		c-0.57,0.52-1.12,1.05-1.69,1.57c-0.19,0.17-0.13,0.32,0.01,0.46c0.1,0.1,0.22,0.17,0.32,0.27c0.43,0.44,0.86,0.89,1.3,1.32
		c0.19,0.18,0.19,0.22,0.02,0.38c-0.5,0.47-0.99,0.95-1.48,1.44c-0.14,0.14-0.18,0.31-0.02,0.48c0.26,0.27,0.51,0.55,0.78,0.82
		c0.27,0.27,0.54,0.52,0.84,0.81c-0.59,0.59-1.17,1.17-1.76,1.73c-0.16,0.15-0.15,0.27-0.04,0.39c0.13,0.16,0.3,0.29,0.45,0.44
		c0.27,0.27,0.53,0.55,0.81,0.81c0.23,0.21,0.47,0.41,0.74,0.63c-0.4,0.39-0.72,0.7-1.04,1.01c-0.24,0.23-0.49,0.43-0.72,0.67
		c-0.17,0.17-0.2,0.44-0.08,0.56c0.48,0.48,0.96,0.96,1.46,1.42c0.16,0.15,0.2,0.26,0.03,0.42c-0.49,0.47-0.97,0.95-1.46,1.42
		c-0.21,0.2-0.2,0.41,0.04,0.57c0.1,0.06,0.2,0.14,0.28,0.22c0.41,0.44,0.8,0.88,1.22,1.31c0.15,0.16,0.17,0.25,0,0.42
		c-0.56,0.55-1.1,1.11-1.65,1.67c-0.15,0.15-0.13,0.29,0.03,0.43c0.17,0.14,0.34,0.28,0.49,0.44c0.37,0.36,0.74,0.73,1.13,1.12
		c-0.49,0.49-1,1-1.51,1.51c-0.21,0.21-0.21,0.29-0.01,0.51c0.52,0.55,1.04,1.11,1.56,1.66c0.12,0.13,0.1,0.21-0.01,0.33
		c-0.17,0.16-0.31,0.34-0.47,0.5c-0.39,0.4-0.77,0.8-1.18,1.18c-0.18,0.17-0.19,0.3,0,0.45c0.15,0.12,0.31,0.24,0.45,0.37
		c0.37,0.37,0.74,0.74,1.11,1.11c0.11,0.11,0.15,0.2,0.03,0.33c-0.25,0.27-0.49,0.55-0.75,0.81c-0.29,0.28-0.6,0.54-0.9,0.81
		c-0.19,0.17-0.22,0.37-0.06,0.53c0.39,0.39,0.79,0.78,1.19,1.17c0.12,0.11,0.23,0.23,0.34,0.35c0.12,0.13,0.1,0.23-0.04,0.35
		c-0.26,0.22-0.51,0.47-0.76,0.7c-0.24,0.22-0.48,0.43-0.72,0.64c-0.24,0.21-0.28,0.44-0.11,0.63c0.5,0.56,1,1.12,1.5,1.68
		c0.22,0.24,0.52,0.25,0.75,0.01c0.32-0.32,0.63-0.64,0.96-0.95c0.21-0.2,0.42-0.39,0.64-0.56c0.05-0.04,0.18-0.06,0.23-0.02
		c0.26,0.2,0.5,0.41,0.75,0.63c0.37,0.32,0.73,0.65,1.12,0.96c0.06,0.05,0.24,0.05,0.31,0c0.26-0.18,0.5-0.39,0.74-0.6
		c0.35-0.31,0.68-0.65,1.03-0.96c0.05-0.05,0.19-0.05,0.25-0.01c0.14,0.08,0.25,0.2,0.37,0.31c0.42,0.4,0.84,0.8,1.25,1.2
		c0.15,0.15,0.29,0.13,0.43,0c0.14-0.12,0.28-0.25,0.41-0.38c0.35-0.33,0.69-0.67,1.05-1c0.1-0.09,0.21-0.25,0.37-0.1
		c0.25,0.22,0.49,0.46,0.73,0.69c0.27,0.26,0.54,0.52,0.81,0.79c0.18,0.18,0.36,0.16,0.54,0c0.54-0.49,1.08-0.97,1.6-1.48
		c0.16-0.16,0.23-0.13,0.37,0c0.55,0.51,1.11,1.01,1.67,1.52c0.13,0.11,0.24,0.13,0.36,0.01c0.26-0.24,0.52-0.47,0.78-0.71
		c0.35-0.31,0.7-0.61,1.05-0.91c0.14,0.12,0.27,0.22,0.38,0.34c0.41,0.4,0.82,0.8,1.24,1.19c0.21,0.19,0.36,0.18,0.57-0.01
		c0.45-0.4,0.89-0.81,1.33-1.21c0.13-0.12,0.26-0.24,0.4-0.37c0.51,0.5,1.02,0.98,1.52,1.47c0.41,0.4,0.41,0.4,0.85,0.04
		c0.03-0.03,0.06-0.05,0.09-0.08c0.46-0.42,0.92-0.84,1.38-1.26c0.1-0.09,0.21-0.19,0.34-0.06c0.48,0.48,0.95,0.97,1.42,1.46
		c0.21,0.21,0.38,0.23,0.59,0.02c0.16-0.15,0.31-0.31,0.48-0.46c0.38-0.36,0.77-0.71,1.15-1.07c0.14-0.13,0.24-0.11,0.33,0.05
		c0.07,0.11,0.15,0.22,0.24,0.31c0.44,0.45,0.9,0.88,1.34,1.33c0.13,0.13,0.27,0.16,0.39,0.06c0.22-0.17,0.43-0.36,0.62-0.56
		c0.37-0.37,0.73-0.76,1.09-1.13c0.11-0.12,0.22-0.12,0.34,0c0.22,0.22,0.44,0.44,0.66,0.65c0.39,0.38,0.79,0.76,1.19,1.14
		c0.1,0.1,0.2,0.13,0.32,0.01c0.44-0.42,0.88-0.84,1.32-1.27c0.03-0.03,0.05-0.06,0.07-0.1c0.18-0.28,0.42-0.3,0.63-0.06
		c0.07,0.07,0.14,0.13,0.21,0.2c0.41,0.37,0.83,0.74,1.23,1.11c0.14,0.12,0.5,0.14,0.63,0.01c0.49-0.49,0.97-0.98,1.47-1.47
		c0.11-0.11,0.23-0.2,0.38-0.05c0.21,0.21,0.42,0.43,0.63,0.64c0.32,0.33,0.64,0.67,0.97,1c0.13,0.13,0.27,0.19,0.44,0.01
		c0.35-0.38,0.72-0.76,1.08-1.13c0.16-0.16,0.33-0.32,0.49-0.48c0.15-0.15,0.27-0.12,0.41,0.03c0.5,0.52,1.01,1.02,1.51,1.53
		c0.17,0.17,0.32,0.17,0.49,0.01c0.1-0.09,0.19-0.2,0.29-0.3c0.43-0.4,0.86-0.8,1.29-1.19c0.1-0.09,0.21-0.15,0.32-0.23
		c0.21,0.19,0.42,0.37,0.6,0.56c0.36,0.38,0.72,0.77,1.08,1.17c0.12,0.14,0.24,0.15,0.38,0.03c0.32-0.31,0.65-0.62,0.97-0.93
		c0.12-0.12,0.26-0.23,0.38-0.35c0.12-0.12,0.24-0.24,0.35-0.37c0.1-0.12,0.18-0.08,0.27,0.01c0.11,0.11,0.21,0.22,0.32,0.33
		c0.36,0.36,0.73,0.7,1.08,1.07c0.22,0.23,0.35,0.27,0.57,0.06c0.52-0.48,1.03-0.95,1.53-1.44c0.11-0.1,0.18-0.12,0.29-0.02
		c0.55,0.52,1.1,1.03,1.63,1.56c0.16,0.15,0.29,0.13,0.43,0.01c0.09-0.08,0.15-0.19,0.24-0.28c0.39-0.37,0.79-0.73,1.18-1.1
		c0.31-0.3,0.37-0.28,0.65,0.03c0.41,0.46,0.85,0.88,1.28,1.32c0.12,0.12,0.24,0.14,0.38,0c0.51-0.49,1.04-0.97,1.55-1.47
		c0.15-0.14,0.27-0.17,0.41-0.01c0.46,0.51,0.93,1.01,1.39,1.53c0.17,0.19,0.43,0.27,0.61,0.12c0.37-0.31,0.73-0.63,1.08-0.96
		c0.06-0.06,0.09-0.17,0.09-0.26c0.03-0.33,0.03-0.65,0.05-0.98c0.02-0.3-0.02-0.56-0.27-0.77c-0.23-0.2-0.41-0.45-0.62-0.66
		c-0.12-0.13-0.13-0.23,0-0.36c0.06-0.06,0.11-0.13,0.17-0.18c0.51-0.46,0.89-1,1.09-1.68c0.07-0.23,0.03-0.4-0.11-0.56
		c-0.34-0.4-0.68-0.8-1.03-1.19c-0.15-0.16-0.14-0.28,0.02-0.43c0.36-0.33,0.71-0.67,1.06-1.02c0.13-0.13,0.24-0.29,0.32-0.46
		c0.09-0.19,0.12-0.4-0.03-0.58c-0.18-0.21-0.36-0.42-0.55-0.63c-0.22-0.24-0.46-0.47-0.68-0.71c-0.13-0.14-0.25-0.31-0.09-0.5
		c0.22-0.24,0.47-0.46,0.69-0.7c0.25-0.27,0.49-0.55,0.7-0.85c0.06-0.08,0.09-0.26,0.04-0.34c-0.21-0.31-0.43-0.61-0.68-0.89
		c-0.28-0.31-0.59-0.59-0.9-0.89c0.16-0.16,0.3-0.31,0.45-0.45c0.44-0.41,0.9-0.81,1.18-1.36c0.04-0.08,0.05-0.24,0-0.31
		c-0.37-0.46-0.75-0.91-1.13-1.36c-0.14-0.17-0.27-0.34-0.38-0.47c0.5-0.58,0.97-1.13,1.46-1.67c0.17-0.18,0.16-0.36,0.04-0.52
		c-0.19-0.27-0.42-0.52-0.64-0.78c-0.25-0.28-0.5-0.56-0.76-0.84c-0.13-0.14-0.13-0.23,0.02-0.36c0.36-0.31,0.73-0.61,1.05-0.96
		c0.18-0.2,0.44-0.35,0.47-0.68c0.04-0.37-0.21-0.57-0.41-0.8c-0.33-0.37-0.68-0.73-1.01-1.09c-0.12-0.13-0.1-0.26,0.03-0.38
		c0.2-0.18,0.39-0.38,0.58-0.57c0.19-0.18,0.39-0.35,0.57-0.53c0.1-0.1,0.23-0.21,0.24-0.32c0.03-0.29-0.06-0.58-0.27-0.8
		c-0.41-0.4-0.83-0.8-1.24-1.19c-0.19-0.18-0.19-0.26,0.01-0.44c0.34-0.31,0.71-0.59,1.03-0.91c0.2-0.21,0.5-0.35,0.48-0.74
		c-0.02-0.33-0.23-0.51-0.42-0.72c-0.33-0.36-0.68-0.72-1.02-1.08c-0.14-0.15-0.08-0.27,0.05-0.39
		C85.17,37.98,85.58,37.59,85.96,37.19z"/>
	<g>
		<g>
			<path d="M21.16,61.7h2.27l1.67,3.1l1.67-3.1h2.27v4.82h-1.44v-3.46H27.6l-1.94,3.46h-1.11l-1.94-3.46H22.6v3.46h-1.44V61.7z"/>
			<path d="M30.28,63.39c0-1.41,0.79-1.75,2.13-1.75h2.37c1.33,0,2.13,0.33,2.13,1.75v1.44c0,1.41-0.79,1.75-2.13,1.75H32.4
				c-1.33,0-2.13-0.33-2.13-1.75V63.39z M31.8,64.37c0,0.7,0.15,0.97,0.85,0.97h1.89c0.7,0,0.85-0.27,0.85-0.97v-0.52
				c0-0.6-0.15-0.97-0.93-0.97h-1.73c-0.78,0-0.93,0.37-0.93,0.97V64.37z"/>
			<path d="M38.12,61.7h1.48v3.58h3.32v1.24h-4.8V61.7z"/>
			<path d="M43.89,61.7h5.28v1.12h-3.8v0.77h3.6v1h-3.6v0.77h3.88v1.16h-5.36V61.7z"/>
			<path d="M50.37,63.39c0-1.41,0.79-1.75,2.13-1.75h1.74c2.11,0,2.38,0.45,2.36,1.82h-1.48v-0.13c0-0.35-0.25-0.45-0.69-0.45h-1.61
				c-0.78,0-0.93,0.37-0.93,0.97v0.52c0,0.7,0.15,0.97,0.85,0.97h1.58c0.67,0,0.87-0.07,0.87-0.67h1.48v0.45
				c0,0.81-0.29,1.45-1.78,1.45h-2.38c-1.33,0-2.13-0.33-2.13-1.75V63.39z"/>
			<path d="M60.02,61.7h1.93l2.65,4.82h-1.65l-0.46-0.85h-3l-0.43,0.85h-1.65L60.02,61.7z M60.05,64.63h1.89l-0.96-1.81L60.05,64.63
				z"/>
			<path d="M65.51,61.7h4.46c1.48,0,2,0.49,2,1.68v1.47c0,1.19-0.52,1.68-2,1.68h-4.46V61.7z M66.99,65.28h2.62
				c0.63,0,0.88-0.18,0.88-0.87v-0.65c0-0.69-0.25-0.87-0.88-0.87h-2.62V65.28z"/>
			<path d="M75.33,61.7h1.93l2.65,4.82h-1.65l-0.46-0.85h-3l-0.43,0.85h-1.65L75.33,61.7z M75.36,64.63h1.89l-0.96-1.81L75.36,64.63
				z"/>
		</g>
		<g>
			<path d="M78.64,34.56c-0.09-0.37-0.33-0.74-0.7-0.84c-0.38-0.1-0.77,0.14-1.07,0.39c-0.42,0.36-0.78,0.78-1.18,1.16
				c-2.04,1.96-5.02,2.67-7.85,2.59c-1.98-0.05-3.94-0.45-5.92-0.43c-1.04,0.01-2.08,0.14-3.09,0.38c-0.66,0.16-1.37,0.51-2.06,0.48
				c-0.71-0.04-1.43-0.11-2.15-0.12c-1.78-0.03-3.57-0.06-5.34-0.01c-1.73,0.05-3.43,0.38-5.11,0.79c-0.75,0.19-1.5,0.39-2.26,0.51
				c-0.87,0.14-1.75,0.17-2.63,0.19c-1.19,0.03-2.73,0.13-3.81-0.47c-0.54-0.3-1.15-0.49-1.71-0.75c-0.62-0.28-1.23-0.57-1.83-0.87
				c-0.68-0.33-1.35-0.71-2.06-0.99c-0.23-0.09-2-1.01-2.15-1.06c-0.02-0.01-0.05-0.01-0.07,0c-0.02,0.02-0.01,0.04-0.01,0.07
				c0.09,0.45,0.22,0.9,0.39,1.32c-0.45-0.12-0.89-0.34-1.33-0.49c-0.58-0.2-1.19-0.49-1.81-0.44c-0.05,0.14,0.05,0.26,0.14,0.36
				c0.52,0.55,1.05,1.09,1.61,1.6c-0.37,0.57-0.72,1.16-1.04,1.77c-0.13,0.24-0.25,0.49-0.29,0.76c-0.03,0.22,0,0.45,0.03,0.67
				c0.12,0.91,0.23,1.82,0.35,2.74c0.03,0.22,0.05,0.45-0.03,0.65c-0.06,0.15-0.22,0.3-0.24,0.46c-0.01,0.17,0.12,0.33,0.22,0.47
				c0.39,0.58,0.96,0.89,1.59,1.08c0.3,0.09,0.67,0.05,0.99-0.02c0.65-0.15,1.29-0.34,1.91-0.57c0.52-0.19,0.98-0.65,1.42-0.97
				c0.34,0.75,0.7,1.5,1.16,2.18c0.46,0.68,1.04,1.3,1.75,1.72c0.05,0.03,0.1,0.06,0.1,0.11c0.01,0.15-0.29,0.4-0.39,0.5
				c-0.19,0.21-0.39,0.42-0.59,0.62c-0.39,0.39-0.8,0.76-1.2,1.14c-0.33,0.31-0.67,0.62-1.01,0.92c-0.52,0.46-1.06,0.91-1.61,1.33
				c-0.13,0.1-0.27,0.2-0.43,0.25c-0.16,0.05-0.32,0.04-0.48,0.04c-0.56,0-1.13,0.11-1.61,0.4c-0.48,0.29-0.85,0.79-0.9,1.35
				c-0.01,0.09,0,0.2,0.05,0.27c0.07,0.09,0.2,0.11,0.32,0.11c0.8,0.05,1.53,0.2,2.32,0c0.44-0.11,0.88-0.18,1.32-0.28
				c0.14-0.03,0.29-0.09,0.4-0.18c0.7-0.61,1.57-0.86,2.39-1.23c1.57-0.7,3.13-1.41,4.68-2.15c0.49-0.24,1.07-0.57,1.49-0.92
				c0.05,0.86,0.04,1.73-0.01,2.6c-0.01,0.22-0.03,0.43-0.05,0.65c-0.02,0.25-0.1,0.21-0.32,0.19c-0.76-0.07-1.71,0.1-2.28,0.64
				c-0.23,0.21-0.4,0.48-0.48,0.79c-0.02,0.09-0.12,0.95-0.01,0.95c0,0,3.83,0,3.83,0c0.55-0.38,1.06-0.81,1.45-1.36
				c0.44-0.61,0.66-1.35,0.86-2.07c0.19-0.73,0.36-1.47,0.45-2.21c0.05-0.38,0.1-0.77,0.09-1.15c-0.01-0.3-0.08-0.56-0.06-0.87
				c0-0.01,0-0.02,0-0.02c0.01-0.03,0.06-0.02,0.09-0.01c0.37,0.17,0.8,0.24,1.17,0.43c0.59,0.16,1.2,0.25,1.81,0.32
				c1.1,0.14,2.2,0.27,3.31,0.2c0.63-0.04,1.25-0.14,1.85-0.33c0.3-0.1,0.59-0.21,0.87-0.36c0.09-0.04,0.3-0.22,0.39-0.22
				c0.14,0,0.25,0.2,0.35,0.3c0.39,0.39,0.86,0.74,1.26,1.13c0.5,0.49,1.01,0.97,1.51,1.47c0.57,0.56,0.56,0.89-0.08,1.35
				c-0.43,0.31-0.87,0.59-1.32,0.87c-0.35,0.23-0.7,0.57-1.16,0.47c-0.11-0.02-0.21-0.07-0.31-0.1c-0.3-0.09-0.63-0.04-0.93,0.07
				c-0.37,0.13-0.72,0.34-0.95,0.66c-0.32,0.44-0.43,1.18,0.18,1.41c0.03,0.01,0.06,0.02,0.1,0.03c0.41,0,0.82,0,1.23,0
				c0.59,0,1.26,0.13,1.77-0.19c1.63-1.03,3.16-2.21,4.61-3.47c0.3-0.26,0.61-0.55,0.69-0.94c0.09-0.46-0.18-0.92-0.45-1.3
				c-0.46-0.66-0.97-1.28-1.53-1.86c0.83,0.03,1.66,0.05,2.5,0.06c0.02,0,0.04,0,0.06,0.01c0.02,0.01,0.03,0.04,0.04,0.06
				c0.2,0.55,0.2,1.28,0.24,1.86c0.06,0.71,0.07,1.41,0.05,2.12c0,0.11-0.01,0.22-0.06,0.31c-0.08,0.12-0.22,0.18-0.34,0.26
				c-0.32,0.23-0.41,0.7-0.28,1.07c0.14,0.37,0.46,0.65,0.82,0.82c0.33,0.15,0.71,0.23,1.05,0.11c0.38-0.14,0.64-0.5,0.76-0.88
				s0.12-0.79,0.12-1.2c0-1.59-0.01-3.18-0.01-4.77c0-0.52,0-1.04-0.07-1.55c-0.04-0.29-0.11-0.6-0.31-0.82
				c-0.11-0.13-0.26-0.22-0.42-0.3c-0.39-0.2-1.25-0.24-1.54-0.53c-0.1-0.1-0.13-0.26-0.14-0.4c-0.07-0.82,0.15-1.52,0.18-2.33
				c0.03-0.84-0.03-1.68,0.06-2.52c0.01-0.07,0.01-0.13,0.05-0.19c0.05-0.1,0.16-0.14,0.27-0.18c0.3-0.11,0.61-0.22,0.92-0.29
				c0.75-0.15,1.52-0.19,2.28-0.2c1.85-0.02,3.7,0.15,5.55,0.16c1.85,0.01,3.73-0.15,5.46-0.79C76.08,38.49,79.18,36.68,78.64,34.56
				z"/>
		</g>
	</g>
</g>
</svg>
