<?xml version="1.0" encoding="utf-8"?>
<!-- Generator: Adobe Illustrator 27.5.0, SVG Export Plug-In . SVG Version: 6.00 Build 0)  -->
<svg version="1.1" id="Layer_1" xmlns="http://www.w3.org/2000/svg" xmlns:xlink="http://www.w3.org/1999/xlink" x="0px" y="0px"
	 viewBox="0 0 100.27 100.27" style="enable-background:new 0 0 100.27 100.27;" xml:space="preserve">
<style type="text/css">
	.st0{fill:#FFFFFF;}
	.st1{fill:#020304;}
	.st2{fill:#1E1E1C;}
</style>
<g>
	<g>
		<polygon class="st0" points="67.23,57.12 83.11,57.12 79.27,63.1 83.11,69.07 74.99,69.07 74.99,62.97 67.63,57.49 67.63,62.76 
			67.23,62.76 		"/>
		<polygon class="st0" points="33.04,57.12 17.16,57.12 21.01,63.1 17.16,69.07 25.28,69.07 25.28,62.97 32.64,57.49 32.64,62.76 
			33.04,62.76 		"/>
	</g>
	<path class="st1" d="M79.99,63.1l3.63-5.64c0.12-0.19,0.13-0.43,0.02-0.62c-0.11-0.2-0.31-0.32-0.54-0.32H72.37
		c0.01-0.3,0.02-0.6,0.02-0.9v-11.4c0-2.94-1.57-5.66-4.12-7.13l-14.04-8.11c-1.27-0.73-2.7-1.1-4.12-1.1
		c-1.42,0-2.85,0.37-4.12,1.1l-14.04,8.11c-2.55,1.47-4.12,4.19-4.12,7.13v11.4c0,0.3,0.01,0.6,0.02,0.9H17.16
		c-0.22,0-0.43,0.12-0.54,0.32c-0.11,0.2-0.1,0.44,0.02,0.62l3.63,5.64l-3.63,5.64c-0.12,0.19-0.13,0.43-0.02,0.62
		c0.11,0.2,0.31,0.32,0.54,0.32h8.12c0.34,0,0.61-0.27,0.61-0.61v-5.79l2.53-1.88c0.06,0.27,0.12,0.55,0.19,0.82
		c1.16,4.8,3.57,9.17,6.93,12.69c3.02,3.18,6.8,5.66,11.13,7.16c1.11,0.38,2.27,0.58,3.43,0.58s2.32-0.19,3.43-0.58
		c4.33-1.5,8.11-3.99,11.13-7.16c0.91-0.96,1.76-1.98,2.52-3.06c2.05-2.88,3.56-6.14,4.4-9.63c0.07-0.29,0.13-0.58,0.2-0.87
		l2.6,1.93v5.79c0,0.34,0.27,0.61,0.61,0.61h8.12c0.22,0,0.43-0.12,0.54-0.32c0.11-0.2,0.1-0.44-0.02-0.62L79.99,63.1z M24.92,62.48
		c-0.16,0.12-0.25,0.3-0.25,0.49v5.49h-6.39l3.24-5.03c0.13-0.2,0.13-0.46,0-0.66l-3.24-5.03h9.62c0.06,0.78,0.15,1.56,0.27,2.32
		L24.92,62.48z M75.6,68.46v-5.49c0-0.19-0.09-0.38-0.25-0.49l-3.33-2.47c0.12-0.75,0.21-1.51,0.27-2.28h9.69l-3.24,5.03
		c-0.13,0.2-0.13,0.46,0,0.66l3.24,5.03H75.6z"/>
	<g>
		<path class="st1" d="M50.1,78.23c-0.68,0-1.35-0.11-1.99-0.33c-9.49-3.29-15.87-12.24-15.87-22.29v-11.4
			c0-1.36,0.73-2.63,1.91-3.31l14.04-8.11c0.58-0.33,1.24-0.51,1.91-0.51c0.67,0,1.33,0.18,1.91,0.51l14.04,8.11
			c1.18,0.68,1.91,1.95,1.91,3.31v11.4c0,10.05-6.38,19-15.88,22.29C51.45,78.12,50.78,78.23,50.1,78.23z"/>
		<path class="st0" d="M50.1,32.48c0.63,0,1.26,0.17,1.81,0.48l14.04,8.11c1.12,0.64,1.81,1.84,1.81,3.13v5.92v5.48
			c0,9.96-6.32,18.84-15.74,22.1c-0.62,0.21-1.26,0.32-1.92,0.32s-1.31-0.11-1.92-0.32c-9.41-3.26-15.74-12.14-15.74-22.1v-5.48
			v-5.92c0-1.29,0.69-2.49,1.81-3.13l14.04-8.11C48.84,32.65,49.47,32.48,50.1,32.48 M50.1,32.08c-0.71,0-1.4,0.19-2.01,0.54
			l-14.04,8.11c-1.24,0.72-2.01,2.05-2.01,3.48v5.92v5.48c0,10.13,6.43,19.17,16.01,22.48c0.66,0.23,1.36,0.34,2.06,0.34
			c0.7,0,1.39-0.11,2.06-0.34c9.58-3.31,16.01-12.35,16.01-22.48v-5.48v-5.92c0-1.43-0.77-2.77-2.01-3.48l-14.04-8.11
			C51.5,32.26,50.81,32.08,50.1,32.08L50.1,32.08z"/>
	</g>
	<path class="st0" d="M66.61,39.91L52.57,31.8c-1.5-0.87-3.44-0.87-4.94,0l-14.04,8.11c-1.52,0.88-2.47,2.52-2.47,4.28v11.4
		c0,10.52,6.68,19.91,16.63,23.35c0.76,0.26,1.55,0.4,2.36,0.4c0.8,0,1.6-0.13,2.36-0.4c9.95-3.44,16.63-12.82,16.63-23.35v-11.4
		C69.09,42.43,68.14,40.79,66.61,39.91z M68.17,55.59c0,10.13-6.43,19.17-16.01,22.48c-1.33,0.46-2.79,0.46-4.11,0
		c-9.58-3.31-16.01-12.35-16.01-22.48v-11.4c0-1.43,0.77-2.77,2.01-3.49l14.04-8.11c0.61-0.35,1.31-0.54,2.01-0.54
		c0.71,0,1.4,0.19,2.01,0.54l14.04,8.11c1.24,0.72,2.01,2.05,2.01,3.49V55.59z"/>
	<g>
		
			<rect x="25.39" y="63.35" transform="matrix(-1 -1.224647e-16 1.224647e-16 -1 100.2028 138.6394)" class="st0" width="49.43" height="11.95"/>
		<path class="st1" d="M75.43,75.9H24.77V62.73h50.65V75.9z M26,74.68h48.21V63.96H26V74.68z"/>
	</g>
	<g>
		<path class="st0" d="M35.19,57.87h1.64l1.99,2.51h0.01v-2.51h1.06v3.45h-1.64l-1.99-2.51h-0.01v2.51h-1.06V57.87z"/>
		<path class="st0" d="M40.77,59.08c0-1.01,0.57-1.25,1.52-1.25h1.7c0.95,0,1.52,0.24,1.52,1.25v1.03c0,1.01-0.57,1.25-1.52,1.25
			h-1.7c-0.95,0-1.52-0.24-1.52-1.25V59.08z M41.85,59.78c0,0.5,0.1,0.69,0.61,0.69h1.35c0.5,0,0.61-0.19,0.61-0.69v-0.37
			c0-0.43-0.11-0.69-0.66-0.69h-1.24c-0.56,0-0.66,0.26-0.66,0.69V59.78z"/>
		<path class="st0" d="M46.05,57.87h1.16l1.35,2.57l1.35-2.57h1.16l-1.86,3.45h-1.31L46.05,57.87z"/>
		<path class="st0" d="M51.7,57.87h3.78v0.8h-2.72v0.55h2.58v0.72h-2.58v0.55h2.78v0.83H51.7V57.87z"/>
		<path class="st0" d="M56.42,57.87h1.06v2.57h2.38v0.89h-3.44V57.87z"/>
		<path class="st0" d="M62.08,57.87h1.38l1.9,3.45h-1.18l-0.33-0.61H61.7l-0.31,0.61h-1.18L62.08,57.87z M62.09,59.97h1.35
			l-0.69-1.3L62.09,59.97z"/>
		<path class="st1" d="M29.28,66.15h5.63c1.87,0,2.52,0.61,2.52,2.12v1.85c0,1.51-0.66,2.12-2.52,2.12h-5.63V66.15z M31.15,70.67
			h3.31c0.8,0,1.11-0.23,1.11-1.09v-0.82c0-0.87-0.31-1.09-1.11-1.09h-3.31V70.67z"/>
		<path class="st1" d="M42.11,66.15h2.43l3.35,6.09H45.8l-0.58-1.08h-3.78l-0.55,1.08h-2.09L42.11,66.15z M42.14,69.85h2.39
			l-1.21-2.29L42.14,69.85z"/>
		<path class="st1" d="M49.28,70.24h1.87c0.01,0.65,0.27,0.7,0.81,0.7h2.29c0.4,0,0.8-0.04,0.8-0.51c0-0.53-0.22-0.56-2.62-0.56
			c-2.81,0-3.13-0.34-3.13-1.83c0-1.1,0.1-1.95,2.46-1.95h2.61c2.15,0,2.35,0.73,2.35,1.8v0.19h-1.87c0-0.45-0.05-0.63-0.91-0.63
			h-2.07c-0.42,0-0.71,0.14-0.71,0.47c0,0.53,0.23,0.55,2.23,0.54c2.9-0.01,3.57,0.17,3.57,1.94c0,1.64-0.56,1.91-3.04,1.91h-2.26
			c-1.7,0-2.38-0.32-2.38-1.64V70.24z"/>
		<path class="st1" d="M63.96,68.47c0-1.85,0.67-2.39,2.67-2.39h1.94c1.77,0,2.25,0.61,2.25,1.39v0.48H69.2
			c0-0.41-0.27-0.56-0.92-0.56h-1.64c-0.64,0-0.91,0.25-0.91,0.73v0.72c0.3-0.3,0.66-0.46,1.39-0.46h1.74c1.8,0,2.12,0.6,2.12,1.7
			v0.53c0,1.5-0.73,1.69-2.18,1.69h-2.66c-1.45,0-2.18-0.55-2.18-2.14V68.47z M68.34,70.99c0.71,0,0.92-0.16,0.92-0.68
			c0-0.51-0.19-0.66-0.95-0.66h-1.63c-0.76,0-0.95,0.15-0.95,0.66c0,0.52,0.2,0.68,0.92,0.68H68.34z"/>
	</g>
	<polygon class="st1" points="25.39,63.37 30,63.37 29.28,60.74 26.73,61.91 	"/>
	<polygon class="st1" points="71.29,60.53 74.5,63.16 70.97,63.35 	"/>
	<g>
		<g>
			<path class="st1" d="M49.33,55.13c-1.75,0-2.98-0.22-3.39-0.31c-3.58-0.38-6.92-1.75-9.41-3.86c-2.67-2.26-4.14-5.15-4.14-8.16
				c0-3.32,1.97-6.76,5.33-9.34l-0.9-8.02c-0.02-0.1-0.03-0.21-0.04-0.32c0-0.03,0-0.05-0.01-0.08c0-0.04,0-0.08,0-0.12
				c0-0.05,0-0.1,0.01-0.15c0.23-5.15,11.54-5.41,13.82-5.41c2.31,0,13.82,0.27,13.82,5.56c0,0.01,0,0.05,0,0.06l-0.19,6.81
				c3.37,1.66,4.12,4.08,4.12,5.89c0,0.22-0.01,0.45-0.04,0.69c-0.06,2.17-0.63,6.24-3.63,9.71c-4.12,4.77-9,6.35-12.37,6.83
				C51.32,55.06,50.32,55.13,49.33,55.13z M38.3,38.65c-1.11,1.35-1.73,2.8-1.73,4.15c0,4.24,5.36,7.96,11.46,7.96
				c1.23,0,2.71-0.38,4.3-1.07c-0.51,0.05-1.02,0.08-1.54,0.08c-1.37,0-2.81-0.18-4.26-0.53c-3.7-0.9-6.35-2.58-6.64-2.77
				c-0.53-0.35-0.87-0.91-0.93-1.54l-0.51-4.99L38.3,38.65z M64.03,38.5c0.04-0.14,0.07-0.28,0.09-0.4
				c0.01-0.46-0.01-0.73-0.01-0.73h0c0-0.06-0.01-0.11-0.01-0.17c-0.01-0.03-0.02-0.07-0.03-0.11L64.03,38.5z"/>
			<path class="st1" d="M50.59,21.09c5.86,0,12.09,1.34,12.09,3.83c0,0,0,0,0,0.01c0,0,0,0,0,0l-0.22,7.99
				c2.75,1.04,4.15,2.65,4.15,4.77c0,0.18-0.01,0.38-0.04,0.57c-0.05,1.82-0.5,5.56-3.21,8.7c-3.77,4.37-8.23,5.81-11.3,6.25
				c-1,0.14-1.93,0.19-2.72,0.19c-1.84,0-3.03-0.27-3.12-0.29c-6.72-0.69-12.1-5.13-12.1-10.31c0-3.03,2.03-6.21,5.43-8.53
				l-1.02-9.08c-0.01-0.07-0.02-0.14-0.02-0.21l0-0.02c0,0,0-0.01,0-0.01c0-0.01,0-0.02,0-0.03c0-0.01,0-0.01,0-0.02
				c0-0.01,0-0.01,0-0.02C38.57,22.42,44.76,21.09,50.59,21.09 M50.79,48.03c-1.24,0-2.53-0.16-3.86-0.48
				c-3.49-0.84-6-2.47-6.1-2.54c-0.09-0.06-0.15-0.16-0.16-0.26l-0.51-4.99c0,0,0,0,0,0l-0.53-4.67c-3.01,2.16-4.81,5.02-4.81,7.72
				c0,5.25,6.04,9.69,13.19,9.69c3.22,0,7.66-2.08,11.6-5.43c3.52-2.99,5.89-6.37,6.22-8.81c0.02-0.63-0.01-1.02-0.01-1.03
				c0-0.04,0-0.08,0.01-0.12c-0.23-1.48-1.35-2.61-3.41-3.44l-0.18,6.22c0,0.03-0.01,0.05-0.01,0.08c0,0,0,0,0,0.01
				c-0.75,2.73-3.24,5-3.35,5.1C56.63,47.04,53.87,48.03,50.79,48.03 M51.9,52.49c3.25-0.46,7.41-1.93,10.92-6
				c1.38-1.59,2.13-3.38,2.55-4.95c-1.12,1.96-2.94,4.08-5.28,6.07C57.39,49.9,54.52,51.6,51.9,52.49 M50.59,17.63
				c-3.36,0-6.6,0.39-9.14,1.1c-5.1,1.43-6.31,3.99-6.41,5.94c-0.01,0.08-0.01,0.17-0.01,0.25c0,0.08,0,0.16,0.01,0.24
				c0,0.03,0,0.06,0.01,0.09c0.01,0.14,0.02,0.28,0.05,0.42l0.79,7.05c-3.31,2.84-5.23,6.49-5.23,10.09c0,3.53,1.69,6.9,4.76,9.49
				c2.74,2.31,6.38,3.82,10.26,4.25c0.55,0.11,1.87,0.33,3.66,0.33c1.07,0,2.15-0.08,3.22-0.23c3.66-0.53,8.96-2.24,13.43-7.42
				c3.32-3.84,3.97-8.31,4.05-10.73c0.03-0.28,0.04-0.55,0.04-0.81c0-1.76-0.59-4.74-4.09-6.9l0.16-5.76c0-0.01,0-0.02,0-0.04
				c0-0.02,0-0.05,0-0.07c0-1.01-0.33-2.93-2.54-4.48c-0.99-0.69-2.24-1.25-3.84-1.7C57.23,18.02,53.97,17.63,50.59,17.63
				L50.59,17.63z"/>
		</g>
		<g>
			<g>
				<path class="st1" d="M62.33,33.24c2.35,0.89,3.92,2.27,3.92,4.44c0,5.52-3.92,14.81-18.22,15.17
					c-7.25,0.18-13.55-4.53-13.55-10.05c0-3.04,2.14-6.1,5.28-8.24"/>
			</g>
			<g>
				<ellipse class="st1" cx="50.59" cy="24.91" rx="11.74" ry="3.47"/>
			</g>
			<g>
				<line class="st2" x1="38.85" y1="24.91" x2="41.03" y2="44.2"/>
			</g>
			<g>
				<line class="st2" x1="62.33" y1="24.91" x2="61.9" y2="39.88"/>
			</g>
			<path class="st0" d="M62.72,32.74l0.22-7.81c0,0,0,0,0-0.01c0,0,0-0.01,0-0.01c0-2.68-6.21-4.08-12.35-4.08
				c-6.08,0-12.23,1.38-12.34,4.01c0,0.01,0,0.02,0,0.03c0,0.01,0,0.02,0,0.04c0,0.02,0,0.03,0,0.05c0,0.01,0,0.01,0,0.02l0,0.03
				c0,0.07,0.01,0.14,0.02,0.2l1.01,8.93c-3.39,2.36-5.41,5.58-5.41,8.65c0,2.33,1.07,4.66,3,6.55c2.66,2.59,6.66,4.12,10.76,4.12
				c0.14,0,0.28,0,0.42-0.01c14.85-0.38,18.82-10.1,18.82-15.78C66.86,35.48,65.46,33.82,62.72,32.74z M61.4,36.01
				C61.4,36.01,61.4,36.01,61.4,36.01L61.4,36.01L61.4,36.01c-0.01,0.23-0.3,4.4-8.59,5.74c-7.66,1.24-11.07-1.67-11.7-2.29
				L39.7,26.94c2.19,1.35,6.56,2.05,10.89,2.05c4.45,0,8.94-0.74,11.07-2.17L61.4,36.01z M50.59,22.06c6.79,0,11.12,1.69,11.12,2.86
				l0,0.01c-0.01,1.17-4.34,2.85-11.12,2.85c-6.55,0-10.81-1.57-11.11-2.73l-0.02-0.15C39.51,23.73,43.83,22.06,50.59,22.06z
				 M48.01,52.24c-3.92,0.1-7.77-1.31-10.29-3.77c-1.7-1.66-2.63-3.67-2.63-5.67c0-2.51,1.61-5.18,4.35-7.26l0.48,4.26l0.5,4.97
				c0.02,0.18,0.12,0.35,0.27,0.45c0.11,0.07,2.65,1.72,6.18,2.57c1.35,0.33,2.66,0.49,3.92,0.49c3.14,0,5.96-1.02,8.28-3.02
				c0.11-0.1,2.65-2.42,3.42-5.22c0,0,0-0.01,0-0.01c0.01-0.04,0.02-0.09,0.02-0.14l0.16-5.85c1.99,0.88,2.96,2.07,2.96,3.63
				C65.64,42.92,61.93,51.89,48.01,52.24z"/>
		</g>
	</g>
</g>
</svg>
