<?xml version="1.0" encoding="utf-8"?>
<!-- Generator: Adobe Illustrator 27.5.0, SVG Export Plug-In . SVG Version: 6.00 Build 0)  -->
<svg version="1.1" id="Layer_1" xmlns="http://www.w3.org/2000/svg" xmlns:xlink="http://www.w3.org/1999/xlink" x="0px" y="0px"
	 viewBox="0 0 100.27 100.27" style="enable-background:new 0 0 100.27 100.27;" xml:space="preserve">
<style type="text/css">
	.st0{fill:#FFFFFF;}
	.st1{fill:#020203;}
</style>
<g>
	<g>
		<path class="st0" d="M17.06,84.16c-1.28,0-2.32-1.04-2.32-2.32v-2.71c0-0.88,0.17-1.66,0.52-2.32c-0.33-0.41-0.52-0.91-0.52-1.44
			V72.3c0-0.36,0.08-0.71,0.24-1.03c-0.16-0.32-0.24-0.67-0.24-1.03v-1.88c0-0.5,0.16-0.98,0.45-1.37
			c-0.29-0.39-0.45-0.87-0.45-1.37v-3.63c0-0.38,0.09-0.75,0.27-1.08c-0.24-0.62-0.36-1.37-0.36-2.26c0-0.84,0.11-1.58,0.33-2.2
			c-0.16-0.32-0.24-0.67-0.24-1.03v-4.52c0-0.15,0.02-0.29,0.05-0.45c-0.03-0.15-0.05-0.3-0.05-0.45v-2.34c0-0.6,0-1.56,0.34-2.48
			c-0.22-0.36-0.34-0.78-0.34-1.21v-1.88c0-0.21,0.03-0.43,0.09-0.63c-0.06-0.2-0.09-0.42-0.09-0.63v-2.75
			c0-0.22,0.03-0.43,0.09-0.64c-0.06-0.21-0.09-0.42-0.09-0.64v-1.75c0-0.22,0.03-0.43,0.09-0.63c-0.06-0.2-0.09-0.42-0.09-0.63
			V31.9c0-0.19,0.02-0.37,0.07-0.55c-0.04-0.18-0.07-0.36-0.07-0.55v-1.88c0-0.37,0.09-0.74,0.27-1.07
			c-0.17-0.33-0.27-0.7-0.27-1.07v-3.07c0-1.15,0.83-2.12,1.97-2.29l16.51-2.5l0.02,0.04c0.28-0.03,0.59-0.05,0.91-0.05
			c0.46-0.01,0.92-0.01,1.38-0.01c0.66,0,1.32,0.01,1.97,0.01l0.11,0c0.6,0,1.2,0.01,1.79,0.01c0.47,0,0.94,0,1.41-0.01
			c0.04,0,0.11-0.02,0.16-0.04c1.8-1.74,4.26-2.74,6.77-2.74c2.46,0,4.72,0.94,6.55,2.73c0.7,0.04,1.33,0.05,1.95,0.05
			c0.63,0,1.26-0.01,1.88-0.02l0.91-0.01c0.5,0,0.99,0,1.47-0.02c0.18,0,0.36-0.01,0.54-0.01c0.22,0,0.44,0.01,0.67,0.02
			c4.83,0.1,7.63,2.96,7.63,7.84v13.07c0.2,0.05,0.42,0.08,0.7,0.08c5.7,0.09,10.59,3.84,12.18,9.32c0.17,0.6,0.6,1.25,1.05,1.93
			c3.19,4.73,3.12,9.89-0.2,14.51c-0.33,0.46-0.62,1.04-0.84,1.69c-1.74,5.7-6.22,9.08-12.27,9.27c-0.36,0.02-0.88,0.2-1.18,0.41
			c-2.25,1.49-4.29,2.4-7.62,2.4c-0.05,0-0.21,0-0.21,0c-1.59,0-2.88-0.8-3.92-1.45c-0.66-0.41-1.28-0.79-1.71-0.79
			c-0.2,0.01-0.34,0.02-0.48,0.02c-0.85,0-1.84-0.22-3.02-0.66c-0.87,1.24-1.93,2.45-3.37,3.88c-1.63,1.61-3.48,2.71-5.5,3.28
			c-1.06,0.3-2.15,0.45-3.27,0.45C39.5,84.11,17.06,84.16,17.06,84.16z"/>
		<path d="M47.76,16.83c2.12,0,4.3,0.78,6.12,2.6c0.08,0.07,0.29,0.14,0.44,0.14c0.65,0.03,1.3,0.03,1.93,0.03s1.27-0.01,1.89-0.02
			c0.8-0.01,1.62,0,2.39-0.03c0.17,0,0.35-0.01,0.52-0.01c0.2,0,0.41,0.01,0.62,0.02c4.47,0.09,6.98,2.63,6.98,7.14v13.54
			c0.41,0.22,0.84,0.31,1.41,0.31c5.38,0.09,9.99,3.63,11.5,8.81c0.2,0.69,0.65,1.4,1.14,2.13c3.01,4.47,2.95,9.34-0.18,13.7
			c-0.38,0.52-0.7,1.17-0.93,1.88c-1.65,5.39-5.89,8.61-11.62,8.78c-0.5,0.02-1.16,0.25-1.57,0.54c-2.13,1.41-4.06,2.26-7.2,2.26
			c-0.07,0-0.14,0.01-0.21,0.01c-1.39,0-2.53-0.71-3.55-1.34c-0.77-0.48-1.45-0.9-2.08-0.9c-0.04,0-0.08,0-0.12,0.01
			c-0.12,0.01-0.24,0.02-0.36,0.02c-0.88,0-1.95-0.26-3.29-0.82c-0.92,1.38-2.03,2.68-3.6,4.24c-1.54,1.52-3.29,2.57-5.2,3.11
			c-0.99,0.28-2.02,0.42-3.07,0.42c-0.2,0-22.64,0.04-22.64,0.04c-0.89,0-1.61-0.72-1.61-1.61v-2.71c0-1.01,0.26-1.82,0.72-2.44
			c-0.43-0.29-0.72-0.77-0.72-1.32V72.3c0-0.39,0.14-0.75,0.38-1.03c-0.23-0.28-0.38-0.63-0.38-1.03v-1.88
			c0-0.58,0.31-1.09,0.77-1.37c-0.46-0.28-0.77-0.79-0.77-1.37v-3.63c0-0.39,0.14-0.74,0.37-1.01c-0.3-0.59-0.45-1.36-0.45-2.33
			c0-0.92,0.14-1.67,0.41-2.27c-0.2-0.27-0.32-0.6-0.32-0.96v-4.52c0-0.16,0.03-0.3,0.07-0.45c-0.04-0.14-0.07-0.29-0.07-0.45v-2.34
			c0-0.63,0-1.69,0.45-2.58c-0.28-0.29-0.45-0.68-0.45-1.11v-1.88c0-0.22,0.05-0.44,0.13-0.63c-0.08-0.19-0.13-0.41-0.13-0.63v-2.75
			c0-0.22,0.05-0.44,0.13-0.64c-0.09-0.2-0.13-0.41-0.13-0.64v-1.75c0-0.22,0.05-0.44,0.13-0.63c-0.08-0.19-0.13-0.41-0.13-0.63
			V31.9c0-0.19,0.03-0.38,0.1-0.55c-0.06-0.17-0.1-0.36-0.1-0.55v-1.88c0-0.41,0.16-0.79,0.42-1.07c-0.26-0.29-0.42-0.66-0.42-1.07
			v-3.07c0-0.79,0.58-1.47,1.37-1.59l16.03-2.43l0.01,0.02c0.42-0.05,0.84-0.09,1.3-0.1c0.46-0.01,0.92-0.01,1.38-0.01
			c0.65,0,1.31,0.01,1.96,0.01c0.64,0.01,1.28,0.01,1.92,0.01c0.47,0,0.94,0,1.41-0.01c0.2,0,0.49-0.11,0.59-0.19
			C43.06,17.81,45.37,16.83,47.76,16.83 M47.76,15.41c-2.61,0-5.18,1.01-7.1,2.79c-0.42,0.01-0.82,0.01-1.23,0.01
			c-0.6,0-1.19,0-1.79-0.01l-0.12,0c-0.66-0.01-1.32-0.01-1.97-0.01c-0.47,0-0.94,0-1.4,0.01c-0.17,0-0.34,0.01-0.5,0.02l-0.03-0.05
			l-0.97,0.12l-16.03,2.43c-1.49,0.23-2.57,1.49-2.57,2.99v3.07c0,0.37,0.07,0.73,0.2,1.07c-0.13,0.34-0.2,0.7-0.2,1.07v1.88
			c0,0.19,0.02,0.37,0.05,0.55c-0.03,0.18-0.05,0.36-0.05,0.55v1.88c0,0.21,0.02,0.43,0.07,0.63c-0.04,0.21-0.07,0.42-0.07,0.63
			v1.75c0,0.22,0.02,0.43,0.07,0.64c-0.04,0.21-0.07,0.42-0.07,0.64v2.75c0,0.21,0.02,0.42,0.07,0.63
			c-0.04,0.21-0.07,0.42-0.07,0.63v1.88c0,0.45,0.1,0.88,0.28,1.28c-0.28,0.95-0.28,1.87-0.28,2.42v2.34c0,0.15,0.01,0.3,0.04,0.45
			c-0.02,0.15-0.04,0.3-0.04,0.45v4.52c0,0.37,0.07,0.73,0.2,1.07c-0.19,0.64-0.28,1.36-0.28,2.16c0,0.85,0.1,1.59,0.3,2.23
			c-0.14,0.35-0.22,0.73-0.22,1.11v3.63c0,0.49,0.11,0.95,0.33,1.37c-0.21,0.42-0.33,0.88-0.33,1.37v1.88c0,0.35,0.06,0.7,0.18,1.03
			c-0.12,0.33-0.18,0.68-0.18,1.03v3.07c0,0.54,0.15,1.05,0.41,1.51c-0.27,0.67-0.41,1.42-0.41,2.25v2.71
			c0,1.67,1.36,3.03,3.03,3.03c0,0,22.43-0.04,22.64-0.04c1.18,0,2.34-0.16,3.46-0.47c2.14-0.61,4.1-1.77,5.81-3.46
			c1.3-1.29,2.3-2.41,3.13-3.53c1.04,0.35,1.95,0.52,2.76,0.52c0.17,0,0.33-0.01,0.48-0.02c0.23,0,0.89,0.41,1.33,0.69
			c1.12,0.7,2.51,1.56,4.3,1.56c0.08,0,0.16,0,0.25-0.01c3.47-0.01,5.69-1,7.95-2.5l0.02-0.02l0.02-0.02
			c0.18-0.13,0.57-0.26,0.81-0.28c6.35-0.2,11.07-3.76,12.91-9.79c0.18-0.54,0.44-1.06,0.73-1.46c3.5-4.88,3.58-10.32,0.21-15.32
			c-0.4-0.6-0.81-1.24-0.95-1.74c-1.68-5.78-6.84-9.73-12.83-9.83c-0.01,0-0.01,0-0.02,0V26.71c0-5.24-3.11-8.43-8.33-8.55
			c-0.23-0.02-0.46-0.02-0.69-0.02c-0.19,0-0.37,0-0.56,0.01c-0.47,0.01-0.96,0.02-1.45,0.02c-0.31,0-0.62,0-0.93,0.01
			c-0.62,0.01-1.24,0.02-1.87,0.02c-0.6,0-1.14-0.01-1.64-0.02C52.69,16.36,50.32,15.41,47.76,15.41L47.76,15.41z"/>
	</g>
	<g>
		<path d="M61.54,21.18c-0.5-0.04-0.96,0-1.46,0c-1.92,0-3.84,0.08-5.76,0c-0.54,0-1.23-0.23-1.58-0.62
			c-3.23-3.23-7.72-2.42-10.18,0c-0.38,0.38-1.11,0.65-1.69,0.65c-2.23,0.04-4.46-0.04-6.69,0c-4.03,0.04-5.76,1.81-5.76,5.73v39.9
			c0.04,3.23,1.81,5.03,5.03,5.03c1.69,0,3.38-0.11,5.03-0.08c7.8,0,15.64,0.08,23.44,0.12c3.27,0,5.11-1.88,5.11-5.07V26.71
			C67.04,23.1,65.23,21.26,61.54,21.18z M64.08,66.38c0,2.19-0.46,2.61-2.69,2.61h-27.7c-1.73,0-2.34-0.54-2.34-2.23
			c0-10.91,0-21.82,0.04-32.74c0-0.46,0.15-7.74,0.15-8.2c0.08-1.19,0.77-1.54,1.84-1.54c2.96,0.04,5.92,0,8.88,0.04
			c0.81,0,1.38-0.11,1.69-0.92c1.04-2.73,6.34-2.77,7.49-0.19c0.42,0.92,1.08,1.15,2.07,1.11c2.73-0.08,5.42-0.04,8.15,0
			c1.88,0,2.42,0.5,2.42,2.38V66.38z"/>
		<path class="st0" d="M61.66,24.33c-2.73-0.04-5.42-0.08-8.15,0c-1,0.04-1.65-0.19-2.07-1.11c-1.15-2.57-6.46-2.54-7.49,0.19
			c-0.31,0.81-0.88,0.92-1.69,0.92c-2.96-0.04-5.92,0-8.88-0.04c-1.08,0-1.77,0.35-1.84,1.54c0,0.46-0.15,7.74-0.15,8.2
			c-0.04,10.91-0.04,21.82-0.04,32.74c0,1.69,0.62,2.23,2.34,2.23h27.7c2.23,0,2.69-0.42,2.69-2.61V26.71
			C64.08,24.83,63.54,24.33,61.66,24.33z M56.28,48.23c-0.15,0.09-0.29,0.17-0.43,0.17c-0.39,0-0.79,0-1.18,0
			c0.07-0.41,0.12-0.83,0.17-1.24c0.37,0,0.74,0.01,1.09,0.08c0.15,0.04,0.3,0.19,0.44,0.36C56.34,47.81,56.32,48.02,56.28,48.23z"
			/>
		<path d="M58.05,45.46c-0.04,0.85-0.73,0.58-1.27,0.58H38.53c-0.58,0-1.19,0.12-1.23-0.73c0-0.84,0.65-0.62,1.15-0.62
			c6.11,0,12.22-0.04,18.36-0.04C57.39,44.66,58.12,44.58,58.05,45.46z"/>
		<path d="M55.36,49.73c-0.38,0.19-0.73,0.58-1.11,0.61c-2.77,0.04-5.53,0-8.3,0c0,0.04,0,0.04,0,0.08c-2.53,0-5.11,0-7.64-0.04
			c-0.35,0-0.65-0.35-1-0.5c0.35-0.27,0.65-0.73,0.96-0.73c5.3-0.04,10.64-0.04,15.95,0C54.59,49.15,54.97,49.54,55.36,49.73z"/>
		<path d="M56.7,41.16c-0.31,0.15-0.58,0.42-0.85,0.42c-2.96,0.04-5.92,0.04-8.88,0.04c0,0,0,0,0,0.04c-2.69,0-5.42,0-8.14-0.04
			c-0.54,0-1.46,0.38-1.5-0.62c0-1.07,0.92-0.58,1.46-0.58c5.11-0.04,10.22-0.04,15.33-0.08c0.61,0,1.23-0.04,1.8,0.08
			C56.2,40.51,56.43,40.89,56.7,41.16z"/>
		<path d="M58.05,30.98c-0.54,0.08-1.04,0.27-1.58,0.31H37.72c-0.04-0.15-0.08-0.27-0.12-0.42c0.5-0.19,1.04-0.58,1.54-0.58
			c1.08-0.08,2.15,0.04,3.23,0.04c4.61,0,9.18-0.04,13.79-0.04c0.62,0,1.23,0.12,1.84,0.19C58.01,30.63,58.05,30.79,58.05,30.98z"/>
		<path d="M47.75,36.32v0.46c-0.54,0.11-1.11,0.35-1.65,0.35c-2.61,0.04-5.26,0.04-7.88,0.04c-0.31,0-0.62-0.35-0.88-0.5
			c0.19-0.27,0.42-0.73,0.65-0.73c2.96-0.04,5.92-0.04,8.84,0C47.13,35.93,47.44,36.16,47.75,36.32z"/>
		<path d="M43.25,54.38c-0.27,0.15-0.54,0.42-0.81,0.46c-0.73,0.04-1.46,0-2.15,0c0,0.04,0,0.04,0,0.04c-0.77,0-1.54,0.08-2.27,0
			c-0.27-0.04-0.5-0.46-0.73-0.73c0.27-0.19,0.5-0.54,0.73-0.54c1.46,0,2.96,0,4.42,0.11C42.71,53.76,42.98,54.15,43.25,54.38z"/>
		<path d="M43.25,58.97c-0.27,0.15-0.54,0.42-0.81,0.46c-0.73,0.04-1.46,0-2.15,0c0,0.04,0,0.04,0,0.04c-0.77,0-1.54,0.08-2.27,0
			c-0.27-0.04-0.5-0.46-0.73-0.73c0.27-0.19,0.5-0.54,0.73-0.54c1.46,0,2.96,0,4.42,0.11C42.71,58.35,42.98,58.74,43.25,58.97z"/>
		<path d="M43.25,63.09c-0.27,0.15-0.54,0.42-0.81,0.46c-0.73,0.04-1.46,0-2.15,0c0,0.04,0,0.04,0,0.04c-0.77,0-1.54,0.08-2.27,0
			c-0.27-0.04-0.5-0.46-0.73-0.73c0.27-0.19,0.5-0.54,0.73-0.54c1.46,0,2.96,0,4.42,0.11C42.71,62.48,42.98,62.86,43.25,63.09z"/>
	</g>
	<g>
		<path d="M81.35,52.39c-0.54-0.81-1.08-1.65-1.35-2.57c-1.31-4.5-5.22-7.57-9.95-7.65c-1.04,0-1.88-0.23-2.73-0.85
			c-3.77-2.65-7.64-2.77-11.45-0.23c-1.15,0.73-2.27,1.04-3.61,1.11c-4.26,0.15-7.84,2.92-9.14,6.68c-0.42,1.27-1.08,2.5-1.77,3.65
			c-2.27,3.69-2.38,7.3-0.15,11.03c0.88,1.5,2.6,5.52,2.79,5.73c0.89,0.77,8.23,5.78,11.08,5.53c2.34-0.21,3.92,2.34,6.11,2.23
			c2.61,0,4.23-0.62,6.26-1.96c0.69-0.5,1.65-0.81,2.46-0.84c5-0.15,8.68-2.92,10.14-7.68c0.27-0.81,0.65-1.61,1.15-2.31
			C83.93,60.46,83.97,56.27,81.35,52.39z M78.55,63.35c-0.46,0.5-0.84,1.23-1,1.92c-0.92,3.8-3.54,5.99-7.45,6.15
			c-0.58,0.04-1.19-0.07-1.77,0.08c-0.65,0.15-1.38,0.38-1.85,0.81c-1.42,1.38-3.07,2-4.99,2.04c-1.96,0.04-3.65-0.62-5.03-1.96
			c-0.73-0.69-1.46-0.84-2.42-0.92c-1.69-0.15-3.5-0.35-5-1.04c-2.23-0.92-3.26-2.92-3.76-5.26c-0.19-0.69-0.65-1.38-1.15-1.92
			c-2.38-2.61-2.34-7.3,0.08-9.87c0.46-0.5,0.88-1.15,1.04-1.77c1-4.34,3.3-6.42,7.68-6.61c1.58-0.04,2.84-0.35,4.15-1.42
			c2.73-2.27,6.91-1.84,9.53,0.54c0.46,0.42,1.19,0.65,1.84,0.77c1.11,0.19,2.31,0.11,3.42,0.35c3.07,0.65,5.11,2.92,5.65,6.07
			c0.08,0.54,0.31,1.15,0.69,1.54C81.16,55.62,81.31,60.16,78.55,63.35z"/>
		<path class="st0" d="M78.2,52.82c-0.38-0.38-0.62-1-0.69-1.54c-0.54-3.15-2.57-5.42-5.65-6.07c-1.11-0.23-2.31-0.15-3.42-0.35
			c-0.65-0.12-1.38-0.35-1.84-0.77c-2.61-2.38-6.8-2.8-9.53-0.54c-1.31,1.08-2.57,1.38-4.15,1.42c-4.38,0.19-6.68,2.27-7.68,6.61
			c-0.15,0.61-0.58,1.27-1.04,1.77c-2.42,2.57-2.46,7.26-0.08,9.87c0.5,0.54,0.96,1.23,1.15,1.92c0.5,2.34,1.54,4.34,3.76,5.26
			c1.5,0.69,3.31,0.88,5,1.04c0.96,0.08,1.69,0.23,2.42,0.92c1.38,1.35,3.07,2,5.03,1.96c1.92-0.04,3.57-0.65,4.99-2.04
			c0.46-0.42,1.19-0.66,1.85-0.81c0.58-0.15,1.19-0.04,1.77-0.08c3.92-0.15,6.53-2.34,7.45-6.15c0.15-0.69,0.54-1.42,1-1.92
			C81.31,60.16,81.16,55.62,78.2,52.82z"/>
	</g>
	<g>
		<path class="st1" d="M17.07,81.84v-2.71c0-1.48,0.59-2.09,1.98-2.1h1.42c1.9,0.01,2.42,0.53,2.43,2.3v0.64h2.32v1.88H17.07z
			 M21.43,79.39c0-0.29-0.17-0.42-0.6-0.42h-1.96c-0.27,0-0.34,0.1-0.34,0.43v0.55h2.9V79.39z"/>
		<path class="st1" d="M17.07,75.37V72.3l8.16-1.25v1.92l-1.96,0.24v1.22l1.96,0.24v1.92L17.07,75.37z M18.19,73.81v0.02l3.68,0.44
			v-0.9L18.19,73.81z"/>
		<path class="st1" d="M17.07,70.24v-1.88h6.69v-1.83h1.47v3.72H17.07z"/>
		<path class="st1" d="M17.07,65.62v-3.63h1.47v1.75h1.79v-1.61h1.39v1.61h2.04v-1.88h1.47v3.77H17.07z"/>
		<path class="st1" d="M23.13,59.14c0.67,0,0.78-0.07,0.78-0.56c0-0.42-0.12-0.56-0.48-0.56h-0.88c-0.49,0-0.57,0.09-0.76,0.79
			c-0.4,1.8-0.68,2.07-2.23,2.08h-0.5c-1.7,0-2.09-0.42-2.09-2.25c0-1.75,0.39-2.32,1.59-2.32h0.98V58h-0.39
			c-0.7,0-0.78,0.06-0.78,0.5c0,0.48,0.11,0.57,0.59,0.57h0.54c0.5,0,0.61-0.11,0.75-0.7c0.5-2.02,0.76-2.24,2.59-2.24
			c1.97,0,2.47,0.49,2.47,2.37c0,1.92-0.4,2.38-2.09,2.38h-0.67v-1.75H23.13z"/>
		<path class="st1" d="M18.53,54.09v1.32h-1.47v-4.52h1.47v1.32h6.69v1.88H18.53z"/>
		<path class="st1" d="M17.07,49.99v-2.34c0-2.04,0.42-2.59,1.94-2.59h0.98c1.09,0.01,1.5,0.33,1.66,1.28h0.02
			c0.21-1.03,0.45-1.26,1.32-1.28h2.23v1.88h-2.34c-0.35,0-0.48,0.21-0.48,0.84v0.32h2.81v1.88H17.07z M21,48.11v-0.37
			c0-0.65-0.13-0.79-0.71-0.79h-1.22c-0.43,0-0.61,0.17-0.61,0.59v0.57H21z"/>
		<path class="st1" d="M17.07,43.96v-1.88h8.16v1.88H17.07z"/>
		<path class="st1" d="M18.86,39.17v0.02l6.36-0.11v1.74h-8.16v-2.75l6.36-1.38l-0.02-0.02l-6.33,0.13v-1.75h8.16v2.75L18.86,39.17z
			"/>
		<path class="st1" d="M17.07,33.78V31.9h3.19v-1.1h-3.19v-1.88h8.16v1.88h-3.5v1.1h3.5v1.88H17.07z"/>
		<path class="st1" d="M17.07,26.78v-3.07l8.16-1.25v1.92l-1.96,0.24v1.22l1.96,0.24v1.92L17.07,26.78z M18.19,25.22v0.02l3.68,0.44
			v-0.9L18.19,25.22z"/>
	</g>
	<g>
		<path class="st0" d="M53.42,64.18c0,0-2.77-9.73-4.98-9.1c-0.94,0.27-1.78,2.39-2.27,7.92c-0.79,8.96-4.4,12.24-7.92,13.23
			c-3.77,1.06-7.43-0.49-7.43-0.49s5.45,5.31,10.96,3.75c1.23-0.35,2.46-1.03,3.63-2.2C51.87,70.92,53.42,64.18,53.42,64.18z"/>
		<path d="M49.7,70.48l-0.29,0.7c-1.02,2.01-1.63,3.22-4.27,5.83c-1.05,1.04-2.21,1.74-3.46,2.1c-3.52,0.99-7.08-0.99-9.03-2.41
			c1.46,0.31,3.56,0.52,5.72-0.08c3.94-1.11,6.52-4.47,7.68-9.99c0,0-2.15-5.22-1.71-1.29l-0.46-0.19l-0.09,0.49
			c-0.9,4.86-2.95,7.77-6.08,8.65c-2.94,0.83-5.98-0.36-6.11-0.41c-2.22-0.85-3.41-0.92-3.84-0.25c-0.72,1.13,1.64,3.52,1.67,3.55
			c0.22,0.22,4.81,4.61,10.27,4.61c0.86,0,1.75-0.11,2.64-0.36c1.64-0.46,3.16-1.37,4.5-2.7c3.02-2.99,3.93-4.69,5.06-6.99
			L49.7,70.48z"/>
	</g>
</g>
</svg>
