<?xml version="1.0" encoding="utf-8"?>
<!-- Generator: Adobe Illustrator 27.5.0, SVG Export Plug-In . SVG Version: 6.00 Build 0)  -->
<svg version="1.1" id="Layer_1" xmlns="http://www.w3.org/2000/svg" xmlns:xlink="http://www.w3.org/1999/xlink" x="0px" y="0px"
	 viewBox="0 0 100.27 100.27" style="enable-background:new 0 0 100.27 100.27;" xml:space="preserve">
<style type="text/css">
	.st0{fill:#FFFFFF;}
</style>
<g>
	<path d="M67.43,38.66c0-9.55-7.74-17.29-17.29-17.29c-9.55,0-17.29,7.74-17.29,17.29v17.21h34.59V38.66z"/>
	<path d="M88.82,52.78H63.05v-0.03H37.22v0.03H11.45c-0.65,0-1.17,0.53-1.17,1.17V73.6c0,0.65,0.53,1.17,1.17,1.17h7.15
		c0.65,0,1.17,0.53,1.17,1.17v1.79c0,0.65,0.53,1.17,1.17,1.17h54.7c0.65,0,1.17-0.53,1.17-1.17v-1.79c0-0.65,0.53-1.17,1.17-1.17
		h10.83c0.65,0,1.17-0.53,1.17-1.17V53.95C89.99,53.3,89.47,52.78,88.82,52.78z"/>
	<path class="st0" d="M65.73,38.66c0-8.61-6.98-15.59-15.59-15.59c-8.61,0-15.59,6.98-15.59,15.59v17.21h31.17V38.66z"/>
	<path d="M64.6,38.72c0-7.96-6.46-14.42-14.42-14.42c-7.96,0-14.42,6.46-14.42,14.42v15.92H64.6V38.72z"/>
	<g>
		<g>
			<rect x="12.51" y="54.71" class="st0" width="75.27" height="1.16"/>
		</g>
		<g>
			<rect x="12.51" y="71.71" class="st0" width="8.01" height="1.16"/>
		</g>
		<g>
			<rect x="75.68" y="71.71" class="st0" width="12.1" height="1.16"/>
		</g>
		<g>
			<g>
				<path class="st0" d="M24.97,58.78c0.02,0.05,0.03,0.15,0.05,0.29c0.01,0.14,0.02,0.27,0.02,0.4c0,0.85-0.36,1.59-1.08,2.24
					c-0.6,0.54-1.48,1.03-2.64,1.47c-0.75,0.29-1.83,0.63-3.24,1.02l-0.57,0.15l0.01,3.97c0,0.29,0.01,0.53,0.03,0.72
					c0.02,0.19,0.1,0.37,0.23,0.55c0.13,0.18,0.27,0.3,0.42,0.36c0.02,0.01,0.17,0.05,0.46,0.12v0.52H12.5v-0.52
					c0.16-0.04,0.3-0.08,0.41-0.13c0.11-0.05,0.21-0.13,0.3-0.24c0.15-0.17,0.25-0.34,0.3-0.5c0.04-0.16,0.06-0.4,0.06-0.71v-8.92
					c-0.01-0.15-0.01-0.28-0.01-0.37c-0.04-0.55-0.14-0.95-0.28-1.2c-0.1-0.19-0.21-0.33-0.33-0.41c-0.12-0.08-0.26-0.12-0.43-0.12
					v-0.53h9.18c0.77,0,1.38,0.08,1.83,0.23C24.34,57.44,24.82,57.98,24.97,58.78z M20.91,59.79c0-0.48-0.2-0.86-0.6-1.15
					c-0.35-0.25-0.79-0.37-1.31-0.37c-0.39,0-0.71,0.06-0.98,0.19c-0.16,0.07-0.28,0.2-0.34,0.37c-0.06,0.18-0.1,0.38-0.1,0.61v3.3
					l0.41-0.05c0.65-0.09,1.28-0.4,1.88-0.93C20.56,61.16,20.91,60.5,20.91,59.79z"/>
			</g>
			<g>
				<path class="st0" d="M33.33,65.78h-4.44v-0.33c0.15-0.03,0.26-0.06,0.33-0.1c0.23-0.14,0.34-0.36,0.34-0.67
					c0-0.1-0.01-0.18-0.02-0.24c-0.04-0.27-0.21-0.57-0.51-0.9c-0.32-0.36-0.68-0.63-1.07-0.8c-0.15-0.07-0.38-0.13-0.68-0.18
					c-0.3-0.05-0.55-0.08-0.74-0.08l-0.61,1.74c-0.07,0.21-0.11,0.43-0.11,0.68c0,0.12,0.01,0.2,0.04,0.25
					c0.07,0.1,0.15,0.18,0.23,0.23c0.09,0.05,0.18,0.08,0.29,0.1v0.32h-2.85v-0.33c0.11-0.03,0.2-0.07,0.26-0.11
					c0.06-0.04,0.14-0.1,0.26-0.2c0.15-0.12,0.26-0.23,0.33-0.34c0.07-0.11,0.15-0.25,0.21-0.44l2.38-6.1
					c0.03-0.07,0.05-0.14,0.08-0.21c0.02-0.07,0.03-0.13,0.03-0.19c0-0.08-0.02-0.15-0.06-0.2c-0.04-0.05-0.07-0.09-0.11-0.11
					c-0.04-0.02-0.08-0.03-0.12-0.04V57.2h3.8v0.38c-0.14,0-0.23,0.05-0.28,0.15c-0.02,0.05-0.03,0.09-0.03,0.14
					c0,0.05,0.01,0.1,0.03,0.15c0.01,0.01,0.03,0.07,0.06,0.17l2.23,6.69c0.04,0.07,0.07,0.12,0.09,0.16
					c0.07,0.12,0.15,0.2,0.21,0.25c0.07,0.05,0.13,0.08,0.19,0.1c0.06,0.02,0.13,0.04,0.22,0.06V65.78z M28.76,62l-0.96-3.04
					l-0.82,2.41c0.07,0,0.15,0,0.26,0.01c0.1,0.01,0.25,0.04,0.45,0.09c0.2,0.06,0.42,0.15,0.65,0.27
					C28.51,61.84,28.65,61.92,28.76,62z"/>
			</g>
			<g>
				<path class="st0" d="M43.55,65.78h-4.32v-0.31c0.15-0.02,0.29-0.06,0.42-0.14c0.07-0.04,0.1-0.12,0.1-0.23
					c0-0.15-0.06-0.37-0.19-0.65c-0.09-0.19-0.32-0.63-0.71-1.33c-0.11-0.2-0.26-0.42-0.43-0.66c-0.17-0.24-0.35-0.48-0.52-0.71
					l-0.45,0.21v2.42c0,0.18,0.01,0.33,0.04,0.45c0.03,0.12,0.07,0.22,0.14,0.3c0.09,0.11,0.18,0.19,0.27,0.23
					c0.04,0.02,0.14,0.04,0.3,0.08v0.33H34.1v-0.33c0.1,0,0.18-0.01,0.24-0.04c0.06-0.03,0.13-0.07,0.22-0.14
					c0.11-0.09,0.19-0.2,0.22-0.32c0.03-0.12,0.05-0.28,0.05-0.47l0.02-5.61c0-0.18,0-0.31-0.01-0.41c-0.02-0.3-0.07-0.51-0.13-0.63
					c-0.07-0.11-0.14-0.19-0.23-0.24c-0.09-0.04-0.19-0.06-0.31-0.06V57.2h6c0.67,0,1.18,0.1,1.53,0.31c0.35,0.21,0.55,0.5,0.6,0.89
					c0.01,0.1,0.02,0.18,0.02,0.22c0,0.42-0.16,0.82-0.49,1.19c-0.23,0.26-0.54,0.51-0.92,0.73c-0.29,0.17-0.45,0.25-0.5,0.25
					c0.3,0.38,0.57,0.74,0.79,1.07c0.23,0.33,0.46,0.7,0.71,1.11c0.13,0.22,0.35,0.72,0.66,1.48c0.23,0.56,0.42,0.87,0.57,0.93
					c0.11,0.05,0.24,0.08,0.4,0.11V65.78z M39.56,59.04c0-0.3-0.12-0.53-0.37-0.7c-0.21-0.15-0.48-0.22-0.81-0.22
					c-0.22,0-0.43,0.04-0.63,0.12c-0.11,0.05-0.18,0.12-0.23,0.23c-0.04,0.11-0.06,0.23-0.06,0.37v2.15l0.3-0.09
					c0.43-0.15,0.82-0.37,1.15-0.65C39.35,59.87,39.56,59.47,39.56,59.04z"/>
			</g>
			<g>
				<path class="st0" d="M54.12,65.78h-4.44v-0.33c0.15-0.03,0.26-0.06,0.33-0.1c0.23-0.14,0.34-0.36,0.34-0.67
					c0-0.1-0.01-0.18-0.02-0.24c-0.04-0.27-0.21-0.57-0.51-0.9c-0.32-0.36-0.68-0.63-1.07-0.8c-0.15-0.07-0.38-0.13-0.68-0.18
					c-0.3-0.05-0.55-0.08-0.74-0.08l-0.61,1.74c-0.07,0.21-0.11,0.43-0.11,0.68c0,0.12,0.01,0.2,0.04,0.25
					c0.07,0.1,0.15,0.18,0.23,0.23c0.09,0.05,0.18,0.08,0.29,0.1v0.32h-2.85v-0.33c0.11-0.03,0.2-0.07,0.26-0.11
					c0.06-0.04,0.14-0.1,0.26-0.2c0.15-0.12,0.26-0.23,0.33-0.34c0.07-0.11,0.15-0.25,0.21-0.44l2.38-6.1
					c0.03-0.07,0.05-0.14,0.08-0.21c0.02-0.07,0.03-0.13,0.03-0.19c0-0.08-0.02-0.15-0.06-0.2c-0.04-0.05-0.07-0.09-0.11-0.11
					c-0.04-0.02-0.08-0.03-0.12-0.04V57.2h3.8v0.38c-0.14,0-0.23,0.05-0.28,0.15c-0.02,0.05-0.03,0.09-0.03,0.14
					c0,0.05,0.01,0.1,0.03,0.15c0.01,0.01,0.03,0.07,0.06,0.17l2.23,6.69c0.04,0.07,0.07,0.12,0.09,0.16
					c0.07,0.12,0.15,0.2,0.21,0.25c0.07,0.05,0.13,0.08,0.19,0.1c0.06,0.02,0.13,0.04,0.22,0.06V65.78z M49.55,62l-0.96-3.04
					l-0.82,2.41c0.07,0,0.15,0,0.26,0.01c0.1,0.01,0.25,0.04,0.45,0.09c0.2,0.06,0.42,0.15,0.65,0.27
					C49.31,61.84,49.45,61.92,49.55,62z"/>
			</g>
			<g>
				<path class="st0" d="M64.33,61.5c0,1.29-0.32,2.3-0.97,3.03c-0.74,0.83-1.85,1.25-3.34,1.25H54.9v-0.33
					c0.18,0,0.34-0.07,0.48-0.22c0.05-0.05,0.09-0.14,0.14-0.27c0.05-0.13,0.07-0.25,0.07-0.36v-6.22c0-0.15,0-0.24-0.01-0.28
					c-0.02-0.14-0.07-0.25-0.15-0.34c-0.07-0.09-0.15-0.15-0.23-0.18c-0.08-0.03-0.18-0.04-0.31-0.04V57.2h4.69
					c1.27,0,2.38,0.41,3.3,1.22C63.85,59.26,64.33,60.29,64.33,61.5z M61.58,61.5c0-0.93-0.27-1.76-0.81-2.47
					C60.26,58.35,59.69,58,59.08,58c-0.15,0-0.3,0.03-0.45,0.09c-0.15,0.06-0.24,0.17-0.29,0.33c-0.05,0.16-0.07,0.35-0.07,0.57
					v4.79c0,0.34,0.04,0.58,0.11,0.71c0.07,0.13,0.2,0.23,0.38,0.3c0.18,0.07,0.37,0.11,0.57,0.11c0.61,0,1.14-0.32,1.58-0.96
					C61.36,63.31,61.58,62.49,61.58,61.5z"/>
			</g>
			<g>
				<path class="st0" d="M74.82,65.78h-4.44v-0.33c0.15-0.03,0.26-0.06,0.33-0.1c0.23-0.14,0.34-0.36,0.34-0.67
					c0-0.1-0.01-0.18-0.02-0.24c-0.04-0.27-0.21-0.57-0.51-0.9c-0.32-0.36-0.68-0.63-1.07-0.8c-0.15-0.07-0.38-0.13-0.68-0.18
					c-0.3-0.05-0.55-0.08-0.74-0.08l-0.61,1.74c-0.07,0.21-0.11,0.43-0.11,0.68c0,0.12,0.01,0.2,0.04,0.25
					c0.07,0.1,0.15,0.18,0.23,0.23c0.09,0.05,0.18,0.08,0.29,0.1v0.32h-2.85v-0.33c0.11-0.03,0.2-0.07,0.26-0.11
					c0.06-0.04,0.14-0.1,0.26-0.2c0.15-0.12,0.26-0.23,0.33-0.34c0.07-0.11,0.15-0.25,0.21-0.44l2.38-6.1
					c0.03-0.07,0.05-0.14,0.08-0.21c0.02-0.07,0.03-0.13,0.03-0.19c0-0.08-0.02-0.15-0.06-0.2c-0.04-0.05-0.07-0.09-0.11-0.11
					c-0.04-0.02-0.08-0.03-0.12-0.04V57.2h3.8v0.38c-0.14,0-0.23,0.05-0.28,0.15c-0.02,0.05-0.03,0.09-0.03,0.14
					c0,0.05,0.01,0.1,0.03,0.15c0.01,0.01,0.03,0.07,0.06,0.17l2.23,6.69c0.04,0.07,0.07,0.12,0.09,0.16
					c0.07,0.12,0.15,0.2,0.21,0.25c0.07,0.05,0.13,0.08,0.19,0.1c0.06,0.02,0.13,0.04,0.22,0.06V65.78z M70.25,62l-0.96-3.04
					l-0.82,2.41c0.07,0,0.15,0,0.26,0.01c0.1,0.01,0.25,0.04,0.45,0.09c0.2,0.06,0.42,0.15,0.65,0.27C70,61.84,70.14,61.92,70.25,62
					z"/>
			</g>
			<g>
				<path class="st0" d="M87.78,66.15c0,1.05-0.39,1.94-1.16,2.69c-0.63,0.61-1.48,1.08-2.52,1.41c-0.86,0.27-1.68,0.41-2.46,0.41
					c-0.63,0-1.33-0.05-2.11-0.15c-0.78-0.1-1.58-0.21-2.39-0.31c-0.11,0-0.2,0.01-0.28,0.02c-0.07,0.01-0.16,0.05-0.26,0.12
					c-0.1,0.06-0.2,0.13-0.29,0.2l-0.5-5.33l0.46-0.05c0.03,0.26,0.13,0.61,0.32,1.05c0.24,0.57,0.52,1.03,0.84,1.36
					c0.45,0.48,0.99,0.85,1.61,1.11c0.62,0.26,1.23,0.39,1.82,0.39c0.65,0,1.21-0.14,1.67-0.42c0.46-0.28,0.75-0.68,0.85-1.2
					c0.02-0.08,0.03-0.18,0.03-0.32c0-0.32-0.09-0.59-0.28-0.83c-0.18-0.24-0.43-0.41-0.74-0.51L79,64.67
					c-0.81-0.27-1.45-0.66-1.9-1.18c-0.5-0.57-0.75-1.27-0.75-2.08c0-1.12,0.44-2.08,1.31-2.86c0.78-0.69,1.81-1.17,3.07-1.43
					c0.31-0.06,0.63-0.09,0.98-0.09c0.45,0,0.94,0.06,1.49,0.17c0.55,0.11,1.11,0.22,1.7,0.33c0.07,0,0.12,0,0.14-0.01
					c0.19-0.05,0.39-0.13,0.59-0.23c0.15-0.09,0.27-0.16,0.36-0.21l0.44,4.18l-0.46,0.14c-0.03-0.13-0.11-0.33-0.26-0.59
					c-0.34-0.64-0.72-1.1-1.12-1.38c-0.33-0.22-0.7-0.4-1.12-0.54c-0.42-0.14-0.82-0.21-1.21-0.21c-0.33,0-0.63,0.05-0.87,0.16
					c-0.25,0.11-0.43,0.27-0.55,0.5c-0.08,0.14-0.13,0.26-0.17,0.36c-0.06,0.17-0.09,0.35-0.09,0.54c0,0.28,0.1,0.54,0.31,0.76
					c0.26,0.27,0.66,0.5,1.2,0.67l3.09,0.99c0.81,0.27,1.45,0.69,1.91,1.29C87.55,64.54,87.78,65.27,87.78,66.15z"/>
			</g>
		</g>
		<g>
			<g>
				<path class="st0" d="M28.05,73.87c0,0.66-0.18,1.23-0.54,1.71c-0.29,0.39-0.68,0.69-1.17,0.9c-0.4,0.17-0.78,0.26-1.14,0.26
					c-0.29,0-0.62-0.03-0.98-0.1c-0.36-0.07-0.73-0.13-1.11-0.2c-0.05,0-0.09,0-0.13,0.01c-0.03,0.01-0.07,0.03-0.12,0.07
					c-0.05,0.04-0.09,0.08-0.13,0.13l-0.23-3.38l0.21-0.03c0.01,0.16,0.06,0.39,0.15,0.67c0.11,0.36,0.24,0.65,0.39,0.87
					c0.21,0.3,0.46,0.54,0.75,0.7c0.29,0.16,0.57,0.24,0.84,0.24c0.3,0,0.56-0.09,0.78-0.27c0.21-0.18,0.35-0.43,0.39-0.76
					c0.01-0.05,0.01-0.12,0.01-0.2c0-0.2-0.04-0.38-0.13-0.53c-0.09-0.15-0.2-0.26-0.34-0.32l-1.57-0.71
					c-0.38-0.17-0.67-0.42-0.88-0.75c-0.23-0.36-0.35-0.81-0.35-1.32c0-0.71,0.2-1.32,0.61-1.81c0.36-0.44,0.84-0.74,1.43-0.91
					c0.14-0.04,0.29-0.06,0.45-0.06c0.21,0,0.44,0.04,0.69,0.11c0.25,0.07,0.52,0.14,0.79,0.21c0.03,0,0.05,0,0.07-0.01
					c0.09-0.03,0.18-0.08,0.27-0.15c0.07-0.06,0.13-0.1,0.17-0.13l0.2,2.65l-0.21,0.09c-0.01-0.08-0.05-0.21-0.12-0.38
					c-0.16-0.41-0.33-0.7-0.52-0.87c-0.15-0.14-0.32-0.26-0.52-0.34c-0.19-0.09-0.38-0.13-0.56-0.13c-0.16,0-0.29,0.03-0.41,0.1
					c-0.12,0.07-0.2,0.17-0.26,0.31c-0.04,0.09-0.06,0.16-0.08,0.23c-0.03,0.11-0.04,0.22-0.04,0.34c0,0.18,0.05,0.34,0.14,0.48
					c0.12,0.17,0.3,0.32,0.55,0.42l1.43,0.63c0.38,0.17,0.67,0.44,0.89,0.82C27.95,72.84,28.05,73.31,28.05,73.87z"/>
			</g>
			<g>
				<path class="st0" d="M31.41,68.65c-0.12,0.03-0.21,0.07-0.25,0.1c-0.04,0.04-0.09,0.09-0.13,0.17c-0.06,0.1-0.09,0.22-0.1,0.35
					c-0.01,0.13-0.02,0.29-0.02,0.49v5.49c0,0.16,0.01,0.3,0.03,0.44c0.02,0.13,0.05,0.23,0.1,0.29c0.04,0.06,0.1,0.11,0.16,0.15
					c0.06,0.04,0.13,0.06,0.2,0.06v0.32H28.5v-0.32c0.16,0,0.29-0.09,0.4-0.27c0.05-0.08,0.09-0.17,0.1-0.27
					c0.02-0.1,0.03-0.21,0.03-0.35v-5.51c0-0.23-0.01-0.42-0.02-0.55c-0.02-0.14-0.05-0.26-0.11-0.37c-0.03-0.06-0.08-0.1-0.14-0.13
					c-0.06-0.03-0.15-0.06-0.26-0.08v-0.32h2.9V68.65z"/>
			</g>
			<g>
				<path class="st0" d="M37.85,68.65c-0.05,0.01-0.1,0.02-0.14,0.03c-0.07,0.03-0.14,0.09-0.2,0.2c-0.07,0.12-0.12,0.28-0.13,0.46
					c-0.02,0.18-0.03,0.35-0.03,0.5v5.43c0,0.09,0.01,0.19,0.02,0.31c0.01,0.12,0.04,0.22,0.07,0.31c0.04,0.09,0.09,0.16,0.16,0.21
					c0.07,0.05,0.15,0.08,0.23,0.09v0.32h-1.8v-0.32c0.05,0,0.1-0.01,0.16-0.03c0.19-0.09,0.29-0.31,0.29-0.67
					c0-0.24-0.04-0.46-0.12-0.68c-0.06-0.15-0.16-0.35-0.32-0.6l-2.74-4.4l-0.01,5.46c0,0.14,0.01,0.25,0.02,0.35
					c0.01,0.1,0.04,0.19,0.07,0.27c0.03,0.09,0.08,0.15,0.14,0.2c0.06,0.05,0.14,0.08,0.23,0.1v0.32h-1.74v-0.32
					c0.08-0.01,0.13-0.02,0.16-0.03c0.03-0.01,0.07-0.03,0.11-0.07c0.08-0.07,0.14-0.22,0.18-0.44s0.05-0.47,0.05-0.75v-5
					c0-0.07,0-0.13,0-0.2c0-0.17-0.01-0.34-0.02-0.5c-0.02-0.16-0.04-0.27-0.08-0.33c-0.08-0.12-0.2-0.2-0.35-0.23v-0.32h3.41v0.32
					c-0.04,0-0.07,0.02-0.1,0.04c-0.03,0.03-0.06,0.07-0.09,0.12c-0.03,0.05-0.04,0.1-0.04,0.16c0,0.08,0.02,0.16,0.05,0.25
					c0.02,0.04,0.04,0.1,0.08,0.17l1.2,2.06v-1.84c0-0.04,0-0.08,0-0.1c0-0.15-0.01-0.26-0.02-0.33c-0.01-0.08-0.04-0.16-0.09-0.25
					c-0.05-0.09-0.11-0.16-0.17-0.2c-0.07-0.04-0.15-0.07-0.24-0.09v-0.32h1.8V68.65z"/>
			</g>
			<g>
				<path class="st0" d="M41.35,68.65c-0.12,0.03-0.21,0.07-0.25,0.1c-0.04,0.04-0.09,0.09-0.13,0.17c-0.06,0.1-0.09,0.22-0.1,0.35
					c-0.01,0.13-0.02,0.29-0.02,0.49v5.49c0,0.16,0.01,0.3,0.03,0.44c0.02,0.13,0.05,0.23,0.1,0.29c0.04,0.06,0.1,0.11,0.16,0.15
					c0.06,0.04,0.13,0.06,0.2,0.06v0.32h-2.89v-0.32c0.16,0,0.29-0.09,0.4-0.27c0.05-0.08,0.09-0.17,0.1-0.27
					c0.02-0.1,0.03-0.21,0.03-0.35v-5.51c0-0.23-0.01-0.42-0.02-0.55c-0.02-0.14-0.05-0.26-0.11-0.37c-0.03-0.06-0.08-0.1-0.14-0.13
					c-0.06-0.03-0.15-0.06-0.26-0.08v-0.32h2.9V68.65z"/>
			</g>
			<g>
				<path class="st0" d="M47.47,73.87c0,0.66-0.18,1.23-0.54,1.71c-0.29,0.39-0.68,0.69-1.17,0.9c-0.4,0.17-0.78,0.26-1.14,0.26
					c-0.29,0-0.62-0.03-0.98-0.1c-0.36-0.07-0.73-0.13-1.11-0.2c-0.05,0-0.09,0-0.13,0.01c-0.03,0.01-0.07,0.03-0.12,0.07
					c-0.05,0.04-0.09,0.08-0.13,0.13l-0.23-3.38l0.21-0.03c0.01,0.16,0.06,0.39,0.15,0.67c0.11,0.36,0.24,0.65,0.39,0.87
					c0.21,0.3,0.46,0.54,0.75,0.7c0.29,0.16,0.57,0.24,0.84,0.24c0.3,0,0.56-0.09,0.78-0.27c0.21-0.18,0.35-0.43,0.39-0.76
					c0.01-0.05,0.01-0.12,0.01-0.2c0-0.2-0.04-0.38-0.13-0.53c-0.09-0.15-0.2-0.26-0.34-0.32l-1.57-0.71
					c-0.38-0.17-0.67-0.42-0.88-0.75c-0.23-0.36-0.35-0.81-0.35-1.32c0-0.71,0.2-1.32,0.61-1.81c0.36-0.44,0.84-0.74,1.43-0.91
					c0.14-0.04,0.29-0.06,0.45-0.06c0.21,0,0.44,0.04,0.69,0.11c0.25,0.07,0.52,0.14,0.79,0.21c0.03,0,0.05,0,0.07-0.01
					c0.09-0.03,0.18-0.08,0.27-0.15c0.07-0.06,0.13-0.1,0.17-0.13l0.2,2.65l-0.21,0.09c-0.01-0.08-0.05-0.21-0.12-0.38
					c-0.16-0.41-0.33-0.7-0.52-0.87c-0.15-0.14-0.32-0.26-0.52-0.34c-0.19-0.09-0.38-0.13-0.56-0.13c-0.16,0-0.29,0.03-0.41,0.1
					c-0.12,0.07-0.2,0.17-0.26,0.31c-0.04,0.09-0.06,0.16-0.08,0.23c-0.03,0.11-0.04,0.22-0.04,0.34c0,0.18,0.05,0.34,0.14,0.48
					c0.12,0.17,0.3,0.32,0.55,0.42l1.43,0.63c0.38,0.17,0.67,0.44,0.89,0.82C47.36,72.84,47.47,73.31,47.47,73.87z"/>
			</g>
			<g>
				<path class="st0" d="M53.42,70.95l-0.18,0.07c-0.07-0.33-0.18-0.63-0.35-0.9c-0.19-0.3-0.39-0.53-0.61-0.67
					c-0.22-0.14-0.47-0.22-0.75-0.22l0.01,5.56c0,0.07,0,0.12,0,0.16c0,0.19,0.01,0.36,0.03,0.51c0.02,0.15,0.07,0.29,0.14,0.41
					c0.07,0.12,0.15,0.2,0.23,0.24c0.08,0.04,0.19,0.06,0.32,0.06v0.32h-3.27v-0.31c0.02-0.01,0.05-0.01,0.08-0.01
					c0.16,0,0.3-0.09,0.44-0.27c0.08-0.11,0.13-0.22,0.15-0.33c0.02-0.11,0.02-0.29,0.02-0.52v-5.82c-0.24,0-0.44,0.04-0.61,0.13
					c-0.17,0.09-0.36,0.24-0.55,0.46c-0.1,0.11-0.2,0.28-0.3,0.5c-0.12,0.26-0.2,0.48-0.23,0.67l-0.18-0.05l0.43-2.83
					c0.05,0.07,0.12,0.12,0.2,0.17c0.03,0.02,0.08,0.03,0.13,0.03c0.06,0.01,0.09,0.01,0.1,0.01c0.1,0,0.16,0,0.17,0h3.58
					c0.06,0,0.11,0,0.16,0c0.05,0,0.11-0.02,0.2-0.06c0.09-0.03,0.17-0.08,0.25-0.15L53.42,70.95z"/>
			</g>
			<g>
				<path class="st0" d="M60.37,76.5h-3.01v-0.29c0.11-0.02,0.2-0.06,0.29-0.13c0.05-0.04,0.07-0.11,0.07-0.22
					c0-0.15-0.04-0.35-0.13-0.62c-0.06-0.18-0.22-0.6-0.5-1.27c-0.08-0.19-0.18-0.4-0.3-0.63c-0.12-0.23-0.24-0.45-0.36-0.68
					l-0.32,0.2v2.3c0,0.17,0.01,0.32,0.03,0.43c0.02,0.11,0.05,0.21,0.1,0.29c0.06,0.11,0.13,0.18,0.18,0.22
					c0.03,0.02,0.1,0.04,0.21,0.07v0.32H53.8v-0.32c0.07,0,0.12-0.01,0.16-0.04c0.04-0.02,0.09-0.07,0.15-0.13
					c0.08-0.09,0.13-0.19,0.16-0.3c0.02-0.11,0.04-0.26,0.04-0.45l0.01-5.34c0-0.17,0-0.3-0.01-0.39c-0.02-0.29-0.05-0.49-0.09-0.6
					c-0.05-0.11-0.1-0.18-0.16-0.22c-0.06-0.04-0.13-0.06-0.21-0.06v-0.32h4.17c0.47,0,0.82,0.1,1.06,0.29
					c0.24,0.2,0.38,0.48,0.42,0.85c0.01,0.1,0.01,0.17,0.01,0.21c0,0.4-0.11,0.78-0.34,1.13c-0.16,0.25-0.38,0.48-0.64,0.69
					c-0.2,0.16-0.31,0.24-0.35,0.24c0.21,0.36,0.39,0.7,0.55,1.02c0.16,0.31,0.32,0.66,0.49,1.06c0.09,0.21,0.24,0.68,0.46,1.41
					c0.16,0.53,0.29,0.83,0.39,0.89c0.08,0.04,0.17,0.08,0.28,0.11V76.5z M57.6,70.09c0-0.28-0.09-0.51-0.26-0.67
					c-0.15-0.14-0.33-0.21-0.56-0.21c-0.16,0-0.3,0.04-0.44,0.11c-0.08,0.04-0.13,0.12-0.16,0.22c-0.03,0.1-0.04,0.22-0.04,0.36
					v2.05l0.21-0.09c0.3-0.14,0.57-0.35,0.8-0.62C57.45,70.88,57.6,70.49,57.6,70.09z"/>
			</g>
			<g>
				<path class="st0" d="M67.81,76.5h-3.09v-0.32c0.1-0.03,0.18-0.06,0.23-0.1c0.16-0.13,0.24-0.34,0.24-0.64
					c0-0.1,0-0.17-0.01-0.23c-0.03-0.26-0.15-0.54-0.35-0.86c-0.22-0.34-0.47-0.6-0.75-0.77c-0.11-0.07-0.27-0.12-0.47-0.18
					c-0.21-0.05-0.38-0.08-0.52-0.08l-0.42,1.66c-0.05,0.2-0.08,0.41-0.08,0.64c0,0.11,0.01,0.19,0.03,0.24
					c0.05,0.1,0.1,0.17,0.16,0.22c0.06,0.05,0.13,0.08,0.2,0.09v0.3H61v-0.31c0.08-0.03,0.14-0.07,0.18-0.1
					c0.04-0.04,0.1-0.1,0.18-0.19c0.1-0.11,0.18-0.22,0.23-0.32c0.05-0.1,0.1-0.24,0.15-0.42l1.65-5.8c0.02-0.07,0.04-0.13,0.05-0.2
					c0.02-0.07,0.02-0.13,0.02-0.18c0-0.08-0.01-0.14-0.04-0.19c-0.03-0.05-0.05-0.09-0.08-0.1c-0.03-0.02-0.05-0.03-0.08-0.04
					v-0.31h2.64v0.36c-0.1,0-0.16,0.05-0.2,0.14c-0.02,0.04-0.02,0.09-0.02,0.13c0,0.04,0.01,0.09,0.02,0.15
					c0,0.01,0.02,0.07,0.04,0.16l1.55,6.37c0.03,0.07,0.05,0.12,0.07,0.15c0.05,0.11,0.1,0.19,0.15,0.24
					c0.05,0.05,0.09,0.08,0.13,0.1c0.04,0.02,0.09,0.04,0.16,0.05V76.5z M64.63,72.9l-0.67-2.89l-0.57,2.29c0.05,0,0.11,0,0.18,0.01
					c0.07,0.01,0.18,0.04,0.32,0.09c0.14,0.05,0.29,0.14,0.45,0.25C64.46,72.75,64.55,72.83,64.63,72.9z"/>
			</g>
			<g>
				<path class="st0" d="M73.89,73.87c0,0.66-0.18,1.23-0.54,1.71c-0.29,0.39-0.68,0.69-1.17,0.9c-0.4,0.17-0.78,0.26-1.14,0.26
					c-0.29,0-0.62-0.03-0.98-0.1c-0.36-0.07-0.73-0.13-1.11-0.2c-0.05,0-0.09,0-0.13,0.01c-0.03,0.01-0.07,0.03-0.12,0.07
					c-0.05,0.04-0.09,0.08-0.13,0.13l-0.23-3.38l0.21-0.03c0.01,0.16,0.06,0.39,0.15,0.67c0.11,0.36,0.24,0.65,0.39,0.87
					c0.21,0.3,0.46,0.54,0.75,0.7c0.29,0.16,0.57,0.24,0.84,0.24c0.3,0,0.56-0.09,0.78-0.27c0.21-0.18,0.35-0.43,0.39-0.76
					c0.01-0.05,0.01-0.12,0.01-0.2c0-0.2-0.04-0.38-0.13-0.53c-0.09-0.15-0.2-0.26-0.34-0.32l-1.57-0.71
					c-0.38-0.17-0.67-0.42-0.88-0.75c-0.23-0.36-0.35-0.81-0.35-1.32c0-0.71,0.2-1.32,0.61-1.81c0.36-0.44,0.84-0.74,1.43-0.91
					c0.14-0.04,0.29-0.06,0.45-0.06c0.21,0,0.44,0.04,0.69,0.11c0.25,0.07,0.52,0.14,0.79,0.21c0.03,0,0.05,0,0.07-0.01
					c0.09-0.03,0.18-0.08,0.27-0.15c0.07-0.06,0.13-0.1,0.17-0.13l0.2,2.65l-0.21,0.09c-0.01-0.08-0.05-0.21-0.12-0.38
					c-0.16-0.41-0.33-0.7-0.52-0.87c-0.15-0.14-0.32-0.26-0.52-0.34c-0.19-0.09-0.38-0.13-0.56-0.13c-0.16,0-0.29,0.03-0.41,0.1
					c-0.12,0.07-0.2,0.17-0.26,0.31c-0.04,0.09-0.06,0.16-0.08,0.23c-0.03,0.11-0.04,0.22-0.04,0.34c0,0.18,0.05,0.34,0.14,0.48
					c0.12,0.17,0.3,0.32,0.55,0.42l1.43,0.63c0.38,0.17,0.67,0.44,0.89,0.82C73.78,72.84,73.89,73.31,73.89,73.87z"/>
			</g>
		</g>
	</g>
	<path class="st0" d="M56.82,46.49c-6.27,0-11.35-5.08-11.35-11.35c0-3.36,1.47-6.36,3.78-8.44c-5.62,0.67-9.98,5.45-9.98,11.26
		c0,6.27,5.08,11.35,11.35,11.35c2.91,0,5.56-1.11,7.56-2.91C57.74,46.45,57.29,46.49,56.82,46.49z"/>
	<path class="st0" d="M63.05,54.71"/>
	<g>
		<path class="st0" d="M38.27,46.24v6.5h7.36C42.6,51.59,40.02,49.27,38.27,46.24z"/>
		<path class="st0" d="M54.51,52.75h7.36v-6.5C60.12,49.27,57.54,51.59,54.51,52.75z"/>
	</g>
</g>
</svg>
