<?xml version="1.0" encoding="utf-8"?>
<!-- Generator: Adobe Illustrator 27.5.0, SVG Export Plug-In . SVG Version: 6.00 Build 0)  -->
<svg version="1.1" id="Layer_1" xmlns="http://www.w3.org/2000/svg" xmlns:xlink="http://www.w3.org/1999/xlink" x="0px" y="0px"
	 viewBox="0 0 100.27 100.27" style="enable-background:new 0 0 100.27 100.27;" xml:space="preserve">
<style type="text/css">
	.st0{fill:#020203;}
	.st1{fill:#FFFFFF;}
</style>
<g>
	<path class="st0" d="M50.4,14.38c-15.01,0-25.22,10.41-25.22,10.41l8.3,9.96h33.81l9.01-9.16C76.3,25.59,65.62,14.38,50.4,14.38z"
		/>
	<g>
		<g>
			<path class="st1" d="M29.78,25.15c0.88-0.71,1.79-1.36,2.73-1.97c1.2-0.76,1.48-0.86,2-0.88c0.59-0.01,1.02,0.35,1.45,1.16
				c0.44,0.85,0.43,1.46-0.01,1.97c-0.23,0.29-0.27,0.29-1.36,1.01c-0.51,0.33-1.01,0.68-1.51,1.05c0.42,0.57,0.85,1.15,1.28,1.72
				c-0.27,0.2-0.55,0.41-0.82,0.63C32.28,28.28,31.03,26.71,29.78,25.15z M34.07,25.83c1.21-0.77,1.33-0.99,0.86-1.81
				c-0.35-0.62-0.58-0.8-0.93-0.73c-0.22,0.04-0.41,0.12-1,0.5c-0.6,0.38-1.18,0.79-1.76,1.22c0.46,0.61,0.91,1.23,1.37,1.84
				C33.08,26.5,33.57,26.15,34.07,25.83z"/>
			<path class="st1" d="M41,19.42c0.72,0.02,1.19,0.36,1.5,1.03c0.12,0.25,0.2,0.52,0.4,1.29c0.3,1.17,0.34,1.41,0.36,1.86
				c0,0.54-0.2,0.97-0.61,1.28c-0.35,0.28-0.72,0.43-1.59,0.75c-1,0.38-1.35,0.49-1.82,0.51c-0.51,0.02-0.93-0.16-1.28-0.56
				c-0.29-0.33-0.41-0.53-0.91-1.54c-0.65-1.3-0.76-1.67-0.64-2.23c0.1-0.45,0.44-0.88,1.01-1.23c0.24-0.15,0.84-0.43,1.5-0.68
				C40.02,19.51,40.52,19.41,41,19.42z M41.87,22.13c-0.08-0.27-0.16-0.54-0.24-0.8c-0.19-0.63-0.48-0.99-0.86-1.04
				c-0.31-0.04-0.64,0.02-1.72,0.42c-1.27,0.49-1.53,0.74-1.54,1.26c0.01,0.32,0.04,0.43,0.57,1.59c0.46,1.02,0.46,1.02,0.63,1.28
				c0.22,0.32,0.47,0.47,0.77,0.45c0.27-0.01,0.52-0.1,1.27-0.38c0.85-0.31,1.13-0.43,1.3-0.65c0.21-0.24,0.23-0.73,0.05-1.33
				C42.03,22.67,41.95,22.4,41.87,22.13z"/>
			<path class="st1" d="M43.34,18.67c1.22-0.27,2.45-0.47,3.68-0.59c1.1-0.11,1.77,0.02,2.21,0.37c0.55,0.42,0.72,0.95,0.73,2.07
				c0.02,1.57-0.03,2.06-0.27,2.49c-0.24,0.46-0.58,0.72-1.12,0.87c-0.26,0.07-0.59,0.14-0.82,0.16c-1.05,0.1-2.09,0.27-3.13,0.5
				C44.2,22.58,43.77,20.62,43.34,18.67z M47.38,23.28c0.66-0.07,1.07-0.21,1.26-0.48c0.24-0.32,0.29-0.71,0.24-1.81
				c-0.06-1.23-0.15-1.57-0.45-1.86c-0.25-0.24-0.66-0.33-1.41-0.25c-0.79,0.08-1.58,0.2-2.37,0.34c0.26,1.45,0.53,2.89,0.79,4.34
				C46.09,23.44,46.74,23.35,47.38,23.28z"/>
			<path class="st1" d="M51.11,17.9c1.26,0.03,2.52,0.12,3.77,0.29c1.78,0.25,2.29,0.87,2.02,2.13c-0.24,1.13-0.57,1.4-1.56,1.38
				c0,0.01,0,0.02,0,0.03c0.75,0.16,1.06,0.65,0.9,1.35c-0.1,0.46-0.19,0.92-0.29,1.38c-0.32-0.07-0.65-0.13-0.97-0.18
				c0.07-0.4,0.14-0.8,0.2-1.2c0.14-0.7-0.17-1.06-0.99-1.14c-0.7-0.09-1.4-0.15-2.1-0.19c-0.04,0.73-0.08,1.46-0.12,2.19
				c-0.33-0.02-0.65-0.03-0.98-0.04C51.03,21.91,51.07,19.91,51.11,17.9z M54.23,21.15c0.48,0.06,0.79,0.06,1.01-0.04
				c0.3-0.12,0.41-0.3,0.5-0.81c0.12-0.69,0.08-0.91-0.23-1.11c-0.16-0.1-0.43-0.18-0.81-0.23c-0.81-0.11-1.63-0.19-2.45-0.23
				c-0.04,0.74-0.08,1.48-0.13,2.22C52.83,21,53.53,21.06,54.23,21.15z"/>
			<path class="st1" d="M58.22,23.79c-0.26,0.34-0.51,0.69-0.76,1.04c-0.34-0.09-0.67-0.17-1.01-0.25c1.17-1.79,2.51-3.5,3.99-5.13
				c0.56,0.18,1.12,0.37,1.67,0.58c0.17,2.2,0.16,4.38,0,6.52c-0.31-0.15-0.63-0.29-0.94-0.43c0.02-0.43,0.03-0.86,0.04-1.29
				C60.22,24.42,59.23,24.08,58.22,23.79z M63.73,19.33c-0.56,0.3-1,0.36-1.46,0.18c-0.25-0.09-0.48-0.24-0.83-0.54
				c-0.36-0.29-0.53-0.4-0.71-0.45c-0.24-0.08-0.4-0.04-0.69,0.18c-0.18-0.15-0.36-0.29-0.54-0.44c0.52-0.39,0.9-0.47,1.4-0.32
				c0.22,0.07,0.45,0.21,0.84,0.5c0.4,0.32,0.56,0.44,0.73,0.5c0.23,0.09,0.48,0.05,0.78-0.12C63.4,18.99,63.56,19.16,63.73,19.33z
				 M61.06,20.41c-0.84,0.9-1.63,1.83-2.38,2.78c0.86,0.25,1.71,0.55,2.55,0.89C61.22,22.86,61.16,21.64,61.06,20.41z"/>
			<path class="st1" d="M69.96,24.46c0.44,0.6,0.47,1.2,0.12,1.85c-0.12,0.25-0.29,0.47-0.79,1.1c-0.75,0.94-0.92,1.12-1.28,1.4
				c-0.43,0.32-0.91,0.4-1.42,0.26c-0.45-0.13-0.8-0.33-1.6-0.85c-0.92-0.58-1.23-0.79-1.53-1.16c-0.33-0.39-0.44-0.84-0.32-1.36
				c0.09-0.43,0.17-0.65,0.67-1.66c0.64-1.3,0.88-1.62,1.39-1.86c0.42-0.19,0.97-0.18,1.6,0.07c0.27,0.1,0.86,0.42,1.47,0.8
				C69.27,23.7,69.66,24.05,69.96,24.46z M68.31,26.78c0.17-0.22,0.33-0.45,0.5-0.67c0.39-0.53,0.5-0.99,0.3-1.33
				c-0.17-0.28-0.42-0.51-1.42-1.15c-1.18-0.73-1.54-0.79-1.96-0.48c-0.26,0.2-0.32,0.29-0.93,1.41c-0.53,0.98-0.53,0.98-0.63,1.27
				c-0.12,0.38-0.09,0.66,0.12,0.89c0.17,0.21,0.4,0.36,1.09,0.8c0.78,0.5,1.05,0.66,1.33,0.67c0.33,0.02,0.74-0.24,1.11-0.74
				C67.98,27.23,68.15,27,68.31,26.78z"/>
		</g>
	</g>
	<path class="st1" d="M77.27,55.01c1.01,1.71,1.23,3.53,0.44,5.38c-0.78,1.84-2.14,3.04-4.15,3.4c-0.05,0.53-0.07,1.05-0.15,1.57
		c-0.19,1.18-0.51,2.31-1.32,3.23c-0.63,0.72-1.42,1.17-2.34,1.42c-1.15,0.32-2.3,0.39-3.48,0.3c-0.96-0.07-1.91,0-2.83,0.29
		c-1.22,0.39-2.67,1.32-2.85,2.72c-0.1,0.75-0.02,1.53-0.02,2.29c0,0.8,0,1.6,0.01,2.4c0.01,0.57-0.22,0.96-0.71,1.18
		c-0.53,0.23-1.04,0.17-1.49-0.21c-0.26-0.22-0.38-0.5-0.39-0.84c-0.01-0.78-0.04-1.55-0.02-2.32c0.02-0.79,0.08-1.58-0.06-2.36
		c-0.28-1.66-1.9-2.71-3.46-3c-2.77-0.51-5.18,0.2-7.08,2.33c-1.07,1.2-1.57,2.64-1.57,4.26c0,1.77-0.01,3.54-0.02,5.32
		c-0.01,0.32-0.02,0.66-0.09,0.98c-0.1,0.5-0.46,0.69-1.07,0.63c-0.34-0.04-0.65-0.42-0.65-0.84c-0.02-2.53-0.03-5.07-0.05-7.6
		c0-0.77-0.15-1.51-0.61-2.15c-1.29-1.78-3.92-1.61-4.98,0.31c-0.29,0.53-0.43,1.09-0.41,1.69c0.01,0.22-0.01,0.44,0,0.65
		c0.03,0.33-0.1,0.57-0.39,0.72c-0.32,0.17-0.64,0.17-0.95-0.02c-0.33-0.21-0.42-0.52-0.45-0.9c-0.09-1.12-0.22-2.23-0.59-3.3
		c-0.36-1.05-1.07-1.71-2.14-1.99c-0.69-0.19-1.39-0.38-2.09-0.55c-1.83-0.45-2.96-1.63-3.49-3.4c-0.25-0.86-0.42-1.75-0.39-2.66
		c0-0.12,0.01-0.23,0.02-0.38c-0.5-0.36-1.04-0.69-1.51-1.1c-0.96-0.84-1.55-1.9-1.85-3.16c-0.27-1.12-0.11-2.17,0.22-3.23
		c0.05-0.17,0.03-0.28-0.1-0.4c-0.46-0.41-0.89-0.86-1.37-1.24c-0.74-0.57-1.08-1.35-1.07-2.21c0.01-1.13,0.49-2.11,1.57-2.62
		c0.46-0.21,1.01-0.27,1.56-0.4c0.06-0.26,0.14-0.59,0.22-0.91c0.26-1.04,0.85-1.88,1.69-2.51c0.38-0.29,0.56-0.6,0.63-1.06
		c0.61-3.87,2.13-7.34,4.61-10.38c1.53-1.88,3.32-3.45,5.36-4.75c1.46-0.95,3-1.73,4.64-2.31c1.69-0.6,3.43-1.05,5.22-1.26
		c1.07-0.12,2.15-0.17,3.23-0.22c0.32-0.02,0.64,0.06,0.96,0.06c2.09,0,4.09,0.46,6.08,1.03c3.12,0.9,5.88,2.47,8.36,4.55
		c1.95,1.64,3.52,3.59,4.81,5.76c1.19,2,1.97,4.16,2.43,6.43c0.12,0.62,0.22,1.25,0.33,1.87c0.02,0.07,0.06,0.16,0.11,0.2
		c1.17,0.85,1.79,2.01,2.03,3.41c0.02,0.13,0.04,0.26,0.07,0.44c1.65,0.15,2.57,1.1,2.76,2.73C78.58,53.39,78.19,54.3,77.27,55.01z"
		/>
	<path d="M80.27,53.54c0.09-0.68,0.06-1.38-0.07-2.05c-0.24-1.25-0.92-2.46-2.06-3.07c-0.26-0.14-0.53-0.26-0.78-0.4
		c-0.07-0.04-0.16-0.13-0.17-0.21c-0.23-1.28-1.03-2.21-1.86-3.13c-0.06-0.07-0.11-0.16-0.14-0.25c-0.06-0.28-0.11-0.56-0.17-0.84
		c-0.34-1.54-0.69-3.08-1.29-4.54c-0.28-0.66-0.59-1.31-0.9-1.98c0,0-6.6-12.98-22.43-12.98c-15.84,0-22.17,12.48-22.17,12.48
		c-0.26,0.51-0.54,1.03-0.78,1.55c-0.89,1.91-1.38,3.95-1.79,6c-0.02,0.08-0.06,0.19-0.12,0.23c-0.61,0.42-0.99,1.05-1.42,1.63
		c-0.33,0.43-0.58,0.9-0.68,1.44c-0.04,0.2-0.15,0.24-0.31,0.29c-0.28,0.08-0.57,0.14-0.8,0.28c-0.7,0.42-1.31,0.94-1.71,1.66
		c-0.69,1.24-0.87,2.68-0.45,4.05c0.32,1.06,1.03,1.88,1.9,2.55c0.2,0.15,0.25,0.3,0.18,0.54c-0.09,0.36-0.18,0.72-0.18,1.08
		c-0.01,1.18,0.27,2.33,0.73,3.39c0.54,1.25,1.38,2.32,2.56,3.06c0.16,0.1,0.22,0.23,0.24,0.42c0.04,0.37,0.1,0.74,0.17,1.11
		c0.27,1.36,0.64,2.67,1.57,3.76c0.68,0.82,1.49,1.47,2.47,1.83c1.02,0.37,2.09,0.6,3.14,0.9c0.37,0.1,0.65,0.31,0.76,0.68
		c0.12,0.41,0.26,0.82,0.32,1.24c0.12,0.7,0.18,1.42,0.28,2.12c0.13,0.9,0.62,1.61,1.4,2.02c0.97,0.53,2,0.5,2.95-0.14
		c0.61-0.41,1.05-0.96,1.08-1.75c0.01-0.52,0.02-1.03,0.05-1.55c0.02-0.17,0.07-0.36,0.18-0.49c0.31-0.4,0.75-0.52,1.25-0.42
		c0.52,0.11,0.82,0.51,0.82,1.03v1.58c0.02,2.27,0.03,4.55,0.05,6.82c0.01,0.99,0.66,1.58,1.4,2.08c0.43,0.29,0.92,0.34,1.44,0.32
		c0.78-0.04,1.44-0.29,1.98-0.86c0.57-0.6,0.76-1.36,0.77-2.16c0.01-1.12,0.01-2.23,0.01-3.35c0-1.05-0.09-2.13,0.06-3.17
		c0.09-0.65,0.31-1.22,0.65-1.78c1.31-2.17,4.27-2.97,6.57-1.98c0.68,0.3,1.09,0.85,1.1,1.61c0.01,1.28-0.01,2.56,0.02,3.84
		c0.01,0.41,0.08,0.85,0.25,1.22c0.65,1.45,2.03,2.15,3.6,1.87c1.45-0.26,2.56-1.58,2.54-3.03c-0.01-0.78-0.02-1.56-0.03-2.33
		c-0.01-0.67-0.15-1.48,0.06-2.11c0.52-1.62,2.86-1.53,4.19-1.47c0.86,0.04,1.7,0.01,2.55-0.19c1.2-0.28,2.39-0.55,3.39-1.38
		c0.82-0.67,1.48-1.47,1.88-2.43c0.25-0.63,0.42-1.28,0.59-1.94c0.06-0.23,0.07-0.63,0.19-0.83c0.03-0.05,0.07-0.09,0.11-0.13
		c0.17-0.16,0.42-0.26,0.61-0.37c1.6-0.88,2.86-2.36,3.5-4.07c0.33-0.88,0.49-1.82,0.48-2.76c-0.01-0.46-0.05-0.92-0.13-1.37
		c-0.07-0.38-0.34-0.87-0.32-1.25c0.01-0.31,0.32-0.59,0.44-0.88C80.14,54.26,80.22,53.9,80.27,53.54z M77.71,60.38
		c-0.78,1.84-2.14,3.04-4.15,3.4c-0.05,0.53-0.07,1.05-0.15,1.57c-0.19,1.18-0.51,2.31-1.32,3.23c-0.63,0.72-1.42,1.17-2.34,1.42
		c-1.15,0.32-2.3,0.39-3.48,0.3c-0.96-0.07-1.91,0-2.83,0.29c-1.22,0.39-2.67,1.32-2.85,2.72c-0.1,0.75-0.02,1.53-0.02,2.29
		c0,0.8,0,1.6,0.01,2.4c0.01,0.57-0.22,0.96-0.71,1.18c-0.53,0.23-1.04,0.17-1.49-0.21c-0.26-0.22-0.38-0.5-0.39-0.84
		c-0.01-0.78-0.04-1.55-0.02-2.32c0.02-0.79,0.08-1.58-0.06-2.36c-0.28-1.66-1.9-2.71-3.46-3c-2.77-0.51-5.18,0.2-7.08,2.33
		c-1.07,1.2-1.57,2.64-1.57,4.26c0,1.77-0.01,3.54-0.02,5.32c-0.01,0.32-0.02,0.66-0.09,0.98c-0.1,0.5-0.46,0.69-1.07,0.63
		c-0.34-0.04-0.65-0.42-0.65-0.84c-0.02-2.53-0.03-5.07-0.05-7.6c0-0.77-0.15-1.51-0.61-2.15c-1.29-1.78-3.92-1.61-4.98,0.31
		c-0.29,0.53-0.43,1.09-0.41,1.69c0.01,0.22-0.01,0.44,0,0.65c0.03,0.33-0.1,0.57-0.39,0.72c-0.32,0.17-0.64,0.17-0.95-0.02
		c-0.33-0.21-0.42-0.52-0.45-0.9c-0.09-1.12-0.22-2.23-0.59-3.3c-0.36-1.05-1.07-1.71-2.14-1.99c-0.69-0.19-1.39-0.38-2.09-0.55
		c-1.83-0.45-2.96-1.63-3.49-3.4c-0.25-0.86-0.42-1.75-0.39-2.66c0-0.12,0.01-0.23,0.02-0.38c-0.5-0.36-1.04-0.69-1.51-1.1
		c-0.96-0.84-1.55-1.9-1.85-3.16c-0.27-1.12-0.11-2.17,0.22-3.23c0.05-0.17,0.03-0.28-0.1-0.4c-0.46-0.41-0.89-0.86-1.37-1.24
		c-0.74-0.57-1.08-1.35-1.07-2.21c0.01-1.13,0.49-2.11,1.57-2.62c0.46-0.21,1.01-0.27,1.56-0.4c0.06-0.26,0.14-0.59,0.22-0.91
		c0.26-1.04,0.85-1.88,1.69-2.51c0.38-0.29,0.56-0.6,0.63-1.06c0.61-3.87,2.13-7.34,4.61-10.38c1.53-1.88,3.32-3.45,5.36-4.75
		c1.46-0.95,3-1.73,4.64-2.31c1.69-0.6,3.43-1.05,5.22-1.26c1.07-0.12,2.15-0.17,3.23-0.22c0.32-0.02,0.64,0.06,0.96,0.06
		c2.09,0,4.09,0.46,6.08,1.03c3.12,0.9,5.88,2.47,8.36,4.55c1.95,1.64,3.52,3.59,4.81,5.76c1.19,2,1.97,4.16,2.43,6.43
		c0.12,0.62,0.22,1.25,0.33,1.87c0.02,0.07,0.06,0.16,0.11,0.2c1.17,0.85,1.79,2.01,2.03,3.41c0.02,0.13,0.04,0.26,0.07,0.44
		c1.65,0.15,2.57,1.1,2.76,2.73c0.14,1.12-0.25,2.03-1.17,2.73C78.28,56.71,78.5,58.53,77.71,60.38z"/>
	<path d="M39.79,68.39c-0.72,0-1.41,0-2.09,0c-1.51,0.01-3.03,0.05-4.54,0.04c-0.76-0.01-1.51-0.18-2.19-0.56
		c-0.96-0.54-1.35-1.46-1.52-2.47c-0.1-0.61-0.06-1.24-0.07-1.86c-0.01-0.49,0-0.98,0-1.52c-0.17,0-0.33,0.01-0.48,0
		C28.72,62,28.52,62,28.4,61.91c-0.55-0.4-1.14-0.77-1.59-1.26c-1.28-1.41-1.33-3.43-0.2-4.96c0.04-0.06,0.08-0.11,0.14-0.2
		c-0.46-0.43-0.9-0.86-1.36-1.28c-0.47-0.43-0.95-0.85-1.42-1.27c-0.33-0.29-0.43-0.69-0.27-1.12c0.15-0.41,0.49-0.66,0.92-0.66
		c0.79,0,1.57,0,2.4,0c-0.06-0.18-0.12-0.35-0.16-0.51c-0.42-1.64,0.41-3.3,1.99-3.94c0.21-0.09,0.26-0.2,0.28-0.41
		c0.1-1.26,0.33-2.49,0.68-3.7c0.78-2.71,2.08-5.14,3.89-7.29c1.28-1.52,2.75-2.84,4.41-3.94c1.28-0.84,2.62-1.57,4.04-2.12
		c2.1-0.82,4.27-1.37,6.53-1.5c0.9-0.05,1.81-0.08,2.71-0.05c1.73,0.06,3.43,0.34,5.1,0.81c2.53,0.71,4.85,1.83,6.96,3.37
		c1.5,1.09,2.85,2.34,3.97,3.82c0.57,0.76,1.14,1.53,1.62,2.35c0.43,0.72,0.75,1.51,1.13,2.27c0.48,0.96,0.8,1.99,1.03,3.03
		c0.19,0.84,0.29,1.7,0.43,2.56c0,0.03,0.01,0.05,0.01,0.08c-0.03,0.55,0.23,0.85,0.71,1.15c1.34,0.83,1.82,2.57,1.21,4.02
		c-0.03,0.08-0.07,0.16-0.12,0.28c0.16,0,0.3,0,0.44,0c0.57,0,1.15-0.01,1.72-0.01c0.52,0.01,0.86,0.32,0.98,0.82
		c0.14,0.6-0.01,1.02-0.55,1.36c-0.53,0.34-1.01,0.77-1.51,1.16c0.26,0.24,0.53,0.45,0.76,0.71c1.8,1.99,1.22,5.05-1.19,6.24
		c-0.53,0.26-1.11,0.32-1.69,0.3c-0.24-0.01-0.48,0-0.75,0c0,0.67-0.01,1.32,0,1.97c0.01,0.77-0.08,1.51-0.33,2.24
		c-0.41,1.22-1.28,1.88-2.51,2.12c-0.68,0.14-1.36,0.17-2.05,0.09c-0.11-0.01-0.21-0.01-0.32-0.01c-6.83,0-13.66,0-20.49,0
		c-1.22,0-2.43-0.01-3.65-0.02c-0.07,0-0.14-0.01-0.24-0.01c0-0.18,0-0.35,0-0.51c0-1.6,0-3.2,0-4.81c0-0.49,0.02-0.99-0.07-1.47
		c-0.07-0.36-0.25-0.73-0.46-1.03c-0.56-0.78-1.12-1.56-1.47-2.46c-0.2-0.53-0.27-1.11-0.36-1.67c-0.2-1.23,0.21-2.35,0.68-3.45
		c0.81-1.88,3.26-2.21,4.56-1.15c0.56,0.46,1.06,0.96,1.47,1.55c1.4,1.99,3.27,3.35,5.55,4.16c1.86,0.66,3.77,0.84,5.73,0.66
		c2.48-0.23,4.7-1.09,6.63-2.68c1.14-0.94,2.04-2.07,2.63-3.44c0.19-0.45,0.52-0.65,1-0.66c0.89-0.02,1.79-0.06,2.68-0.11
		c0.61-0.04,1.19-0.6,1.29-1.2c0.11-0.66-0.23-1.3-0.83-1.6c-0.45-0.22-0.92-0.32-1.42-0.32c-1.27,0-2.54,0.01-3.81,0.02
		c-0.1,0-0.21,0.01-0.31,0.02c0,0.34,0.01,0.66,0,0.98c-0.07,1.74-0.79,3.19-1.99,4.42c-1.43,1.46-3.19,2.29-5.17,2.63
		c-2.72,0.47-5.32,0.1-7.69-1.38c-1.78-1.11-3.02-2.64-3.45-4.75c-0.17-0.85-0.14-1.71,0.05-2.56c0.01-0.06,0.03-0.12,0.04-0.18
		c0-0.02-0.01-0.03-0.02-0.07c-0.95,0.47-2,0.5-3,0.74c-1.08,0.25-2.13,0.15-3.19,0.16c-3.58,0.03-7.16,0-10.74,0.02
		c-0.89,0-1.54,0.46-1.72,1.22c-0.16,0.66,0.22,1.41,0.85,1.65c0.1,0.04,0.21,0.04,0.31,0.04c1.69,0,3.38,0,5.08,0
		c0.8,0,1.28,0.77,0.89,1.47c-0.44,0.81-0.63,1.67-0.61,2.58c0.04,1.44,0.51,2.72,1.61,3.71c0.44,0.4,0.92,0.77,1.4,1.13
		c0.65,0.49,1.28,1,1.47,1.85c0.1,0.44,0.15,0.9,0.16,1.35c0.01,1.64-0.01,3.28-0.01,4.91C39.79,68.22,39.79,68.28,39.79,68.39z
		 M62.46,43.39c-0.08-0.27-0.13-0.49-0.2-0.69c-0.6-1.63-1.79-2.7-3.32-3.41c-2.17-1.01-4.41-1.12-6.69-0.43
		c-0.26,0.08-0.51,0.11-0.76,0c-0.35-0.16-0.59-0.53-0.57-0.9c0.02-0.42,0.29-0.75,0.74-0.88c1.82-0.56,3.67-0.68,5.54-0.31
		c2.05,0.4,3.87,1.27,5.31,2.83c1.44,1.56,2.12,3.39,1.82,5.54c-0.01,0.06,0.01,0.14,0.04,0.19c0.16,0.29,0.33,0.57,0.51,0.85
		c0.04,0.07,0.14,0.14,0.22,0.14c1.5,0,3.01,0,4.51,0c0.18,0,0.22-0.08,0.19-0.23c-0.14-0.75-0.25-1.51-0.42-2.26
		c-0.26-1.21-0.69-2.36-1.22-3.47c-0.51-1.07-1.13-2.08-1.85-3.03c-1.04-1.38-2.24-2.6-3.61-3.65c-2.11-1.62-4.46-2.76-7.03-3.44
		c-1.91-0.51-3.86-0.73-5.84-0.68c-2.19,0.07-4.31,0.45-6.37,1.2c-1.54,0.56-3,1.28-4.36,2.2c-1.18,0.81-2.29,1.72-3.27,2.77
		c-2.41,2.59-3.98,5.62-4.63,9.11c-0.09,0.5-0.14,1-0.22,1.54c0.15,0,0.24,0,0.34,0c1.81,0,3.62,0.02,5.42-0.01
		c2.54-0.04,5.08,0.18,7.6-0.21c0.56-0.09,1.15-0.13,1.67-0.33c1.37-0.52,2.62-1.27,3.79-2.14c1.52-1.13,3.19-1.83,5.05-2.06
		c2.53-0.31,4.92,0.12,7.11,1.46C62.12,43.17,62.26,43.26,62.46,43.39z M69.7,62.02c-0.08,0-0.18,0-0.28,0
		c-1.15,0-2.31,0.01-3.46-0.01c-0.57-0.01-1.1,0.07-1.63,0.32c-1.74,0.8-3.57,1.3-5.48,1.52c-1.85,0.22-3.7,0.21-5.54-0.05
		c-1.86-0.26-3.65-0.78-5.35-1.59c-0.17-0.08-0.35-0.16-0.53-0.16c-1.11-0.01-2.22-0.01-3.33-0.01c-0.05,0-0.1,0.01-0.16,0.02
		c0,1.5,0,2.97,0,4.48c0.13,0,0.25,0,0.36,0c5.7,0,11.4,0,17.11,0c2.16,0,4.31,0,6.47,0c1.07,0,1.49-0.3,1.75-1.24
		c0.03-0.1,0.06-0.21,0.06-0.31C69.7,64.01,69.7,63.04,69.7,62.02z M56.19,43.38c-0.37,0.04-0.88,0.06-1.38,0.14
		c-1.77,0.3-3.33,1-4.56,2.35c-1.38,1.53-1.64,3.57-0.66,5.31c0.51,0.91,1.24,1.61,2.13,2.15c2.03,1.22,4.22,1.5,6.52,1.05
		c1.69-0.33,3.17-1.08,4.3-2.43c1.55-1.85,1.49-4.34-0.16-6.11C60.76,44.09,58.66,43.46,56.19,43.38z M37.9,66.54
		c0-0.1,0.01-0.15,0.01-0.2c0.01-0.98,0.02-1.97,0.01-2.95c0-0.34-0.03-0.68-0.09-1.01c-0.04-0.25-0.2-0.37-0.49-0.37
		c-1.92,0.02-3.85,0.01-5.77,0.01c-0.1,0-0.21,0-0.32,0c0,0.9,0.01,1.76,0,2.62c-0.01,0.44,0.1,0.86,0.32,1.23
		c0.1,0.18,0.29,0.37,0.48,0.43c0.4,0.12,0.83,0.22,1.25,0.23c1.44,0.03,2.88,0.02,4.32,0.02C37.7,66.54,37.79,66.54,37.9,66.54z
		 M26.82,52.99c1.65,1.51,3.27,3,4.91,4.5c0.37-0.3,0.7-0.62,1.08-0.87c0.39-0.26,0.63-0.58,0.55-1.04
		c-0.09-0.54-0.11-1.08-0.06-1.62c0.02-0.16,0.04-0.33,0.07-0.49c0.02-0.09,0.12-0.31,0.11-0.39c-0.03-0.19-0.53-0.08-0.7-0.08
		c-0.27,0-0.55,0-0.82,0c-0.56,0-1.13,0-1.69,0C29.12,52.99,27.97,52.99,26.82,52.99z M73.17,53.34c-1.54,0-3.05,0-4.56,0.01
		c-0.09,0-0.22,0.09-0.28,0.18c-0.22,0.35-0.39,0.72-0.62,1.06c-0.61,0.87-1.28,1.67-2.12,2.33c-0.17,0.13-0.33,0.27-0.51,0.42
		c0.5,0.34,0.99,0.66,1.46,0.99c0.16,0.11,0.26,0.11,0.41-0.02c1.44-1.16,2.89-2.31,4.33-3.47C71.91,54.35,72.54,53.85,73.17,53.34z
		"/>
	<path d="M45.85,42.78c0.04-0.15,0.1-0.41,0.19-0.66c0.27-0.78,0.67-1.48,1.18-2.12c0.33-0.41,0.87-0.5,1.29-0.2
		c0.41,0.29,0.51,0.84,0.23,1.29c-0.3,0.49-0.59,0.98-0.86,1.48c-0.1,0.19-0.14,0.42-0.21,0.63c-0.15,0.44-0.59,0.71-1.03,0.64
		C46.19,43.76,45.85,43.36,45.85,42.78z"/>
	<path d="M40.6,36.71c-0.52-0.01-0.92-0.43-0.91-0.95c0.01-0.51,0.44-0.93,0.96-0.92c0.52,0.01,0.93,0.45,0.92,0.96
		C41.54,36.31,41.12,36.71,40.6,36.71z"/>
	<path d="M41.63,39.38c0.52,0,0.94,0.42,0.94,0.93c0,0.51-0.43,0.94-0.94,0.94c-0.52,0-0.93-0.42-0.93-0.94
		C40.7,39.79,41.11,39.38,41.63,39.38z"/>
	<path d="M36.72,40.79c-0.53,0-0.93-0.41-0.92-0.94c0-0.52,0.42-0.93,0.94-0.93c0.52,0,0.93,0.42,0.93,0.94
		C37.66,40.39,37.25,40.79,36.72,40.79z"/>
	<path d="M54.69,44.96c0.69-0.02,1.32,0.17,1.91,0.52c0.1,0.06,0.26,0.08,0.37,0.05c2.28-0.67,4.5,0.96,4.56,3.34
		c0.04,1.77-1.39,3.37-3.15,3.53c-0.81,0.07-1.56-0.1-2.26-0.52c-0.1-0.06-0.27-0.06-0.39-0.03c-1.76,0.5-3.6-0.39-4.26-2.08
		c-0.1-0.26-0.16-0.55-0.18-0.83c-0.02-0.44,0.31-0.82,0.74-0.9c0.45-0.08,0.87,0.14,1.04,0.56c0.05,0.14,0.08,0.29,0.13,0.43
		c0.26,0.78,1.16,1.24,1.98,1.01c0.84-0.24,1.35-1.1,1.15-1.95c-0.19-0.83-0.98-1.38-1.81-1.24c-0.44,0.08-0.84,0.08-1.15-0.29
		c-0.24-0.28-0.28-0.61-0.15-0.96c0.16-0.43,0.52-0.59,0.94-0.65C54.33,44.94,54.51,44.96,54.69,44.96z"/>
</g>
</svg>
