<?xml version="1.0" encoding="utf-8"?>
<!-- Generator: Adobe Illustrator 27.5.0, SVG Export Plug-In . SVG Version: 6.00 Build 0)  -->
<svg version="1.1" id="Layer_1" xmlns="http://www.w3.org/2000/svg" xmlns:xlink="http://www.w3.org/1999/xlink" x="0px" y="0px"
	 viewBox="0 0 100.27 100.27" style="enable-background:new 0 0 100.27 100.27;" xml:space="preserve">
<style type="text/css">
	.st0{fill:#020304;}
	.st1{fill:#FFFFFF;}
</style>
<g>
	<path class="st0" d="M79.53,46.76c0-16.08-12.63-29.11-28.22-29.11c-15.32,0-25.84,10.8-29.72,25.11
		c-0.44,1.61-0.96,5.02-0.85,6.69c0.23,3.51,2.42,4.54,5.25,5.48c0.11,1.38,0.57,2.72,1.37,3.88c0.73,1.06,1.7,1.9,2.81,2.46
		c0.05,5.64,4.03,10.33,9.24,11.3l1.63,4.83c1.05,3.12,3.91,5.22,7.11,5.22H62c3.04,0,5.82-1.59,7.43-4.25
		c1.61-2.66,1.77-5.94,0.43-8.75l-3-6.3c1.83-1.91,3.33-4.15,4.42-6.63c0,0,2.01,0.15,3.65,0.15c0,0,0,0,0,0
		C80,56.83,79.53,51.12,79.53,46.76z"/>
	<path class="st1" d="M59.61,62.18c4.78-2.96,7.97-8.25,7.97-14.27c0-9.25-7.53-16.78-16.78-16.78c-7.12,0-13.22,4.46-15.65,10.73
		c-0.02,0.03-0.03,0.06-0.04,0.09l-0.04,0.13c-0.07,0.18-0.13,0.37-0.19,0.56l-4,11.57c-0.2,0.59-0.11,1.22,0.25,1.73
		c0.36,0.51,0.93,0.8,1.55,0.8h1.56c0.47,0,0.85,0.38,0.85,0.85v4.06c0,3.14,2.56,5.7,5.7,5.7h1.55c0.36,0,0.68,0.23,0.8,0.57
		l2.76,7.95c0.27,0.76,0.99,1.28,1.8,1.28h14.19c1.1,0,2.1-0.56,2.68-1.49c0.58-0.93,0.64-2.08,0.16-3.06L59.61,62.18z"/>
	<g>
		<path class="st1" d="M47.09,52.25c2.04,3.57,4.01,6.53,5.48,9.72c1.51,3.29,0.57,6.3-1.96,8.14c-2.31,1.67-5.38,1.63-7.65-0.11
			c-2.47-1.89-3.18-4.87-1.79-8.22c0.65-1.56,1.49-3.06,2.39-4.5C44.47,55.78,45.57,54.38,47.09,52.25z"/>
		<path class="st0" d="M46.86,71.96c-1.51,0-3.01-0.49-4.28-1.47c-2.75-2.11-3.47-5.37-1.99-8.95c0.57-1.38,1.35-2.84,2.43-4.59
			c0.63-1.02,1.36-2.02,2.2-3.17c0.41-0.56,0.87-1.19,1.36-1.89c0.12-0.17,0.32-0.27,0.54-0.26c0.21,0.01,0.4,0.13,0.51,0.31
			c0.64,1.12,1.27,2.18,1.89,3.21c1.34,2.24,2.6,4.35,3.62,6.57c1.56,3.4,0.73,6.8-2.16,8.9C49.73,71.51,48.29,71.96,46.86,71.96z
			 M47.03,53.4c-0.29,0.4-0.56,0.77-0.81,1.11c-0.86,1.18-1.53,2.11-2.14,3.09c-1.05,1.69-1.79,3.1-2.34,4.42
			c-1.25,3.02-0.67,5.75,1.59,7.49c2.05,1.57,4.83,1.61,6.91,0.1c2.42-1.75,3.07-4.51,1.76-7.37c-0.99-2.16-2.23-4.24-3.55-6.45
			C47.98,55.01,47.51,54.22,47.03,53.4z"/>
	</g>
	<g>
		<path class="st1" d="M39.04,47.34c0.08,0.16,1.11,2.19,3.36,2.48c1.79,0.23,3.6-0.76,4.48-2.48"/>
		<path class="st0" d="M42.91,50.38c-0.19,0-0.39-0.01-0.58-0.04c-2.5-0.32-3.65-2.52-3.77-2.77c-0.13-0.26-0.02-0.58,0.24-0.71
			c0.26-0.13,0.58-0.02,0.71,0.24c0.04,0.08,0.96,1.93,2.95,2.19c1.58,0.2,3.17-0.68,3.94-2.2c0.13-0.26,0.45-0.36,0.71-0.23
			c0.26,0.13,0.36,0.45,0.23,0.71C46.46,49.3,44.73,50.38,42.91,50.38z"/>
	</g>
	<g>
		<path class="st1" d="M23.82,46.7l1.72-3.85c0.6-1.34,1.42-1.37,2.32-0.97l0.39,0.18c0.69,0.31,1.34,0.96,0.9,1.96l-1.25,2.81
			l1.16,0.52l-0.63,1.41L23.82,46.7z M26.76,46.31l0.98-2.2c0.15-0.33-0.01-0.56-0.29-0.68l-0.18-0.08
			c-0.31-0.14-0.56-0.07-0.75,0.36L25.6,45.8L26.76,46.31z"/>
		<path class="st1" d="M26.76,40.1l1.9-4.27c0.49-1.09,1.16-1.14,1.99-0.77l0.29,0.13c0.62,0.28,0.92,0.58,0.78,1.3l0.01,0.01
			c0.26-0.39,0.6-0.65,1.36-0.32l0.78,0.35l-0.63,1.41l-0.55-0.25c-0.48-0.22-0.71-0.15-0.9,0.29l-0.99,2.22l1.2,0.53l-0.63,1.41
			L26.76,40.1z M29.66,39.69l1.04-2.34c0.17-0.38,0.08-0.59-0.25-0.74l-0.15-0.07c-0.41-0.18-0.57-0.01-0.77,0.43l-0.98,2.21
			L29.66,39.69z"/>
		<path class="st1" d="M32.4,30.53l1.4-1.45l5.56,1.5l-1.19,1.24l-0.98-0.27l-2.17,2.26l0.33,0.95L34.15,36L32.4,30.53z
			 M34.63,32.64L36,31.21l-2.06-0.59L34.63,32.64z"/>
		<path class="st1" d="M42.03,25.3c-0.37-1.43,0.35-1.98,1.7-2.32l1.76-0.45c2.13-0.55,2.53-0.16,2.87,1.23l-1.5,0.39L46.83,24
			c-0.09-0.35-0.37-0.39-0.82-0.27l-1.63,0.42c-0.79,0.2-0.84,0.61-0.69,1.22l0.14,0.53c0.18,0.71,0.4,0.94,1.11,0.76l1.6-0.41
			c0.68-0.17,0.86-0.29,0.7-0.9l1.5-0.39l0.12,0.46c0.21,0.82,0.08,1.55-1.42,1.94l-2.42,0.62c-1.35,0.35-2.24,0.22-2.61-1.21
			L42.03,25.3z"/>
		<path class="st1" d="M50.86,21.86l1.53,0.22l-0.26,1.78l3.23,0.46l0.26-1.78l1.53,0.22l-0.72,5l-1.53-0.22l0.27-1.89l-3.23-0.46
			l-0.27,1.89l-1.53-0.22L50.86,21.86z"/>
		<path class="st1" d="M58.88,25.1c0.68-1.31,1.58-1.24,2.82-0.59l2.2,1.15c1.24,0.64,1.81,1.34,1.13,2.65l-0.7,1.34
			c-0.68,1.31-1.58,1.24-2.82,0.59l-2.2-1.15c-1.24-0.64-1.81-1.34-1.13-2.65L58.88,25.1z M59.82,26.74
			c-0.34,0.65-0.33,0.97,0.32,1.31l1.76,0.91c0.65,0.34,0.91,0.16,1.25-0.49l0.25-0.48c0.29-0.56,0.33-0.97-0.39-1.34l-1.61-0.84
			c-0.72-0.38-1.04-0.11-1.33,0.45L59.82,26.74z"/>
		<path class="st1" d="M67.98,28.38l3.16,3.44c0.81,0.88,0.59,1.51-0.08,2.13l-0.24,0.22c-0.5,0.46-0.89,0.61-1.5,0.2l-0.01,0.01
			c0.25,0.4,0.36,0.81-0.25,1.38l-0.63,0.58l-1.05-1.14l0.45-0.41c0.39-0.36,0.41-0.59,0.09-0.94l-1.65-1.79l-0.96,0.89l-1.05-1.14
			L67.98,28.38z M67.2,31.2l1.73,1.88c0.28,0.31,0.51,0.31,0.78,0.06l0.12-0.11c0.33-0.3,0.24-0.52-0.09-0.88l-1.64-1.78L67.2,31.2z
			"/>
		<path class="st1" d="M74.26,38l0.56,1.94l-4.08,4.07l-0.48-1.65l0.72-0.71l-0.87-3.01l-0.98-0.19l-0.48-1.66L74.26,38z
			 M71.32,38.89l0.55,1.9l1.54-1.49L71.32,38.89z"/>
		<path class="st1" d="M75.72,44.93l-0.32,4.66c-0.08,1.19-0.69,1.47-1.6,1.41l-0.32-0.02c-0.68-0.05-1.06-0.23-1.18-0.95l-0.01,0
			c-0.11,0.45-0.34,0.82-1.17,0.77l-0.86-0.06l0.11-1.54l0.61,0.04c0.53,0.04,0.71-0.11,0.75-0.59l0.17-2.43l-1.31-0.09l0.11-1.54
			L75.72,44.93z M73.14,46.31l-0.17,2.55c-0.03,0.42,0.13,0.58,0.49,0.61l0.17,0.01c0.45,0.03,0.54-0.19,0.58-0.67l0.16-2.41
			L73.14,46.31z"/>
	</g>
</g>
</svg>
