<?xml version="1.0" encoding="utf-8"?>
<!-- Generator: Adobe Illustrator 27.5.0, SVG Export Plug-In . SVG Version: 6.00 Build 0)  -->
<svg version="1.1" id="Layer_1" xmlns="http://www.w3.org/2000/svg" xmlns:xlink="http://www.w3.org/1999/xlink" x="0px" y="0px"
	 viewBox="0 0 100.27 100.27" style="enable-background:new 0 0 100.27 100.27;" xml:space="preserve">
<style type="text/css">
	.st0{fill:#FFFFFF;}
	.st1{clip-path:url(#SVGID_00000155130965075188423940000012386549632420538515_);}
	.st2{clip-path:url(#SVGID_00000141432578096888968050000015120124380719106484_);}
</style>
<g>
	<g>
		<g>
			<polygon points="20.64,21.19 20.64,59.62 50.9,79.09 79.63,59.62 79.63,21.19 			"/>
		</g>
		<g>
			<path d="M50.9,81.47c-0.45,0-0.9-0.13-1.29-0.38L19.35,61.63c-0.68-0.44-1.09-1.19-1.09-2.01V21.19c0-1.32,1.07-2.39,2.39-2.39
				h59c1.32,0,2.39,1.07,2.39,2.39v38.43c0,0.79-0.39,1.53-1.05,1.97L52.24,81.06C51.83,81.33,51.37,81.47,50.9,81.47z M23.02,58.32
				l27.84,17.91l26.38-17.87V23.57H23.02V58.32z"/>
		</g>
		<g>
			<path class="st0" d="M50.92,80.52L19.45,60.27V19.99h61.38v40.26L50.92,80.52z M21.83,58.97l29.05,18.69l27.56-18.67V22.38H21.83
				V58.97z"/>
		</g>
	</g>
	<g>
		<g>
			<path class="st0" d="M28.71,37.95h-1.77v-9.87h2.79c1.07,0,1.62,0.6,1.62,1.65v1.58c0,0.8-0.45,1.19-0.78,1.33
				c0.29,0.11,0.76,0.42,0.76,1.17v3.36c0,0.42,0.08,0.61,0.15,0.73v0.07h-1.76c-0.08-0.11-0.16-0.32-0.16-0.76v-2.88
				c0-0.45-0.11-0.58-0.46-0.58h-0.37V37.95z M28.71,32.1h0.34c0.34,0,0.49-0.13,0.49-0.6v-1.34c0-0.42-0.08-0.56-0.44-0.56h-0.4
				V32.1z"/>
		</g>
		<g>
			<path class="st0" d="M36.81,28.08v1.74h-1.92v2.15h1.51v1.78h-1.51v2.43h2.02v1.78h-3.78v-9.87H36.81z"/>
		</g>
		<g>
			<path class="st0" d="M38.3,28.08h1.83l0.65,6.62l0.65-6.62h1.69l-1.26,9.87h-2.24L38.3,28.08z"/>
		</g>
		<g>
			<path class="st0" d="M46.74,36.29h-1.06l-0.16,1.66h-1.57l1.25-9.87h2.1l1.34,9.87h-1.71L46.74,36.29z M45.85,34.59h0.72
				l-0.37-3.38L45.85,34.59z"/>
		</g>
		<g>
			<path class="st0" d="M51.83,28.08l1.21,5.04v-5.04h1.57v9.87h-1.5l-1.37-5.41v5.41h-1.57v-9.87H51.83z"/>
		</g>
		<g>
			<path class="st0" d="M59.12,33.6h1.75v2.23c0,1.18-0.48,2.28-2.04,2.28h-0.36c-1.7,0-2.08-1.1-2.08-2.34V30.2
				c0-1.19,0.52-2.24,2.08-2.24h0.36c1.69,0,2.04,1.05,2.04,2.18v1.66h-1.75V30.2c0-0.37-0.12-0.57-0.45-0.57
				c-0.33,0-0.44,0.19-0.44,0.57v5.57c0,0.38,0.13,0.6,0.45,0.6c0.32,0,0.44-0.24,0.44-0.6V33.6z"/>
		</g>
		<g>
			<path class="st0" d="M64.41,37.95h-1.76v-9.87h1.76v3.77h0.93v-3.77h1.77v9.87h-1.77v-4.17h-0.93V37.95z"/>
		</g>
		<g>
			<path class="st0" d="M72.62,28.08v1.74H70.7v2.15h1.51v1.78H70.7v2.43h2.02v1.78h-3.78v-9.87H72.62z"/>
		</g>
		<g>
			<path class="st0" d="M30.99,48.15c0,1.28-0.68,2.13-1.86,2.13h-0.35c-1.24,0-1.9-0.77-1.9-2.13v-4.63c0-1.35,0.53-2.24,1.88-2.24
				h0.35c1.38,0,1.87,0.88,1.87,2.23V48.15z M29.36,43.39c0-0.39-0.13-0.58-0.41-0.58c-0.31,0-0.42,0.19-0.42,0.58v4.81
				c0,0.27,0.11,0.52,0.44,0.52c0.32,0,0.4-0.25,0.4-0.52V43.39z"/>
		</g>
		<g>
			<path class="st0" d="M34.15,50.15h-1.57v-8.76h2.47c0.95,0,1.44,0.53,1.44,1.46v1.4c0,0.71-0.4,1.06-0.69,1.18
				c0.26,0.09,0.67,0.38,0.67,1.04v2.98c0,0.38,0.07,0.54,0.13,0.65v0.06h-1.57c-0.07-0.09-0.14-0.28-0.14-0.67v-2.56
				c0-0.4-0.09-0.52-0.41-0.52h-0.33V50.15z M34.15,44.95h0.31c0.31,0,0.44-0.12,0.44-0.53v-1.19c0-0.38-0.07-0.49-0.39-0.49h-0.35
				V44.95z"/>
		</g>
		<g>
			<path class="st0" d="M39.62,50.15h-1.57v-8.76h1.57V50.15z"/>
		</g>
		<g>
			<path class="st0" d="M42.64,50.27c-0.92,0-1.43-0.79-1.43-1.72v-5.22c0-1.08,0.45-2.05,1.83-2.05h0.32
				c1.54,0,1.81,0.99,1.81,2.04v0.97h-1.53V43.3c0-0.35-0.08-0.55-0.4-0.55c-0.27,0-0.39,0.19-0.39,0.55v4.88
				c0,0.38,0.15,0.57,0.42,0.57c0.29,0,0.46-0.19,0.46-0.54v-1.88h-0.58v-1.47h2.08v5.3h-0.95c-0.05-0.2-0.14-0.57-0.24-0.84
				c-0.14,0.29-0.52,0.95-1.3,0.95H42.64z"/>
		</g>
		<g>
			<path class="st0" d="M48.4,50.15h-1.57v-8.76h1.57V50.15z"/>
		</g>
		<g>
			<path class="st0" d="M51.49,41.38l1.07,4.48v-4.48h1.39v8.76h-1.33l-1.21-4.81v4.81h-1.39v-8.76H51.49z"/>
		</g>
		<g>
			<path class="st0" d="M57.78,48.68h-0.94l-0.14,1.47h-1.39l1.11-8.76h1.86l1.19,8.76h-1.52L57.78,48.68z M57.23,39.72h1.25
				l-0.53,1.35h-1.23L57.23,39.72z M56.99,47.17h0.64l-0.33-3L56.99,47.17z"/>
		</g>
		<g>
			<path class="st0" d="M62.39,50.15h-1.57v-8.76h2.47c0.95,0,1.44,0.53,1.44,1.46v1.4c0,0.71-0.4,1.06-0.69,1.18
				c0.26,0.09,0.67,0.38,0.67,1.04v2.98c0,0.38,0.07,0.54,0.13,0.65v0.06h-1.57c-0.07-0.09-0.14-0.28-0.14-0.67v-2.56
				c0-0.4-0.09-0.52-0.41-0.52h-0.33V50.15z M62.39,44.95h0.31c0.31,0,0.44-0.12,0.44-0.53v-1.19c0-0.38-0.07-0.49-0.39-0.49h-0.35
				V44.95z"/>
		</g>
		<g>
			<path class="st0" d="M67.86,50.15H66.3v-8.76h1.57V50.15z"/>
		</g>
		<g>
			<path class="st0" d="M71.69,48.68h-0.94l-0.14,1.47h-1.39l1.11-8.76h1.86l1.19,8.76h-1.52L71.69,48.68z M70.9,47.17h0.64l-0.33-3
				L70.9,47.17z"/>
		</g>
	</g>
	<g>
		<g>
			<defs>
				<path id="SVGID_1_" d="M34.8,55.91c-1.58,2.28,0.53,5.03,2.42,6.33c0.69,0.47,1.46,0.83,2.27,1.06
					c1.48,0.42,3.05,0.39,4.56,0.12c0.61-0.11,1.24-0.23,1.81-0.46c0.12-0.05,0.66-0.19,0.45-0.48
					C42.07,56.79,34.79,55.92,34.8,55.91z"/>
			</defs>
			<use xlink:href="#SVGID_1_"  style="overflow:visible;fill:#FFFFFF;"/>
			<clipPath id="SVGID_00000142856286709346600650000010246929462929438897_">
				<use xlink:href="#SVGID_1_"  style="overflow:visible;"/>
			</clipPath>
			<circle style="clip-path:url(#SVGID_00000142856286709346600650000010246929462929438897_);" cx="40.77" cy="59.19" r="2.72"/>
			<g style="clip-path:url(#SVGID_00000142856286709346600650000010246929462929438897_);">
				<path class="st0" d="M40.96,59.86c-0.03,0.12-0.07,0.23-0.11,0.34c-0.32-0.67-0.52-1.41-0.55-2.15
					c-0.01-0.36,0.02-0.73,0.1-1.08c0.03-0.13,0.39-0.85,0.33-0.93c0.26,0.35,0.33,0.8,0.37,1.23
					C41.19,58.14,41.19,59.03,40.96,59.86z"/>
			</g>
			<use xlink:href="#SVGID_1_"  style="overflow:visible;fill:none;stroke:#020203;stroke-width:0.6023;stroke-miterlimit:10;"/>
		</g>
		<g>
			<defs>
				<path id="SVGID_00000153695080542193837150000015215557969722051749_" d="M66.29,55.91c1.58,2.28-0.53,5.03-2.42,6.33
					c-0.69,0.47-1.46,0.83-2.27,1.06c-1.48,0.42-3.05,0.39-4.56,0.12c-0.61-0.11-1.24-0.23-1.81-0.46
					c-0.12-0.05-0.66-0.19-0.45-0.48C59.01,56.79,66.29,55.92,66.29,55.91z"/>
			</defs>
			<use xlink:href="#SVGID_00000153695080542193837150000015215557969722051749_"  style="overflow:visible;fill:#FFFFFF;"/>
			<clipPath id="SVGID_00000031182127887233194510000008818309747016007818_">
				<use xlink:href="#SVGID_00000153695080542193837150000015215557969722051749_"  style="overflow:visible;"/>
			</clipPath>
			<circle style="clip-path:url(#SVGID_00000031182127887233194510000008818309747016007818_);" cx="60.31" cy="59.19" r="2.72"/>
			<g style="clip-path:url(#SVGID_00000031182127887233194510000008818309747016007818_);">
				<path class="st0" d="M60.11,59.87c0.04,0.11,0.09,0.22,0.14,0.33c0.25-0.7,0.38-1.45,0.34-2.2c-0.02-0.36-0.09-0.72-0.21-1.06
					c-0.04-0.12-0.47-0.81-0.42-0.89c-0.22,0.37-0.25,0.83-0.25,1.26C59.71,58.18,59.8,59.07,60.11,59.87z"/>
			</g>
			
				<use xlink:href="#SVGID_00000153695080542193837150000015215557969722051749_"  style="overflow:visible;fill:none;stroke:#020203;stroke-width:0.6023;stroke-miterlimit:10;"/>
		</g>
	</g>
</g>
</svg>
