<?xml version="1.0" encoding="utf-8"?>
<!-- Generator: Adobe Illustrator 27.5.0, SVG Export Plug-In . SVG Version: 6.00 Build 0)  -->
<svg version="1.1" id="Layer_1" xmlns="http://www.w3.org/2000/svg" xmlns:xlink="http://www.w3.org/1999/xlink" x="0px" y="0px"
	 viewBox="0 0 100.27 100.27" style="enable-background:new 0 0 100.27 100.27;" xml:space="preserve">
<style type="text/css">
	.st0{fill:#FFFFFF;}
</style>
<g>
	<polygon class="st0" points="50.28,14.02 13.93,50.1 50.13,86.33 86.34,50.12 	"/>
	<path d="M13.93,50.1c0.26-0.25,0.51-0.5,0.77-0.75c0.31-0.3,0.62-0.59,0.93-0.9c0.31-0.31,0.6-0.64,0.91-0.95
		c0.29-0.29,0.6-0.56,0.9-0.85c0.4-0.39,0.79-0.79,1.18-1.19c0.29-0.29,0.57-0.6,0.86-0.89c0.3-0.31,0.62-0.6,0.93-0.9
		c0.28-0.28,0.55-0.58,0.83-0.86c0.32-0.32,0.66-0.62,0.98-0.94c0.39-0.39,0.78-0.77,1.17-1.17c0.29-0.3,0.58-0.61,0.87-0.91
		c0.31-0.31,0.63-0.61,0.95-0.92c0.28-0.28,0.55-0.58,0.84-0.86c0.32-0.31,0.64-0.61,0.96-0.93c0.39-0.38,0.77-0.76,1.15-1.15
		c0.29-0.3,0.57-0.61,0.87-0.91c0.32-0.32,0.66-0.63,0.98-0.95c0.27-0.27,0.53-0.56,0.8-0.83c0.28-0.28,0.58-0.54,0.86-0.82
		c0.28-0.28,0.56-0.58,0.84-0.86c0.32-0.32,0.65-0.63,0.98-0.95c0.27-0.27,0.53-0.55,0.8-0.82c0.32-0.32,0.65-0.64,0.97-0.96
		c0.3-0.31,0.59-0.63,0.89-0.93c0.34-0.34,0.69-0.66,1.03-1c0.28-0.28,0.55-0.58,0.83-0.86c0.32-0.31,0.64-0.62,0.96-0.93
		c0.41-0.4,0.82-0.81,1.22-1.22c0.28-0.28,0.54-0.58,0.82-0.86c0.31-0.31,0.63-0.61,0.94-0.92c0.29-0.29,0.56-0.59,0.85-0.87
		c0.32-0.31,0.64-0.61,0.96-0.92c0.38-0.37,0.76-0.75,1.13-1.13c0.31-0.31,0.6-0.63,0.91-0.94c0.3-0.31,0.62-0.6,0.92-0.9
		c0.29-0.29,0.56-0.59,0.85-0.87c0.32-0.31,0.64-0.61,0.96-0.93c0.4-0.39,0.79-0.79,1.19-1.18c0.11-0.11,0.21-0.24,0.31-0.36
		c0.09-0.1,0.17-0.1,0.26,0c0.25,0.26,0.52,0.52,0.77,0.78c0.37,0.38,0.74,0.77,1.12,1.15c0.42,0.42,0.85,0.82,1.26,1.24
		c0.38,0.38,0.74,0.77,1.12,1.15c0.43,0.43,0.87,0.84,1.3,1.27c0.37,0.37,0.71,0.75,1.08,1.12c0.36,0.35,0.73,0.69,1.09,1.04
		c0.32,0.31,0.64,0.63,0.95,0.95c0.25,0.26,0.5,0.52,0.75,0.78c0.37,0.38,0.75,0.76,1.13,1.14c0.44,0.44,0.89,0.87,1.33,1.31
		c0.36,0.36,0.7,0.72,1.05,1.08c0.43,0.43,0.88,0.86,1.31,1.29c0.36,0.36,0.71,0.73,1.07,1.09c0.43,0.43,0.87,0.85,1.29,1.28
		c0.37,0.37,0.74,0.75,1.11,1.12c0.44,0.43,0.88,0.86,1.32,1.29c0.36,0.36,0.71,0.73,1.07,1.09c0.43,0.43,0.86,0.85,1.29,1.28
		c0.37,0.37,0.73,0.74,1.09,1.1c0.44,0.43,0.88,0.86,1.31,1.3c0.36,0.36,0.71,0.73,1.07,1.09c0.43,0.43,0.86,0.85,1.29,1.28
		c0.37,0.37,0.74,0.75,1.11,1.12c0.42,0.42,0.85,0.84,1.28,1.26c0.37,0.37,0.74,0.75,1.11,1.12c0.42,0.42,0.85,0.84,1.27,1.27
		c0.38,0.38,0.75,0.76,1.13,1.14c0.42,0.42,0.85,0.84,1.28,1.26c0.37,0.37,0.74,0.75,1.11,1.12c0.24,0.24,0.48,0.46,0.72,0.7
		c0.29,0.29,0.58,0.59,0.86,0.88C74.26,62.2,62.21,74.25,50.13,86.33c-0.28-0.28-0.57-0.56-0.85-0.85
		c-0.36-0.36-0.73-0.71-1.09-1.08c-0.37-0.37-0.72-0.75-1.08-1.12c-0.42-0.42-0.86-0.83-1.29-1.26c-0.37-0.37-0.72-0.75-1.09-1.11
		c-0.43-0.43-0.87-0.85-1.3-1.28c-0.37-0.37-0.72-0.74-1.09-1.11c-0.34-0.35-0.69-0.68-1.04-1.03c-0.24-0.24-0.48-0.49-0.73-0.73
		c-0.35-0.35-0.71-0.69-1.06-1.04c-0.35-0.35-0.69-0.71-1.04-1.06c-0.22-0.23-0.46-0.45-0.68-0.67c-0.68-0.69-1.35-1.38-2.04-2.06
		c-0.64-0.64-1.29-1.26-1.93-1.9c-0.36-0.35-0.7-0.73-1.05-1.08c-0.42-0.43-0.86-0.84-1.28-1.26c-0.37-0.37-0.74-0.75-1.11-1.13
		c-0.43-0.43-0.87-0.85-1.3-1.28c-0.37-0.37-0.72-0.74-1.09-1.11c-0.42-0.42-0.86-0.84-1.28-1.26c-0.38-0.38-0.74-0.77-1.12-1.15
		c-0.43-0.42-0.86-0.84-1.29-1.26c-0.37-0.37-0.72-0.75-1.09-1.11c-0.34-0.35-0.7-0.68-1.04-1.03c-0.24-0.24-0.47-0.48-0.71-0.71
		c-0.36-0.35-0.72-0.71-1.07-1.06c-0.44-0.44-0.88-0.89-1.32-1.33c-0.35-0.35-0.7-0.7-1.05-1.05c-0.36-0.36-0.72-0.73-1.08-1.09
		c-0.42-0.42-0.85-0.84-1.27-1.27c-0.37-0.37-0.74-0.75-1.11-1.12c-0.19-0.19-0.4-0.36-0.61-0.54
		C13.93,50.16,13.93,50.13,13.93,50.1z M84.67,50.16c-0.11-0.14-0.19-0.26-0.28-0.35c-0.38-0.37-0.77-0.73-1.14-1.1
		c-0.42-0.42-0.82-0.86-1.23-1.28c-0.38-0.38-0.78-0.74-1.16-1.12c-0.41-0.41-0.81-0.84-1.22-1.26c-0.39-0.39-0.8-0.76-1.19-1.15
		c-0.41-0.41-0.8-0.83-1.2-1.24c-0.38-0.39-0.79-0.75-1.17-1.14c-0.41-0.41-0.81-0.84-1.22-1.26c-0.38-0.38-0.79-0.75-1.18-1.13
		c-0.41-0.41-0.81-0.85-1.22-1.26c-0.38-0.39-0.79-0.75-1.17-1.14c-0.41-0.41-0.81-0.85-1.22-1.26c-0.38-0.39-0.79-0.75-1.17-1.14
		c-0.41-0.41-0.81-0.85-1.22-1.26c-0.37-0.37-0.76-0.71-1.13-1.08c-0.67-0.67-1.33-1.34-2-2.01c-0.24-0.24-0.47-0.48-0.71-0.72
		c-0.35-0.35-0.7-0.7-1.05-1.05c-0.43-0.42-0.86-0.84-1.29-1.26c-0.35-0.35-0.68-0.72-1.03-1.07c-0.37-0.37-0.77-0.73-1.14-1.1
		c-0.42-0.42-0.82-0.86-1.24-1.28c-0.38-0.38-0.78-0.74-1.16-1.12c-0.41-0.41-0.81-0.84-1.22-1.26c-0.37-0.37-0.77-0.73-1.14-1.1
		c-0.65-0.64-1.28-1.3-1.93-1.95c-0.44-0.44-0.89-0.86-1.32-1.29c-0.34-0.34-0.67-0.69-1-1.04c-0.09-0.1-0.16-0.14-0.29,0
		c-0.25,0.28-0.55,0.53-0.82,0.8c-0.32,0.32-0.65,0.65-0.97,0.97c-0.26,0.26-0.5,0.53-0.76,0.79c-0.27,0.27-0.56,0.52-0.83,0.79
		c-0.32,0.32-0.62,0.67-0.94,1c-0.21,0.22-0.44,0.42-0.65,0.63c-0.3,0.29-0.59,0.58-0.89,0.87c-0.33,0.33-0.66,0.67-1,1
		c-0.24,0.24-0.5,0.47-0.74,0.71c-0.32,0.32-0.62,0.66-0.94,0.99c-0.35,0.35-0.7,0.7-1.05,1.05c-0.21,0.21-0.42,0.43-0.64,0.64
		c-0.36,0.35-0.72,0.69-1.07,1.03c-0.21,0.2-0.4,0.41-0.6,0.61c-0.28,0.28-0.56,0.56-0.84,0.84c-0.33,0.33-0.67,0.67-1,1
		c-0.26,0.27-0.52,0.54-0.79,0.8c-0.3,0.3-0.6,0.59-0.9,0.89c-0.32,0.32-0.62,0.64-0.94,0.96c-0.26,0.26-0.54,0.5-0.79,0.76
		c-0.33,0.33-0.64,0.67-0.96,1c-0.33,0.34-0.67,0.68-1.01,1.02c-0.23,0.23-0.46,0.46-0.7,0.69c-0.36,0.36-0.73,0.72-1.09,1.08
		c-0.25,0.25-0.5,0.51-0.75,0.77c-0.33,0.33-0.66,0.65-0.98,0.98c-0.31,0.3-0.61,0.61-0.92,0.91c-0.25,0.25-0.51,0.48-0.76,0.73
		c-0.34,0.34-0.68,0.7-1.02,1.05c-0.31,0.32-0.62,0.64-0.94,0.95c-0.24,0.24-0.49,0.48-0.73,0.73c-0.36,0.36-0.73,0.72-1.09,1.08
		c-0.25,0.25-0.5,0.51-0.76,0.76c-0.29,0.29-0.59,0.58-0.88,0.87c-0.33,0.33-0.66,0.67-0.99,1c-0.25,0.25-0.51,0.48-0.76,0.73
		c-0.33,0.33-0.66,0.68-0.99,1.01c-0.32,0.33-0.65,0.66-0.98,0.98c-0.24,0.24-0.48,0.49-0.73,0.72c-0.18,0.16-0.19,0.2-0.01,0.37
		c0.28,0.27,0.55,0.54,0.82,0.81c0.43,0.44,0.86,0.88,1.3,1.31c0.36,0.36,0.72,0.71,1.08,1.06c0.33,0.33,0.66,0.68,0.99,1.01
		c0.47,0.47,0.95,0.93,1.42,1.4c0.33,0.33,0.65,0.66,0.98,0.99c0.46,0.46,0.94,0.92,1.4,1.38c0.44,0.43,0.86,0.88,1.3,1.31
		c0.36,0.36,0.73,0.72,1.09,1.08c0.35,0.35,0.7,0.7,1.05,1.05c0.45,0.45,0.91,0.91,1.36,1.36c0.33,0.33,0.65,0.66,0.98,0.99
		c0.46,0.46,0.93,0.91,1.39,1.36c0.47,0.46,0.93,0.93,1.39,1.39c0.34,0.35,0.69,0.69,1.03,1.04c0.32,0.32,0.63,0.65,0.96,0.98
		c0.47,0.47,0.95,0.93,1.42,1.4c0.46,0.46,0.92,0.91,1.38,1.37c0.34,0.35,0.69,0.69,1.03,1.04c0.33,0.33,0.65,0.66,0.98,0.99
		c0.46,0.46,0.93,0.91,1.38,1.37c0.33,0.33,0.66,0.68,0.99,1.01c0.46,0.46,0.94,0.92,1.4,1.38c0.44,0.44,0.88,0.89,1.32,1.33
		c0.54,0.54,1.09,1.08,1.63,1.62c0.55,0.55,1.1,1.1,1.65,1.65c0.46,0.46,0.91,0.92,1.37,1.37c0.36,0.36,0.72,0.7,1.08,1.07
		c0.19,0.19,0.32,0.1,0.45-0.05c0.13-0.14,0.25-0.29,0.39-0.42c0.46-0.45,0.93-0.88,1.38-1.33c0.33-0.33,0.64-0.69,0.97-1.02
		c0.28-0.29,0.59-0.55,0.87-0.84c0.28-0.29,0.54-0.6,0.83-0.89c0.28-0.29,0.58-0.55,0.87-0.83c0.23-0.22,0.47-0.44,0.69-0.67
		c0.29-0.3,0.56-0.61,0.85-0.9c0.28-0.29,0.58-0.55,0.87-0.83c0.23-0.22,0.47-0.44,0.69-0.67c0.29-0.3,0.56-0.6,0.85-0.9
		c0.12-0.13,0.26-0.23,0.39-0.36c0.48-0.49,0.96-0.99,1.45-1.48c0.27-0.27,0.58-0.52,0.85-0.8c0.69-0.7,1.37-1.41,2.06-2.11
		c0.13-0.14,0.29-0.25,0.42-0.39c0.48-0.49,0.96-0.99,1.45-1.48c0.27-0.27,0.57-0.52,0.85-0.8c0.7-0.71,1.38-1.42,2.08-2.13
		c0.4-0.41,0.82-0.8,1.22-1.2c0.22-0.22,0.43-0.45,0.65-0.67c0.32-0.31,0.64-0.61,0.96-0.93c0.48-0.48,0.94-0.97,1.42-1.44
		c0.29-0.29,0.6-0.55,0.88-0.83c0.32-0.32,0.64-0.66,0.95-0.99c0.19-0.2,0.39-0.41,0.59-0.6c0.29-0.28,0.59-0.55,0.88-0.84
		c0.33-0.32,0.64-0.65,0.96-0.98c0.18-0.19,0.36-0.39,0.55-0.57c0.28-0.28,0.58-0.54,0.86-0.82c0.5-0.51,0.99-1.03,1.49-1.54
		c0.28-0.28,0.58-0.54,0.87-0.81c0.6-0.58,1.19-1.17,1.78-1.75c0.03-0.03,0.06-0.08,0.09-0.11c0.13-0.14,0.26-0.28,0.4-0.41
		C84.07,50.77,84.36,50.47,84.67,50.16z"/>
	<path d="M50.2,17.04c0.06,0.04,0.13,0.06,0.17,0.11c0.34,0.35,0.67,0.7,1.02,1.04c0.32,0.32,0.64,0.62,0.96,0.93
		c0.46,0.45,0.92,0.91,1.39,1.36c0.58,0.57,1.17,1.15,1.75,1.72c0.99,0.98,1.97,1.96,2.96,2.93c0.65,0.64,1.31,1.28,1.96,1.92
		c0.58,0.57,1.15,1.14,1.73,1.71c0.45,0.44,0.91,0.88,1.35,1.33c0.64,0.64,1.28,1.3,1.92,1.94c0.41,0.41,0.84,0.8,1.26,1.21
		c0.38,0.38,0.75,0.77,1.13,1.14c0.41,0.4,0.83,0.78,1.23,1.18c0.65,0.64,1.3,1.29,1.95,1.94c0.73,0.72,1.46,1.43,2.19,2.15
		c0.65,0.64,1.29,1.28,1.93,1.92c0.69,0.67,1.38,1.34,2.06,2.01c0.44,0.43,0.87,0.87,1.31,1.3c0.33,0.33,0.68,0.66,1.01,0.99
		c0.47,0.46,0.93,0.93,1.39,1.39c0.32,0.32,0.65,0.63,0.98,0.95c0.47,0.47,0.94,0.94,1.41,1.41c0.02,0.02,0.04,0.05,0.07,0.07
		c0.4,0.36,0.38,0.47-0.03,0.84c-0.38,0.34-0.72,0.72-1.09,1.07c-0.31,0.3-0.64,0.58-0.95,0.88c-0.3,0.29-0.57,0.59-0.86,0.89
		c-0.26,0.26-0.52,0.51-0.78,0.76c-0.11,0.11-0.21,0.22-0.32,0.33c-0.1,0.1-0.2,0.2-0.3,0.3c-0.33,0.32-0.66,0.64-0.99,0.96
		c-0.28,0.28-0.57,0.55-0.86,0.83c-0.08,0.08-0.16,0.16-0.23,0.24c-0.11,0.12-0.23,0.24-0.34,0.35c-0.32,0.31-0.64,0.62-0.96,0.93
		c-0.3,0.29-0.6,0.58-0.9,0.86c-0.01,0.01-0.01,0.01-0.02,0.02c-0.31,0.33-0.62,0.66-0.94,0.98c-0.19,0.19-0.39,0.36-0.58,0.54
		c-0.3,0.28-0.6,0.56-0.89,0.84c-0.31,0.31-0.61,0.63-0.91,0.94c-0.26,0.26-0.53,0.51-0.79,0.77c-0.34,0.34-0.68,0.7-1.02,1.04
		c-0.32,0.31-0.65,0.61-0.98,0.92c-0.42,0.4-0.83,0.8-1.24,1.2c-0.62,0.61-1.23,1.22-1.85,1.83c-0.27,0.27-0.53,0.56-0.81,0.83
		c-0.51,0.51-1.04,1-1.55,1.5c-0.29,0.29-0.57,0.59-0.87,0.88c-0.51,0.5-1.04,1-1.55,1.5c-0.29,0.29-0.57,0.59-0.86,0.88
		c-0.51,0.49-1.02,0.98-1.53,1.47c-0.27,0.27-0.52,0.56-0.79,0.83c-0.29,0.28-0.6,0.55-0.89,0.83c-0.3,0.29-0.58,0.59-0.88,0.88
		c-0.31,0.31-0.64,0.6-0.95,0.91c-0.22,0.21-0.44,0.42-0.65,0.64c-0.3,0.3-0.58,0.62-0.89,0.92c-0.29,0.29-0.59,0.56-0.89,0.84
		c-0.21,0.2-0.41,0.4-0.62,0.6c-0.3,0.3-0.59,0.61-0.89,0.91c-0.2,0.2-0.4,0.41-0.62,0.6c-0.04,0.03-0.17,0.02-0.22-0.03
		c-0.23-0.22-0.45-0.45-0.68-0.67c-0.36-0.36-0.73-0.7-1.1-1.06c-0.24-0.23-0.47-0.47-0.71-0.71c-0.34-0.34-0.68-0.69-1.03-1.03
		c-0.65-0.64-1.3-1.29-1.95-1.93c-0.4-0.39-0.81-0.76-1.2-1.15c-0.47-0.47-0.93-0.95-1.4-1.42c-0.5-0.5-1.01-0.98-1.51-1.48
		c-0.52-0.51-1.03-1.03-1.54-1.54c-0.59-0.59-1.19-1.18-1.79-1.76c-0.35-0.34-0.72-0.66-1.06-1c-0.36-0.35-0.69-0.73-1.04-1.09
		c-0.34-0.34-0.7-0.67-1.05-1.01c-0.23-0.22-0.46-0.45-0.69-0.67c-0.65-0.64-1.31-1.27-1.95-1.92c-0.65-0.64-1.29-1.3-1.94-1.94
		c-0.39-0.38-0.79-0.75-1.18-1.14c-0.46-0.46-0.92-0.92-1.38-1.38c-0.69-0.68-1.39-1.35-2.08-2.03c-0.35-0.34-0.67-0.71-1.02-1.05
		c-0.44-0.44-0.9-0.85-1.35-1.29c-0.35-0.35-0.69-0.71-1.04-1.06c-0.32-0.32-0.65-0.64-0.97-0.95c-0.26-0.26-0.53-0.51-0.79-0.77
		c-0.66-0.65-1.33-1.3-1.99-1.95c-0.28-0.28-0.55-0.56-0.83-0.83c-0.12-0.11-0.12-0.18,0.01-0.28c0.11-0.08,0.2-0.2,0.3-0.3
		c0.31-0.31,0.63-0.62,0.94-0.93c0.3-0.3,0.6-0.62,0.91-0.92c0.32-0.31,0.66-0.61,0.99-0.92c0.2-0.19,0.39-0.4,0.59-0.59
		c0.25-0.26,0.51-0.52,0.76-0.78c0.09-0.09,0.19-0.17,0.28-0.26c0.17-0.17,0.33-0.36,0.5-0.53c0.35-0.34,0.7-0.67,1.05-1
		c0.36-0.34,0.73-0.66,1.08-1c0.35-0.34,0.68-0.71,1.02-1.06c0.34-0.35,0.67-0.7,1.01-1.04c0.51-0.49,1.03-0.97,1.53-1.46
		c0.31-0.31,0.6-0.64,0.91-0.95c0.34-0.33,0.7-0.65,1.04-0.98c0.37-0.35,0.74-0.71,1.1-1.07c0.33-0.33,0.65-0.68,0.98-1.01
		c0.54-0.54,1.08-1.09,1.63-1.63c0.3-0.29,0.62-0.57,0.93-0.86c0.2-0.19,0.4-0.39,0.6-0.59c0.29-0.29,0.57-0.59,0.86-0.87
		c0.31-0.3,0.62-0.59,0.93-0.88c0.23-0.22,0.45-0.45,0.68-0.68c0.4-0.39,0.8-0.78,1.2-1.17c0.48-0.48,0.96-0.98,1.44-1.46
		c0.32-0.31,0.65-0.61,0.97-0.92c0.48-0.47,0.95-0.96,1.43-1.44c0.32-0.31,0.65-0.61,0.97-0.92c0.52-0.51,1.03-1.03,1.55-1.55
		c0.4-0.4,0.81-0.81,1.22-1.21c0.3-0.29,0.61-0.56,0.9-0.85c0.51-0.5,1-1.02,1.51-1.52c0.25-0.25,0.53-0.48,0.79-0.73
		c0.23-0.22,0.45-0.45,0.68-0.67C50.1,17.12,50.15,17.08,50.2,17.04z M69.6,40.51c-0.27-0.25-0.49-0.45-0.7-0.66
		c-0.36-0.37-0.72-0.75-1.08-1.12c-0.34-0.35-0.69-0.68-1.03-1.04c-0.07-0.07-0.12-0.19-0.12-0.3c-0.02-0.52-0.02-1.04-0.03-1.55
		c0-0.19-0.02-0.38-0.03-0.58c0-0.26,0.01-0.53,0.01-0.79c0-0.18-0.09-0.26-0.27-0.24c-0.22,0.02-0.43,0.03-0.65,0.03
		c-0.31,0-0.62-0.13-0.92,0.02c-0.05,0.02-0.11,0-0.17,0c-0.35-0.01-0.7-0.01-1.05-0.02c-0.09,0-0.21-0.04-0.28-0.1
		c-0.36-0.35-0.7-0.71-1.05-1.06c-0.73-0.73-1.47-1.46-2.2-2.2c-0.11-0.11-0.2-0.23-0.3-0.34c0.02-0.02,0.03-0.05,0.05-0.07
		c0.9,0.13,1.8,0.27,2.74,0.41c-0.17-0.18-0.3-0.33-0.43-0.47c-0.35-0.36-0.71-0.71-1.07-1.06c-0.35-0.34-0.71-0.68-1.07-1.02
		c-0.23-0.23-0.46-0.46-0.69-0.69c-0.35-0.35-0.69-0.71-1.04-1.06c-0.36-0.36-0.74-0.7-1.1-1.06c-0.44-0.43-0.87-0.88-1.31-1.31
		c-0.42-0.42-0.86-0.82-1.28-1.24c-0.43-0.42-0.85-0.85-1.28-1.27c-0.35-0.35-0.72-0.68-1.08-1.03c-0.38-0.37-0.74-0.75-1.11-1.13
		c-0.25-0.26-0.51-0.5-0.76-0.76c-0.1-0.1-0.18-0.07-0.26,0.02c-0.19,0.2-0.39,0.39-0.59,0.59c-0.5,0.51-1,1.02-1.51,1.53
		c-0.3,0.3-0.63,0.58-0.93,0.89c-0.5,0.49-0.98,1-1.48,1.5c-0.4,0.39-0.8,0.78-1.2,1.17c-0.35,0.33-0.7,0.66-1.04,1
		c-0.31,0.31-0.62,0.63-0.93,0.94c-0.31,0.31-0.63,0.62-0.95,0.93c-0.33,0.32-0.66,0.63-0.98,0.95c-0.24,0.23-0.48,0.47-0.71,0.71
		c-0.37,0.37-0.75,0.74-1.12,1.11c-0.1,0.1-0.18,0.22-0.28,0.34c0.01,0.02,0.02,0.05,0.04,0.07c0.78,0,1.57,0,2.39,0
		c-0.21,0.23-0.38,0.41-0.56,0.59c-0.32,0.31-0.64,0.61-0.96,0.93c-0.32,0.32-0.62,0.66-0.94,0.98c-0.34,0.34-0.69,0.68-1.04,1.01
		c-0.09,0.09-0.21,0.19-0.33,0.21c-0.3,0.04-0.6,0.04-0.9,0.05c-0.05,0-0.1-0.01-0.14-0.01c-0.49,0-0.97,0-1.47,0
		c-0.01,0.04-0.02,0.09-0.02,0.13c0.01,0.64,0.02,1.29,0.04,1.93c0.01,0.34-0.09,0.63-0.35,0.86c-0.29,0.25-0.57,0.51-0.84,0.78
		c-0.51,0.51-1.02,1.04-1.53,1.56c-0.19,0.19-0.38,0.39-0.58,0.57c-0.11,0.1-0.23,0.18-0.39,0.3c0.15-0.99,0.29-1.92,0.43-2.85
		c-0.33,0.24-0.63,0.5-0.9,0.78c-0.35,0.35-0.68,0.71-1.03,1.06c-0.35,0.35-0.71,0.7-1.07,1.04c-0.38,0.36-0.76,0.72-1.14,1.08
		c-0.35,0.34-0.69,0.68-1.03,1.02c-0.23,0.23-0.47,0.45-0.7,0.68c-0.35,0.35-0.68,0.72-1.03,1.07c-0.51,0.51-1.02,1.01-1.54,1.51
		c-0.1,0.1-0.2,0.19-0.3,0.28c-0.28,0.27-0.57,0.54-0.85,0.81c-0.17,0.17-0.34,0.34-0.51,0.51c-0.31,0.32-0.62,0.64-0.94,0.96
		c-0.21,0.22-0.42,0.43-0.64,0.64c-0.24,0.23-0.5,0.44-0.74,0.67c-0.1,0.09-0.18,0.2-0.25,0.32c-0.03,0.05-0.03,0.16,0,0.2
		c0.27,0.29,0.55,0.58,0.84,0.85c0.4,0.38,0.82,0.74,1.22,1.13c0.67,0.66,1.33,1.34,2,2.01c0.42,0.42,0.85,0.82,1.27,1.23
		c0.39,0.38,0.78,0.77,1.17,1.16c0.34,0.34,0.68,0.69,1.02,1.04c0.22,0.22,0.43,0.44,0.66,0.66c0.36,0.34,0.74,0.68,1.1,1.02
		c0.38,0.37,0.73,0.75,1.11,1.12c0.23,0.23,0.48,0.45,0.71,0.68c0.36,0.36,0.72,0.73,1.08,1.09c0.09,0.09,0.2,0.18,0.34,0.3
		c-0.12-1.01-0.35-1.94-0.4-2.89c0.04-0.02,0.07-0.04,0.11-0.07c0.24,0.26,0.46,0.53,0.71,0.78c0.92,0.93,1.85,1.85,2.79,2.77
		c0.16,0.16,0.21,0.33,0.2,0.54c-0.01,0.88,0,1.77-0.01,2.65c0,0.2,0.07,0.26,0.26,0.22c0.13-0.02,0.27-0.02,0.41-0.02
		c0.73,0,1.46-0.01,2.19,0c0.17,0,0.39,0.03,0.51,0.14c0.81,0.77,1.6,1.57,2.4,2.36c0.14,0.14,0.28,0.29,0.41,0.44
		c-0.01,0.03-0.02,0.05-0.03,0.08c-0.78,0-1.56,0-2.34,0c-0.01,0.02-0.03,0.05-0.04,0.07c3.99,3.94,7.99,7.87,12.02,11.85
		c4.21-4.15,8.4-8.27,12.62-12.44c-1.06,0.15-2.05,0.29-3.04,0.43c-0.01-0.03-0.02-0.06-0.03-0.08c0.12-0.1,0.25-0.18,0.36-0.29
		c0.44-0.45,0.87-0.91,1.31-1.36c0.34-0.35,0.7-0.68,1.05-1.01c0.09-0.08,0.2-0.17,0.31-0.18c0.27-0.03,0.54-0.02,0.82-0.02
		c0.89,0,1.78,0.01,2.67,0.01c0.32,0,0.4-0.08,0.39-0.41c-0.01-0.5-0.02-1-0.03-1.51c-0.01-0.51-0.06-1.02-0.03-1.53
		c0.02-0.32,0-0.68,0.3-0.93c0.12-0.1,0.26-0.18,0.37-0.3c0.31-0.31,0.6-0.64,0.9-0.95c0.35-0.37,0.7-0.73,1.06-1.09
		c0.11-0.11,0.24-0.19,0.39-0.31c0,0.27,0,0.48,0,0.69c-0.01,0.34-0.03,0.68-0.02,1.03c0,0.23,0.05,0.46,0.07,0.73
		c4.1-4.01,8.15-7.97,12.21-11.93C77.8,46,73.75,42,69.66,38.05c-0.02,0.02-0.04,0.03-0.07,0.05C69.6,38.88,69.6,39.67,69.6,40.51z"
		/>
	<path d="M35.02,64.76c0-0.94,0-1.88,0-2.82c0-0.98-0.02-1.96-0.03-2.94c0-0.55,0.02-1.11,0.02-1.66c0.01-0.93,0.01-1.86,0.02-2.79
		c0-0.79,0.01-1.57,0-2.36c-0.01-0.92-0.03-1.84-0.04-2.77c0-0.58,0.02-1.16,0.02-1.73c0-1.01-0.02-2.02-0.03-3.03
		c0-0.56,0.02-1.12,0.02-1.68c0-1.03-0.02-2.07-0.02-3.1c0-0.56,0.02-1.12,0.02-1.69c0.01-0.93,0.01-1.86,0.01-2.79
		c0-0.16-0.07-0.36,0-0.46c0.05-0.08,0.28-0.03,0.44-0.05c0.75-0.08,1.5-0.03,2.25-0.01c0.52,0.02,1.04-0.02,1.55-0.03
		c0.07,0,0.14-0.02,0.22-0.02c0.52,0.01,1.03,0.01,1.55,0.02c0.52,0.01,1.05,0.06,1.56,0.03c0.78-0.05,1.56-0.03,2.35,0
		c0.53,0.02,1.07-0.03,1.6-0.04c0.06,0,0.11-0.01,0.17-0.01c0.51,0.01,1.02,0.02,1.53,0.03c0.51,0.01,1.01,0.03,1.52,0.03
		c0.53-0.01,1.07-0.04,1.6-0.06c0.04,0,0.08,0,0.12,0c0.82,0,1.65,0,2.47,0c0.78,0,1.56,0,2.35,0c0.14,0,0.27,0.03,0.41,0.03
		c0.16,0,0.31-0.02,0.47-0.03c0.03,0,0.06-0.02,0.09-0.02c0.62,0.02,1.23,0.04,1.85,0.05c0.14,0,0.28-0.02,0.42-0.03
		c0.04,0,0.08-0.02,0.12-0.02c0.56,0.01,1.12,0.02,1.69,0.03c0.61,0.01,1.21,0.01,1.82,0.01c0.11,0,0.22-0.02,0.34-0.02
		c0.52,0.01,1.03,0.03,1.55,0.03c0.23,0,0.47-0.01,0.7-0.03c0.15-0.01,0.25,0.02,0.25,0.2c0,0.73,0,1.45,0,2.18
		c0,0.04-0.01,0.08,0,0.12c0.02,0.62,0.05,1.25,0.06,1.87c0,0.49-0.03,0.97-0.05,1.46c0,0.11,0.02,0.22,0.02,0.34
		c0,0.69-0.01,1.37-0.02,2.06c0,0.14,0.02,0.29,0.02,0.43c0.01,0.53,0.03,1.06,0.03,1.58c0.01,0.46,0,0.91,0,1.37c0,0.8,0,1.6,0,2.4
		c0,0.79,0,1.58,0,2.37c0,0.81,0,1.61,0,2.42c0,0.79,0,1.58,0,2.37c0,0.81,0,1.61,0,2.42c0,0.77,0,1.55,0,2.32c0,0.82,0,1.63,0,2.45
		c0,0.78,0,1.57,0,2.35c0,0.25-0.06,0.32-0.31,0.32c-0.9,0-1.8-0.01-2.69-0.01c-0.46,0-0.93,0.02-1.39,0.03
		c-0.22,0-0.45-0.02-0.67-0.02c-0.42-0.01-0.85-0.02-1.28-0.01c-0.61,0.01-1.22,0.03-1.83,0.03c-0.63,0-1.25-0.02-1.88-0.02
		c-0.5,0-1.01,0.02-1.51,0.02c-0.23,0-0.47-0.02-0.7-0.02c-0.42-0.01-0.85-0.02-1.27-0.02c-0.61,0.01-1.22,0.03-1.83,0.04
		c-0.38,0.01-0.77,0-1.15,0c-0.75,0-1.49,0-2.24,0c-0.23,0-0.47-0.01-0.7-0.02c-0.42-0.01-0.83-0.02-1.25-0.02
		c-0.62,0.01-1.23,0.03-1.85,0.04c-0.63,0-1.25-0.02-1.88-0.02c-0.5,0-0.99,0.02-1.49,0.02c-0.2,0-0.4-0.02-0.6-0.02
		c-0.43-0.01-0.87-0.01-1.3-0.01c-0.63,0.01-1.25,0.02-1.88,0.03c-0.38,0.01-0.75,0-1.13,0c-0.15,0-0.22-0.07-0.21-0.22
		c0.01-0.31,0-0.61,0-0.92C35.03,64.76,35.02,64.76,35.02,64.76z M49.53,42.89c0.01-0.05,0.03-0.1,0.03-0.16
		c-0.01-0.54-0.01-1.09-0.03-1.63c-0.02-0.37-0.01-0.76-0.11-1.12c-0.29-1.05-1.06-1.45-1.91-1.46c-0.38-0.01-0.76-0.03-1.14,0
		c-0.76,0.06-1.61,0.64-1.79,1.38c-0.09,0.38-0.25,0.76-0.14,1.18c0.02,0.06,0,0.13,0,0.19c-0.01,0.66-0.02,1.32-0.02,1.99
		c0,0.12,0.03,0.24,0.02,0.36c-0.02,0.56-0.05,1.12-0.05,1.67c-0.01,0.4,0.01,0.8,0.02,1.2c0.01,0.27,0.09,0.56,0.03,0.81
		c-0.09,0.4,0,0.77,0.07,1.14c0.09,0.45,0.26,0.87,0.63,1.19c0.44,0.38,0.97,0.43,1.51,0.49c0.38,0.05,0.76-0.01,1.14-0.05
		c0.5-0.05,0.87-0.31,1.17-0.64c0.48-0.54,0.55-1.25,0.59-1.94c0.03-0.51-0.01-1.02-0.02-1.53c0-0.22,0-0.45,0.02-0.67
		c0.03-0.3-0.02-0.35-0.32-0.34c-0.51,0.02-1.02,0.03-1.53,0.03c-0.12,0-0.18,0.02-0.18,0.15c0,0.42-0.01,0.83-0.02,1.25
		c0,0.43,0.01,0.87,0,1.3c-0.01,0.37-0.29,0.54-0.64,0.41c-0.22-0.08-0.33-0.24-0.34-0.48c0-0.33,0-0.66,0-0.99
		c0-0.55-0.01-1.11-0.01-1.66c0-0.53,0.03-1.06,0.03-1.59c0-0.85,0-1.7,0-2.55c0-0.27,0.17-0.43,0.44-0.43
		c0.4,0,0.59,0.28,0.56,0.78c-0.03,0.49-0.02,0.98-0.04,1.46c-0.01,0.16,0.06,0.22,0.21,0.22c0.4,0.01,0.8,0.02,1.2,0.02
		C49.12,42.9,49.32,42.89,49.53,42.89z M43.26,42.24c0-0.48,0-0.91,0-1.33c0-0.13-0.07-0.27-0.03-0.38c0.15-0.41-0.05-0.75-0.2-1.08
		c-0.18-0.41-0.5-0.72-0.95-0.81c-0.54-0.11-1.08-0.19-1.64-0.12c-0.46,0.06-0.86,0.2-1.26,0.43c-0.34,0.2-0.51,0.54-0.63,0.85
		c-0.14,0.35-0.1,0.76-0.13,1.15c-0.01,0.12-0.01,0.24-0.01,0.36c-0.03,0.65,0.1,1.27,0.39,1.85c0.37,0.74,0.98,1.29,1.53,1.89
		c0.28,0.31,0.57,0.62,0.78,0.97c0.32,0.54,0.21,1.15,0.18,1.74c0,0.06-0.02,0.14-0.06,0.18c-0.11,0.1-0.24,0.24-0.37,0.25
		c-0.14,0.01-0.39-0.08-0.43-0.18c-0.09-0.29-0.11-0.6-0.14-0.91c-0.01-0.14,0.03-0.28,0.03-0.42c0-0.24-0.04-0.48,0-0.71
		c0.03-0.19-0.01-0.25-0.19-0.25c-0.54,0-1.07-0.01-1.61-0.02c-0.17,0-0.2,0.09-0.2,0.23c0,0.52,0.01,1.05,0,1.57
		c-0.02,0.55,0.02,1.08,0.28,1.59c0.19,0.38,0.47,0.64,0.85,0.8c0.37,0.15,0.76,0.16,1.15,0.21c0.46,0.05,0.89-0.01,1.33-0.14
		c0.16-0.05,0.33-0.12,0.47-0.21c0.48-0.32,0.78-0.78,0.93-1.34c0.17-0.62,0.13-1.26,0.13-1.89c0-0.57-0.2-1.11-0.45-1.61
		c-0.28-0.55-0.72-1-1.13-1.45c-0.31-0.35-0.63-0.68-0.93-1.03c-0.38-0.44-0.54-0.95-0.5-1.54c0.04-0.54,0.02-0.53,0.52-0.62
		c0.18-0.03,0.26,0.05,0.31,0.19c0.03,0.11,0.04,0.22,0.04,0.33c0.01,0.42,0,0.84,0.02,1.25c0,0.07,0.08,0.19,0.13,0.19
		C42.05,42.24,42.64,42.24,43.26,42.24z M58.77,55.86c-0.29,0-0.6,0-0.91,0c-0.22,0-0.43-0.02-0.64-0.04
		c-0.04-0.01-0.09-0.09-0.1-0.15c-0.01-0.09,0.01-0.19,0-0.29c-0.01-0.6-0.03-1.2-0.04-1.81c0-0.06,0.07-0.18,0.12-0.19
		c0.27-0.03,0.53-0.05,0.8-0.05c0.33,0,0.66,0.02,0.98,0.02c0.43-0.01,0.44-0.02,0.45-0.45c0-0.06,0-0.11,0-0.17
		c0.01-0.37,0.02-0.73,0.01-1.1c0-0.07-0.08-0.18-0.13-0.19c-0.28-0.03-0.56-0.04-0.84-0.04c-0.54,0-1.09,0.03-1.63,0.03
		c-0.48,0-0.96-0.02-1.44-0.02c-0.32,0-0.32,0-0.31,0.33c0.01,1.21,0.02,2.43,0.02,3.64c0,0.99-0.01,1.98-0.01,2.97
		c0,1.26-0.01,2.52-0.01,3.79c0,0.18,0.03,0.36,0.04,0.56c0.62,0,1.22,0,1.83,0c0.12,0,0.17-0.03,0.17-0.17c0-0.77,0.01-1.54,0-2.31
		c-0.01-0.63-0.03-1.25-0.05-1.88c0-0.1,0.01-0.21,0.04-0.31c0.03-0.06,0.11-0.14,0.17-0.15c0.34-0.01,0.67,0,1.01,0
		c0.13,0,0.26-0.01,0.38-0.03c0.05-0.01,0.11-0.08,0.12-0.12c0.03-0.27,0.06-0.53,0.05-0.8C58.84,56.59,58.8,56.24,58.77,55.86z
		 M51.42,38.63c0,0.01,0,0.01,0,0.02c-0.14,0-0.29,0.02-0.43,0c-0.2-0.03-0.25,0.05-0.25,0.24c0,0.64-0.01,1.28-0.01,1.92
		c0,0.8,0,1.6,0,2.4c0.01,0.64,0.03,1.28,0.04,1.92c0,0.05,0,0.1-0.01,0.14c-0.02,0.6-0.05,1.2-0.06,1.8
		c-0.01,0.45,0.02,0.9,0.03,1.34c0.01,0.44,0.01,0.88,0.01,1.32c0,0.17,0.08,0.23,0.26,0.23c0.54-0.01,1.07,0,1.61-0.01
		c0.05,0,0.14-0.09,0.15-0.14c0.01-0.19,0-0.38,0-0.57c0-0.81,0-1.62,0-2.43c0-0.79,0-1.59,0-2.38c0-0.82,0-1.65,0-2.47
		c0-0.83,0-1.65,0-2.48c0-0.2-0.01-0.4,0.02-0.6c0.02-0.2-0.06-0.24-0.23-0.24C52.18,38.64,51.8,38.63,51.42,38.63z M61.77,62.72
		C61.77,62.72,61.77,62.72,61.77,62.72c0.18,0,0.35,0,0.53,0c0.21,0,0.29-0.08,0.28-0.31c-0.02-0.43-0.01-0.86-0.01-1.3
		c0.01-0.59,0.02-1.19,0.02-1.78c0-0.99-0.02-1.97-0.02-2.96c0-0.6,0.03-1.2,0.02-1.81c0-0.99-0.02-1.97-0.02-2.96
		c0-0.14-0.04-0.21-0.19-0.21c-0.49,0-0.97-0.01-1.46,0c-0.32,0.01-0.39,0.09-0.4,0.42c0,0.06,0.01,0.11,0.01,0.17
		c0.01,0.2,0.04,0.4,0.04,0.6c0,0.65-0.02,1.31-0.02,1.96c0,0.14,0.03,0.29,0.03,0.43c-0.01,0.66-0.02,1.32-0.02,1.99
		c0,0.14,0.03,0.27,0.03,0.41c-0.01,0.55-0.04,1.1-0.05,1.65c-0.01,0.42,0.01,0.83,0.02,1.25c0.01,0.26,0.04,0.51,0.04,0.77
		c-0.01,0.48-0.03,0.96-0.05,1.43c-0.01,0.16,0.05,0.24,0.22,0.24C61.1,62.71,61.43,62.72,61.77,62.72z M38.96,56.85
		c0,0.38,0.02,0.72-0.01,1.06c-0.02,0.24,0.09,0.3,0.28,0.3c0.34-0.01,0.67-0.03,1-0.03c0.49,0,0.98,0.04,1.47,0.03
		c0.65-0.01,1.3,0.04,1.95-0.03c0.46-0.05,0.92-0.01,1.39,0c0.5,0.01,1,0.04,1.5,0.03c0.63-0.02,1.27,0.05,1.9-0.03
		c0.46-0.05,0.92-0.01,1.39,0c0.5,0.01,1,0.03,1.5,0.03c0.33,0,0.67-0.03,1-0.01c0.19,0.01,0.25-0.05,0.24-0.22
		c-0.01-0.27-0.04-0.53-0.04-0.8c0-0.33,0.01-0.33-0.34-0.33c-1.38,0-2.76,0.01-4.15,0.01c-1.46,0-2.93-0.01-4.39-0.01
		c-1.14,0-2.28,0-3.42,0.01C39.83,56.85,39.41,56.85,38.96,56.85z M54.86,44.12c0.01,0.12,0.02,0.26,0.02,0.4
		c0,0.14-0.03,0.29-0.03,0.43c0,0.5,0.02,0.51,0.53,0.51c0.78,0,1.55,0,2.33,0c0.86,0,1.71,0,2.57,0c0.38,0,0.75,0,1.13,0
		c0.41,0,0.82,0,1.22,0c0.14,0,0.18-0.06,0.18-0.19c0-0.33,0.01-0.65,0.01-0.98c0-0.06-0.06-0.18-0.1-0.18
		c-0.27-0.03-0.54-0.05-0.81-0.04c-0.61,0.01-1.21,0.05-1.82,0.05c-0.54,0.01-1.09-0.02-1.63-0.03c-0.15,0-0.31-0.02-0.46-0.01
		c-0.45,0.01-0.89,0.03-1.34,0.04C56.07,44.13,55.48,44.12,54.86,44.12z"/>
	<path d="M34.34,60.19c-1.98-1.96-3.96-3.92-5.95-5.89c-0.02,0.01-0.04,0.02-0.06,0.03c0.12,0.95,0.23,1.89,0.35,2.84
		c-0.03,0.01-0.05,0.02-0.08,0.03c-0.17-0.13-0.36-0.25-0.52-0.39c-0.64-0.55-1.26-1.11-1.91-1.64c-0.71-0.59-1.44-1.14-2.15-1.72
		c-0.7-0.58-1.39-1.19-2.08-1.78c-0.54-0.46-1.09-0.92-1.64-1.37c-0.25-0.21-0.25-0.29,0.01-0.48c0.15-0.11,0.27-0.27,0.42-0.39
		c0.33-0.26,0.67-0.5,1-0.77c0.28-0.23,0.54-0.49,0.82-0.72c0.38-0.33,0.77-0.64,1.15-0.97c0.54-0.46,1.08-0.94,1.63-1.4
		c0.49-0.41,1.01-0.8,1.5-1.21c0.38-0.32,0.75-0.65,1.12-0.97c0.18-0.16,0.35-0.32,0.54-0.47c0.09-0.07,0.19-0.13,0.29-0.19
		c0.02,0.01,0.04,0.02,0.07,0.03c-0.1,0.93-0.21,1.85-0.31,2.78c0.03,0.02,0.06,0.04,0.08,0.05c1.91-1.89,3.82-3.78,5.73-5.67
		c0.02,0.01,0.04,0.02,0.06,0.04c0,6.73,0,13.46,0,20.19C34.38,60.16,34.36,60.18,34.34,60.19z"/>
	<path d="M57.32,28.57c-0.91-0.1-1.83-0.19-2.74-0.29c-0.01,0.02-0.03,0.03-0.04,0.05c1.89,1.96,3.82,3.87,5.77,5.85
		c-0.15,0.05-0.26,0.12-0.36,0.12c-0.52,0-1.04-0.03-1.56-0.03c-0.25,0-0.5,0.03-0.75,0.03c-0.15,0-0.3-0.03-0.45-0.04
		c-0.54-0.02-1.07-0.04-1.61-0.04c-0.53,0-1.06,0.04-1.59,0.06c-0.09,0-0.18,0-0.26-0.01c-0.29-0.01-0.58-0.1-0.88,0.02
		c-0.14,0.06-0.33-0.03-0.5-0.03c-0.51-0.02-1.02-0.04-1.54-0.04c-0.53,0-1.06,0.04-1.6,0.06c-0.1,0-0.21-0.01-0.31-0.01
		c-0.28,0-0.55-0.11-0.83,0.02c-0.09,0.04-0.22-0.02-0.33-0.03c-0.59-0.02-1.19-0.09-1.78-0.03c-0.66,0.07-1.32-0.02-1.98,0.02
		c-0.23,0.02-0.46,0.04-0.68,0.04c-0.27,0-0.54-0.03-0.82-0.04c-0.42-0.02-0.85-0.04-1.27-0.03c-0.34,0-0.67,0.04-1.01,0.07
		c-0.01-0.03-0.03-0.06-0.04-0.09c2.02-2,4.03-4,6.05-6c-0.01-0.02-0.02-0.04-0.03-0.06c-0.99,0.06-1.98,0.12-3.03,0.18
		c0.17-0.22,0.32-0.42,0.48-0.61c0.28-0.33,0.55-0.66,0.83-0.99c0.16-0.19,0.33-0.39,0.49-0.58c0.3-0.35,0.6-0.7,0.9-1.05
		c0.31-0.38,0.61-0.77,0.93-1.15c0.24-0.29,0.5-0.55,0.74-0.84c0.27-0.32,0.53-0.66,0.8-0.98c0.29-0.35,0.61-0.68,0.9-1.03
		c0.25-0.3,0.49-0.61,0.72-0.93c0.18-0.25,0.25-0.26,0.45-0.02c0.46,0.54,0.93,1.07,1.4,1.61c0.36,0.42,0.7,0.86,1.05,1.28
		c0.37,0.43,0.74,0.86,1.11,1.29c0.17,0.2,0.31,0.4,0.48,0.6c0.49,0.58,0.99,1.15,1.47,1.73c0.36,0.44,0.71,0.89,1.07,1.33
		c0.14,0.17,0.29,0.33,0.43,0.49C57.35,28.51,57.34,28.54,57.32,28.57z"/>
	<path d="M40.77,66.47c0.19,0,0.38,0,0.56,0c0.58,0.01,1.16,0.02,1.73,0.02c0.66,0,1.32-0.02,1.97-0.02c0.72,0,1.44,0,2.17,0
		c1,0.01,1.99,0.02,2.99,0.02c0.91,0,1.83-0.02,2.74-0.02c0.67,0,1.33,0.02,2,0.02c0.65,0,1.3-0.02,1.95-0.02
		c0.51,0,1.03,0.02,1.54,0.03c0.35,0,0.7,0,1.13,0c-1.69,1.71-3.35,3.39-5.01,5.06c0.01,0.02,0.03,0.04,0.04,0.06
		c0.93-0.1,1.87-0.2,2.8-0.3c0.01,0.03,0.02,0.05,0.03,0.08c-0.39,0.47-0.79,0.93-1.17,1.4c-0.3,0.36-0.59,0.73-0.89,1.09
		c-0.44,0.52-0.9,1.03-1.34,1.55c-0.42,0.51-0.83,1.03-1.25,1.54c-0.1,0.12-0.21,0.22-0.31,0.33c-0.08,0.1-0.15,0.2-0.22,0.31
		c-0.04,0.05-0.07,0.11-0.11,0.16c-0.46,0.53-0.93,1.07-1.39,1.6c-0.14,0.17-0.27,0.36-0.42,0.52c-0.17,0.19-0.3,0.18-0.46-0.02
		c-0.73-0.86-1.45-1.71-2.18-2.57c-0.41-0.49-0.83-0.97-1.24-1.47c-0.36-0.43-0.69-0.88-1.05-1.31c-0.58-0.69-1.17-1.38-1.76-2.07
		c-0.19-0.23-0.38-0.46-0.62-0.74c1.06,0.06,2.07,0.12,3.07,0.18c0.01-0.02,0.02-0.04,0.03-0.05c-1.78-1.77-3.57-3.53-5.35-5.3
		C40.77,66.53,40.77,66.5,40.77,66.47z"/>
	<path d="M71.82,42.88c0.3,0.24,0.56,0.44,0.82,0.65c0.58,0.47,1.16,0.94,1.72,1.42c0.53,0.45,1.04,0.92,1.57,1.37
		c0.41,0.35,0.85,0.68,1.27,1.03c0.45,0.37,0.89,0.76,1.33,1.14c0.42,0.36,0.84,0.71,1.27,1.07c0.13,0.11,0.27,0.2,0.39,0.32
		c0.03,0.03,0.02,0.16-0.02,0.19c-0.45,0.38-0.91,0.75-1.36,1.13c-0.34,0.29-0.66,0.59-1,0.87c-0.54,0.45-1.1,0.88-1.64,1.33
		c-0.29,0.24-0.56,0.52-0.85,0.76c-0.33,0.28-0.67,0.54-1,0.82c-0.28,0.23-0.56,0.48-0.84,0.71c-0.39,0.33-0.79,0.64-1.18,0.98
		c-0.14,0.12-0.24,0.26-0.41,0.45c0-0.19,0-0.31,0-0.43c0.01-0.55,0.02-1.11,0.04-1.66c0.01-0.26,0.05-0.52,0.06-0.78
		c0.01-0.07-0.02-0.15-0.03-0.26c-1.79,1.8-3.54,3.57-5.29,5.34c-0.02-0.01-0.03-0.02-0.05-0.03c0.01-0.19,0.03-0.37,0.02-0.56
		c-0.01-0.62-0.03-1.25-0.05-1.87c-0.01-0.33-0.02-0.67-0.01-1c0.01-0.56,0.04-1.11,0.06-1.67c0-0.13-0.02-0.26-0.02-0.38
		c-0.01-0.57-0.03-1.13-0.04-1.7c-0.01-0.35-0.02-0.7-0.01-1.05c0.01-0.56,0.04-1.11,0.07-1.67c0-0.1-0.01-0.19-0.02-0.29
		c-0.02-0.6-0.03-1.2-0.04-1.8c-0.01-0.34-0.01-0.68,0-1.03c0.01-0.56,0.04-1.11,0.06-1.67c0-0.1-0.02-0.21-0.02-0.31
		c-0.02-0.59-0.03-1.18-0.04-1.77c-0.01-0.34-0.01-0.68,0-1.03c0.01-0.27,0.05-0.55,0.07-0.8c1.74,1.71,3.5,3.43,5.3,5.19
		C71.92,44.87,71.87,43.91,71.82,42.88z"/>
</g>
</svg>
